M48
; DRILL file {KiCad (5.1.12-1-10_14)} date Sunday, October 16, 2022 at 05:34:37 PM
; FORMAT={-:-/ absolute / metric / decimal}
; #@! TF.CreationDate,2022-10-16T17:34:37-04:00
; #@! TF.GenerationSoftware,Kicad,Pcbnew,(5.1.12-1-10_14)
; #@! TF.FileFunction,Plated,1,2,PTH
FMAT,2
METRIC
T1C0.400
T2C1.100
%
G90
G05
T1
X27.9Y-109.705
X31.21Y-93.06
X36.12Y-74.63
X48.22Y-110.01
X50.7Y-94.2
X55.606Y-75.986
X59.41Y-79.61
X67.6Y-109.98
X70.07Y-94.98
X74.45Y-76.81
X78.87Y-80.785
X85.65Y-113.8
X87.93Y-133.53
X89.86Y-96.07
X94.43Y-77.46
X96.83Y-89.63
X97.29Y-147.82
X102.92Y-123.26
X107.23Y-104.79
X111.5Y-86.76
X114.86Y-152.69
X115.39Y-98.8
X119.36Y-132.54
X123.87Y-113.5
X128.76Y-95.98
X132.53Y-161.41
X133.77Y-136.03
X138.43Y-117.665
X140.64Y-116.1
X140.64Y-126.8
X143.05Y-101.36
X143.09Y-95.465
X143.81Y-103.93
X144.665Y-124.431
X144.67Y-106.37
X145.63Y-108.89
X145.65Y-125.5
X153.33Y-112.5
X156.8Y-126.23
X161.45Y-85.88
X175.33Y-154.13
X176.07Y-130.48
X176.09Y-137.48
X178.32Y-129.1
X179.06Y-91.72
X180.769Y-89.88
X185.14Y-110.11
X187.85Y-129.18
X188.14Y-126.84
X190.4Y-128.94
X195.67Y-148.45
X195.868Y-132.537
X195.94Y-107.93
X198.124Y-81.78
X198.13Y-83.25
X202.22Y-101.61
X208.9Y-119.89
X214.78Y-143.42
X215.31Y-74.37
X219.76Y-92.77
X222.46Y-90.59
X224.63Y-110.59
X234.85Y-72.92
X239.46Y-92.08
X244.37Y-109.16
X246.2Y-105.32
X254.21Y-71.5
X259.11Y-90.32
X262.47Y-98.56
X263.72Y-108.24
X273.7Y-70.97
X277.93Y-89.61
X283.43Y-106.87
T2
X140.18Y-80.95
X140.18Y-83.49
X140.18Y-86.03
X140.18Y-88.57
X140.18Y-91.11
X140.18Y-93.65
X140.18Y-96.19
X140.18Y-98.73
X140.18Y-101.27
X140.18Y-103.81
X140.18Y-106.35
X140.18Y-108.89
X155.42Y-80.95
X155.42Y-83.49
X155.42Y-86.03
X155.42Y-88.57
X155.42Y-91.11
X155.42Y-93.65
X155.42Y-96.19
X155.42Y-98.73
X155.42Y-101.27
X155.42Y-103.81
X155.42Y-106.35
X155.42Y-108.89
T0
M30
