G04 #@! TF.GenerationSoftware,KiCad,Pcbnew,(5.1.12-1-10_14)*
G04 #@! TF.CreationDate,2022-10-16T17:34:36-04:00*
G04 #@! TF.ProjectId,ergo3by6plus3nonSplit,6572676f-3362-4793-9670-6c7573336e6f,rev?*
G04 #@! TF.SameCoordinates,Original*
G04 #@! TF.FileFunction,Legend,Top*
G04 #@! TF.FilePolarity,Positive*
%FSLAX46Y46*%
G04 Gerber Fmt 4.6, Leading zero omitted, Abs format (unit mm)*
G04 Created by KiCad (PCBNEW (5.1.12-1-10_14)) date 2022-10-16 17:34:36*
%MOMM*%
%LPD*%
G01*
G04 APERTURE LIST*
%ADD10C,0.120000*%
%ADD11C,0.150000*%
%ADD12R,1.550000X1.300000*%
%ADD13C,0.100000*%
%ADD14C,1.750000*%
%ADD15C,4.000000*%
%ADD16C,3.050000*%
G04 APERTURE END LIST*
D10*
X151010000Y-114170000D02*
X151010000Y-114200000D01*
X151010000Y-120630000D02*
X151010000Y-120600000D01*
X144550000Y-120630000D02*
X144550000Y-120600000D01*
X144550000Y-114200000D02*
X144550000Y-114170000D01*
X151010000Y-116100000D02*
X151010000Y-118700000D01*
X144550000Y-114170000D02*
X151010000Y-114170000D01*
X144550000Y-116100000D02*
X144550000Y-118700000D01*
X144550000Y-120630000D02*
X151010000Y-120630000D01*
X210967848Y-145296417D02*
X211485486Y-147228269D01*
X211485486Y-147228269D02*
X215252597Y-146218874D01*
X210967848Y-145296417D02*
X214734959Y-144287023D01*
X192157848Y-150316417D02*
X192675486Y-152248269D01*
X192675486Y-152248269D02*
X196442597Y-151238874D01*
X192157848Y-150316417D02*
X195924959Y-149307023D01*
X172141443Y-156298975D02*
X173141443Y-158031025D01*
X173141443Y-158031025D02*
X176518942Y-156081025D01*
X172141443Y-156298975D02*
X175518942Y-154348975D01*
X129311443Y-159958975D02*
X128311443Y-161691025D01*
X128311443Y-161691025D02*
X131688942Y-163641025D01*
X129311443Y-159958975D02*
X132688942Y-161908975D01*
X111725486Y-152461731D02*
X111207848Y-154393583D01*
X111207848Y-154393583D02*
X114974959Y-155402977D01*
X111725486Y-152461731D02*
X115492597Y-153471126D01*
X93075486Y-147581731D02*
X92557848Y-149513583D01*
X92557848Y-149513583D02*
X96324959Y-150522977D01*
X93075486Y-147581731D02*
X96842597Y-148591126D01*
X279587848Y-108566417D02*
X280105486Y-110498269D01*
X280105486Y-110498269D02*
X283872597Y-109488874D01*
X279587848Y-108566417D02*
X283354959Y-107557023D01*
X259477848Y-109766417D02*
X259995486Y-111698269D01*
X259995486Y-111698269D02*
X263762597Y-110688874D01*
X259477848Y-109766417D02*
X263244959Y-108757023D01*
X241057848Y-110716417D02*
X241575486Y-112648269D01*
X241575486Y-112648269D02*
X245342597Y-111638874D01*
X241057848Y-110716417D02*
X244824959Y-109707023D01*
X220957848Y-111976417D02*
X221475486Y-113908269D01*
X221475486Y-113908269D02*
X225242597Y-112898874D01*
X220957848Y-111976417D02*
X224724959Y-110967023D01*
X204277848Y-121146417D02*
X204795486Y-123078269D01*
X204795486Y-123078269D02*
X208562597Y-122068874D01*
X204277848Y-121146417D02*
X208044959Y-120137023D01*
X186617848Y-130126417D02*
X187135486Y-132058269D01*
X187135486Y-132058269D02*
X190902597Y-131048874D01*
X186617848Y-130126417D02*
X190384959Y-129117023D01*
X115925486Y-131991731D02*
X115407848Y-133923583D01*
X115407848Y-133923583D02*
X119174959Y-134932977D01*
X115925486Y-131991731D02*
X119692597Y-133001126D01*
X99665486Y-123291731D02*
X99147848Y-125223583D01*
X99147848Y-125223583D02*
X102914959Y-126232977D01*
X99665486Y-123291731D02*
X103432597Y-124301126D01*
X82265486Y-113821731D02*
X81747848Y-115753583D01*
X81747848Y-115753583D02*
X85514959Y-116762977D01*
X82265486Y-113821731D02*
X86032597Y-114831126D01*
X62555486Y-112671731D02*
X62037848Y-114603583D01*
X62037848Y-114603583D02*
X65804959Y-115612977D01*
X62555486Y-112671731D02*
X66322597Y-113681126D01*
X42955486Y-111521731D02*
X42437848Y-113453583D01*
X42437848Y-113453583D02*
X46204959Y-114462977D01*
X42955486Y-111521731D02*
X46722597Y-112531126D01*
X23345486Y-110371731D02*
X22827848Y-112303583D01*
X22827848Y-112303583D02*
X26594959Y-113312977D01*
X23345486Y-110371731D02*
X27112597Y-111381126D01*
X275027848Y-90936417D02*
X275545486Y-92868269D01*
X275545486Y-92868269D02*
X279312597Y-91858874D01*
X275027848Y-90936417D02*
X278794959Y-89927023D01*
X255127848Y-91806417D02*
X255645486Y-93738269D01*
X255645486Y-93738269D02*
X259412597Y-92728874D01*
X255127848Y-91806417D02*
X258894959Y-90797023D01*
X235517848Y-92966417D02*
X236035486Y-94898269D01*
X236035486Y-94898269D02*
X239802597Y-93888874D01*
X235517848Y-92966417D02*
X239284959Y-91957023D01*
X216197848Y-93926417D02*
X216715486Y-95858269D01*
X216715486Y-95858269D02*
X220482597Y-94848874D01*
X216197848Y-93926417D02*
X219964959Y-92917023D01*
X198717848Y-102916417D02*
X199235486Y-104848269D01*
X199235486Y-104848269D02*
X203002597Y-103838874D01*
X198717848Y-102916417D02*
X202484959Y-101907023D01*
X181527848Y-111606417D02*
X182045486Y-113538269D01*
X182045486Y-113538269D02*
X185812597Y-112528874D01*
X181527848Y-111606417D02*
X185294959Y-110597023D01*
X120765486Y-113281731D02*
X120247848Y-115213583D01*
X120247848Y-115213583D02*
X124014959Y-116222977D01*
X120765486Y-113281731D02*
X124532597Y-114291126D01*
X103665486Y-104601731D02*
X103147848Y-106533583D01*
X103147848Y-106533583D02*
X106914959Y-107542977D01*
X103665486Y-104601731D02*
X107432597Y-105611126D01*
X86425486Y-96021731D02*
X85907848Y-97953583D01*
X85907848Y-97953583D02*
X89674959Y-98962977D01*
X86425486Y-96021731D02*
X90192597Y-97031126D01*
X66775486Y-94731731D02*
X66257848Y-96663583D01*
X66257848Y-96663583D02*
X70024959Y-97672977D01*
X66775486Y-94731731D02*
X70542597Y-95741126D01*
X47385486Y-93701731D02*
X46867848Y-95633583D01*
X46867848Y-95633583D02*
X50634959Y-96642977D01*
X47385486Y-93701731D02*
X51152597Y-94711126D01*
X28165486Y-92671731D02*
X27647848Y-94603583D01*
X27647848Y-94603583D02*
X31414959Y-95612977D01*
X28165486Y-92671731D02*
X31932597Y-93681126D01*
X269907848Y-72096417D02*
X270425486Y-74028269D01*
X270425486Y-74028269D02*
X274192597Y-73018874D01*
X269907848Y-72096417D02*
X273674959Y-71087023D01*
X250487848Y-73456417D02*
X251005486Y-75388269D01*
X251005486Y-75388269D02*
X254772597Y-74378874D01*
X250487848Y-73456417D02*
X254254959Y-72447023D01*
X231177848Y-74316417D02*
X231695486Y-76248269D01*
X231695486Y-76248269D02*
X235462597Y-75238874D01*
X231177848Y-74316417D02*
X234944959Y-73307023D01*
X211467848Y-75676417D02*
X211985486Y-77608269D01*
X211985486Y-77608269D02*
X215752597Y-76598874D01*
X211467848Y-75676417D02*
X215234959Y-74667023D01*
X194177848Y-84366417D02*
X194695486Y-86298269D01*
X194695486Y-86298269D02*
X198462597Y-85288874D01*
X194177848Y-84366417D02*
X197944959Y-83357023D01*
X176407848Y-92966417D02*
X176925486Y-94898269D01*
X176925486Y-94898269D02*
X180692597Y-93888874D01*
X176407848Y-92966417D02*
X180174959Y-91957023D01*
X125715486Y-94991731D02*
X125197848Y-96923583D01*
X125197848Y-96923583D02*
X128964959Y-97932977D01*
X125715486Y-94991731D02*
X129482597Y-96001126D01*
X108475486Y-86151731D02*
X107957848Y-88083583D01*
X107957848Y-88083583D02*
X111724959Y-89092977D01*
X108475486Y-86151731D02*
X112242597Y-87161126D01*
X91655486Y-77571731D02*
X91137848Y-79503583D01*
X91137848Y-79503583D02*
X94904959Y-80512977D01*
X91655486Y-77571731D02*
X95422597Y-78581126D01*
X71575486Y-76371731D02*
X71057848Y-78303583D01*
X71057848Y-78303583D02*
X74824959Y-79312977D01*
X71575486Y-76371731D02*
X75342597Y-77381126D01*
X52085486Y-75341731D02*
X51567848Y-77273583D01*
X51567848Y-77273583D02*
X55334959Y-78282977D01*
X52085486Y-75341731D02*
X55852597Y-76351126D01*
X32595486Y-74071731D02*
X32077848Y-76003583D01*
X32077848Y-76003583D02*
X35844959Y-77012977D01*
X32595486Y-74071731D02*
X36362597Y-75081126D01*
X118445689Y-139404542D02*
X104729542Y-135729311D01*
X114770458Y-153120689D02*
X118445689Y-139404542D01*
X101054311Y-149445458D02*
X114770458Y-153120689D01*
X104729542Y-135729311D02*
X101054311Y-149445458D01*
X209290458Y-130794311D02*
X195574311Y-134469542D01*
X212965689Y-144510458D02*
X209290458Y-130794311D01*
X199249542Y-148185689D02*
X212965689Y-144510458D01*
X195574311Y-134469542D02*
X199249542Y-148185689D01*
X190870458Y-135724311D02*
X177154311Y-139399542D01*
X194545689Y-149440458D02*
X190870458Y-135724311D01*
X180829542Y-153115689D02*
X194545689Y-149440458D01*
X177154311Y-139399542D02*
X180829542Y-153115689D01*
X100045689Y-134469542D02*
X86329542Y-130794311D01*
X96370458Y-148185689D02*
X100045689Y-134469542D01*
X82654311Y-144510458D02*
X96370458Y-148185689D01*
X86329542Y-130794311D02*
X82654311Y-144510458D01*
X278800458Y-93764311D02*
X265084311Y-97439542D01*
X282475689Y-107480458D02*
X278800458Y-93764311D01*
X268759542Y-111155689D02*
X282475689Y-107480458D01*
X265084311Y-97439542D02*
X268759542Y-111155689D01*
X259380458Y-94874311D02*
X245664311Y-98549542D01*
X263055689Y-108590458D02*
X259380458Y-94874311D01*
X249339542Y-112265689D02*
X263055689Y-108590458D01*
X245664311Y-98549542D02*
X249339542Y-112265689D01*
X239960458Y-95934311D02*
X226244311Y-99609542D01*
X243635689Y-109650458D02*
X239960458Y-95934311D01*
X229919542Y-113325689D02*
X243635689Y-109650458D01*
X226244311Y-99609542D02*
X229919542Y-113325689D01*
X220495458Y-97004311D02*
X206779311Y-100679542D01*
X224170689Y-110720458D02*
X220495458Y-97004311D01*
X210454542Y-114395689D02*
X224170689Y-110720458D01*
X206779311Y-100679542D02*
X210454542Y-114395689D01*
X203145458Y-105794311D02*
X189429311Y-109469542D01*
X206820689Y-119510458D02*
X203145458Y-105794311D01*
X193104542Y-123185689D02*
X206820689Y-119510458D01*
X189429311Y-109469542D02*
X193104542Y-123185689D01*
X185790458Y-114584311D02*
X172074311Y-118259542D01*
X189465689Y-128300458D02*
X185790458Y-114584311D01*
X175749542Y-131975689D02*
X189465689Y-128300458D01*
X172074311Y-118259542D02*
X175749542Y-131975689D01*
X123545689Y-118279542D02*
X109829542Y-114604311D01*
X119870458Y-131995689D02*
X123545689Y-118279542D01*
X106154311Y-128320458D02*
X119870458Y-131995689D01*
X109829542Y-114604311D02*
X106154311Y-128320458D01*
X106175689Y-109489542D02*
X92459542Y-105814311D01*
X102500458Y-123205689D02*
X106175689Y-109489542D01*
X88784311Y-119530458D02*
X102500458Y-123205689D01*
X92459542Y-105814311D02*
X88784311Y-119530458D01*
X88820689Y-100679542D02*
X75104542Y-97004311D01*
X85145458Y-114395689D02*
X88820689Y-100679542D01*
X71429311Y-110720458D02*
X85145458Y-114395689D01*
X75104542Y-97004311D02*
X71429311Y-110720458D01*
X69385689Y-99609542D02*
X55669542Y-95934311D01*
X65710458Y-113325689D02*
X69385689Y-99609542D01*
X51994311Y-109650458D02*
X65710458Y-113325689D01*
X55669542Y-95934311D02*
X51994311Y-109650458D01*
X49955689Y-98549542D02*
X36239542Y-94874311D01*
X46280458Y-112265689D02*
X49955689Y-98549542D01*
X32564311Y-108590458D02*
X46280458Y-112265689D01*
X36239542Y-94874311D02*
X32564311Y-108590458D01*
X30520689Y-97429542D02*
X16804542Y-93754311D01*
X26845458Y-111145689D02*
X30520689Y-97429542D01*
X13129311Y-107470458D02*
X26845458Y-111145689D01*
X16804542Y-93754311D02*
X13129311Y-107470458D01*
X273880458Y-75354311D02*
X260164311Y-79029542D01*
X277555689Y-89070458D02*
X273880458Y-75354311D01*
X263839542Y-92745689D02*
X277555689Y-89070458D01*
X260164311Y-79029542D02*
X263839542Y-92745689D01*
X254420458Y-76429311D02*
X240704311Y-80104542D01*
X258095689Y-90145458D02*
X254420458Y-76429311D01*
X244379542Y-93820689D02*
X258095689Y-90145458D01*
X240704311Y-80104542D02*
X244379542Y-93820689D01*
X235020458Y-77529311D02*
X221304311Y-81204542D01*
X238695689Y-91245458D02*
X235020458Y-77529311D01*
X224979542Y-94920689D02*
X238695689Y-91245458D01*
X221304311Y-81204542D02*
X224979542Y-94920689D01*
X215570458Y-78629311D02*
X201854311Y-82304542D01*
X219245689Y-92345458D02*
X215570458Y-78629311D01*
X205529542Y-96020689D02*
X219245689Y-92345458D01*
X201854311Y-82304542D02*
X205529542Y-96020689D01*
X198220458Y-87404311D02*
X184504311Y-91079542D01*
X201895689Y-101120458D02*
X198220458Y-87404311D01*
X188179542Y-104795689D02*
X201895689Y-101120458D01*
X184504311Y-91079542D02*
X188179542Y-104795689D01*
X180850458Y-96194311D02*
X167134311Y-99869542D01*
X184525689Y-109910458D02*
X180850458Y-96194311D01*
X170809542Y-113585689D02*
X184525689Y-109910458D01*
X167134311Y-99869542D02*
X170809542Y-113585689D01*
X128475689Y-99869542D02*
X114759542Y-96194311D01*
X124800458Y-113585689D02*
X128475689Y-99869542D01*
X111084311Y-109910458D02*
X124800458Y-113585689D01*
X114759542Y-96194311D02*
X111084311Y-109910458D01*
X111120689Y-91079542D02*
X97404542Y-87404311D01*
X107445458Y-104795689D02*
X111120689Y-91079542D01*
X93729311Y-101120458D02*
X107445458Y-104795689D01*
X97404542Y-87404311D02*
X93729311Y-101120458D01*
X93745689Y-82304542D02*
X80029542Y-78629311D01*
X90070458Y-96020689D02*
X93745689Y-82304542D01*
X76354311Y-92345458D02*
X90070458Y-96020689D01*
X80029542Y-78629311D02*
X76354311Y-92345458D01*
X74295689Y-81204542D02*
X60579542Y-77529311D01*
X70620458Y-94920689D02*
X74295689Y-81204542D01*
X56904311Y-91245458D02*
X70620458Y-94920689D01*
X60579542Y-77529311D02*
X56904311Y-91245458D01*
X54878466Y-80149094D02*
X41162319Y-76473863D01*
X51203235Y-93865241D02*
X54878466Y-80149094D01*
X37487088Y-90190010D02*
X51203235Y-93865241D01*
X41162319Y-76473863D02*
X37487088Y-90190010D01*
X35445689Y-79029542D02*
X21729542Y-75354311D01*
X31770458Y-92745689D02*
X35445689Y-79029542D01*
X18054311Y-89070458D02*
X31770458Y-92745689D01*
X21729542Y-75354311D02*
X18054311Y-89070458D01*
X268945458Y-56954311D02*
X255229311Y-60629542D01*
X272620689Y-70670458D02*
X268945458Y-56954311D01*
X258904542Y-74345689D02*
X272620689Y-70670458D01*
X255229311Y-60629542D02*
X258904542Y-74345689D01*
X249545458Y-58054311D02*
X235829311Y-61729542D01*
X253220689Y-71770458D02*
X249545458Y-58054311D01*
X239504542Y-75445689D02*
X253220689Y-71770458D01*
X235829311Y-61729542D02*
X239504542Y-75445689D01*
X230070458Y-59129311D02*
X216354311Y-62804542D01*
X233745689Y-72845458D02*
X230070458Y-59129311D01*
X220029542Y-76520689D02*
X233745689Y-72845458D01*
X216354311Y-62804542D02*
X220029542Y-76520689D01*
X210645458Y-60204311D02*
X196929311Y-63879542D01*
X214320689Y-73920458D02*
X210645458Y-60204311D01*
X200604542Y-77595689D02*
X214320689Y-73920458D01*
X196929311Y-63879542D02*
X200604542Y-77595689D01*
X193290458Y-69004311D02*
X179574311Y-72679542D01*
X196965689Y-82720458D02*
X193290458Y-69004311D01*
X183249542Y-86395689D02*
X196965689Y-82720458D01*
X179574311Y-72679542D02*
X183249542Y-86395689D01*
X175920458Y-77794311D02*
X162204311Y-81469542D01*
X179595689Y-91510458D02*
X175920458Y-77794311D01*
X165879542Y-95185689D02*
X179595689Y-91510458D01*
X162204311Y-81469542D02*
X165879542Y-95185689D01*
X133395689Y-81479542D02*
X119679542Y-77804311D01*
X129720458Y-95195689D02*
X133395689Y-81479542D01*
X116004311Y-91520458D02*
X129720458Y-95195689D01*
X119679542Y-77804311D02*
X116004311Y-91520458D01*
X116045689Y-72679542D02*
X102329542Y-69004311D01*
X112370458Y-86395689D02*
X116045689Y-72679542D01*
X98654311Y-82720458D02*
X112370458Y-86395689D01*
X102329542Y-69004311D02*
X98654311Y-82720458D01*
X98670689Y-63879542D02*
X84954542Y-60204311D01*
X94995458Y-77595689D02*
X98670689Y-63879542D01*
X81279311Y-73920458D02*
X94995458Y-77595689D01*
X84954542Y-60204311D02*
X81279311Y-73920458D01*
X79245689Y-62804542D02*
X65529542Y-59129311D01*
X75570458Y-76520689D02*
X79245689Y-62804542D01*
X61854311Y-72845458D02*
X75570458Y-76520689D01*
X65529542Y-59129311D02*
X61854311Y-72845458D01*
X59795689Y-61754542D02*
X46079542Y-58079311D01*
X56120458Y-75470689D02*
X59795689Y-61754542D01*
X42404311Y-71795458D02*
X56120458Y-75470689D01*
X46079542Y-58079311D02*
X42404311Y-71795458D01*
X40368657Y-60628504D02*
X26652510Y-56953273D01*
X36693426Y-74344651D02*
X40368657Y-60628504D01*
X22977279Y-70669420D02*
X36693426Y-74344651D01*
X26652510Y-56953273D02*
X22977279Y-70669420D01*
X140618780Y-148001220D02*
X128321220Y-140901220D01*
X133518780Y-160298780D02*
X140618780Y-148001220D01*
X121221220Y-153198780D02*
X133518780Y-160298780D01*
X128321220Y-140901220D02*
X121221220Y-153198780D01*
X167278780Y-140901220D02*
X154981220Y-148001220D01*
X174378780Y-153198780D02*
X167278780Y-140901220D01*
X162081220Y-160298780D02*
X174378780Y-153198780D01*
X154981220Y-148001220D02*
X162081220Y-160298780D01*
D11*
X156690000Y-110160000D02*
X138910000Y-110160000D01*
X156690000Y-79680000D02*
X156690000Y-110160000D01*
X151610000Y-79680000D02*
X156690000Y-79680000D01*
X151610000Y-77140000D02*
X151610000Y-79680000D01*
X143990000Y-77140000D02*
X151610000Y-77140000D01*
X143990000Y-79680000D02*
X143990000Y-77140000D01*
X138910000Y-79680000D02*
X143990000Y-79680000D01*
X138910000Y-79680000D02*
X138910000Y-110160000D01*
X145970476Y-113754761D02*
X146113333Y-113802380D01*
X146351428Y-113802380D01*
X146446666Y-113754761D01*
X146494285Y-113707142D01*
X146541904Y-113611904D01*
X146541904Y-113516666D01*
X146494285Y-113421428D01*
X146446666Y-113373809D01*
X146351428Y-113326190D01*
X146160952Y-113278571D01*
X146065714Y-113230952D01*
X146018095Y-113183333D01*
X145970476Y-113088095D01*
X145970476Y-112992857D01*
X146018095Y-112897619D01*
X146065714Y-112850000D01*
X146160952Y-112802380D01*
X146399047Y-112802380D01*
X146541904Y-112850000D01*
X146875238Y-112802380D02*
X147113333Y-113802380D01*
X147303809Y-113088095D01*
X147494285Y-113802380D01*
X147732380Y-112802380D01*
X148541904Y-113135714D02*
X148541904Y-113802380D01*
X148303809Y-112754761D02*
X148065714Y-113469047D01*
X148684761Y-113469047D01*
X148970476Y-112802380D02*
X149589523Y-112802380D01*
X149256190Y-113183333D01*
X149399047Y-113183333D01*
X149494285Y-113230952D01*
X149541904Y-113278571D01*
X149589523Y-113373809D01*
X149589523Y-113611904D01*
X149541904Y-113707142D01*
X149494285Y-113754761D01*
X149399047Y-113802380D01*
X149113333Y-113802380D01*
X149018095Y-113754761D01*
X148970476Y-113707142D01*
X211826536Y-144499394D02*
X211567717Y-143533468D01*
X211797700Y-143471845D01*
X211948014Y-143480867D01*
X212064656Y-143548211D01*
X212135302Y-143627879D01*
X212230597Y-143799540D01*
X212267572Y-143937529D01*
X212270874Y-144133840D01*
X212249527Y-144238158D01*
X212182183Y-144354800D01*
X212056519Y-144437771D01*
X211826536Y-144499394D01*
X213033884Y-143485702D02*
X213206430Y-144129653D01*
X212705304Y-143179354D02*
X212660193Y-143930925D01*
X213258147Y-143770703D01*
X213432225Y-143132473D02*
X213465897Y-143074151D01*
X213545565Y-143003506D01*
X213775548Y-142941882D01*
X213879865Y-142963229D01*
X213938187Y-142996901D01*
X214008833Y-143076569D01*
X214033482Y-143168562D01*
X214024460Y-143318876D01*
X213620399Y-144018730D01*
X214218353Y-143858509D01*
X193016536Y-149519394D02*
X192757717Y-148553468D01*
X192987700Y-148491845D01*
X193138014Y-148500867D01*
X193254656Y-148568211D01*
X193325302Y-148647879D01*
X193420597Y-148819540D01*
X193457572Y-148957529D01*
X193460874Y-149153840D01*
X193439527Y-149258158D01*
X193372183Y-149374800D01*
X193246519Y-149457771D01*
X193016536Y-149519394D01*
X194223884Y-148505702D02*
X194396430Y-149149653D01*
X193895304Y-148199354D02*
X193850193Y-148950925D01*
X194448147Y-148790703D01*
X195408353Y-148878509D02*
X194856395Y-149026406D01*
X195132374Y-148952457D02*
X194873555Y-147986531D01*
X194818536Y-148149170D01*
X194751193Y-148265813D01*
X194671524Y-148336459D01*
X172764588Y-155306865D02*
X172264588Y-154440839D01*
X172470784Y-154321792D01*
X172618312Y-154291602D01*
X172748409Y-154326462D01*
X172837268Y-154385131D01*
X172973745Y-154526279D01*
X173045174Y-154649997D01*
X173099172Y-154838763D01*
X173105552Y-154945052D01*
X173070693Y-155075149D01*
X172970784Y-155187817D01*
X172764588Y-155306865D01*
X173668434Y-154015229D02*
X174001767Y-154592579D01*
X173271761Y-153804362D02*
X173422707Y-154541999D01*
X173958818Y-154232475D01*
X174120356Y-153369411D02*
X174202835Y-153321792D01*
X174309123Y-153315412D01*
X174374172Y-153332842D01*
X174463030Y-153391511D01*
X174599508Y-153532659D01*
X174718555Y-153738855D01*
X174772554Y-153927622D01*
X174778934Y-154033910D01*
X174761504Y-154098959D01*
X174702835Y-154187817D01*
X174620356Y-154235436D01*
X174514068Y-154241816D01*
X174449019Y-154224386D01*
X174360161Y-154165717D01*
X174223684Y-154024569D01*
X174104636Y-153818373D01*
X174050637Y-153629606D01*
X174044258Y-153523318D01*
X174061687Y-153458269D01*
X174120356Y-153369411D01*
X130482207Y-160002579D02*
X130982207Y-159136554D01*
X131188403Y-159255601D01*
X131288312Y-159368269D01*
X131323171Y-159498367D01*
X131316791Y-159604655D01*
X131262793Y-159793422D01*
X131191364Y-159917140D01*
X131054887Y-160058287D01*
X130966028Y-160116956D01*
X130835931Y-160151816D01*
X130688403Y-160121627D01*
X130482207Y-160002579D01*
X131765754Y-159588935D02*
X132301865Y-159898458D01*
X131822713Y-160061706D01*
X131946431Y-160133135D01*
X132005100Y-160221993D01*
X132022530Y-160287042D01*
X132016150Y-160393330D01*
X131897103Y-160599527D01*
X131808244Y-160658196D01*
X131743195Y-160675625D01*
X131636907Y-160669246D01*
X131389471Y-160526389D01*
X131330802Y-160437530D01*
X131313373Y-160372481D01*
X132214258Y-161002579D02*
X132379215Y-161097817D01*
X132485503Y-161104197D01*
X132550552Y-161086767D01*
X132704459Y-161010668D01*
X132840936Y-160869521D01*
X133031413Y-160539606D01*
X133037792Y-160433318D01*
X133020362Y-160368269D01*
X132961693Y-160279411D01*
X132796736Y-160184173D01*
X132690448Y-160177793D01*
X132625399Y-160195223D01*
X132536541Y-160253892D01*
X132417493Y-160460088D01*
X132411113Y-160566376D01*
X132428543Y-160631425D01*
X132487212Y-160720284D01*
X132652170Y-160815522D01*
X132758458Y-160821901D01*
X132823507Y-160804472D01*
X132912365Y-160745803D01*
X112867643Y-152200834D02*
X113126462Y-151234908D01*
X113356444Y-151296531D01*
X113482109Y-151379502D01*
X113549452Y-151496144D01*
X113570799Y-151600462D01*
X113567497Y-151796773D01*
X113530523Y-151934762D01*
X113435227Y-152106423D01*
X113364582Y-152186091D01*
X113247939Y-152253435D01*
X113097625Y-152262457D01*
X112867643Y-152200834D01*
X114000395Y-151469077D02*
X114598349Y-151629299D01*
X114177776Y-151910998D01*
X114315765Y-151947972D01*
X114395433Y-152018618D01*
X114429105Y-152076939D01*
X114450452Y-152181256D01*
X114388829Y-152411239D01*
X114318183Y-152490907D01*
X114259862Y-152524579D01*
X114155544Y-152545926D01*
X113879565Y-152471977D01*
X113799897Y-152401332D01*
X113766225Y-152343010D01*
X115039384Y-152191164D02*
X114959716Y-152120518D01*
X114926044Y-152062196D01*
X114904697Y-151957879D01*
X114917022Y-151911882D01*
X114987668Y-151832214D01*
X115045989Y-151798542D01*
X115150306Y-151777195D01*
X115334292Y-151826494D01*
X115413960Y-151897140D01*
X115447632Y-151955461D01*
X115468979Y-152059779D01*
X115456655Y-152105775D01*
X115386009Y-152185444D01*
X115327687Y-152219115D01*
X115223370Y-152240462D01*
X115039384Y-152191164D01*
X114935066Y-152212511D01*
X114876745Y-152246182D01*
X114806099Y-152325851D01*
X114756800Y-152509836D01*
X114778147Y-152614154D01*
X114811819Y-152672475D01*
X114891487Y-152743121D01*
X115075473Y-152792420D01*
X115179791Y-152771073D01*
X115238112Y-152737401D01*
X115308758Y-152657733D01*
X115358057Y-152473747D01*
X115336710Y-152369430D01*
X115303038Y-152311108D01*
X115223370Y-152240462D01*
X94217643Y-147320834D02*
X94476462Y-146354908D01*
X94706444Y-146416531D01*
X94832109Y-146499502D01*
X94899452Y-146616144D01*
X94920799Y-146720462D01*
X94917497Y-146916773D01*
X94880523Y-147054762D01*
X94785227Y-147226423D01*
X94714582Y-147306091D01*
X94597939Y-147373435D01*
X94447625Y-147382457D01*
X94217643Y-147320834D01*
X95350395Y-146589077D02*
X95948349Y-146749299D01*
X95527776Y-147030998D01*
X95665765Y-147067972D01*
X95745433Y-147138618D01*
X95779105Y-147196939D01*
X95800452Y-147301256D01*
X95738829Y-147531239D01*
X95668183Y-147610907D01*
X95609862Y-147644579D01*
X95505544Y-147665926D01*
X95229565Y-147591977D01*
X95149897Y-147521332D01*
X95116225Y-147463010D01*
X96270324Y-146835572D02*
X96914275Y-147008118D01*
X96241487Y-147863121D01*
X280446536Y-107769394D02*
X280187717Y-106803468D01*
X280417700Y-106741845D01*
X280568014Y-106750867D01*
X280684656Y-106818211D01*
X280755302Y-106897879D01*
X280850597Y-107069540D01*
X280887572Y-107207529D01*
X280890874Y-107403840D01*
X280869527Y-107508158D01*
X280802183Y-107624800D01*
X280676519Y-107707771D01*
X280446536Y-107769394D01*
X281061650Y-106569299D02*
X281659604Y-106409077D01*
X281436227Y-106863322D01*
X281574216Y-106826348D01*
X281678534Y-106847695D01*
X281736855Y-106881367D01*
X281807501Y-106961035D01*
X281869124Y-107191017D01*
X281847777Y-107295335D01*
X281814106Y-107353656D01*
X281734437Y-107424302D01*
X281458459Y-107498250D01*
X281354141Y-107476903D01*
X281295820Y-107443232D01*
X282487541Y-106187233D02*
X282303555Y-106236531D01*
X282223887Y-106307177D01*
X282190215Y-106365499D01*
X282135196Y-106528137D01*
X282138498Y-106724448D01*
X282237096Y-107092420D01*
X282307742Y-107172088D01*
X282366063Y-107205760D01*
X282470381Y-107227107D01*
X282654367Y-107177808D01*
X282734035Y-107107162D01*
X282767707Y-107048841D01*
X282789054Y-106944523D01*
X282727430Y-106714541D01*
X282656784Y-106634873D01*
X282598463Y-106601201D01*
X282494146Y-106579854D01*
X282310160Y-106629153D01*
X282230491Y-106699799D01*
X282196820Y-106758120D01*
X282175473Y-106862437D01*
X260336536Y-108969394D02*
X260077717Y-108003468D01*
X260307700Y-107941845D01*
X260458014Y-107950867D01*
X260574656Y-108018211D01*
X260645302Y-108097879D01*
X260740597Y-108269540D01*
X260777572Y-108407529D01*
X260780874Y-108603840D01*
X260759527Y-108708158D01*
X260692183Y-108824800D01*
X260566519Y-108907771D01*
X260336536Y-108969394D01*
X260951650Y-107769299D02*
X261549604Y-107609077D01*
X261326227Y-108063322D01*
X261464216Y-108026348D01*
X261568534Y-108047695D01*
X261626855Y-108081367D01*
X261697501Y-108161035D01*
X261759124Y-108391017D01*
X261737777Y-108495335D01*
X261704106Y-108553656D01*
X261624437Y-108624302D01*
X261348459Y-108698250D01*
X261244141Y-108676903D01*
X261185820Y-108643232D01*
X262423537Y-107374908D02*
X261963573Y-107498155D01*
X262040823Y-107970444D01*
X262074495Y-107912123D01*
X262154163Y-107841477D01*
X262384146Y-107779854D01*
X262488463Y-107801201D01*
X262546784Y-107834873D01*
X262617430Y-107914541D01*
X262679054Y-108144523D01*
X262657707Y-108248841D01*
X262624035Y-108307162D01*
X262544367Y-108377808D01*
X262314384Y-108439431D01*
X262210067Y-108418084D01*
X262151746Y-108384413D01*
X241916536Y-109919394D02*
X241657717Y-108953468D01*
X241887700Y-108891845D01*
X242038014Y-108900867D01*
X242154656Y-108968211D01*
X242225302Y-109047879D01*
X242320597Y-109219540D01*
X242357572Y-109357529D01*
X242360874Y-109553840D01*
X242339527Y-109658158D01*
X242272183Y-109774800D01*
X242146519Y-109857771D01*
X241916536Y-109919394D01*
X242531650Y-108719299D02*
X243129604Y-108559077D01*
X242906227Y-109013322D01*
X243044216Y-108976348D01*
X243148534Y-108997695D01*
X243206855Y-109031367D01*
X243277501Y-109111035D01*
X243339124Y-109341017D01*
X243317777Y-109445335D01*
X243284106Y-109503656D01*
X243204437Y-109574302D01*
X242928459Y-109648250D01*
X242824141Y-109626903D01*
X242765820Y-109593232D01*
X244043814Y-108659208D02*
X244216360Y-109303158D01*
X243715234Y-108352860D02*
X243670122Y-109104430D01*
X244268076Y-108944209D01*
X221816536Y-111179394D02*
X221557717Y-110213468D01*
X221787700Y-110151845D01*
X221938014Y-110160867D01*
X222054656Y-110228211D01*
X222125302Y-110307879D01*
X222220597Y-110479540D01*
X222257572Y-110617529D01*
X222260874Y-110813840D01*
X222239527Y-110918158D01*
X222172183Y-111034800D01*
X222046519Y-111117771D01*
X221816536Y-111179394D01*
X222431650Y-109979299D02*
X223029604Y-109819077D01*
X222806227Y-110273322D01*
X222944216Y-110236348D01*
X223048534Y-110257695D01*
X223106855Y-110291367D01*
X223177501Y-110371035D01*
X223239124Y-110601017D01*
X223217777Y-110705335D01*
X223184106Y-110763656D01*
X223104437Y-110834302D01*
X222828459Y-110908250D01*
X222724141Y-110886903D01*
X222665820Y-110853232D01*
X223351580Y-109732804D02*
X223949534Y-109572583D01*
X223726156Y-110026828D01*
X223864146Y-109989854D01*
X223968463Y-110011201D01*
X224026784Y-110044873D01*
X224097430Y-110124541D01*
X224159054Y-110354523D01*
X224137707Y-110458841D01*
X224104035Y-110517162D01*
X224024367Y-110587808D01*
X223748388Y-110661756D01*
X223644070Y-110640409D01*
X223585749Y-110606737D01*
X205136536Y-120349394D02*
X204877717Y-119383468D01*
X205107700Y-119321845D01*
X205258014Y-119330867D01*
X205374656Y-119398211D01*
X205445302Y-119477879D01*
X205540597Y-119649540D01*
X205577572Y-119787529D01*
X205580874Y-119983840D01*
X205559527Y-120088158D01*
X205492183Y-120204800D01*
X205366519Y-120287771D01*
X205136536Y-120349394D01*
X205751650Y-119149299D02*
X206349604Y-118989077D01*
X206126227Y-119443322D01*
X206264216Y-119406348D01*
X206368534Y-119427695D01*
X206426855Y-119461367D01*
X206497501Y-119541035D01*
X206559124Y-119771017D01*
X206537777Y-119875335D01*
X206504106Y-119933656D01*
X206424437Y-120004302D01*
X206148459Y-120078250D01*
X206044141Y-120056903D01*
X205985820Y-120023232D01*
X206742225Y-118982473D02*
X206775897Y-118924151D01*
X206855565Y-118853506D01*
X207085548Y-118791882D01*
X207189865Y-118813229D01*
X207248187Y-118846901D01*
X207318833Y-118926569D01*
X207343482Y-119018562D01*
X207334460Y-119168876D01*
X206930399Y-119868730D01*
X207528353Y-119708509D01*
X187476536Y-129329394D02*
X187217717Y-128363468D01*
X187447700Y-128301845D01*
X187598014Y-128310867D01*
X187714656Y-128378211D01*
X187785302Y-128457879D01*
X187880597Y-128629540D01*
X187917572Y-128767529D01*
X187920874Y-128963840D01*
X187899527Y-129068158D01*
X187832183Y-129184800D01*
X187706519Y-129267771D01*
X187476536Y-129329394D01*
X188091650Y-128129299D02*
X188689604Y-127969077D01*
X188466227Y-128423322D01*
X188604216Y-128386348D01*
X188708534Y-128407695D01*
X188766855Y-128441367D01*
X188837501Y-128521035D01*
X188899124Y-128751017D01*
X188877777Y-128855335D01*
X188844106Y-128913656D01*
X188764437Y-128984302D01*
X188488459Y-129058250D01*
X188384141Y-129036903D01*
X188325820Y-129003232D01*
X189868353Y-128688509D02*
X189316395Y-128836406D01*
X189592374Y-128762457D02*
X189333555Y-127796531D01*
X189278536Y-127959170D01*
X189211193Y-128075813D01*
X189131524Y-128146459D01*
X117067643Y-131730834D02*
X117326462Y-130764908D01*
X117556444Y-130826531D01*
X117682109Y-130909502D01*
X117749452Y-131026144D01*
X117770799Y-131130462D01*
X117767497Y-131326773D01*
X117730523Y-131464762D01*
X117635227Y-131636423D01*
X117564582Y-131716091D01*
X117447939Y-131783435D01*
X117297625Y-131792457D01*
X117067643Y-131730834D01*
X118200395Y-130999077D02*
X118798349Y-131159299D01*
X118377776Y-131440998D01*
X118515765Y-131477972D01*
X118595433Y-131548618D01*
X118629105Y-131606939D01*
X118650452Y-131711256D01*
X118588829Y-131941239D01*
X118518183Y-132020907D01*
X118459862Y-132054579D01*
X118355544Y-132075926D01*
X118079565Y-132001977D01*
X117999897Y-131931332D01*
X117966225Y-131873010D01*
X119396303Y-131319520D02*
X119488296Y-131344170D01*
X119567964Y-131414815D01*
X119601636Y-131473137D01*
X119622983Y-131577454D01*
X119619680Y-131773765D01*
X119558057Y-132003747D01*
X119462761Y-132175408D01*
X119392116Y-132255077D01*
X119333794Y-132288748D01*
X119229477Y-132310095D01*
X119137484Y-132285446D01*
X119057816Y-132214800D01*
X119024144Y-132156479D01*
X119002797Y-132052161D01*
X119006099Y-131855851D01*
X119067723Y-131625868D01*
X119163018Y-131454207D01*
X119233664Y-131374539D01*
X119291985Y-131340867D01*
X119396303Y-131319520D01*
X100807643Y-123030834D02*
X101066462Y-122064908D01*
X101296444Y-122126531D01*
X101422109Y-122209502D01*
X101489452Y-122326144D01*
X101510799Y-122430462D01*
X101507497Y-122626773D01*
X101470523Y-122764762D01*
X101375227Y-122936423D01*
X101304582Y-123016091D01*
X101187939Y-123083435D01*
X101037625Y-123092457D01*
X100807643Y-123030834D01*
X101961742Y-122403395D02*
X102020063Y-122369723D01*
X102124381Y-122348376D01*
X102354363Y-122410000D01*
X102434031Y-122480646D01*
X102467703Y-122538967D01*
X102489050Y-122643285D01*
X102464400Y-122735278D01*
X102381430Y-122860942D01*
X101681576Y-123265003D01*
X102279530Y-123425225D01*
X102739494Y-123548472D02*
X102923480Y-123597771D01*
X103027798Y-123576424D01*
X103086119Y-123542752D01*
X103215086Y-123429412D01*
X103310382Y-123257751D01*
X103408979Y-122889779D01*
X103387632Y-122785461D01*
X103353960Y-122727140D01*
X103274292Y-122656494D01*
X103090306Y-122607195D01*
X102985989Y-122628542D01*
X102927668Y-122662214D01*
X102857022Y-122741882D01*
X102795398Y-122971865D01*
X102816745Y-123076182D01*
X102850417Y-123134504D01*
X102930085Y-123205149D01*
X103114071Y-123254448D01*
X103218389Y-123233101D01*
X103276710Y-123199430D01*
X103347356Y-123119761D01*
X83407643Y-113560834D02*
X83666462Y-112594908D01*
X83896444Y-112656531D01*
X84022109Y-112739502D01*
X84089452Y-112856144D01*
X84110799Y-112960462D01*
X84107497Y-113156773D01*
X84070523Y-113294762D01*
X83975227Y-113466423D01*
X83904582Y-113546091D01*
X83787939Y-113613435D01*
X83637625Y-113622457D01*
X83407643Y-113560834D01*
X84561742Y-112933395D02*
X84620063Y-112899723D01*
X84724381Y-112878376D01*
X84954363Y-112940000D01*
X85034031Y-113010646D01*
X85067703Y-113068967D01*
X85089050Y-113173285D01*
X85064400Y-113265278D01*
X84981430Y-113390942D01*
X84281576Y-113795003D01*
X84879530Y-113955225D01*
X85579384Y-113551164D02*
X85499716Y-113480518D01*
X85466044Y-113422196D01*
X85444697Y-113317879D01*
X85457022Y-113271882D01*
X85527668Y-113192214D01*
X85585989Y-113158542D01*
X85690306Y-113137195D01*
X85874292Y-113186494D01*
X85953960Y-113257140D01*
X85987632Y-113315461D01*
X86008979Y-113419779D01*
X85996655Y-113465775D01*
X85926009Y-113545444D01*
X85867687Y-113579115D01*
X85763370Y-113600462D01*
X85579384Y-113551164D01*
X85475066Y-113572511D01*
X85416745Y-113606182D01*
X85346099Y-113685851D01*
X85296800Y-113869836D01*
X85318147Y-113974154D01*
X85351819Y-114032475D01*
X85431487Y-114103121D01*
X85615473Y-114152420D01*
X85719791Y-114131073D01*
X85778112Y-114097401D01*
X85848758Y-114017733D01*
X85898057Y-113833747D01*
X85876710Y-113729430D01*
X85843038Y-113671108D01*
X85763370Y-113600462D01*
X63697643Y-112410834D02*
X63956462Y-111444908D01*
X64186444Y-111506531D01*
X64312109Y-111589502D01*
X64379452Y-111706144D01*
X64400799Y-111810462D01*
X64397497Y-112006773D01*
X64360523Y-112144762D01*
X64265227Y-112316423D01*
X64194582Y-112396091D01*
X64077939Y-112463435D01*
X63927625Y-112472457D01*
X63697643Y-112410834D01*
X64851742Y-111783395D02*
X64910063Y-111749723D01*
X65014381Y-111728376D01*
X65244363Y-111790000D01*
X65324031Y-111860646D01*
X65357703Y-111918967D01*
X65379050Y-112023285D01*
X65354400Y-112115278D01*
X65271430Y-112240942D01*
X64571576Y-112645003D01*
X65169530Y-112805225D01*
X65750324Y-111925572D02*
X66394275Y-112098118D01*
X65721487Y-112953121D01*
X44097643Y-111260834D02*
X44356462Y-110294908D01*
X44586444Y-110356531D01*
X44712109Y-110439502D01*
X44779452Y-110556144D01*
X44800799Y-110660462D01*
X44797497Y-110856773D01*
X44760523Y-110994762D01*
X44665227Y-111166423D01*
X44594582Y-111246091D01*
X44477939Y-111313435D01*
X44327625Y-111322457D01*
X44097643Y-111260834D01*
X45251742Y-110633395D02*
X45310063Y-110599723D01*
X45414381Y-110578376D01*
X45644363Y-110640000D01*
X45724031Y-110710646D01*
X45757703Y-110768967D01*
X45779050Y-110873285D01*
X45754400Y-110965278D01*
X45671430Y-111090942D01*
X44971576Y-111495003D01*
X45569530Y-111655225D01*
X46656285Y-110911144D02*
X46472299Y-110861845D01*
X46367982Y-110883192D01*
X46309660Y-110916864D01*
X46180693Y-111030204D01*
X46085398Y-111201865D01*
X45986800Y-111569836D01*
X46008147Y-111674154D01*
X46041819Y-111732475D01*
X46121487Y-111803121D01*
X46305473Y-111852420D01*
X46409791Y-111831073D01*
X46468112Y-111797401D01*
X46538758Y-111717733D01*
X46600382Y-111487751D01*
X46579035Y-111383433D01*
X46545363Y-111325112D01*
X46465695Y-111254466D01*
X46281709Y-111205167D01*
X46177391Y-111226514D01*
X46119070Y-111260186D01*
X46048424Y-111339854D01*
X24487643Y-110110834D02*
X24746462Y-109144908D01*
X24976444Y-109206531D01*
X25102109Y-109289502D01*
X25169452Y-109406144D01*
X25190799Y-109510462D01*
X25187497Y-109706773D01*
X25150523Y-109844762D01*
X25055227Y-110016423D01*
X24984582Y-110096091D01*
X24867939Y-110163435D01*
X24717625Y-110172457D01*
X24487643Y-110110834D01*
X25641742Y-109483395D02*
X25700063Y-109449723D01*
X25804381Y-109428376D01*
X26034363Y-109490000D01*
X26114031Y-109560646D01*
X26147703Y-109618967D01*
X26169050Y-109723285D01*
X26144400Y-109815278D01*
X26061430Y-109940942D01*
X25361576Y-110345003D01*
X25959530Y-110505225D01*
X27092282Y-109773468D02*
X26632317Y-109650221D01*
X26463073Y-110097861D01*
X26521395Y-110064189D01*
X26625712Y-110042842D01*
X26855695Y-110104466D01*
X26935363Y-110175112D01*
X26969035Y-110233433D01*
X26990382Y-110337751D01*
X26928758Y-110567733D01*
X26858112Y-110647401D01*
X26799791Y-110681073D01*
X26695473Y-110702420D01*
X26465491Y-110640796D01*
X26385823Y-110570151D01*
X26352151Y-110511829D01*
X275886536Y-90139394D02*
X275627717Y-89173468D01*
X275857700Y-89111845D01*
X276008014Y-89120867D01*
X276124656Y-89188211D01*
X276195302Y-89267879D01*
X276290597Y-89439540D01*
X276327572Y-89577529D01*
X276330874Y-89773840D01*
X276309527Y-89878158D01*
X276242183Y-89994800D01*
X276116519Y-90077771D01*
X275886536Y-90139394D01*
X276572296Y-89018967D02*
X276605968Y-88960646D01*
X276685636Y-88890000D01*
X276915618Y-88828376D01*
X277019936Y-88849723D01*
X277078257Y-88883395D01*
X277148903Y-88963063D01*
X277173553Y-89055056D01*
X277164530Y-89205370D01*
X276760469Y-89905225D01*
X277358423Y-89745003D01*
X278013814Y-88879208D02*
X278186360Y-89523158D01*
X277685234Y-88572860D02*
X277640122Y-89324430D01*
X278238076Y-89164209D01*
X255986536Y-91009394D02*
X255727717Y-90043468D01*
X255957700Y-89981845D01*
X256108014Y-89990867D01*
X256224656Y-90058211D01*
X256295302Y-90137879D01*
X256390597Y-90309540D01*
X256427572Y-90447529D01*
X256430874Y-90643840D01*
X256409527Y-90748158D01*
X256342183Y-90864800D01*
X256216519Y-90947771D01*
X255986536Y-91009394D01*
X256672296Y-89888967D02*
X256705968Y-89830646D01*
X256785636Y-89760000D01*
X257015618Y-89698376D01*
X257119936Y-89719723D01*
X257178257Y-89753395D01*
X257248903Y-89833063D01*
X257273553Y-89925056D01*
X257264530Y-90075370D01*
X256860469Y-90775225D01*
X257458423Y-90615003D01*
X257521580Y-89562804D02*
X258119534Y-89402583D01*
X257896156Y-89856828D01*
X258034146Y-89819854D01*
X258138463Y-89841201D01*
X258196784Y-89874873D01*
X258267430Y-89954541D01*
X258329054Y-90184523D01*
X258307707Y-90288841D01*
X258274035Y-90347162D01*
X258194367Y-90417808D01*
X257918388Y-90491756D01*
X257814070Y-90470409D01*
X257755749Y-90436737D01*
X236376536Y-92169394D02*
X236117717Y-91203468D01*
X236347700Y-91141845D01*
X236498014Y-91150867D01*
X236614656Y-91218211D01*
X236685302Y-91297879D01*
X236780597Y-91469540D01*
X236817572Y-91607529D01*
X236820874Y-91803840D01*
X236799527Y-91908158D01*
X236732183Y-92024800D01*
X236606519Y-92107771D01*
X236376536Y-92169394D01*
X237062296Y-91048967D02*
X237095968Y-90990646D01*
X237175636Y-90920000D01*
X237405618Y-90858376D01*
X237509936Y-90879723D01*
X237568257Y-90913395D01*
X237638903Y-90993063D01*
X237663553Y-91085056D01*
X237654530Y-91235370D01*
X237250469Y-91935225D01*
X237848423Y-91775003D01*
X237982225Y-90802473D02*
X238015897Y-90744151D01*
X238095565Y-90673506D01*
X238325548Y-90611882D01*
X238429865Y-90633229D01*
X238488187Y-90666901D01*
X238558833Y-90746569D01*
X238583482Y-90838562D01*
X238574460Y-90988876D01*
X238170399Y-91688730D01*
X238768353Y-91528509D01*
X217056536Y-93129394D02*
X216797717Y-92163468D01*
X217027700Y-92101845D01*
X217178014Y-92110867D01*
X217294656Y-92178211D01*
X217365302Y-92257879D01*
X217460597Y-92429540D01*
X217497572Y-92567529D01*
X217500874Y-92763840D01*
X217479527Y-92868158D01*
X217412183Y-92984800D01*
X217286519Y-93067771D01*
X217056536Y-93129394D01*
X217742296Y-92008967D02*
X217775968Y-91950646D01*
X217855636Y-91880000D01*
X218085618Y-91818376D01*
X218189936Y-91839723D01*
X218248257Y-91873395D01*
X218318903Y-91953063D01*
X218343553Y-92045056D01*
X218334530Y-92195370D01*
X217930469Y-92895225D01*
X218528423Y-92735003D01*
X219448353Y-92488509D02*
X218896395Y-92636406D01*
X219172374Y-92562457D02*
X218913555Y-91596531D01*
X218858536Y-91759170D01*
X218791193Y-91875813D01*
X218711524Y-91946459D01*
X199576536Y-102119394D02*
X199317717Y-101153468D01*
X199547700Y-101091845D01*
X199698014Y-101100867D01*
X199814656Y-101168211D01*
X199885302Y-101247879D01*
X199980597Y-101419540D01*
X200017572Y-101557529D01*
X200020874Y-101753840D01*
X199999527Y-101858158D01*
X199932183Y-101974800D01*
X199806519Y-102057771D01*
X199576536Y-102119394D01*
X200262296Y-100998967D02*
X200295968Y-100940646D01*
X200375636Y-100870000D01*
X200605618Y-100808376D01*
X200709936Y-100829723D01*
X200768257Y-100863395D01*
X200838903Y-100943063D01*
X200863553Y-101035056D01*
X200854530Y-101185370D01*
X200450469Y-101885225D01*
X201048423Y-101725003D01*
X201387558Y-100598856D02*
X201479551Y-100574207D01*
X201583869Y-100595554D01*
X201642190Y-100629226D01*
X201712836Y-100708894D01*
X201808131Y-100880555D01*
X201869755Y-101110537D01*
X201873057Y-101306848D01*
X201851710Y-101411165D01*
X201818039Y-101469487D01*
X201738370Y-101540133D01*
X201646377Y-101564782D01*
X201542060Y-101543435D01*
X201483739Y-101509763D01*
X201413093Y-101430095D01*
X201317797Y-101258434D01*
X201256174Y-101028451D01*
X201252871Y-100832141D01*
X201274218Y-100727823D01*
X201307890Y-100669502D01*
X201387558Y-100598856D01*
X182386536Y-110809394D02*
X182127717Y-109843468D01*
X182357700Y-109781845D01*
X182508014Y-109790867D01*
X182624656Y-109858211D01*
X182695302Y-109937879D01*
X182790597Y-110109540D01*
X182827572Y-110247529D01*
X182830874Y-110443840D01*
X182809527Y-110548158D01*
X182742183Y-110664800D01*
X182616519Y-110747771D01*
X182386536Y-110809394D01*
X183858423Y-110415003D02*
X183306466Y-110562900D01*
X183582445Y-110488952D02*
X183323625Y-109523026D01*
X183268607Y-109685665D01*
X183201263Y-109802307D01*
X183121595Y-109872953D01*
X184318388Y-110291756D02*
X184502374Y-110242457D01*
X184582042Y-110171811D01*
X184615714Y-110113490D01*
X184670733Y-109950851D01*
X184667430Y-109754541D01*
X184568833Y-109386569D01*
X184498187Y-109306901D01*
X184439865Y-109273229D01*
X184335548Y-109251882D01*
X184151562Y-109301181D01*
X184071894Y-109371827D01*
X184038222Y-109430148D01*
X184016875Y-109534466D01*
X184078498Y-109764448D01*
X184149144Y-109844116D01*
X184207466Y-109877788D01*
X184311783Y-109899135D01*
X184495769Y-109849836D01*
X184575437Y-109779190D01*
X184609109Y-109720869D01*
X184630456Y-109616551D01*
X121907643Y-113020834D02*
X122166462Y-112054908D01*
X122396444Y-112116531D01*
X122522109Y-112199502D01*
X122589452Y-112316144D01*
X122610799Y-112420462D01*
X122607497Y-112616773D01*
X122570523Y-112754762D01*
X122475227Y-112926423D01*
X122404582Y-113006091D01*
X122287939Y-113073435D01*
X122137625Y-113082457D01*
X121907643Y-113020834D01*
X123379530Y-113415225D02*
X122827572Y-113267328D01*
X123103551Y-113341276D02*
X123362370Y-112375350D01*
X123233403Y-112488690D01*
X123116761Y-112556034D01*
X123012443Y-112577381D01*
X124079384Y-113011164D02*
X123999716Y-112940518D01*
X123966044Y-112882196D01*
X123944697Y-112777879D01*
X123957022Y-112731882D01*
X124027668Y-112652214D01*
X124085989Y-112618542D01*
X124190306Y-112597195D01*
X124374292Y-112646494D01*
X124453960Y-112717140D01*
X124487632Y-112775461D01*
X124508979Y-112879779D01*
X124496655Y-112925775D01*
X124426009Y-113005444D01*
X124367687Y-113039115D01*
X124263370Y-113060462D01*
X124079384Y-113011164D01*
X123975066Y-113032511D01*
X123916745Y-113066182D01*
X123846099Y-113145851D01*
X123796800Y-113329836D01*
X123818147Y-113434154D01*
X123851819Y-113492475D01*
X123931487Y-113563121D01*
X124115473Y-113612420D01*
X124219791Y-113591073D01*
X124278112Y-113557401D01*
X124348758Y-113477733D01*
X124398057Y-113293747D01*
X124376710Y-113189430D01*
X124343038Y-113131108D01*
X124263370Y-113060462D01*
X104807643Y-104340834D02*
X105066462Y-103374908D01*
X105296444Y-103436531D01*
X105422109Y-103519502D01*
X105489452Y-103636144D01*
X105510799Y-103740462D01*
X105507497Y-103936773D01*
X105470523Y-104074762D01*
X105375227Y-104246423D01*
X105304582Y-104326091D01*
X105187939Y-104393435D01*
X105037625Y-104402457D01*
X104807643Y-104340834D01*
X106279530Y-104735225D02*
X105727572Y-104587328D01*
X106003551Y-104661276D02*
X106262370Y-103695350D01*
X106133403Y-103808690D01*
X106016761Y-103876034D01*
X105912443Y-103897381D01*
X106860324Y-103855572D02*
X107504275Y-104028118D01*
X106831487Y-104883121D01*
X87567643Y-95760834D02*
X87826462Y-94794908D01*
X88056444Y-94856531D01*
X88182109Y-94939502D01*
X88249452Y-95056144D01*
X88270799Y-95160462D01*
X88267497Y-95356773D01*
X88230523Y-95494762D01*
X88135227Y-95666423D01*
X88064582Y-95746091D01*
X87947939Y-95813435D01*
X87797625Y-95822457D01*
X87567643Y-95760834D01*
X89039530Y-96155225D02*
X88487572Y-96007328D01*
X88763551Y-96081276D02*
X89022370Y-95115350D01*
X88893403Y-95228690D01*
X88776761Y-95296034D01*
X88672443Y-95317381D01*
X90126285Y-95411144D02*
X89942299Y-95361845D01*
X89837982Y-95383192D01*
X89779660Y-95416864D01*
X89650693Y-95530204D01*
X89555398Y-95701865D01*
X89456800Y-96069836D01*
X89478147Y-96174154D01*
X89511819Y-96232475D01*
X89591487Y-96303121D01*
X89775473Y-96352420D01*
X89879791Y-96331073D01*
X89938112Y-96297401D01*
X90008758Y-96217733D01*
X90070382Y-95987751D01*
X90049035Y-95883433D01*
X90015363Y-95825112D01*
X89935695Y-95754466D01*
X89751709Y-95705167D01*
X89647391Y-95726514D01*
X89589070Y-95760186D01*
X89518424Y-95839854D01*
X67917643Y-94470834D02*
X68176462Y-93504908D01*
X68406444Y-93566531D01*
X68532109Y-93649502D01*
X68599452Y-93766144D01*
X68620799Y-93870462D01*
X68617497Y-94066773D01*
X68580523Y-94204762D01*
X68485227Y-94376423D01*
X68414582Y-94456091D01*
X68297939Y-94523435D01*
X68147625Y-94532457D01*
X67917643Y-94470834D01*
X69389530Y-94865225D02*
X68837572Y-94717328D01*
X69113551Y-94791276D02*
X69372370Y-93825350D01*
X69243403Y-93938690D01*
X69126761Y-94006034D01*
X69022443Y-94027381D01*
X70522282Y-94133468D02*
X70062317Y-94010221D01*
X69893073Y-94457861D01*
X69951395Y-94424189D01*
X70055712Y-94402842D01*
X70285695Y-94464466D01*
X70365363Y-94535112D01*
X70399035Y-94593433D01*
X70420382Y-94697751D01*
X70358758Y-94927733D01*
X70288112Y-95007401D01*
X70229791Y-95041073D01*
X70125473Y-95062420D01*
X69895491Y-95000796D01*
X69815823Y-94930151D01*
X69782151Y-94871829D01*
X48527643Y-93440834D02*
X48786462Y-92474908D01*
X49016444Y-92536531D01*
X49142109Y-92619502D01*
X49209452Y-92736144D01*
X49230799Y-92840462D01*
X49227497Y-93036773D01*
X49190523Y-93174762D01*
X49095227Y-93346423D01*
X49024582Y-93426091D01*
X48907939Y-93493435D01*
X48757625Y-93502457D01*
X48527643Y-93440834D01*
X49999530Y-93835225D02*
X49447572Y-93687328D01*
X49723551Y-93761276D02*
X49982370Y-92795350D01*
X49853403Y-92908690D01*
X49736761Y-92976034D01*
X49632443Y-92997381D01*
X51000012Y-93413119D02*
X50827466Y-94057069D01*
X50868628Y-92983524D02*
X50453774Y-93611847D01*
X51051729Y-93772068D01*
X29307643Y-92410834D02*
X29566462Y-91444908D01*
X29796444Y-91506531D01*
X29922109Y-91589502D01*
X29989452Y-91706144D01*
X30010799Y-91810462D01*
X30007497Y-92006773D01*
X29970523Y-92144762D01*
X29875227Y-92316423D01*
X29804582Y-92396091D01*
X29687939Y-92463435D01*
X29537625Y-92472457D01*
X29307643Y-92410834D01*
X30779530Y-92805225D02*
X30227572Y-92657328D01*
X30503551Y-92731276D02*
X30762370Y-91765350D01*
X30633403Y-91878690D01*
X30516761Y-91946034D01*
X30412443Y-91967381D01*
X31360324Y-91925572D02*
X31958278Y-92085793D01*
X31537705Y-92367492D01*
X31675695Y-92404466D01*
X31755363Y-92475112D01*
X31789035Y-92533433D01*
X31810382Y-92637751D01*
X31748758Y-92867733D01*
X31678112Y-92947401D01*
X31619791Y-92981073D01*
X31515473Y-93002420D01*
X31239494Y-92928472D01*
X31159826Y-92857826D01*
X31126154Y-92799505D01*
X270766536Y-71299394D02*
X270507717Y-70333468D01*
X270737700Y-70271845D01*
X270888014Y-70280867D01*
X271004656Y-70348211D01*
X271075302Y-70427879D01*
X271170597Y-70599540D01*
X271207572Y-70737529D01*
X271210874Y-70933840D01*
X271189527Y-71038158D01*
X271122183Y-71154800D01*
X270996519Y-71237771D01*
X270766536Y-71299394D01*
X272238423Y-70905003D02*
X271686466Y-71052900D01*
X271962445Y-70978952D02*
X271703625Y-70013026D01*
X271648607Y-70175665D01*
X271581263Y-70292307D01*
X271501595Y-70362953D01*
X272372225Y-69932473D02*
X272405897Y-69874151D01*
X272485565Y-69803506D01*
X272715548Y-69741882D01*
X272819865Y-69763229D01*
X272878187Y-69796901D01*
X272948833Y-69876569D01*
X272973482Y-69968562D01*
X272964460Y-70118876D01*
X272560399Y-70818730D01*
X273158353Y-70658509D01*
X251346536Y-72659394D02*
X251087717Y-71693468D01*
X251317700Y-71631845D01*
X251468014Y-71640867D01*
X251584656Y-71708211D01*
X251655302Y-71787879D01*
X251750597Y-71959540D01*
X251787572Y-72097529D01*
X251790874Y-72293840D01*
X251769527Y-72398158D01*
X251702183Y-72514800D01*
X251576519Y-72597771D01*
X251346536Y-72659394D01*
X252818423Y-72265003D02*
X252266466Y-72412900D01*
X252542445Y-72338952D02*
X252283625Y-71373026D01*
X252228607Y-71535665D01*
X252161263Y-71652307D01*
X252081595Y-71722953D01*
X253738353Y-72018509D02*
X253186395Y-72166406D01*
X253462374Y-72092457D02*
X253203555Y-71126531D01*
X253148536Y-71289170D01*
X253081193Y-71405813D01*
X253001524Y-71476459D01*
X232036536Y-73519394D02*
X231777717Y-72553468D01*
X232007700Y-72491845D01*
X232158014Y-72500867D01*
X232274656Y-72568211D01*
X232345302Y-72647879D01*
X232440597Y-72819540D01*
X232477572Y-72957529D01*
X232480874Y-73153840D01*
X232459527Y-73258158D01*
X232392183Y-73374800D01*
X232266519Y-73457771D01*
X232036536Y-73519394D01*
X233508423Y-73125003D02*
X232956466Y-73272900D01*
X233232445Y-73198952D02*
X232973625Y-72233026D01*
X232918607Y-72395665D01*
X232851263Y-72512307D01*
X232771595Y-72582953D01*
X233847558Y-71998856D02*
X233939551Y-71974207D01*
X234043869Y-71995554D01*
X234102190Y-72029226D01*
X234172836Y-72108894D01*
X234268131Y-72280555D01*
X234329755Y-72510537D01*
X234333057Y-72706848D01*
X234311710Y-72811165D01*
X234278039Y-72869487D01*
X234198370Y-72940133D01*
X234106377Y-72964782D01*
X234002060Y-72943435D01*
X233943739Y-72909763D01*
X233873093Y-72830095D01*
X233777797Y-72658434D01*
X233716174Y-72428451D01*
X233712871Y-72232141D01*
X233734218Y-72127823D01*
X233767890Y-72069502D01*
X233847558Y-71998856D01*
X212786501Y-74756147D02*
X212527682Y-73790221D01*
X212757664Y-73728598D01*
X212907978Y-73737620D01*
X213024621Y-73804963D01*
X213095267Y-73884632D01*
X213190562Y-74056293D01*
X213227536Y-74194282D01*
X213230839Y-74390593D01*
X213209492Y-74494910D01*
X213142148Y-74611553D01*
X213016483Y-74694523D01*
X212786501Y-74756147D01*
X213798423Y-74485003D02*
X213982409Y-74435704D01*
X214062077Y-74365059D01*
X214095749Y-74306737D01*
X214150768Y-74144099D01*
X214147466Y-73947788D01*
X214048868Y-73579816D01*
X213978222Y-73500148D01*
X213919901Y-73466476D01*
X213815583Y-73445129D01*
X213631597Y-73494428D01*
X213551929Y-73565074D01*
X213518257Y-73623395D01*
X213496910Y-73727713D01*
X213558534Y-73957695D01*
X213629180Y-74037363D01*
X213687501Y-74071035D01*
X213791819Y-74092382D01*
X213975804Y-74043083D01*
X214055473Y-73972437D01*
X214089144Y-73914116D01*
X214110491Y-73809799D01*
X195496501Y-83446147D02*
X195237682Y-82480221D01*
X195467664Y-82418598D01*
X195617978Y-82427620D01*
X195734621Y-82494963D01*
X195805267Y-82574632D01*
X195900562Y-82746293D01*
X195937536Y-82884282D01*
X195940839Y-83080593D01*
X195919492Y-83184910D01*
X195852148Y-83301553D01*
X195726483Y-83384523D01*
X195496501Y-83446147D01*
X196452520Y-82598396D02*
X196348202Y-82577049D01*
X196289881Y-82543377D01*
X196219235Y-82463709D01*
X196206910Y-82417713D01*
X196228257Y-82313395D01*
X196261929Y-82255074D01*
X196341597Y-82184428D01*
X196525583Y-82135129D01*
X196629901Y-82156476D01*
X196688222Y-82190148D01*
X196758868Y-82269816D01*
X196771193Y-82315813D01*
X196749846Y-82420130D01*
X196716174Y-82478451D01*
X196636506Y-82549097D01*
X196452520Y-82598396D01*
X196372851Y-82669042D01*
X196339180Y-82727363D01*
X196317833Y-82831681D01*
X196367132Y-83015667D01*
X196437777Y-83095335D01*
X196496099Y-83129007D01*
X196600416Y-83150354D01*
X196784402Y-83101055D01*
X196864070Y-83030409D01*
X196897742Y-82972088D01*
X196919089Y-82867770D01*
X196869790Y-82683784D01*
X196799144Y-82604116D01*
X196740823Y-82570444D01*
X196636506Y-82549097D01*
X177726501Y-92046147D02*
X177467682Y-91080221D01*
X177697664Y-91018598D01*
X177847978Y-91027620D01*
X177964621Y-91094963D01*
X178035267Y-91174632D01*
X178130562Y-91346293D01*
X178167536Y-91484282D01*
X178170839Y-91680593D01*
X178149492Y-91784910D01*
X178082148Y-91901553D01*
X177956483Y-91984523D01*
X177726501Y-92046147D01*
X178341615Y-90846052D02*
X178985565Y-90673506D01*
X178830416Y-91750354D01*
X127317607Y-94854081D02*
X127576426Y-93888155D01*
X127806409Y-93949779D01*
X127932074Y-94032749D01*
X127999417Y-94149392D01*
X128020764Y-94253709D01*
X128017462Y-94450020D01*
X127980488Y-94588009D01*
X127885192Y-94759670D01*
X127814546Y-94839339D01*
X127697904Y-94906682D01*
X127547590Y-94915704D01*
X127317607Y-94854081D01*
X128956321Y-94257897D02*
X128772335Y-94208598D01*
X128668017Y-94229945D01*
X128609696Y-94263616D01*
X128480729Y-94376956D01*
X128385433Y-94548618D01*
X128286836Y-94916589D01*
X128308183Y-95020907D01*
X128341854Y-95079228D01*
X128421523Y-95149874D01*
X128605509Y-95199173D01*
X128709826Y-95177826D01*
X128768147Y-95144154D01*
X128838793Y-95064486D01*
X128900417Y-94834504D01*
X128879070Y-94730186D01*
X128845398Y-94671865D01*
X128765730Y-94601219D01*
X128581744Y-94551920D01*
X128477426Y-94573267D01*
X128419105Y-94606939D01*
X128348459Y-94686607D01*
X110077607Y-86014081D02*
X110336426Y-85048155D01*
X110566409Y-85109779D01*
X110692074Y-85192749D01*
X110759417Y-85309392D01*
X110780764Y-85413709D01*
X110777462Y-85610020D01*
X110740488Y-85748009D01*
X110645192Y-85919670D01*
X110574546Y-85999339D01*
X110457904Y-86066682D01*
X110307590Y-86075704D01*
X110077607Y-86014081D01*
X111762317Y-85430221D02*
X111302352Y-85306974D01*
X111133109Y-85754614D01*
X111191430Y-85720942D01*
X111295748Y-85699595D01*
X111525730Y-85761219D01*
X111605398Y-85831865D01*
X111639070Y-85890186D01*
X111660417Y-85994504D01*
X111598793Y-86224486D01*
X111528147Y-86304154D01*
X111469826Y-86337826D01*
X111365509Y-86359173D01*
X111135526Y-86297549D01*
X111055858Y-86226903D01*
X111022186Y-86168582D01*
X93257607Y-77434081D02*
X93516426Y-76468155D01*
X93746409Y-76529779D01*
X93872074Y-76612749D01*
X93939417Y-76729392D01*
X93960764Y-76833709D01*
X93957462Y-77030020D01*
X93920488Y-77168009D01*
X93825192Y-77339670D01*
X93754546Y-77419339D01*
X93637904Y-77486682D01*
X93487590Y-77495704D01*
X93257607Y-77434081D01*
X94810048Y-77159872D02*
X94637501Y-77803822D01*
X94678663Y-76730276D02*
X94263810Y-77358600D01*
X94861764Y-77518821D01*
X73177607Y-76234081D02*
X73436426Y-75268155D01*
X73666409Y-75329779D01*
X73792074Y-75412749D01*
X73859417Y-75529392D01*
X73880764Y-75633709D01*
X73877462Y-75830020D01*
X73840488Y-75968009D01*
X73745192Y-76139670D01*
X73674546Y-76219339D01*
X73557904Y-76286682D01*
X73407590Y-76295704D01*
X73177607Y-76234081D01*
X74310359Y-75502325D02*
X74908313Y-75662546D01*
X74487740Y-75944245D01*
X74625730Y-75981219D01*
X74705398Y-76051865D01*
X74739070Y-76110186D01*
X74760417Y-76214504D01*
X74698793Y-76444486D01*
X74628147Y-76524154D01*
X74569826Y-76557826D01*
X74465509Y-76579173D01*
X74189530Y-76505225D01*
X74109862Y-76434579D01*
X74076190Y-76376258D01*
X53687607Y-75204081D02*
X53946426Y-74238155D01*
X54176409Y-74299779D01*
X54302074Y-74382749D01*
X54369417Y-74499392D01*
X54390764Y-74603709D01*
X54387462Y-74800020D01*
X54350488Y-74938009D01*
X54255192Y-75109670D01*
X54184546Y-75189339D01*
X54067904Y-75256682D01*
X53917590Y-75265704D01*
X53687607Y-75204081D01*
X54841706Y-74576642D02*
X54900028Y-74542971D01*
X55004345Y-74521623D01*
X55234328Y-74583247D01*
X55313996Y-74653893D01*
X55347668Y-74712214D01*
X55369015Y-74816532D01*
X55344365Y-74908525D01*
X55261395Y-75034189D01*
X54561540Y-75438250D01*
X55159494Y-75598472D01*
X34197607Y-73934081D02*
X34456426Y-72968155D01*
X34686409Y-73029779D01*
X34812074Y-73112749D01*
X34879417Y-73229392D01*
X34900764Y-73333709D01*
X34897462Y-73530020D01*
X34860488Y-73668009D01*
X34765192Y-73839670D01*
X34694546Y-73919339D01*
X34577904Y-73986682D01*
X34427590Y-73995704D01*
X34197607Y-73934081D01*
X35669494Y-74328472D02*
X35117537Y-74180575D01*
X35393516Y-74254523D02*
X35652335Y-73288598D01*
X35523368Y-73401938D01*
X35406725Y-73469281D01*
X35302408Y-73490628D01*
X109967926Y-136620223D02*
X110093590Y-136703194D01*
X110323573Y-136764817D01*
X110427890Y-136743470D01*
X110486211Y-136709799D01*
X110556857Y-136630130D01*
X110581507Y-136538138D01*
X110560160Y-136433820D01*
X110526488Y-136375499D01*
X110446820Y-136304853D01*
X110275159Y-136209557D01*
X110195490Y-136138912D01*
X110161819Y-136080590D01*
X110140472Y-135976273D01*
X110165121Y-135884280D01*
X110235767Y-135804612D01*
X110294088Y-135770940D01*
X110398406Y-135749593D01*
X110628388Y-135811216D01*
X110754053Y-135894187D01*
X111088353Y-135934464D02*
X111059516Y-136962013D01*
X111428373Y-136321365D01*
X111427488Y-137060611D01*
X111916289Y-136156308D01*
X112192268Y-136230257D02*
X112790222Y-136390478D01*
X112369649Y-136672177D01*
X112507639Y-136709151D01*
X112587307Y-136779797D01*
X112620979Y-136838118D01*
X112642326Y-136942436D01*
X112580702Y-137172418D01*
X112510056Y-137252086D01*
X112451735Y-137285758D01*
X112347417Y-137307105D01*
X112071438Y-137233157D01*
X111991770Y-137162511D01*
X111958098Y-137104190D01*
X113231257Y-136952343D02*
X113151589Y-136881697D01*
X113117917Y-136823376D01*
X113096570Y-136719058D01*
X113108895Y-136673062D01*
X113179541Y-136593393D01*
X113237862Y-136559722D01*
X113342180Y-136538375D01*
X113526166Y-136587673D01*
X113605834Y-136658319D01*
X113639506Y-136716641D01*
X113660853Y-136820958D01*
X113648528Y-136866955D01*
X113577882Y-136946623D01*
X113519561Y-136980295D01*
X113415243Y-137001642D01*
X113231257Y-136952343D01*
X113126940Y-136973690D01*
X113068618Y-137007362D01*
X112997973Y-137087030D01*
X112948674Y-137271016D01*
X112970021Y-137375333D01*
X113003693Y-137433655D01*
X113083361Y-137504300D01*
X113267347Y-137553599D01*
X113371664Y-137532252D01*
X113429985Y-137498581D01*
X113500631Y-137418912D01*
X113549930Y-137234926D01*
X113528583Y-137130609D01*
X113494911Y-137072288D01*
X113415243Y-137001642D01*
X200556342Y-132621902D02*
X200706656Y-132630924D01*
X200936638Y-132569300D01*
X201016306Y-132498655D01*
X201049978Y-132440333D01*
X201071325Y-132336016D01*
X201046676Y-132244023D01*
X200976030Y-132164355D01*
X200917709Y-132130683D01*
X200813391Y-132109336D01*
X200617081Y-132112638D01*
X200512763Y-132091291D01*
X200454442Y-132057619D01*
X200383796Y-131977951D01*
X200359146Y-131885958D01*
X200380493Y-131781641D01*
X200414165Y-131723319D01*
X200493833Y-131652673D01*
X200723816Y-131591050D01*
X200874130Y-131600072D01*
X201183780Y-131467803D02*
X201672582Y-132372105D01*
X201671697Y-131632859D01*
X202040553Y-132273507D01*
X202011717Y-131245958D01*
X202879930Y-131358413D02*
X203052476Y-132002363D01*
X202551350Y-131052065D02*
X202506238Y-131803635D01*
X203104192Y-131643414D01*
X203278271Y-131005183D02*
X203311943Y-130946862D01*
X203391611Y-130876216D01*
X203621593Y-130814593D01*
X203725911Y-130835940D01*
X203784232Y-130869612D01*
X203854878Y-130949280D01*
X203879527Y-131041273D01*
X203870505Y-131191587D01*
X203466444Y-131891441D01*
X204064398Y-131731220D01*
X182136342Y-137551902D02*
X182286656Y-137560924D01*
X182516638Y-137499300D01*
X182596306Y-137428655D01*
X182629978Y-137370333D01*
X182651325Y-137266016D01*
X182626676Y-137174023D01*
X182556030Y-137094355D01*
X182497709Y-137060683D01*
X182393391Y-137039336D01*
X182197081Y-137042638D01*
X182092763Y-137021291D01*
X182034442Y-136987619D01*
X181963796Y-136907951D01*
X181939146Y-136815958D01*
X181960493Y-136711641D01*
X181994165Y-136653319D01*
X182073833Y-136582673D01*
X182303816Y-136521050D01*
X182454130Y-136530072D01*
X182763780Y-136397803D02*
X183252582Y-137302105D01*
X183251697Y-136562859D01*
X183620553Y-137203507D01*
X183591717Y-136175958D01*
X184459930Y-136288413D02*
X184632476Y-136932363D01*
X184131350Y-135982065D02*
X184086238Y-136733635D01*
X184684192Y-136573414D01*
X185644398Y-136661220D02*
X185092440Y-136809116D01*
X185368419Y-136735168D02*
X185109600Y-135769242D01*
X185054581Y-135931881D01*
X184987238Y-136048523D01*
X184907570Y-136119169D01*
X91567926Y-131685223D02*
X91693590Y-131768194D01*
X91923573Y-131829817D01*
X92027890Y-131808470D01*
X92086211Y-131774799D01*
X92156857Y-131695130D01*
X92181507Y-131603138D01*
X92160160Y-131498820D01*
X92126488Y-131440499D01*
X92046820Y-131369853D01*
X91875159Y-131274557D01*
X91795490Y-131203912D01*
X91761819Y-131145590D01*
X91740472Y-131041273D01*
X91765121Y-130949280D01*
X91835767Y-130869612D01*
X91894088Y-130835940D01*
X91998406Y-130814593D01*
X92228388Y-130876216D01*
X92354053Y-130959187D01*
X92688353Y-130999464D02*
X92659516Y-132027013D01*
X93028373Y-131386365D01*
X93027488Y-132125611D01*
X93516289Y-131221308D01*
X93792268Y-131295257D02*
X94390222Y-131455478D01*
X93969649Y-131737177D01*
X94107639Y-131774151D01*
X94187307Y-131844797D01*
X94220979Y-131903118D01*
X94242326Y-132007436D01*
X94180702Y-132237418D01*
X94110056Y-132317086D01*
X94051735Y-132350758D01*
X93947417Y-132372105D01*
X93671438Y-132298157D01*
X93591770Y-132227511D01*
X93558098Y-132169190D01*
X94712197Y-131541751D02*
X95356148Y-131714297D01*
X94683361Y-132569300D01*
X270066342Y-95591902D02*
X270216656Y-95600924D01*
X270446638Y-95539300D01*
X270526306Y-95468655D01*
X270559978Y-95410333D01*
X270581325Y-95306016D01*
X270556676Y-95214023D01*
X270486030Y-95134355D01*
X270427709Y-95100683D01*
X270323391Y-95079336D01*
X270127081Y-95082638D01*
X270022763Y-95061291D01*
X269964442Y-95027619D01*
X269893796Y-94947951D01*
X269869146Y-94855958D01*
X269890493Y-94751641D01*
X269924165Y-94693319D01*
X270003833Y-94622673D01*
X270233816Y-94561050D01*
X270384130Y-94570072D01*
X270693780Y-94437803D02*
X271182582Y-95342105D01*
X271181697Y-94602859D01*
X271550553Y-95243507D01*
X271521717Y-94215958D01*
X271797696Y-94142010D02*
X272395650Y-93981788D01*
X272172272Y-94436033D01*
X272310262Y-94399059D01*
X272414579Y-94420406D01*
X272472900Y-94454078D01*
X272543546Y-94533746D01*
X272605170Y-94763728D01*
X272583823Y-94868046D01*
X272550151Y-94926367D01*
X272470483Y-94997013D01*
X272194504Y-95070961D01*
X272090186Y-95049614D01*
X272031865Y-95015942D01*
X273223586Y-93759943D02*
X273039600Y-93809242D01*
X272959932Y-93879888D01*
X272926260Y-93938209D01*
X272871241Y-94100848D01*
X272874544Y-94297159D01*
X272973142Y-94665130D01*
X273043788Y-94744799D01*
X273102109Y-94778470D01*
X273206426Y-94799817D01*
X273390412Y-94750519D01*
X273470080Y-94679873D01*
X273503752Y-94621552D01*
X273525099Y-94517234D01*
X273463476Y-94287252D01*
X273392830Y-94207583D01*
X273334509Y-94173912D01*
X273230191Y-94152565D01*
X273046205Y-94201863D01*
X272966537Y-94272509D01*
X272932865Y-94330830D01*
X272911518Y-94435148D01*
X250646342Y-96701902D02*
X250796656Y-96710924D01*
X251026638Y-96649300D01*
X251106306Y-96578655D01*
X251139978Y-96520333D01*
X251161325Y-96416016D01*
X251136676Y-96324023D01*
X251066030Y-96244355D01*
X251007709Y-96210683D01*
X250903391Y-96189336D01*
X250707081Y-96192638D01*
X250602763Y-96171291D01*
X250544442Y-96137619D01*
X250473796Y-96057951D01*
X250449146Y-95965958D01*
X250470493Y-95861641D01*
X250504165Y-95803319D01*
X250583833Y-95732673D01*
X250813816Y-95671050D01*
X250964130Y-95680072D01*
X251273780Y-95547803D02*
X251762582Y-96452105D01*
X251761697Y-95712859D01*
X252130553Y-96353507D01*
X252101717Y-95325958D01*
X252377696Y-95252010D02*
X252975650Y-95091788D01*
X252752272Y-95546033D01*
X252890262Y-95509059D01*
X252994579Y-95530406D01*
X253052900Y-95564078D01*
X253123546Y-95643746D01*
X253185170Y-95873728D01*
X253163823Y-95978046D01*
X253130151Y-96036367D01*
X253050483Y-96107013D01*
X252774504Y-96180961D01*
X252670186Y-96159614D01*
X252611865Y-96125942D01*
X253849583Y-94857619D02*
X253389618Y-94980866D01*
X253466869Y-95453155D01*
X253500540Y-95394834D01*
X253580209Y-95324188D01*
X253810191Y-95262565D01*
X253914509Y-95283912D01*
X253972830Y-95317583D01*
X254043476Y-95397252D01*
X254105099Y-95627234D01*
X254083752Y-95731552D01*
X254050080Y-95789873D01*
X253970412Y-95860519D01*
X253740430Y-95922142D01*
X253636112Y-95900795D01*
X253577791Y-95867123D01*
X231226342Y-97761902D02*
X231376656Y-97770924D01*
X231606638Y-97709300D01*
X231686306Y-97638655D01*
X231719978Y-97580333D01*
X231741325Y-97476016D01*
X231716676Y-97384023D01*
X231646030Y-97304355D01*
X231587709Y-97270683D01*
X231483391Y-97249336D01*
X231287081Y-97252638D01*
X231182763Y-97231291D01*
X231124442Y-97197619D01*
X231053796Y-97117951D01*
X231029146Y-97025958D01*
X231050493Y-96921641D01*
X231084165Y-96863319D01*
X231163833Y-96792673D01*
X231393816Y-96731050D01*
X231544130Y-96740072D01*
X231853780Y-96607803D02*
X232342582Y-97512105D01*
X232341697Y-96772859D01*
X232710553Y-97413507D01*
X232681717Y-96385958D01*
X232957696Y-96312010D02*
X233555650Y-96151788D01*
X233332272Y-96606033D01*
X233470262Y-96569059D01*
X233574579Y-96590406D01*
X233632900Y-96624078D01*
X233703546Y-96703746D01*
X233765170Y-96933728D01*
X233743823Y-97038046D01*
X233710151Y-97096367D01*
X233630483Y-97167013D01*
X233354504Y-97240961D01*
X233250186Y-97219614D01*
X233191865Y-97185942D01*
X234469859Y-96251919D02*
X234642405Y-96895869D01*
X234141279Y-95945570D02*
X234096167Y-96697141D01*
X234694122Y-96536920D01*
X211761342Y-98831902D02*
X211911656Y-98840924D01*
X212141638Y-98779300D01*
X212221306Y-98708655D01*
X212254978Y-98650333D01*
X212276325Y-98546016D01*
X212251676Y-98454023D01*
X212181030Y-98374355D01*
X212122709Y-98340683D01*
X212018391Y-98319336D01*
X211822081Y-98322638D01*
X211717763Y-98301291D01*
X211659442Y-98267619D01*
X211588796Y-98187951D01*
X211564146Y-98095958D01*
X211585493Y-97991641D01*
X211619165Y-97933319D01*
X211698833Y-97862673D01*
X211928816Y-97801050D01*
X212079130Y-97810072D01*
X212388780Y-97677803D02*
X212877582Y-98582105D01*
X212876697Y-97842859D01*
X213245553Y-98483507D01*
X213216717Y-97455958D01*
X213492696Y-97382010D02*
X214090650Y-97221788D01*
X213867272Y-97676033D01*
X214005262Y-97639059D01*
X214109579Y-97660406D01*
X214167900Y-97694078D01*
X214238546Y-97773746D01*
X214300170Y-98003728D01*
X214278823Y-98108046D01*
X214245151Y-98166367D01*
X214165483Y-98237013D01*
X213889504Y-98310961D01*
X213785186Y-98289614D01*
X213726865Y-98255942D01*
X214412625Y-97135515D02*
X215010579Y-96975294D01*
X214787201Y-97429539D01*
X214925191Y-97392565D01*
X215029509Y-97413912D01*
X215087830Y-97447583D01*
X215158476Y-97527252D01*
X215220099Y-97757234D01*
X215198752Y-97861552D01*
X215165080Y-97919873D01*
X215085412Y-97990519D01*
X214809433Y-98064467D01*
X214705116Y-98043120D01*
X214646795Y-98009448D01*
X194411342Y-107621902D02*
X194561656Y-107630924D01*
X194791638Y-107569300D01*
X194871306Y-107498655D01*
X194904978Y-107440333D01*
X194926325Y-107336016D01*
X194901676Y-107244023D01*
X194831030Y-107164355D01*
X194772709Y-107130683D01*
X194668391Y-107109336D01*
X194472081Y-107112638D01*
X194367763Y-107091291D01*
X194309442Y-107057619D01*
X194238796Y-106977951D01*
X194214146Y-106885958D01*
X194235493Y-106781641D01*
X194269165Y-106723319D01*
X194348833Y-106652673D01*
X194578816Y-106591050D01*
X194729130Y-106600072D01*
X195038780Y-106467803D02*
X195527582Y-107372105D01*
X195526697Y-106632859D01*
X195895553Y-107273507D01*
X195866717Y-106245958D01*
X196142696Y-106172010D02*
X196740650Y-106011788D01*
X196517272Y-106466033D01*
X196655262Y-106429059D01*
X196759579Y-106450406D01*
X196817900Y-106484078D01*
X196888546Y-106563746D01*
X196950170Y-106793728D01*
X196928823Y-106898046D01*
X196895151Y-106956367D01*
X196815483Y-107027013D01*
X196539504Y-107100961D01*
X196435186Y-107079614D01*
X196376865Y-107045942D01*
X197133271Y-106005183D02*
X197166943Y-105946862D01*
X197246611Y-105876216D01*
X197476593Y-105814593D01*
X197580911Y-105835940D01*
X197639232Y-105869612D01*
X197709878Y-105949280D01*
X197734527Y-106041273D01*
X197725505Y-106191587D01*
X197321444Y-106891441D01*
X197919398Y-106731220D01*
X177056342Y-116411902D02*
X177206656Y-116420924D01*
X177436638Y-116359300D01*
X177516306Y-116288655D01*
X177549978Y-116230333D01*
X177571325Y-116126016D01*
X177546676Y-116034023D01*
X177476030Y-115954355D01*
X177417709Y-115920683D01*
X177313391Y-115899336D01*
X177117081Y-115902638D01*
X177012763Y-115881291D01*
X176954442Y-115847619D01*
X176883796Y-115767951D01*
X176859146Y-115675958D01*
X176880493Y-115571641D01*
X176914165Y-115513319D01*
X176993833Y-115442673D01*
X177223816Y-115381050D01*
X177374130Y-115390072D01*
X177683780Y-115257803D02*
X178172582Y-116162105D01*
X178171697Y-115422859D01*
X178540553Y-116063507D01*
X178511717Y-115035958D01*
X178787696Y-114962010D02*
X179385650Y-114801788D01*
X179162272Y-115256033D01*
X179300262Y-115219059D01*
X179404579Y-115240406D01*
X179462900Y-115274078D01*
X179533546Y-115353746D01*
X179595170Y-115583728D01*
X179573823Y-115688046D01*
X179540151Y-115746367D01*
X179460483Y-115817013D01*
X179184504Y-115890961D01*
X179080186Y-115869614D01*
X179021865Y-115835942D01*
X180564398Y-115521220D02*
X180012440Y-115669116D01*
X180288419Y-115595168D02*
X180029600Y-114629242D01*
X179974581Y-114791881D01*
X179907238Y-114908523D01*
X179827570Y-114979169D01*
X115067926Y-115495223D02*
X115193590Y-115578194D01*
X115423573Y-115639817D01*
X115527890Y-115618470D01*
X115586211Y-115584799D01*
X115656857Y-115505130D01*
X115681507Y-115413138D01*
X115660160Y-115308820D01*
X115626488Y-115250499D01*
X115546820Y-115179853D01*
X115375159Y-115084557D01*
X115295490Y-115013912D01*
X115261819Y-114955590D01*
X115240472Y-114851273D01*
X115265121Y-114759280D01*
X115335767Y-114679612D01*
X115394088Y-114645940D01*
X115498406Y-114624593D01*
X115728388Y-114686216D01*
X115854053Y-114769187D01*
X116188353Y-114809464D02*
X116159516Y-115837013D01*
X116528373Y-115196365D01*
X116527488Y-115935611D01*
X117016289Y-115031308D01*
X117292268Y-115105257D02*
X117890222Y-115265478D01*
X117469649Y-115547177D01*
X117607639Y-115584151D01*
X117687307Y-115654797D01*
X117720979Y-115713118D01*
X117742326Y-115817436D01*
X117680702Y-116047418D01*
X117610056Y-116127086D01*
X117551735Y-116160758D01*
X117447417Y-116182105D01*
X117171438Y-116108157D01*
X117091770Y-116037511D01*
X117058098Y-115979190D01*
X118488176Y-115425699D02*
X118580169Y-115450349D01*
X118659837Y-115520995D01*
X118693509Y-115579316D01*
X118714856Y-115683633D01*
X118711554Y-115879944D01*
X118649930Y-116109926D01*
X118554635Y-116281588D01*
X118483989Y-116361256D01*
X118425668Y-116394928D01*
X118321350Y-116416275D01*
X118229357Y-116391625D01*
X118149689Y-116320979D01*
X118116017Y-116262658D01*
X118094670Y-116158340D01*
X118097973Y-115962030D01*
X118159596Y-115732047D01*
X118254892Y-115560386D01*
X118325537Y-115480718D01*
X118383859Y-115447046D01*
X118488176Y-115425699D01*
X97697926Y-106705223D02*
X97823590Y-106788194D01*
X98053573Y-106849817D01*
X98157890Y-106828470D01*
X98216211Y-106794799D01*
X98286857Y-106715130D01*
X98311507Y-106623138D01*
X98290160Y-106518820D01*
X98256488Y-106460499D01*
X98176820Y-106389853D01*
X98005159Y-106294557D01*
X97925490Y-106223912D01*
X97891819Y-106165590D01*
X97870472Y-106061273D01*
X97895121Y-105969280D01*
X97965767Y-105889612D01*
X98024088Y-105855940D01*
X98128406Y-105834593D01*
X98358388Y-105896216D01*
X98484053Y-105979187D01*
X98818353Y-106019464D02*
X98789516Y-107047013D01*
X99158373Y-106406365D01*
X99157488Y-107145611D01*
X99646289Y-106241308D01*
X99943615Y-106419574D02*
X100001936Y-106385903D01*
X100106254Y-106364556D01*
X100336236Y-106426179D01*
X100415905Y-106496825D01*
X100449576Y-106555146D01*
X100470923Y-106659464D01*
X100446274Y-106751457D01*
X100363303Y-106877122D01*
X99663449Y-107281183D01*
X100261403Y-107441404D01*
X100721368Y-107564651D02*
X100905354Y-107613950D01*
X101009671Y-107592603D01*
X101067993Y-107558931D01*
X101196960Y-107445591D01*
X101292255Y-107273930D01*
X101390853Y-106905958D01*
X101369506Y-106801641D01*
X101335834Y-106743319D01*
X101256166Y-106672673D01*
X101072180Y-106623375D01*
X100967862Y-106644722D01*
X100909541Y-106678393D01*
X100838895Y-106758062D01*
X100777271Y-106988044D01*
X100798618Y-107092362D01*
X100832290Y-107150683D01*
X100911958Y-107221329D01*
X101095944Y-107270628D01*
X101200262Y-107249281D01*
X101258583Y-107215609D01*
X101329229Y-107135941D01*
X80342926Y-97895223D02*
X80468590Y-97978194D01*
X80698573Y-98039817D01*
X80802890Y-98018470D01*
X80861211Y-97984799D01*
X80931857Y-97905130D01*
X80956507Y-97813138D01*
X80935160Y-97708820D01*
X80901488Y-97650499D01*
X80821820Y-97579853D01*
X80650159Y-97484557D01*
X80570490Y-97413912D01*
X80536819Y-97355590D01*
X80515472Y-97251273D01*
X80540121Y-97159280D01*
X80610767Y-97079612D01*
X80669088Y-97045940D01*
X80773406Y-97024593D01*
X81003388Y-97086216D01*
X81129053Y-97169187D01*
X81463353Y-97209464D02*
X81434516Y-98237013D01*
X81803373Y-97596365D01*
X81802488Y-98335611D01*
X82291289Y-97431308D01*
X82588615Y-97609574D02*
X82646936Y-97575903D01*
X82751254Y-97554556D01*
X82981236Y-97616179D01*
X83060905Y-97686825D01*
X83094576Y-97745146D01*
X83115923Y-97849464D01*
X83091274Y-97941457D01*
X83008303Y-98067122D01*
X82308449Y-98471183D01*
X82906403Y-98631404D01*
X83606257Y-98227343D02*
X83526589Y-98156697D01*
X83492917Y-98098376D01*
X83471570Y-97994058D01*
X83483895Y-97948062D01*
X83554541Y-97868393D01*
X83612862Y-97834722D01*
X83717180Y-97813375D01*
X83901166Y-97862673D01*
X83980834Y-97933319D01*
X84014506Y-97991641D01*
X84035853Y-98095958D01*
X84023528Y-98141955D01*
X83952882Y-98221623D01*
X83894561Y-98255295D01*
X83790243Y-98276642D01*
X83606257Y-98227343D01*
X83501940Y-98248690D01*
X83443618Y-98282362D01*
X83372973Y-98362030D01*
X83323674Y-98546016D01*
X83345021Y-98650333D01*
X83378693Y-98708655D01*
X83458361Y-98779300D01*
X83642347Y-98828599D01*
X83746664Y-98807252D01*
X83804985Y-98773581D01*
X83875631Y-98693912D01*
X83924930Y-98509926D01*
X83903583Y-98405609D01*
X83869911Y-98347288D01*
X83790243Y-98276642D01*
X60907926Y-96825223D02*
X61033590Y-96908194D01*
X61263573Y-96969817D01*
X61367890Y-96948470D01*
X61426211Y-96914799D01*
X61496857Y-96835130D01*
X61521507Y-96743138D01*
X61500160Y-96638820D01*
X61466488Y-96580499D01*
X61386820Y-96509853D01*
X61215159Y-96414557D01*
X61135490Y-96343912D01*
X61101819Y-96285590D01*
X61080472Y-96181273D01*
X61105121Y-96089280D01*
X61175767Y-96009612D01*
X61234088Y-95975940D01*
X61338406Y-95954593D01*
X61568388Y-96016216D01*
X61694053Y-96099187D01*
X62028353Y-96139464D02*
X61999516Y-97167013D01*
X62368373Y-96526365D01*
X62367488Y-97265611D01*
X62856289Y-96361308D01*
X63153615Y-96539574D02*
X63211936Y-96505903D01*
X63316254Y-96484556D01*
X63546236Y-96546179D01*
X63625905Y-96616825D01*
X63659576Y-96675146D01*
X63680923Y-96779464D01*
X63656274Y-96871457D01*
X63573303Y-96997122D01*
X62873449Y-97401183D01*
X63471403Y-97561404D01*
X64052197Y-96681751D02*
X64696148Y-96854297D01*
X64023361Y-97709300D01*
X41477926Y-95765223D02*
X41603590Y-95848194D01*
X41833573Y-95909817D01*
X41937890Y-95888470D01*
X41996211Y-95854799D01*
X42066857Y-95775130D01*
X42091507Y-95683138D01*
X42070160Y-95578820D01*
X42036488Y-95520499D01*
X41956820Y-95449853D01*
X41785159Y-95354557D01*
X41705490Y-95283912D01*
X41671819Y-95225590D01*
X41650472Y-95121273D01*
X41675121Y-95029280D01*
X41745767Y-94949612D01*
X41804088Y-94915940D01*
X41908406Y-94894593D01*
X42138388Y-94956216D01*
X42264053Y-95039187D01*
X42598353Y-95079464D02*
X42569516Y-96107013D01*
X42938373Y-95466365D01*
X42937488Y-96205611D01*
X43426289Y-95301308D01*
X43723615Y-95479574D02*
X43781936Y-95445903D01*
X43886254Y-95424556D01*
X44116236Y-95486179D01*
X44195905Y-95556825D01*
X44229576Y-95615146D01*
X44250923Y-95719464D01*
X44226274Y-95811457D01*
X44143303Y-95937122D01*
X43443449Y-96341183D01*
X44041403Y-96501404D01*
X45128159Y-95757323D02*
X44944173Y-95708024D01*
X44839855Y-95729371D01*
X44781534Y-95763043D01*
X44652567Y-95876383D01*
X44557271Y-96048044D01*
X44458674Y-96416016D01*
X44480021Y-96520333D01*
X44513693Y-96578655D01*
X44593361Y-96649300D01*
X44777347Y-96698599D01*
X44881664Y-96677252D01*
X44939985Y-96643581D01*
X45010631Y-96563912D01*
X45072255Y-96333930D01*
X45050908Y-96229612D01*
X45017236Y-96171291D01*
X44937568Y-96100645D01*
X44753582Y-96051346D01*
X44649264Y-96072693D01*
X44590943Y-96106365D01*
X44520297Y-96186033D01*
X22042926Y-94645223D02*
X22168590Y-94728194D01*
X22398573Y-94789817D01*
X22502890Y-94768470D01*
X22561211Y-94734799D01*
X22631857Y-94655130D01*
X22656507Y-94563138D01*
X22635160Y-94458820D01*
X22601488Y-94400499D01*
X22521820Y-94329853D01*
X22350159Y-94234557D01*
X22270490Y-94163912D01*
X22236819Y-94105590D01*
X22215472Y-94001273D01*
X22240121Y-93909280D01*
X22310767Y-93829612D01*
X22369088Y-93795940D01*
X22473406Y-93774593D01*
X22703388Y-93836216D01*
X22829053Y-93919187D01*
X23163353Y-93959464D02*
X23134516Y-94987013D01*
X23503373Y-94346365D01*
X23502488Y-95085611D01*
X23991289Y-94181308D01*
X24288615Y-94359574D02*
X24346936Y-94325903D01*
X24451254Y-94304556D01*
X24681236Y-94366179D01*
X24760905Y-94436825D01*
X24794576Y-94495146D01*
X24815923Y-94599464D01*
X24791274Y-94691457D01*
X24708303Y-94817122D01*
X24008449Y-95221183D01*
X24606403Y-95381404D01*
X25739155Y-94649648D02*
X25279190Y-94526400D01*
X25109947Y-94974040D01*
X25168268Y-94940369D01*
X25272586Y-94919022D01*
X25502568Y-94980645D01*
X25582236Y-95051291D01*
X25615908Y-95109612D01*
X25637255Y-95213930D01*
X25575631Y-95443912D01*
X25504985Y-95523581D01*
X25446664Y-95557252D01*
X25342347Y-95578599D01*
X25112364Y-95516976D01*
X25032696Y-95446330D01*
X24999024Y-95388009D01*
X265146342Y-77181902D02*
X265296656Y-77190924D01*
X265526638Y-77129300D01*
X265606306Y-77058655D01*
X265639978Y-77000333D01*
X265661325Y-76896016D01*
X265636676Y-76804023D01*
X265566030Y-76724355D01*
X265507709Y-76690683D01*
X265403391Y-76669336D01*
X265207081Y-76672638D01*
X265102763Y-76651291D01*
X265044442Y-76617619D01*
X264973796Y-76537951D01*
X264949146Y-76445958D01*
X264970493Y-76341641D01*
X265004165Y-76283319D01*
X265083833Y-76212673D01*
X265313816Y-76151050D01*
X265464130Y-76160072D01*
X265773780Y-76027803D02*
X266262582Y-76932105D01*
X266261697Y-76192859D01*
X266630553Y-76833507D01*
X266601717Y-75805958D01*
X266948342Y-75811678D02*
X266982013Y-75753357D01*
X267061681Y-75682711D01*
X267291664Y-75621087D01*
X267395981Y-75642434D01*
X267454303Y-75676106D01*
X267524949Y-75755774D01*
X267549598Y-75847767D01*
X267540576Y-75998081D01*
X267136515Y-76697935D01*
X267734469Y-76537714D01*
X268389859Y-75671919D02*
X268562405Y-76315869D01*
X268061279Y-75365570D02*
X268016167Y-76117141D01*
X268614122Y-75956920D01*
X245686342Y-78256902D02*
X245836656Y-78265924D01*
X246066638Y-78204300D01*
X246146306Y-78133655D01*
X246179978Y-78075333D01*
X246201325Y-77971016D01*
X246176676Y-77879023D01*
X246106030Y-77799355D01*
X246047709Y-77765683D01*
X245943391Y-77744336D01*
X245747081Y-77747638D01*
X245642763Y-77726291D01*
X245584442Y-77692619D01*
X245513796Y-77612951D01*
X245489146Y-77520958D01*
X245510493Y-77416641D01*
X245544165Y-77358319D01*
X245623833Y-77287673D01*
X245853816Y-77226050D01*
X246004130Y-77235072D01*
X246313780Y-77102803D02*
X246802582Y-78007105D01*
X246801697Y-77267859D01*
X247170553Y-77908507D01*
X247141717Y-76880958D01*
X247488342Y-76886678D02*
X247522013Y-76828357D01*
X247601681Y-76757711D01*
X247831664Y-76696087D01*
X247935981Y-76717434D01*
X247994303Y-76751106D01*
X248064949Y-76830774D01*
X248089598Y-76922767D01*
X248080576Y-77073081D01*
X247676515Y-77772935D01*
X248274469Y-77612714D01*
X248337625Y-76560515D02*
X248935579Y-76400294D01*
X248712201Y-76854539D01*
X248850191Y-76817565D01*
X248954509Y-76838912D01*
X249012830Y-76872583D01*
X249083476Y-76952252D01*
X249145099Y-77182234D01*
X249123752Y-77286552D01*
X249090080Y-77344873D01*
X249010412Y-77415519D01*
X248734433Y-77489467D01*
X248630116Y-77468120D01*
X248571795Y-77434448D01*
X226286342Y-79356902D02*
X226436656Y-79365924D01*
X226666638Y-79304300D01*
X226746306Y-79233655D01*
X226779978Y-79175333D01*
X226801325Y-79071016D01*
X226776676Y-78979023D01*
X226706030Y-78899355D01*
X226647709Y-78865683D01*
X226543391Y-78844336D01*
X226347081Y-78847638D01*
X226242763Y-78826291D01*
X226184442Y-78792619D01*
X226113796Y-78712951D01*
X226089146Y-78620958D01*
X226110493Y-78516641D01*
X226144165Y-78458319D01*
X226223833Y-78387673D01*
X226453816Y-78326050D01*
X226604130Y-78335072D01*
X226913780Y-78202803D02*
X227402582Y-79107105D01*
X227401697Y-78367859D01*
X227770553Y-79008507D01*
X227741717Y-77980958D01*
X228088342Y-77986678D02*
X228122013Y-77928357D01*
X228201681Y-77857711D01*
X228431664Y-77796087D01*
X228535981Y-77817434D01*
X228594303Y-77851106D01*
X228664949Y-77930774D01*
X228689598Y-78022767D01*
X228680576Y-78173081D01*
X228276515Y-78872935D01*
X228874469Y-78712714D01*
X229008271Y-77740183D02*
X229041943Y-77681862D01*
X229121611Y-77611216D01*
X229351593Y-77549593D01*
X229455911Y-77570940D01*
X229514232Y-77604612D01*
X229584878Y-77684280D01*
X229609527Y-77776273D01*
X229600505Y-77926587D01*
X229196444Y-78626441D01*
X229794398Y-78466220D01*
X206836342Y-80456902D02*
X206986656Y-80465924D01*
X207216638Y-80404300D01*
X207296306Y-80333655D01*
X207329978Y-80275333D01*
X207351325Y-80171016D01*
X207326676Y-80079023D01*
X207256030Y-79999355D01*
X207197709Y-79965683D01*
X207093391Y-79944336D01*
X206897081Y-79947638D01*
X206792763Y-79926291D01*
X206734442Y-79892619D01*
X206663796Y-79812951D01*
X206639146Y-79720958D01*
X206660493Y-79616641D01*
X206694165Y-79558319D01*
X206773833Y-79487673D01*
X207003816Y-79426050D01*
X207154130Y-79435072D01*
X207463780Y-79302803D02*
X207952582Y-80207105D01*
X207951697Y-79467859D01*
X208320553Y-80108507D01*
X208291717Y-79080958D01*
X208638342Y-79086678D02*
X208672013Y-79028357D01*
X208751681Y-78957711D01*
X208981664Y-78896087D01*
X209085981Y-78917434D01*
X209144303Y-78951106D01*
X209214949Y-79030774D01*
X209239598Y-79122767D01*
X209230576Y-79273081D01*
X208826515Y-79972935D01*
X209424469Y-79812714D01*
X210344398Y-79566220D02*
X209792440Y-79714116D01*
X210068419Y-79640168D02*
X209809600Y-78674242D01*
X209754581Y-78836881D01*
X209687238Y-78953523D01*
X209607570Y-79024169D01*
X189486342Y-89231902D02*
X189636656Y-89240924D01*
X189866638Y-89179300D01*
X189946306Y-89108655D01*
X189979978Y-89050333D01*
X190001325Y-88946016D01*
X189976676Y-88854023D01*
X189906030Y-88774355D01*
X189847709Y-88740683D01*
X189743391Y-88719336D01*
X189547081Y-88722638D01*
X189442763Y-88701291D01*
X189384442Y-88667619D01*
X189313796Y-88587951D01*
X189289146Y-88495958D01*
X189310493Y-88391641D01*
X189344165Y-88333319D01*
X189423833Y-88262673D01*
X189653816Y-88201050D01*
X189804130Y-88210072D01*
X190113780Y-88077803D02*
X190602582Y-88982105D01*
X190601697Y-88242859D01*
X190970553Y-88883507D01*
X190941717Y-87855958D01*
X191288342Y-87861678D02*
X191322013Y-87803357D01*
X191401681Y-87732711D01*
X191631664Y-87671087D01*
X191735981Y-87692434D01*
X191794303Y-87726106D01*
X191864949Y-87805774D01*
X191889598Y-87897767D01*
X191880576Y-88048081D01*
X191476515Y-88747935D01*
X192074469Y-88587714D01*
X192413604Y-87461567D02*
X192505597Y-87436917D01*
X192609914Y-87458265D01*
X192668236Y-87491936D01*
X192738881Y-87571604D01*
X192834177Y-87743266D01*
X192895800Y-87973248D01*
X192899103Y-88169559D01*
X192877756Y-88273876D01*
X192844084Y-88332197D01*
X192764416Y-88402843D01*
X192672423Y-88427493D01*
X192568105Y-88406146D01*
X192509784Y-88372474D01*
X192439138Y-88292806D01*
X192343843Y-88121145D01*
X192282219Y-87891162D01*
X192278917Y-87694852D01*
X192300264Y-87590534D01*
X192333936Y-87532213D01*
X192413604Y-87461567D01*
X172116342Y-98021902D02*
X172266656Y-98030924D01*
X172496638Y-97969300D01*
X172576306Y-97898655D01*
X172609978Y-97840333D01*
X172631325Y-97736016D01*
X172606676Y-97644023D01*
X172536030Y-97564355D01*
X172477709Y-97530683D01*
X172373391Y-97509336D01*
X172177081Y-97512638D01*
X172072763Y-97491291D01*
X172014442Y-97457619D01*
X171943796Y-97377951D01*
X171919146Y-97285958D01*
X171940493Y-97181641D01*
X171974165Y-97123319D01*
X172053833Y-97052673D01*
X172283816Y-96991050D01*
X172434130Y-97000072D01*
X172743780Y-96867803D02*
X173232582Y-97772105D01*
X173231697Y-97032859D01*
X173600553Y-97673507D01*
X173571717Y-96645958D01*
X174704469Y-97377714D02*
X174152511Y-97525611D01*
X174428490Y-97451662D02*
X174169671Y-96485737D01*
X174114652Y-96648375D01*
X174047309Y-96765018D01*
X173967640Y-96835664D01*
X175164433Y-97254467D02*
X175348419Y-97205168D01*
X175428087Y-97134522D01*
X175461759Y-97076201D01*
X175516778Y-96913562D01*
X175513476Y-96717252D01*
X175414878Y-96349280D01*
X175344232Y-96269612D01*
X175285911Y-96235940D01*
X175181593Y-96214593D01*
X174997607Y-96263892D01*
X174917939Y-96334538D01*
X174884267Y-96392859D01*
X174862920Y-96497176D01*
X174924544Y-96727159D01*
X174995190Y-96806827D01*
X175053511Y-96840499D01*
X175157829Y-96861846D01*
X175341814Y-96812547D01*
X175421483Y-96741901D01*
X175455154Y-96683580D01*
X175476501Y-96579262D01*
X119997926Y-97085223D02*
X120123590Y-97168194D01*
X120353573Y-97229817D01*
X120457890Y-97208470D01*
X120516211Y-97174799D01*
X120586857Y-97095130D01*
X120611507Y-97003138D01*
X120590160Y-96898820D01*
X120556488Y-96840499D01*
X120476820Y-96769853D01*
X120305159Y-96674557D01*
X120225490Y-96603912D01*
X120191819Y-96545590D01*
X120170472Y-96441273D01*
X120195121Y-96349280D01*
X120265767Y-96269612D01*
X120324088Y-96235940D01*
X120428406Y-96214593D01*
X120658388Y-96276216D01*
X120784053Y-96359187D01*
X121118353Y-96399464D02*
X121089516Y-97427013D01*
X121458373Y-96786365D01*
X121457488Y-97525611D01*
X121946289Y-96621308D01*
X122561403Y-97821404D02*
X122009446Y-97673507D01*
X122285424Y-97747456D02*
X122544243Y-96781530D01*
X122415276Y-96894870D01*
X122298634Y-96962213D01*
X122194316Y-96983560D01*
X123261257Y-97417343D02*
X123181589Y-97346697D01*
X123147917Y-97288376D01*
X123126570Y-97184058D01*
X123138895Y-97138062D01*
X123209541Y-97058393D01*
X123267862Y-97024722D01*
X123372180Y-97003375D01*
X123556166Y-97052673D01*
X123635834Y-97123319D01*
X123669506Y-97181641D01*
X123690853Y-97285958D01*
X123678528Y-97331955D01*
X123607882Y-97411623D01*
X123549561Y-97445295D01*
X123445243Y-97466642D01*
X123261257Y-97417343D01*
X123156940Y-97438690D01*
X123098618Y-97472362D01*
X123027973Y-97552030D01*
X122978674Y-97736016D01*
X123000021Y-97840333D01*
X123033693Y-97898655D01*
X123113361Y-97969300D01*
X123297347Y-98018599D01*
X123401664Y-97997252D01*
X123459985Y-97963581D01*
X123530631Y-97883912D01*
X123579930Y-97699926D01*
X123558583Y-97595609D01*
X123524911Y-97537288D01*
X123445243Y-97466642D01*
X102642926Y-88295223D02*
X102768590Y-88378194D01*
X102998573Y-88439817D01*
X103102890Y-88418470D01*
X103161211Y-88384799D01*
X103231857Y-88305130D01*
X103256507Y-88213138D01*
X103235160Y-88108820D01*
X103201488Y-88050499D01*
X103121820Y-87979853D01*
X102950159Y-87884557D01*
X102870490Y-87813912D01*
X102836819Y-87755590D01*
X102815472Y-87651273D01*
X102840121Y-87559280D01*
X102910767Y-87479612D01*
X102969088Y-87445940D01*
X103073406Y-87424593D01*
X103303388Y-87486216D01*
X103429053Y-87569187D01*
X103763353Y-87609464D02*
X103734516Y-88637013D01*
X104103373Y-87996365D01*
X104102488Y-88735611D01*
X104591289Y-87831308D01*
X105206403Y-89031404D02*
X104654446Y-88883507D01*
X104930424Y-88957456D02*
X105189243Y-87991530D01*
X105060276Y-88104870D01*
X104943634Y-88172213D01*
X104839316Y-88193560D01*
X105787197Y-88151751D02*
X106431148Y-88324297D01*
X105758361Y-89179300D01*
X85267926Y-79520223D02*
X85393590Y-79603194D01*
X85623573Y-79664817D01*
X85727890Y-79643470D01*
X85786211Y-79609799D01*
X85856857Y-79530130D01*
X85881507Y-79438138D01*
X85860160Y-79333820D01*
X85826488Y-79275499D01*
X85746820Y-79204853D01*
X85575159Y-79109557D01*
X85495490Y-79038912D01*
X85461819Y-78980590D01*
X85440472Y-78876273D01*
X85465121Y-78784280D01*
X85535767Y-78704612D01*
X85594088Y-78670940D01*
X85698406Y-78649593D01*
X85928388Y-78711216D01*
X86054053Y-78794187D01*
X86388353Y-78834464D02*
X86359516Y-79862013D01*
X86728373Y-79221365D01*
X86727488Y-79960611D01*
X87216289Y-79056308D01*
X87831403Y-80256404D02*
X87279446Y-80108507D01*
X87555424Y-80182456D02*
X87814243Y-79216530D01*
X87685276Y-79329870D01*
X87568634Y-79397213D01*
X87464316Y-79418560D01*
X88918159Y-79512323D02*
X88734173Y-79463024D01*
X88629855Y-79484371D01*
X88571534Y-79518043D01*
X88442567Y-79631383D01*
X88347271Y-79803044D01*
X88248674Y-80171016D01*
X88270021Y-80275333D01*
X88303693Y-80333655D01*
X88383361Y-80404300D01*
X88567347Y-80453599D01*
X88671664Y-80432252D01*
X88729985Y-80398581D01*
X88800631Y-80318912D01*
X88862255Y-80088930D01*
X88840908Y-79984612D01*
X88807236Y-79926291D01*
X88727568Y-79855645D01*
X88543582Y-79806346D01*
X88439264Y-79827693D01*
X88380943Y-79861365D01*
X88310297Y-79941033D01*
X65817926Y-78420223D02*
X65943590Y-78503194D01*
X66173573Y-78564817D01*
X66277890Y-78543470D01*
X66336211Y-78509799D01*
X66406857Y-78430130D01*
X66431507Y-78338138D01*
X66410160Y-78233820D01*
X66376488Y-78175499D01*
X66296820Y-78104853D01*
X66125159Y-78009557D01*
X66045490Y-77938912D01*
X66011819Y-77880590D01*
X65990472Y-77776273D01*
X66015121Y-77684280D01*
X66085767Y-77604612D01*
X66144088Y-77570940D01*
X66248406Y-77549593D01*
X66478388Y-77611216D01*
X66604053Y-77694187D01*
X66938353Y-77734464D02*
X66909516Y-78762013D01*
X67278373Y-78121365D01*
X67277488Y-78860611D01*
X67766289Y-77956308D01*
X68381403Y-79156404D02*
X67829446Y-79008507D01*
X68105424Y-79082456D02*
X68364243Y-78116530D01*
X68235276Y-78229870D01*
X68118634Y-78297213D01*
X68014316Y-78318560D01*
X69514155Y-78424648D02*
X69054190Y-78301400D01*
X68884947Y-78749040D01*
X68943268Y-78715369D01*
X69047586Y-78694022D01*
X69277568Y-78755645D01*
X69357236Y-78826291D01*
X69390908Y-78884612D01*
X69412255Y-78988930D01*
X69350631Y-79218912D01*
X69279985Y-79298581D01*
X69221664Y-79332252D01*
X69117347Y-79353599D01*
X68887364Y-79291976D01*
X68807696Y-79221330D01*
X68774024Y-79163009D01*
X46400703Y-77364775D02*
X46526367Y-77447746D01*
X46756350Y-77509369D01*
X46860667Y-77488022D01*
X46918988Y-77454351D01*
X46989634Y-77374682D01*
X47014284Y-77282690D01*
X46992937Y-77178372D01*
X46959265Y-77120051D01*
X46879597Y-77049405D01*
X46707936Y-76954109D01*
X46628267Y-76883464D01*
X46594596Y-76825142D01*
X46573249Y-76720825D01*
X46597898Y-76628832D01*
X46668544Y-76549164D01*
X46726865Y-76515492D01*
X46831183Y-76494145D01*
X47061165Y-76555768D01*
X47186830Y-76638739D01*
X47521130Y-76679016D02*
X47492293Y-77706565D01*
X47861150Y-77065917D01*
X47860265Y-77805163D01*
X48349066Y-76900860D01*
X48964180Y-78100956D02*
X48412223Y-77953059D01*
X48688201Y-78027008D02*
X48947020Y-77061082D01*
X48818053Y-77174422D01*
X48701411Y-77241765D01*
X48597093Y-77263112D01*
X49964663Y-77678850D02*
X49792117Y-78322801D01*
X49833278Y-77249255D02*
X49418425Y-77877578D01*
X50016379Y-78037800D01*
X26967926Y-76245223D02*
X27093590Y-76328194D01*
X27323573Y-76389817D01*
X27427890Y-76368470D01*
X27486211Y-76334799D01*
X27556857Y-76255130D01*
X27581507Y-76163138D01*
X27560160Y-76058820D01*
X27526488Y-76000499D01*
X27446820Y-75929853D01*
X27275159Y-75834557D01*
X27195490Y-75763912D01*
X27161819Y-75705590D01*
X27140472Y-75601273D01*
X27165121Y-75509280D01*
X27235767Y-75429612D01*
X27294088Y-75395940D01*
X27398406Y-75374593D01*
X27628388Y-75436216D01*
X27754053Y-75519187D01*
X28088353Y-75559464D02*
X28059516Y-76587013D01*
X28428373Y-75946365D01*
X28427488Y-76685611D01*
X28916289Y-75781308D01*
X29531403Y-76981404D02*
X28979446Y-76833507D01*
X29255424Y-76907456D02*
X29514243Y-75941530D01*
X29385276Y-76054870D01*
X29268634Y-76122213D01*
X29164316Y-76143560D01*
X30112197Y-76101751D02*
X30710152Y-76261972D01*
X30289579Y-76543671D01*
X30427568Y-76580645D01*
X30507236Y-76651291D01*
X30540908Y-76709612D01*
X30562255Y-76813930D01*
X30500631Y-77043912D01*
X30429985Y-77123581D01*
X30371664Y-77157252D01*
X30267347Y-77178599D01*
X29991368Y-77104651D01*
X29911700Y-77034005D01*
X29878028Y-76975684D01*
X260211342Y-58781902D02*
X260361656Y-58790924D01*
X260591638Y-58729300D01*
X260671306Y-58658655D01*
X260704978Y-58600333D01*
X260726325Y-58496016D01*
X260701676Y-58404023D01*
X260631030Y-58324355D01*
X260572709Y-58290683D01*
X260468391Y-58269336D01*
X260272081Y-58272638D01*
X260167763Y-58251291D01*
X260109442Y-58217619D01*
X260038796Y-58137951D01*
X260014146Y-58045958D01*
X260035493Y-57941641D01*
X260069165Y-57883319D01*
X260148833Y-57812673D01*
X260378816Y-57751050D01*
X260529130Y-57760072D01*
X260838780Y-57627803D02*
X261327582Y-58532105D01*
X261326697Y-57792859D01*
X261695553Y-58433507D01*
X261666717Y-57405958D01*
X262799469Y-58137714D02*
X262247511Y-58285611D01*
X262523490Y-58211662D02*
X262264671Y-57245737D01*
X262209652Y-57408375D01*
X262142309Y-57525018D01*
X262062640Y-57595664D01*
X262933271Y-57165183D02*
X262966943Y-57106862D01*
X263046611Y-57036216D01*
X263276593Y-56974593D01*
X263380911Y-56995940D01*
X263439232Y-57029612D01*
X263509878Y-57109280D01*
X263534527Y-57201273D01*
X263525505Y-57351587D01*
X263121444Y-58051441D01*
X263719398Y-57891220D01*
X240811342Y-59881902D02*
X240961656Y-59890924D01*
X241191638Y-59829300D01*
X241271306Y-59758655D01*
X241304978Y-59700333D01*
X241326325Y-59596016D01*
X241301676Y-59504023D01*
X241231030Y-59424355D01*
X241172709Y-59390683D01*
X241068391Y-59369336D01*
X240872081Y-59372638D01*
X240767763Y-59351291D01*
X240709442Y-59317619D01*
X240638796Y-59237951D01*
X240614146Y-59145958D01*
X240635493Y-59041641D01*
X240669165Y-58983319D01*
X240748833Y-58912673D01*
X240978816Y-58851050D01*
X241129130Y-58860072D01*
X241438780Y-58727803D02*
X241927582Y-59632105D01*
X241926697Y-58892859D01*
X242295553Y-59533507D01*
X242266717Y-58505958D01*
X243399469Y-59237714D02*
X242847511Y-59385611D01*
X243123490Y-59311662D02*
X242864671Y-58345737D01*
X242809652Y-58508375D01*
X242742309Y-58625018D01*
X242662640Y-58695664D01*
X244319398Y-58991220D02*
X243767440Y-59139116D01*
X244043419Y-59065168D02*
X243784600Y-58099242D01*
X243729581Y-58261881D01*
X243662238Y-58378523D01*
X243582570Y-58449169D01*
X221336342Y-60956902D02*
X221486656Y-60965924D01*
X221716638Y-60904300D01*
X221796306Y-60833655D01*
X221829978Y-60775333D01*
X221851325Y-60671016D01*
X221826676Y-60579023D01*
X221756030Y-60499355D01*
X221697709Y-60465683D01*
X221593391Y-60444336D01*
X221397081Y-60447638D01*
X221292763Y-60426291D01*
X221234442Y-60392619D01*
X221163796Y-60312951D01*
X221139146Y-60220958D01*
X221160493Y-60116641D01*
X221194165Y-60058319D01*
X221273833Y-59987673D01*
X221503816Y-59926050D01*
X221654130Y-59935072D01*
X221963780Y-59802803D02*
X222452582Y-60707105D01*
X222451697Y-59967859D01*
X222820553Y-60608507D01*
X222791717Y-59580958D01*
X223924469Y-60312714D02*
X223372511Y-60460611D01*
X223648490Y-60386662D02*
X223389671Y-59420737D01*
X223334652Y-59583375D01*
X223267309Y-59700018D01*
X223187640Y-59770664D01*
X224263604Y-59186567D02*
X224355597Y-59161917D01*
X224459914Y-59183265D01*
X224518236Y-59216936D01*
X224588881Y-59296604D01*
X224684177Y-59468266D01*
X224745800Y-59698248D01*
X224749103Y-59894559D01*
X224727756Y-59998876D01*
X224694084Y-60057197D01*
X224614416Y-60127843D01*
X224522423Y-60152493D01*
X224418105Y-60131146D01*
X224359784Y-60097474D01*
X224289138Y-60017806D01*
X224193843Y-59846145D01*
X224132219Y-59616162D01*
X224128917Y-59419852D01*
X224150264Y-59315534D01*
X224183936Y-59257213D01*
X224263604Y-59186567D01*
X202371306Y-61908655D02*
X202521621Y-61917677D01*
X202751603Y-61856053D01*
X202831271Y-61785407D01*
X202864943Y-61727086D01*
X202886290Y-61622769D01*
X202861641Y-61530776D01*
X202790995Y-61451107D01*
X202732673Y-61417436D01*
X202628356Y-61396089D01*
X202432045Y-61399391D01*
X202327728Y-61378044D01*
X202269406Y-61344372D01*
X202198760Y-61264704D01*
X202174111Y-61172711D01*
X202195458Y-61068393D01*
X202229130Y-61010072D01*
X202308798Y-60939426D01*
X202538780Y-60877803D01*
X202689094Y-60886825D01*
X202998745Y-60754556D02*
X203487546Y-61658858D01*
X203486662Y-60919612D01*
X203855518Y-61560260D01*
X203826681Y-60532711D01*
X204499469Y-61387714D02*
X204683455Y-61338415D01*
X204763123Y-61267769D01*
X204796795Y-61209448D01*
X204851813Y-61046809D01*
X204848511Y-60850499D01*
X204749913Y-60482527D01*
X204679267Y-60402859D01*
X204620946Y-60369187D01*
X204516628Y-60347840D01*
X204332643Y-60397139D01*
X204252974Y-60467785D01*
X204219303Y-60526106D01*
X204197956Y-60630424D01*
X204259579Y-60860406D01*
X204330225Y-60940074D01*
X204388546Y-60973746D01*
X204492864Y-60995093D01*
X204676850Y-60945794D01*
X204756518Y-60875148D01*
X204790190Y-60816827D01*
X204811537Y-60712509D01*
X185016306Y-70708655D02*
X185166621Y-70717677D01*
X185396603Y-70656053D01*
X185476271Y-70585407D01*
X185509943Y-70527086D01*
X185531290Y-70422769D01*
X185506641Y-70330776D01*
X185435995Y-70251107D01*
X185377673Y-70217436D01*
X185273356Y-70196089D01*
X185077045Y-70199391D01*
X184972728Y-70178044D01*
X184914406Y-70144372D01*
X184843760Y-70064704D01*
X184819111Y-69972711D01*
X184840458Y-69868393D01*
X184874130Y-69810072D01*
X184953798Y-69739426D01*
X185183780Y-69677803D01*
X185334094Y-69686825D01*
X185643745Y-69554556D02*
X186132546Y-70458858D01*
X186131662Y-69719612D01*
X186500518Y-70360260D01*
X186471681Y-69332711D01*
X187088565Y-69611107D02*
X186984247Y-69589760D01*
X186925926Y-69556088D01*
X186855280Y-69476420D01*
X186842956Y-69430424D01*
X186864303Y-69326106D01*
X186897974Y-69267785D01*
X186977643Y-69197139D01*
X187161628Y-69147840D01*
X187265946Y-69169187D01*
X187324267Y-69202859D01*
X187394913Y-69282527D01*
X187407238Y-69328523D01*
X187385891Y-69432841D01*
X187352219Y-69491162D01*
X187272551Y-69561808D01*
X187088565Y-69611107D01*
X187008897Y-69681753D01*
X186975225Y-69740074D01*
X186953878Y-69844392D01*
X187003177Y-70028378D01*
X187073823Y-70108046D01*
X187132144Y-70141718D01*
X187236462Y-70163065D01*
X187420448Y-70113766D01*
X187500116Y-70043120D01*
X187533788Y-69984799D01*
X187555135Y-69880481D01*
X187505836Y-69696495D01*
X187435190Y-69616827D01*
X187376869Y-69583155D01*
X187272551Y-69561808D01*
X167646306Y-79498655D02*
X167796621Y-79507677D01*
X168026603Y-79446053D01*
X168106271Y-79375407D01*
X168139943Y-79317086D01*
X168161290Y-79212769D01*
X168136641Y-79120776D01*
X168065995Y-79041107D01*
X168007673Y-79007436D01*
X167903356Y-78986089D01*
X167707045Y-78989391D01*
X167602728Y-78968044D01*
X167544406Y-78934372D01*
X167473760Y-78854704D01*
X167449111Y-78762711D01*
X167470458Y-78658393D01*
X167504130Y-78600072D01*
X167583798Y-78529426D01*
X167813780Y-78467803D01*
X167964094Y-78476825D01*
X168273745Y-78344556D02*
X168762546Y-79248858D01*
X168761662Y-78509612D01*
X169130518Y-79150260D01*
X169101681Y-78122711D01*
X169377660Y-78048762D02*
X170021611Y-77876216D01*
X169866462Y-78953065D01*
X125377890Y-78818470D02*
X125503555Y-78901441D01*
X125733537Y-78963065D01*
X125837855Y-78941718D01*
X125896176Y-78908046D01*
X125966822Y-78828378D01*
X125991472Y-78736385D01*
X125970124Y-78632067D01*
X125936453Y-78573746D01*
X125856784Y-78503100D01*
X125685123Y-78407805D01*
X125605455Y-78337159D01*
X125571783Y-78278838D01*
X125550436Y-78174520D01*
X125575086Y-78082527D01*
X125645732Y-78002859D01*
X125704053Y-77969187D01*
X125808371Y-77947840D01*
X126038353Y-78009464D01*
X126164018Y-78092434D01*
X126498318Y-78132711D02*
X126469481Y-79160260D01*
X126838337Y-78519612D01*
X126837453Y-79258858D01*
X127326254Y-78354556D01*
X128108194Y-78564076D02*
X127924208Y-78514777D01*
X127819890Y-78536124D01*
X127761569Y-78569796D01*
X127632602Y-78683136D01*
X127537307Y-78854797D01*
X127438709Y-79222769D01*
X127460056Y-79327086D01*
X127493728Y-79385407D01*
X127573396Y-79456053D01*
X127757382Y-79505352D01*
X127861700Y-79484005D01*
X127920021Y-79450333D01*
X127990667Y-79370665D01*
X128052290Y-79140683D01*
X128030943Y-79036365D01*
X127997271Y-78978044D01*
X127917603Y-78907398D01*
X127733617Y-78858099D01*
X127629300Y-78879446D01*
X127570979Y-78913118D01*
X127500333Y-78992786D01*
X108027890Y-70018470D02*
X108153555Y-70101441D01*
X108383537Y-70163065D01*
X108487855Y-70141718D01*
X108546176Y-70108046D01*
X108616822Y-70028378D01*
X108641472Y-69936385D01*
X108620124Y-69832067D01*
X108586453Y-69773746D01*
X108506784Y-69703100D01*
X108335123Y-69607805D01*
X108255455Y-69537159D01*
X108221783Y-69478838D01*
X108200436Y-69374520D01*
X108225086Y-69282527D01*
X108295732Y-69202859D01*
X108354053Y-69169187D01*
X108458371Y-69147840D01*
X108688353Y-69209464D01*
X108814018Y-69292434D01*
X109148318Y-69332711D02*
X109119481Y-70360260D01*
X109488337Y-69719612D01*
X109487453Y-70458858D01*
X109976254Y-69554556D01*
X110804190Y-69776400D02*
X110344226Y-69653153D01*
X110174982Y-70100793D01*
X110233303Y-70067122D01*
X110337621Y-70045774D01*
X110567603Y-70107398D01*
X110647271Y-70178044D01*
X110680943Y-70236365D01*
X110702290Y-70340683D01*
X110640667Y-70570665D01*
X110570021Y-70650333D01*
X110511700Y-70684005D01*
X110407382Y-70705352D01*
X110177400Y-70643729D01*
X110097731Y-70573083D01*
X110064060Y-70514761D01*
X90652890Y-61218470D02*
X90778555Y-61301441D01*
X91008537Y-61363065D01*
X91112855Y-61341718D01*
X91171176Y-61308046D01*
X91241822Y-61228378D01*
X91266472Y-61136385D01*
X91245124Y-61032067D01*
X91211453Y-60973746D01*
X91131784Y-60903100D01*
X90960123Y-60807805D01*
X90880455Y-60737159D01*
X90846783Y-60678838D01*
X90825436Y-60574520D01*
X90850086Y-60482527D01*
X90920732Y-60402859D01*
X90979053Y-60369187D01*
X91083371Y-60347840D01*
X91313353Y-60409464D01*
X91439018Y-60492434D01*
X91773318Y-60532711D02*
X91744481Y-61560260D01*
X92113337Y-60919612D01*
X92112453Y-61658858D01*
X92601254Y-60754556D01*
X93296921Y-61286051D02*
X93124375Y-61930002D01*
X93165536Y-60856456D02*
X92750683Y-61484779D01*
X93348637Y-61645000D01*
X71227890Y-60143470D02*
X71353555Y-60226441D01*
X71583537Y-60288065D01*
X71687855Y-60266718D01*
X71746176Y-60233046D01*
X71816822Y-60153378D01*
X71841472Y-60061385D01*
X71820124Y-59957067D01*
X71786453Y-59898746D01*
X71706784Y-59828100D01*
X71535123Y-59732805D01*
X71455455Y-59662159D01*
X71421783Y-59603838D01*
X71400436Y-59499520D01*
X71425086Y-59407527D01*
X71495732Y-59327859D01*
X71554053Y-59294187D01*
X71658371Y-59272840D01*
X71888353Y-59334464D01*
X72014018Y-59417434D01*
X72348318Y-59457711D02*
X72319481Y-60485260D01*
X72688337Y-59844612D01*
X72687453Y-60583858D01*
X73176254Y-59679556D01*
X73452233Y-59753504D02*
X74050187Y-59913725D01*
X73629614Y-60195424D01*
X73767603Y-60232398D01*
X73847271Y-60303044D01*
X73880943Y-60361365D01*
X73902290Y-60465683D01*
X73840667Y-60695665D01*
X73770021Y-60775333D01*
X73711700Y-60809005D01*
X73607382Y-60830352D01*
X73331403Y-60756404D01*
X73251735Y-60685758D01*
X73218063Y-60627437D01*
X51777890Y-59093470D02*
X51903555Y-59176441D01*
X52133537Y-59238065D01*
X52237855Y-59216718D01*
X52296176Y-59183046D01*
X52366822Y-59103378D01*
X52391472Y-59011385D01*
X52370124Y-58907067D01*
X52336453Y-58848746D01*
X52256784Y-58778100D01*
X52085123Y-58682805D01*
X52005455Y-58612159D01*
X51971783Y-58553838D01*
X51950436Y-58449520D01*
X51975086Y-58357527D01*
X52045732Y-58277859D01*
X52104053Y-58244187D01*
X52208371Y-58222840D01*
X52438353Y-58284464D01*
X52564018Y-58367434D01*
X52898318Y-58407711D02*
X52869481Y-59435260D01*
X53238337Y-58794612D01*
X53237453Y-59533858D01*
X53726254Y-58629556D01*
X54023580Y-58807822D02*
X54081901Y-58774150D01*
X54186219Y-58752803D01*
X54416201Y-58814426D01*
X54495869Y-58885072D01*
X54529541Y-58943393D01*
X54550888Y-59047711D01*
X54526239Y-59139704D01*
X54443268Y-59265369D01*
X53743414Y-59669430D01*
X54341368Y-59829651D01*
X32350858Y-57967432D02*
X32476523Y-58050403D01*
X32706505Y-58112027D01*
X32810823Y-58090680D01*
X32869144Y-58057008D01*
X32939790Y-57977340D01*
X32964440Y-57885347D01*
X32943092Y-57781029D01*
X32909421Y-57722708D01*
X32829752Y-57652062D01*
X32658091Y-57556767D01*
X32578423Y-57486121D01*
X32544751Y-57427800D01*
X32523404Y-57323482D01*
X32548054Y-57231489D01*
X32618700Y-57151821D01*
X32677021Y-57118149D01*
X32781339Y-57096802D01*
X33011321Y-57158426D01*
X33136986Y-57241396D01*
X33471286Y-57281673D02*
X33442449Y-58309222D01*
X33811305Y-57668574D01*
X33810421Y-58407820D01*
X34299222Y-57503518D01*
X34914336Y-58703613D02*
X34362378Y-58555716D01*
X34638357Y-58629665D02*
X34897176Y-57663739D01*
X34768209Y-57777079D01*
X34651567Y-57844422D01*
X34547249Y-57865769D01*
X133150525Y-143117569D02*
X133250433Y-143230237D01*
X133456630Y-143349284D01*
X133562918Y-143355664D01*
X133627967Y-143338234D01*
X133716825Y-143279565D01*
X133764444Y-143197086D01*
X133770824Y-143090798D01*
X133753394Y-143025749D01*
X133694725Y-142936891D01*
X133553577Y-142800414D01*
X133494908Y-142711555D01*
X133477479Y-142646507D01*
X133483858Y-142540218D01*
X133531477Y-142457740D01*
X133620336Y-142399071D01*
X133685385Y-142381641D01*
X133791673Y-142388021D01*
X133997869Y-142507068D01*
X134097778Y-142619736D01*
X134410262Y-142745164D02*
X134116459Y-143730237D01*
X134638559Y-143206885D01*
X134446373Y-143920713D01*
X135152570Y-143173735D01*
X135400006Y-143316592D02*
X135936117Y-143626116D01*
X135456965Y-143789364D01*
X135580683Y-143860792D01*
X135639352Y-143949651D01*
X135656782Y-144014699D01*
X135650402Y-144120988D01*
X135531355Y-144327184D01*
X135442496Y-144385853D01*
X135377447Y-144403283D01*
X135271159Y-144396903D01*
X135023723Y-144254046D01*
X134965054Y-144165188D01*
X134947625Y-144100139D01*
X135848510Y-144730237D02*
X136013467Y-144825475D01*
X136119755Y-144831854D01*
X136184804Y-144814425D01*
X136338711Y-144738326D01*
X136475188Y-144597178D01*
X136665665Y-144267264D01*
X136672044Y-144160975D01*
X136654614Y-144095927D01*
X136595945Y-144007068D01*
X136430988Y-143911830D01*
X136324700Y-143905450D01*
X136259651Y-143922880D01*
X136170793Y-143981549D01*
X136051745Y-144187746D01*
X136045365Y-144294034D01*
X136062795Y-144359083D01*
X136121464Y-144447941D01*
X136286422Y-144543179D01*
X136392710Y-144549559D01*
X136457759Y-144532129D01*
X136546617Y-144473460D01*
X159315287Y-144927092D02*
X159462814Y-144896903D01*
X159669011Y-144777856D01*
X159727680Y-144688997D01*
X159745110Y-144623948D01*
X159738730Y-144517660D01*
X159691111Y-144435182D01*
X159602253Y-144376513D01*
X159537204Y-144359083D01*
X159430916Y-144365463D01*
X159242149Y-144419461D01*
X159135861Y-144425841D01*
X159070812Y-144408411D01*
X158981954Y-144349742D01*
X158934334Y-144267264D01*
X158927955Y-144160975D01*
X158945385Y-144095927D01*
X159004054Y-144007068D01*
X159210250Y-143888021D01*
X159357778Y-143857831D01*
X159622643Y-143649925D02*
X160328840Y-144396903D01*
X160136654Y-143683076D01*
X160658754Y-144206427D01*
X160364951Y-143221354D01*
X161232686Y-143105267D02*
X161566019Y-143682618D01*
X160836013Y-142894400D02*
X160986959Y-143632038D01*
X161523070Y-143322514D01*
X161684608Y-142459449D02*
X161767087Y-142411830D01*
X161873375Y-142405450D01*
X161938424Y-142422880D01*
X162027282Y-142481549D01*
X162163760Y-142622697D01*
X162282807Y-142828894D01*
X162336806Y-143017660D01*
X162343186Y-143123948D01*
X162325756Y-143188997D01*
X162267087Y-143277856D01*
X162184608Y-143325475D01*
X162078320Y-143331854D01*
X162013271Y-143314425D01*
X161924413Y-143255756D01*
X161787936Y-143114608D01*
X161668888Y-142908411D01*
X161614889Y-142719645D01*
X161608510Y-142613356D01*
X161625939Y-142548308D01*
X161684608Y-142459449D01*
%LPC*%
D12*
X151760000Y-119650000D03*
X151760000Y-115150000D03*
X143800000Y-115150000D03*
X143800000Y-119650000D03*
D13*
G36*
X214714403Y-145948973D02*
G01*
X214403820Y-144789862D01*
X215273153Y-144556925D01*
X215583736Y-145716036D01*
X214714403Y-145948973D01*
G37*
G36*
X211526847Y-146803075D02*
G01*
X211216264Y-145643964D01*
X212085597Y-145411027D01*
X212396180Y-146570138D01*
X211526847Y-146803075D01*
G37*
G36*
X195904403Y-150968973D02*
G01*
X195593820Y-149809862D01*
X196463153Y-149576925D01*
X196773736Y-150736036D01*
X195904403Y-150968973D01*
G37*
G36*
X192716847Y-151823075D02*
G01*
X192406264Y-150663964D01*
X193275597Y-150431027D01*
X193586180Y-151590138D01*
X192716847Y-151823075D01*
G37*
G36*
X175929231Y-155959615D02*
G01*
X175329231Y-154920385D01*
X176108653Y-154470385D01*
X176708653Y-155509615D01*
X175929231Y-155959615D01*
G37*
G36*
X173071347Y-157609615D02*
G01*
X172471347Y-156570385D01*
X173250769Y-156120385D01*
X173850769Y-157159615D01*
X173071347Y-157609615D01*
G37*
G36*
X131499231Y-163069615D02*
G01*
X132099231Y-162030385D01*
X132878653Y-162480385D01*
X132278653Y-163519615D01*
X131499231Y-163069615D01*
G37*
G36*
X128641347Y-161419615D02*
G01*
X129241347Y-160380385D01*
X130020769Y-160830385D01*
X129420769Y-161869615D01*
X128641347Y-161419615D01*
G37*
G36*
X114643820Y-154900138D02*
G01*
X114954403Y-153741027D01*
X115823736Y-153973964D01*
X115513153Y-155133075D01*
X114643820Y-154900138D01*
G37*
G36*
X111456264Y-154046036D02*
G01*
X111766847Y-152886925D01*
X112636180Y-153119862D01*
X112325597Y-154278973D01*
X111456264Y-154046036D01*
G37*
G36*
X95993820Y-150020138D02*
G01*
X96304403Y-148861027D01*
X97173736Y-149093964D01*
X96863153Y-150253075D01*
X95993820Y-150020138D01*
G37*
G36*
X92806264Y-149166036D02*
G01*
X93116847Y-148006925D01*
X93986180Y-148239862D01*
X93675597Y-149398973D01*
X92806264Y-149166036D01*
G37*
G36*
X283334403Y-109218973D02*
G01*
X283023820Y-108059862D01*
X283893153Y-107826925D01*
X284203736Y-108986036D01*
X283334403Y-109218973D01*
G37*
G36*
X280146847Y-110073075D02*
G01*
X279836264Y-108913964D01*
X280705597Y-108681027D01*
X281016180Y-109840138D01*
X280146847Y-110073075D01*
G37*
G36*
X263224403Y-110418973D02*
G01*
X262913820Y-109259862D01*
X263783153Y-109026925D01*
X264093736Y-110186036D01*
X263224403Y-110418973D01*
G37*
G36*
X260036847Y-111273075D02*
G01*
X259726264Y-110113964D01*
X260595597Y-109881027D01*
X260906180Y-111040138D01*
X260036847Y-111273075D01*
G37*
G36*
X244804403Y-111368973D02*
G01*
X244493820Y-110209862D01*
X245363153Y-109976925D01*
X245673736Y-111136036D01*
X244804403Y-111368973D01*
G37*
G36*
X241616847Y-112223075D02*
G01*
X241306264Y-111063964D01*
X242175597Y-110831027D01*
X242486180Y-111990138D01*
X241616847Y-112223075D01*
G37*
G36*
X224704403Y-112628973D02*
G01*
X224393820Y-111469862D01*
X225263153Y-111236925D01*
X225573736Y-112396036D01*
X224704403Y-112628973D01*
G37*
G36*
X221516847Y-113483075D02*
G01*
X221206264Y-112323964D01*
X222075597Y-112091027D01*
X222386180Y-113250138D01*
X221516847Y-113483075D01*
G37*
G36*
X208024403Y-121798973D02*
G01*
X207713820Y-120639862D01*
X208583153Y-120406925D01*
X208893736Y-121566036D01*
X208024403Y-121798973D01*
G37*
G36*
X204836847Y-122653075D02*
G01*
X204526264Y-121493964D01*
X205395597Y-121261027D01*
X205706180Y-122420138D01*
X204836847Y-122653075D01*
G37*
G36*
X190364403Y-130778973D02*
G01*
X190053820Y-129619862D01*
X190923153Y-129386925D01*
X191233736Y-130546036D01*
X190364403Y-130778973D01*
G37*
G36*
X187176847Y-131633075D02*
G01*
X186866264Y-130473964D01*
X187735597Y-130241027D01*
X188046180Y-131400138D01*
X187176847Y-131633075D01*
G37*
G36*
X118843820Y-134430138D02*
G01*
X119154403Y-133271027D01*
X120023736Y-133503964D01*
X119713153Y-134663075D01*
X118843820Y-134430138D01*
G37*
G36*
X115656264Y-133576036D02*
G01*
X115966847Y-132416925D01*
X116836180Y-132649862D01*
X116525597Y-133808973D01*
X115656264Y-133576036D01*
G37*
G36*
X102583820Y-125730138D02*
G01*
X102894403Y-124571027D01*
X103763736Y-124803964D01*
X103453153Y-125963075D01*
X102583820Y-125730138D01*
G37*
G36*
X99396264Y-124876036D02*
G01*
X99706847Y-123716925D01*
X100576180Y-123949862D01*
X100265597Y-125108973D01*
X99396264Y-124876036D01*
G37*
G36*
X85183820Y-116260138D02*
G01*
X85494403Y-115101027D01*
X86363736Y-115333964D01*
X86053153Y-116493075D01*
X85183820Y-116260138D01*
G37*
G36*
X81996264Y-115406036D02*
G01*
X82306847Y-114246925D01*
X83176180Y-114479862D01*
X82865597Y-115638973D01*
X81996264Y-115406036D01*
G37*
G36*
X65473820Y-115110138D02*
G01*
X65784403Y-113951027D01*
X66653736Y-114183964D01*
X66343153Y-115343075D01*
X65473820Y-115110138D01*
G37*
G36*
X62286264Y-114256036D02*
G01*
X62596847Y-113096925D01*
X63466180Y-113329862D01*
X63155597Y-114488973D01*
X62286264Y-114256036D01*
G37*
G36*
X45873820Y-113960138D02*
G01*
X46184403Y-112801027D01*
X47053736Y-113033964D01*
X46743153Y-114193075D01*
X45873820Y-113960138D01*
G37*
G36*
X42686264Y-113106036D02*
G01*
X42996847Y-111946925D01*
X43866180Y-112179862D01*
X43555597Y-113338973D01*
X42686264Y-113106036D01*
G37*
G36*
X26263820Y-112810138D02*
G01*
X26574403Y-111651027D01*
X27443736Y-111883964D01*
X27133153Y-113043075D01*
X26263820Y-112810138D01*
G37*
G36*
X23076264Y-111956036D02*
G01*
X23386847Y-110796925D01*
X24256180Y-111029862D01*
X23945597Y-112188973D01*
X23076264Y-111956036D01*
G37*
G36*
X278774403Y-91588973D02*
G01*
X278463820Y-90429862D01*
X279333153Y-90196925D01*
X279643736Y-91356036D01*
X278774403Y-91588973D01*
G37*
G36*
X275586847Y-92443075D02*
G01*
X275276264Y-91283964D01*
X276145597Y-91051027D01*
X276456180Y-92210138D01*
X275586847Y-92443075D01*
G37*
G36*
X258874403Y-92458973D02*
G01*
X258563820Y-91299862D01*
X259433153Y-91066925D01*
X259743736Y-92226036D01*
X258874403Y-92458973D01*
G37*
G36*
X255686847Y-93313075D02*
G01*
X255376264Y-92153964D01*
X256245597Y-91921027D01*
X256556180Y-93080138D01*
X255686847Y-93313075D01*
G37*
G36*
X239264403Y-93618973D02*
G01*
X238953820Y-92459862D01*
X239823153Y-92226925D01*
X240133736Y-93386036D01*
X239264403Y-93618973D01*
G37*
G36*
X236076847Y-94473075D02*
G01*
X235766264Y-93313964D01*
X236635597Y-93081027D01*
X236946180Y-94240138D01*
X236076847Y-94473075D01*
G37*
G36*
X219944403Y-94578973D02*
G01*
X219633820Y-93419862D01*
X220503153Y-93186925D01*
X220813736Y-94346036D01*
X219944403Y-94578973D01*
G37*
G36*
X216756847Y-95433075D02*
G01*
X216446264Y-94273964D01*
X217315597Y-94041027D01*
X217626180Y-95200138D01*
X216756847Y-95433075D01*
G37*
G36*
X202464403Y-103568973D02*
G01*
X202153820Y-102409862D01*
X203023153Y-102176925D01*
X203333736Y-103336036D01*
X202464403Y-103568973D01*
G37*
G36*
X199276847Y-104423075D02*
G01*
X198966264Y-103263964D01*
X199835597Y-103031027D01*
X200146180Y-104190138D01*
X199276847Y-104423075D01*
G37*
G36*
X185274403Y-112258973D02*
G01*
X184963820Y-111099862D01*
X185833153Y-110866925D01*
X186143736Y-112026036D01*
X185274403Y-112258973D01*
G37*
G36*
X182086847Y-113113075D02*
G01*
X181776264Y-111953964D01*
X182645597Y-111721027D01*
X182956180Y-112880138D01*
X182086847Y-113113075D01*
G37*
G36*
X123683820Y-115720138D02*
G01*
X123994403Y-114561027D01*
X124863736Y-114793964D01*
X124553153Y-115953075D01*
X123683820Y-115720138D01*
G37*
G36*
X120496264Y-114866036D02*
G01*
X120806847Y-113706925D01*
X121676180Y-113939862D01*
X121365597Y-115098973D01*
X120496264Y-114866036D01*
G37*
G36*
X106583820Y-107040138D02*
G01*
X106894403Y-105881027D01*
X107763736Y-106113964D01*
X107453153Y-107273075D01*
X106583820Y-107040138D01*
G37*
G36*
X103396264Y-106186036D02*
G01*
X103706847Y-105026925D01*
X104576180Y-105259862D01*
X104265597Y-106418973D01*
X103396264Y-106186036D01*
G37*
G36*
X89343820Y-98460138D02*
G01*
X89654403Y-97301027D01*
X90523736Y-97533964D01*
X90213153Y-98693075D01*
X89343820Y-98460138D01*
G37*
G36*
X86156264Y-97606036D02*
G01*
X86466847Y-96446925D01*
X87336180Y-96679862D01*
X87025597Y-97838973D01*
X86156264Y-97606036D01*
G37*
G36*
X69693820Y-97170138D02*
G01*
X70004403Y-96011027D01*
X70873736Y-96243964D01*
X70563153Y-97403075D01*
X69693820Y-97170138D01*
G37*
G36*
X66506264Y-96316036D02*
G01*
X66816847Y-95156925D01*
X67686180Y-95389862D01*
X67375597Y-96548973D01*
X66506264Y-96316036D01*
G37*
G36*
X50303820Y-96140138D02*
G01*
X50614403Y-94981027D01*
X51483736Y-95213964D01*
X51173153Y-96373075D01*
X50303820Y-96140138D01*
G37*
G36*
X47116264Y-95286036D02*
G01*
X47426847Y-94126925D01*
X48296180Y-94359862D01*
X47985597Y-95518973D01*
X47116264Y-95286036D01*
G37*
G36*
X31083820Y-95110138D02*
G01*
X31394403Y-93951027D01*
X32263736Y-94183964D01*
X31953153Y-95343075D01*
X31083820Y-95110138D01*
G37*
G36*
X27896264Y-94256036D02*
G01*
X28206847Y-93096925D01*
X29076180Y-93329862D01*
X28765597Y-94488973D01*
X27896264Y-94256036D01*
G37*
G36*
X273654403Y-72748973D02*
G01*
X273343820Y-71589862D01*
X274213153Y-71356925D01*
X274523736Y-72516036D01*
X273654403Y-72748973D01*
G37*
G36*
X270466847Y-73603075D02*
G01*
X270156264Y-72443964D01*
X271025597Y-72211027D01*
X271336180Y-73370138D01*
X270466847Y-73603075D01*
G37*
G36*
X254234403Y-74108973D02*
G01*
X253923820Y-72949862D01*
X254793153Y-72716925D01*
X255103736Y-73876036D01*
X254234403Y-74108973D01*
G37*
G36*
X251046847Y-74963075D02*
G01*
X250736264Y-73803964D01*
X251605597Y-73571027D01*
X251916180Y-74730138D01*
X251046847Y-74963075D01*
G37*
G36*
X234924403Y-74968973D02*
G01*
X234613820Y-73809862D01*
X235483153Y-73576925D01*
X235793736Y-74736036D01*
X234924403Y-74968973D01*
G37*
G36*
X231736847Y-75823075D02*
G01*
X231426264Y-74663964D01*
X232295597Y-74431027D01*
X232606180Y-75590138D01*
X231736847Y-75823075D01*
G37*
G36*
X215214403Y-76328973D02*
G01*
X214903820Y-75169862D01*
X215773153Y-74936925D01*
X216083736Y-76096036D01*
X215214403Y-76328973D01*
G37*
G36*
X212026847Y-77183075D02*
G01*
X211716264Y-76023964D01*
X212585597Y-75791027D01*
X212896180Y-76950138D01*
X212026847Y-77183075D01*
G37*
G36*
X197924403Y-85018973D02*
G01*
X197613820Y-83859862D01*
X198483153Y-83626925D01*
X198793736Y-84786036D01*
X197924403Y-85018973D01*
G37*
G36*
X194736847Y-85873075D02*
G01*
X194426264Y-84713964D01*
X195295597Y-84481027D01*
X195606180Y-85640138D01*
X194736847Y-85873075D01*
G37*
G36*
X180154403Y-93618973D02*
G01*
X179843820Y-92459862D01*
X180713153Y-92226925D01*
X181023736Y-93386036D01*
X180154403Y-93618973D01*
G37*
G36*
X176966847Y-94473075D02*
G01*
X176656264Y-93313964D01*
X177525597Y-93081027D01*
X177836180Y-94240138D01*
X176966847Y-94473075D01*
G37*
G36*
X128633820Y-97430138D02*
G01*
X128944403Y-96271027D01*
X129813736Y-96503964D01*
X129503153Y-97663075D01*
X128633820Y-97430138D01*
G37*
G36*
X125446264Y-96576036D02*
G01*
X125756847Y-95416925D01*
X126626180Y-95649862D01*
X126315597Y-96808973D01*
X125446264Y-96576036D01*
G37*
G36*
X111393820Y-88590138D02*
G01*
X111704403Y-87431027D01*
X112573736Y-87663964D01*
X112263153Y-88823075D01*
X111393820Y-88590138D01*
G37*
G36*
X108206264Y-87736036D02*
G01*
X108516847Y-86576925D01*
X109386180Y-86809862D01*
X109075597Y-87968973D01*
X108206264Y-87736036D01*
G37*
G36*
X94573820Y-80010138D02*
G01*
X94884403Y-78851027D01*
X95753736Y-79083964D01*
X95443153Y-80243075D01*
X94573820Y-80010138D01*
G37*
G36*
X91386264Y-79156036D02*
G01*
X91696847Y-77996925D01*
X92566180Y-78229862D01*
X92255597Y-79388973D01*
X91386264Y-79156036D01*
G37*
G36*
X74493820Y-78810138D02*
G01*
X74804403Y-77651027D01*
X75673736Y-77883964D01*
X75363153Y-79043075D01*
X74493820Y-78810138D01*
G37*
G36*
X71306264Y-77956036D02*
G01*
X71616847Y-76796925D01*
X72486180Y-77029862D01*
X72175597Y-78188973D01*
X71306264Y-77956036D01*
G37*
G36*
X55003820Y-77780138D02*
G01*
X55314403Y-76621027D01*
X56183736Y-76853964D01*
X55873153Y-78013075D01*
X55003820Y-77780138D01*
G37*
G36*
X51816264Y-76926036D02*
G01*
X52126847Y-75766925D01*
X52996180Y-75999862D01*
X52685597Y-77158973D01*
X51816264Y-76926036D01*
G37*
G36*
X35513820Y-76510138D02*
G01*
X35824403Y-75351027D01*
X36693736Y-75583964D01*
X36383153Y-76743075D01*
X35513820Y-76510138D01*
G37*
G36*
X32326264Y-75656036D02*
G01*
X32636847Y-74496925D01*
X33506180Y-74729862D01*
X33195597Y-75888973D01*
X32326264Y-75656036D01*
G37*
D14*
X114656903Y-145739801D03*
X104843097Y-143110199D03*
D15*
X109750000Y-144425000D03*
D16*
X113518252Y-140175497D03*
X106727223Y-140985448D03*
D14*
X209176903Y-138175199D03*
X199363097Y-140804801D03*
D15*
X204270000Y-139490000D03*
D16*
X205408651Y-133925696D03*
X199932422Y-138022649D03*
D14*
X190756903Y-143105199D03*
X180943097Y-145734801D03*
D15*
X185850000Y-144420000D03*
D16*
X186988651Y-138855696D03*
X181512422Y-142952649D03*
D14*
X96256903Y-140804801D03*
X86443097Y-138175199D03*
D15*
X91350000Y-139490000D03*
D16*
X95118252Y-135240497D03*
X88327223Y-136050448D03*
D14*
X278686903Y-101145199D03*
X268873097Y-103774801D03*
D15*
X273780000Y-102460000D03*
D16*
X274918651Y-96895696D03*
X269442422Y-100992649D03*
D14*
X259266903Y-102255199D03*
X249453097Y-104884801D03*
D15*
X254360000Y-103570000D03*
D16*
X255498651Y-98005696D03*
X250022422Y-102102649D03*
D14*
X239846903Y-103315199D03*
X230033097Y-105944801D03*
D15*
X234940000Y-104630000D03*
D16*
X236078651Y-99065696D03*
X230602422Y-103162649D03*
D14*
X220381903Y-104385199D03*
X210568097Y-107014801D03*
D15*
X215475000Y-105700000D03*
D16*
X216613651Y-100135696D03*
X211137422Y-104232649D03*
D14*
X203031903Y-113175199D03*
X193218097Y-115804801D03*
D15*
X198125000Y-114490000D03*
D16*
X199263651Y-108925696D03*
X193787422Y-113022649D03*
D14*
X185676903Y-121965199D03*
X175863097Y-124594801D03*
D15*
X180770000Y-123280000D03*
D16*
X181908651Y-117715696D03*
X176432422Y-121812649D03*
D14*
X119756903Y-124614801D03*
X109943097Y-121985199D03*
D15*
X114850000Y-123300000D03*
D16*
X118618252Y-119050497D03*
X111827223Y-119860448D03*
D14*
X102386903Y-115824801D03*
X92573097Y-113195199D03*
D15*
X97480000Y-114510000D03*
D16*
X101248252Y-110260497D03*
X94457223Y-111070448D03*
D14*
X85031903Y-107014801D03*
X75218097Y-104385199D03*
D15*
X80125000Y-105700000D03*
D16*
X83893252Y-101450497D03*
X77102223Y-102260448D03*
D14*
X65596903Y-105944801D03*
X55783097Y-103315199D03*
D15*
X60690000Y-104630000D03*
D16*
X64458252Y-100380497D03*
X57667223Y-101190448D03*
D14*
X46166903Y-104884801D03*
X36353097Y-102255199D03*
D15*
X41260000Y-103570000D03*
D16*
X45028252Y-99320497D03*
X38237223Y-100130448D03*
D14*
X26731903Y-103764801D03*
X16918097Y-101135199D03*
D15*
X21825000Y-102450000D03*
D16*
X25593252Y-98200497D03*
X18802223Y-99010448D03*
D14*
X273766903Y-82735199D03*
X263953097Y-85364801D03*
D15*
X268860000Y-84050000D03*
D16*
X269998651Y-78485696D03*
X264522422Y-82582649D03*
D14*
X254306903Y-83810199D03*
X244493097Y-86439801D03*
D15*
X249400000Y-85125000D03*
D16*
X250538651Y-79560696D03*
X245062422Y-83657649D03*
D14*
X234906903Y-84910199D03*
X225093097Y-87539801D03*
D15*
X230000000Y-86225000D03*
D16*
X231138651Y-80660696D03*
X225662422Y-84757649D03*
D14*
X215456903Y-86010199D03*
X205643097Y-88639801D03*
D15*
X210550000Y-87325000D03*
D16*
X211688651Y-81760696D03*
X206212422Y-85857649D03*
D14*
X198106903Y-94785199D03*
X188293097Y-97414801D03*
D15*
X193200000Y-96100000D03*
D16*
X194338651Y-90535696D03*
X188862422Y-94632649D03*
D14*
X180736903Y-103575199D03*
X170923097Y-106204801D03*
D15*
X175830000Y-104890000D03*
D16*
X176968651Y-99325696D03*
X171492422Y-103422649D03*
D14*
X124686903Y-106204801D03*
X114873097Y-103575199D03*
D15*
X119780000Y-104890000D03*
D16*
X123548252Y-100640497D03*
X116757223Y-101450448D03*
D14*
X107331903Y-97414801D03*
X97518097Y-94785199D03*
D15*
X102425000Y-96100000D03*
D16*
X106193252Y-91850497D03*
X99402223Y-92660448D03*
D14*
X89956903Y-88639801D03*
X80143097Y-86010199D03*
D15*
X85050000Y-87325000D03*
D16*
X88818252Y-83075497D03*
X82027223Y-83885448D03*
D14*
X70506903Y-87539801D03*
X60693097Y-84910199D03*
D15*
X65600000Y-86225000D03*
D16*
X69368252Y-81975497D03*
X62577223Y-82785448D03*
D14*
X51089680Y-86484353D03*
X41275874Y-83854751D03*
D15*
X46182777Y-85169552D03*
D16*
X49951029Y-80920049D03*
X43160000Y-81730000D03*
D14*
X31656903Y-85364801D03*
X21843097Y-82735199D03*
D15*
X26750000Y-84050000D03*
D16*
X30518252Y-79800497D03*
X23727223Y-80610448D03*
D14*
X268831903Y-64335199D03*
X259018097Y-66964801D03*
D15*
X263925000Y-65650000D03*
D16*
X265063651Y-60085696D03*
X259587422Y-64182649D03*
D14*
X249431903Y-65435199D03*
X239618097Y-68064801D03*
D15*
X244525000Y-66750000D03*
D16*
X245663651Y-61185696D03*
X240187422Y-65282649D03*
D14*
X229956903Y-66510199D03*
X220143097Y-69139801D03*
D15*
X225050000Y-67825000D03*
D16*
X226188651Y-62260696D03*
X220712422Y-66357649D03*
D14*
X210531903Y-67585199D03*
X200718097Y-70214801D03*
D15*
X205625000Y-68900000D03*
D16*
X206763651Y-63335696D03*
X201287422Y-67432649D03*
D14*
X193176903Y-76385199D03*
X183363097Y-79014801D03*
D15*
X188270000Y-77700000D03*
D16*
X189408651Y-72135696D03*
X183932422Y-76232649D03*
D14*
X175806903Y-85175199D03*
X165993097Y-87804801D03*
D15*
X170900000Y-86490000D03*
D16*
X172038651Y-80925696D03*
X166562422Y-85022649D03*
D14*
X129606903Y-87814801D03*
X119793097Y-85185199D03*
D15*
X124700000Y-86500000D03*
D16*
X128468252Y-82250497D03*
X121677223Y-83060448D03*
D14*
X112256903Y-79014801D03*
X102443097Y-76385199D03*
D15*
X107350000Y-77700000D03*
D16*
X111118252Y-73450497D03*
X104327223Y-74260448D03*
D14*
X94881903Y-70214801D03*
X85068097Y-67585199D03*
D15*
X89975000Y-68900000D03*
D16*
X93743252Y-64650497D03*
X86952223Y-65460448D03*
D14*
X75456903Y-69139801D03*
X65643097Y-66510199D03*
D15*
X70550000Y-67825000D03*
D16*
X74318252Y-63575497D03*
X67527223Y-64385448D03*
D14*
X56006903Y-68089801D03*
X46193097Y-65460199D03*
D15*
X51100000Y-66775000D03*
D16*
X54868252Y-62525497D03*
X48077223Y-63335448D03*
D14*
X36579871Y-66963763D03*
X26766065Y-64334161D03*
D15*
X31672968Y-65648962D03*
D16*
X35441220Y-61399459D03*
X28650191Y-62209410D03*
D14*
X135319409Y-153140000D03*
X126520591Y-148060000D03*
D15*
X130920000Y-150600000D03*
D16*
X135659705Y-147470591D03*
X128890443Y-146495295D03*
D14*
X169079409Y-148060000D03*
X160280591Y-153140000D03*
D15*
X164680000Y-150600000D03*
D16*
X164339705Y-144930591D03*
X160110443Y-150305295D03*
M02*
