G04 #@! TF.GenerationSoftware,KiCad,Pcbnew,(5.1.12-1-10_14)*
G04 #@! TF.CreationDate,2022-10-16T17:34:36-04:00*
G04 #@! TF.ProjectId,ergo3by6plus3nonSplit,6572676f-3362-4793-9670-6c7573336e6f,rev?*
G04 #@! TF.SameCoordinates,Original*
G04 #@! TF.FileFunction,Legend,Bot*
G04 #@! TF.FilePolarity,Positive*
%FSLAX46Y46*%
G04 Gerber Fmt 4.6, Leading zero omitted, Abs format (unit mm)*
G04 Created by KiCad (PCBNEW (5.1.12-1-10_14)) date 2022-10-16 17:34:36*
%MOMM*%
%LPD*%
G01*
G04 APERTURE LIST*
%ADD10C,0.120000*%
%ADD11C,1.750000*%
%ADD12C,4.000000*%
%ADD13C,3.050000*%
%ADD14C,1.600000*%
%ADD15R,1.600000X1.600000*%
G04 APERTURE END LIST*
D10*
X110255626Y-141765236D02*
X115181848Y-143085214D01*
X107575556Y-136698954D02*
X112501777Y-138018931D01*
X107806136Y-143179450D02*
G75*
G02*
X110255626Y-141765236I1931852J-517638D01*
G01*
X105126066Y-138113166D02*
G75*
G02*
X107575556Y-136698954I1931851J-517639D01*
G01*
X203378003Y-136933764D02*
X208304225Y-135613787D01*
X198523853Y-133886270D02*
X203450074Y-132566293D01*
X201963790Y-139383255D02*
G75*
G02*
X203378003Y-136933764I1931852J517639D01*
G01*
X197109639Y-136335760D02*
G75*
G02*
X198523853Y-133886270I1931852J517638D01*
G01*
X184958003Y-141863764D02*
X189884225Y-140543787D01*
X180103853Y-138816270D02*
X185030074Y-137496293D01*
X183543790Y-144313255D02*
G75*
G02*
X184958003Y-141863764I1931852J517639D01*
G01*
X178689639Y-141265760D02*
G75*
G02*
X180103853Y-138816270I1931852J517638D01*
G01*
X91855626Y-136830236D02*
X96781848Y-138150214D01*
X89175556Y-131763954D02*
X94101777Y-133083931D01*
X89406136Y-138244450D02*
G75*
G02*
X91855626Y-136830236I1931852J-517638D01*
G01*
X86726066Y-133178166D02*
G75*
G02*
X89175556Y-131763954I1931851J-517639D01*
G01*
X272888003Y-99903764D02*
X277814225Y-98583787D01*
X268033853Y-96856270D02*
X272960074Y-95536293D01*
X271473790Y-102353255D02*
G75*
G02*
X272888003Y-99903764I1931852J517639D01*
G01*
X266619639Y-99305760D02*
G75*
G02*
X268033853Y-96856270I1931852J517638D01*
G01*
X253468003Y-101013764D02*
X258394225Y-99693787D01*
X248613853Y-97966270D02*
X253540074Y-96646293D01*
X252053790Y-103463255D02*
G75*
G02*
X253468003Y-101013764I1931852J517639D01*
G01*
X247199639Y-100415760D02*
G75*
G02*
X248613853Y-97966270I1931852J517638D01*
G01*
X234048003Y-102073764D02*
X238974225Y-100753787D01*
X229193853Y-99026270D02*
X234120074Y-97706293D01*
X232633790Y-104523255D02*
G75*
G02*
X234048003Y-102073764I1931852J517639D01*
G01*
X227779639Y-101475760D02*
G75*
G02*
X229193853Y-99026270I1931852J517638D01*
G01*
X214583003Y-103143764D02*
X219509225Y-101823787D01*
X209728853Y-100096270D02*
X214655074Y-98776293D01*
X213168790Y-105593255D02*
G75*
G02*
X214583003Y-103143764I1931852J517639D01*
G01*
X208314639Y-102545760D02*
G75*
G02*
X209728853Y-100096270I1931852J517638D01*
G01*
X197233003Y-111933764D02*
X202159225Y-110613787D01*
X192378853Y-108886270D02*
X197305074Y-107566293D01*
X195818790Y-114383255D02*
G75*
G02*
X197233003Y-111933764I1931852J517639D01*
G01*
X190964639Y-111335760D02*
G75*
G02*
X192378853Y-108886270I1931852J517638D01*
G01*
X179878003Y-120723764D02*
X184804225Y-119403787D01*
X175023853Y-117676270D02*
X179950074Y-116356293D01*
X178463790Y-123173255D02*
G75*
G02*
X179878003Y-120723764I1931852J517639D01*
G01*
X173609639Y-120125760D02*
G75*
G02*
X175023853Y-117676270I1931852J517638D01*
G01*
X115355626Y-120640236D02*
X120281848Y-121960214D01*
X112675556Y-115573954D02*
X117601777Y-116893931D01*
X112906136Y-122054450D02*
G75*
G02*
X115355626Y-120640236I1931852J-517638D01*
G01*
X110226066Y-116988166D02*
G75*
G02*
X112675556Y-115573954I1931851J-517639D01*
G01*
X97985626Y-111850236D02*
X102911848Y-113170214D01*
X95305556Y-106783954D02*
X100231777Y-108103931D01*
X95536136Y-113264450D02*
G75*
G02*
X97985626Y-111850236I1931852J-517638D01*
G01*
X92856066Y-108198166D02*
G75*
G02*
X95305556Y-106783954I1931851J-517639D01*
G01*
X80630626Y-103040236D02*
X85556848Y-104360214D01*
X77950556Y-97973954D02*
X82876777Y-99293931D01*
X78181136Y-104454450D02*
G75*
G02*
X80630626Y-103040236I1931852J-517638D01*
G01*
X75501066Y-99388166D02*
G75*
G02*
X77950556Y-97973954I1931851J-517639D01*
G01*
X61195626Y-101970236D02*
X66121848Y-103290214D01*
X58515556Y-96903954D02*
X63441777Y-98223931D01*
X58746136Y-103384450D02*
G75*
G02*
X61195626Y-101970236I1931852J-517638D01*
G01*
X56066066Y-98318166D02*
G75*
G02*
X58515556Y-96903954I1931851J-517639D01*
G01*
X41765626Y-100910236D02*
X46691848Y-102230214D01*
X39085556Y-95843954D02*
X44011777Y-97163931D01*
X39316136Y-102324450D02*
G75*
G02*
X41765626Y-100910236I1931852J-517638D01*
G01*
X36636066Y-97258166D02*
G75*
G02*
X39085556Y-95843954I1931851J-517639D01*
G01*
X22330626Y-99790236D02*
X27256848Y-101110214D01*
X19650556Y-94723954D02*
X24576777Y-96043931D01*
X19881136Y-101204450D02*
G75*
G02*
X22330626Y-99790236I1931852J-517638D01*
G01*
X17201066Y-96138166D02*
G75*
G02*
X19650556Y-94723954I1931851J-517639D01*
G01*
X267968003Y-81493764D02*
X272894225Y-80173787D01*
X263113853Y-78446270D02*
X268040074Y-77126293D01*
X266553790Y-83943255D02*
G75*
G02*
X267968003Y-81493764I1931852J517639D01*
G01*
X261699639Y-80895760D02*
G75*
G02*
X263113853Y-78446270I1931852J517638D01*
G01*
X248508003Y-82568764D02*
X253434225Y-81248787D01*
X243653853Y-79521270D02*
X248580074Y-78201293D01*
X247093790Y-85018255D02*
G75*
G02*
X248508003Y-82568764I1931852J517639D01*
G01*
X242239639Y-81970760D02*
G75*
G02*
X243653853Y-79521270I1931852J517638D01*
G01*
X229108003Y-83668764D02*
X234034225Y-82348787D01*
X224253853Y-80621270D02*
X229180074Y-79301293D01*
X227693790Y-86118255D02*
G75*
G02*
X229108003Y-83668764I1931852J517639D01*
G01*
X222839639Y-83070760D02*
G75*
G02*
X224253853Y-80621270I1931852J517638D01*
G01*
X209658003Y-84768764D02*
X214584225Y-83448787D01*
X204803853Y-81721270D02*
X209730074Y-80401293D01*
X208243790Y-87218255D02*
G75*
G02*
X209658003Y-84768764I1931852J517639D01*
G01*
X203389639Y-84170760D02*
G75*
G02*
X204803853Y-81721270I1931852J517638D01*
G01*
X192308003Y-93543764D02*
X197234225Y-92223787D01*
X187453853Y-90496270D02*
X192380074Y-89176293D01*
X190893790Y-95993255D02*
G75*
G02*
X192308003Y-93543764I1931852J517639D01*
G01*
X186039639Y-92945760D02*
G75*
G02*
X187453853Y-90496270I1931852J517638D01*
G01*
X174938003Y-102333764D02*
X179864225Y-101013787D01*
X170083853Y-99286270D02*
X175010074Y-97966293D01*
X173523790Y-104783255D02*
G75*
G02*
X174938003Y-102333764I1931852J517639D01*
G01*
X168669639Y-101735760D02*
G75*
G02*
X170083853Y-99286270I1931852J517638D01*
G01*
X120285626Y-102230236D02*
X125211848Y-103550214D01*
X117605556Y-97163954D02*
X122531777Y-98483931D01*
X117836136Y-103644450D02*
G75*
G02*
X120285626Y-102230236I1931852J-517638D01*
G01*
X115156066Y-98578166D02*
G75*
G02*
X117605556Y-97163954I1931851J-517639D01*
G01*
X102930626Y-93440236D02*
X107856848Y-94760214D01*
X100250556Y-88373954D02*
X105176777Y-89693931D01*
X100481136Y-94854450D02*
G75*
G02*
X102930626Y-93440236I1931852J-517638D01*
G01*
X97801066Y-89788166D02*
G75*
G02*
X100250556Y-88373954I1931851J-517639D01*
G01*
X85555626Y-84665236D02*
X90481848Y-85985214D01*
X82875556Y-79598954D02*
X87801777Y-80918931D01*
X83106136Y-86079450D02*
G75*
G02*
X85555626Y-84665236I1931852J-517638D01*
G01*
X80426066Y-81013166D02*
G75*
G02*
X82875556Y-79598954I1931851J-517639D01*
G01*
X66105626Y-83565236D02*
X71031848Y-84885214D01*
X63425556Y-78498954D02*
X68351777Y-79818931D01*
X63656136Y-84979450D02*
G75*
G02*
X66105626Y-83565236I1931852J-517638D01*
G01*
X60976066Y-79913166D02*
G75*
G02*
X63425556Y-78498954I1931851J-517639D01*
G01*
X46688403Y-82509788D02*
X51614625Y-83829766D01*
X44008333Y-77443506D02*
X48934554Y-78763483D01*
X44238913Y-83924002D02*
G75*
G02*
X46688403Y-82509788I1931852J-517638D01*
G01*
X41558843Y-78857718D02*
G75*
G02*
X44008333Y-77443506I1931851J-517639D01*
G01*
X27255626Y-81390236D02*
X32181848Y-82710214D01*
X24575556Y-76323954D02*
X29501777Y-77643931D01*
X24806136Y-82804450D02*
G75*
G02*
X27255626Y-81390236I1931852J-517638D01*
G01*
X22126066Y-77738166D02*
G75*
G02*
X24575556Y-76323954I1931851J-517639D01*
G01*
X263033003Y-63093764D02*
X267959225Y-61773787D01*
X258178853Y-60046270D02*
X263105074Y-58726293D01*
X261618790Y-65543255D02*
G75*
G02*
X263033003Y-63093764I1931852J517639D01*
G01*
X256764639Y-62495760D02*
G75*
G02*
X258178853Y-60046270I1931852J517638D01*
G01*
X243633003Y-64193764D02*
X248559225Y-62873787D01*
X238778853Y-61146270D02*
X243705074Y-59826293D01*
X242218790Y-66643255D02*
G75*
G02*
X243633003Y-64193764I1931852J517639D01*
G01*
X237364639Y-63595760D02*
G75*
G02*
X238778853Y-61146270I1931852J517638D01*
G01*
X224158003Y-65268764D02*
X229084225Y-63948787D01*
X219303853Y-62221270D02*
X224230074Y-60901293D01*
X222743790Y-67718255D02*
G75*
G02*
X224158003Y-65268764I1931852J517639D01*
G01*
X217889639Y-64670760D02*
G75*
G02*
X219303853Y-62221270I1931852J517638D01*
G01*
X204733003Y-66343764D02*
X209659225Y-65023787D01*
X199878853Y-63296270D02*
X204805074Y-61976293D01*
X203318790Y-68793255D02*
G75*
G02*
X204733003Y-66343764I1931852J517639D01*
G01*
X198464639Y-65745760D02*
G75*
G02*
X199878853Y-63296270I1931852J517638D01*
G01*
X187378003Y-75143764D02*
X192304225Y-73823787D01*
X182523853Y-72096270D02*
X187450074Y-70776293D01*
X185963790Y-77593255D02*
G75*
G02*
X187378003Y-75143764I1931852J517639D01*
G01*
X181109639Y-74545760D02*
G75*
G02*
X182523853Y-72096270I1931852J517638D01*
G01*
X170008003Y-83933764D02*
X174934225Y-82613787D01*
X165153853Y-80886270D02*
X170080074Y-79566293D01*
X168593790Y-86383255D02*
G75*
G02*
X170008003Y-83933764I1931852J517639D01*
G01*
X163739639Y-83335760D02*
G75*
G02*
X165153853Y-80886270I1931852J517638D01*
G01*
X125205626Y-83840236D02*
X130131848Y-85160214D01*
X122525556Y-78773954D02*
X127451777Y-80093931D01*
X122756136Y-85254450D02*
G75*
G02*
X125205626Y-83840236I1931852J-517638D01*
G01*
X120076066Y-80188166D02*
G75*
G02*
X122525556Y-78773954I1931851J-517639D01*
G01*
X107855626Y-75040236D02*
X112781848Y-76360214D01*
X105175556Y-69973954D02*
X110101777Y-71293931D01*
X105406136Y-76454450D02*
G75*
G02*
X107855626Y-75040236I1931852J-517638D01*
G01*
X102726066Y-71388166D02*
G75*
G02*
X105175556Y-69973954I1931851J-517639D01*
G01*
X90480626Y-66240236D02*
X95406848Y-67560214D01*
X87800556Y-61173954D02*
X92726777Y-62493931D01*
X88031136Y-67654450D02*
G75*
G02*
X90480626Y-66240236I1931852J-517638D01*
G01*
X85351066Y-62588166D02*
G75*
G02*
X87800556Y-61173954I1931851J-517639D01*
G01*
X71055626Y-65165236D02*
X75981848Y-66485214D01*
X68375556Y-60098954D02*
X73301777Y-61418931D01*
X68606136Y-66579450D02*
G75*
G02*
X71055626Y-65165236I1931852J-517638D01*
G01*
X65926066Y-61513166D02*
G75*
G02*
X68375556Y-60098954I1931851J-517639D01*
G01*
X51605626Y-64115236D02*
X56531848Y-65435214D01*
X48925556Y-59048954D02*
X53851777Y-60368931D01*
X49156136Y-65529450D02*
G75*
G02*
X51605626Y-64115236I1931852J-517638D01*
G01*
X46476066Y-60463166D02*
G75*
G02*
X48925556Y-59048954I1931851J-517639D01*
G01*
X32178594Y-62989198D02*
X37104816Y-64309176D01*
X29498524Y-57922916D02*
X34424745Y-59242893D01*
X29729104Y-64403412D02*
G75*
G02*
X32178594Y-62989198I1931852J-517638D01*
G01*
X27049034Y-59337128D02*
G75*
G02*
X29498524Y-57922916I1931851J-517639D01*
G01*
X132096795Y-148161731D02*
X136513524Y-150711731D01*
X130819296Y-142574425D02*
X135236025Y-145124425D01*
X129364744Y-148893782D02*
G75*
G02*
X132096795Y-148161731I1732051J-1000000D01*
G01*
X128087245Y-143306476D02*
G75*
G02*
X130819296Y-142574425I1732051J-1000000D01*
G01*
X163156795Y-148361731D02*
X167573524Y-145811731D01*
X157679296Y-146674425D02*
X162096025Y-144124425D01*
X162424744Y-151093782D02*
G75*
G02*
X163156795Y-148361731I1732051J1000000D01*
G01*
X156947245Y-149406476D02*
G75*
G02*
X157679296Y-146674425I1732051J1000000D01*
G01*
%LPC*%
D11*
X114656903Y-145739801D03*
X104843097Y-143110199D03*
D12*
X109750000Y-144425000D03*
G36*
G01*
X115217365Y-141666049D02*
X115735003Y-139734198D01*
G75*
G02*
X116041189Y-139557422I241481J-64705D01*
G01*
X118021337Y-140088001D01*
G75*
G02*
X118198113Y-140394187I-64705J-241481D01*
G01*
X117680475Y-142326038D01*
G75*
G02*
X117374289Y-142502814I-241481J64705D01*
G01*
X115394141Y-141972235D01*
G75*
G02*
X115217365Y-141666049I64705J241481D01*
G01*
G37*
G36*
G01*
X102073442Y-140773746D02*
X102591080Y-138841895D01*
G75*
G02*
X102897266Y-138665119I241481J-64705D01*
G01*
X104877414Y-139195698D01*
G75*
G02*
X105054190Y-139501884I-64705J-241481D01*
G01*
X104536552Y-141433735D01*
G75*
G02*
X104230366Y-141610511I-241481J64705D01*
G01*
X102250218Y-141079932D01*
G75*
G02*
X102073442Y-140773746I64705J241481D01*
G01*
G37*
D13*
X113518252Y-140175497D03*
X106727223Y-140985448D03*
D11*
X209176903Y-138175199D03*
X199363097Y-140804801D03*
D12*
X204270000Y-139490000D03*
G36*
G01*
X207625402Y-134366996D02*
X207107764Y-132435145D01*
G75*
G02*
X207284540Y-132128959I241481J64705D01*
G01*
X209264688Y-131598380D01*
G75*
G02*
X209570874Y-131775156I64705J-241481D01*
G01*
X210088512Y-133707007D01*
G75*
G02*
X209911736Y-134013193I-241481J-64705D01*
G01*
X207931588Y-134543772D01*
G75*
G02*
X207625402Y-134366996I-64705J241481D01*
G01*
G37*
G36*
G01*
X195796279Y-140166201D02*
X195278641Y-138234350D01*
G75*
G02*
X195455417Y-137928164I241481J64705D01*
G01*
X197435565Y-137397585D01*
G75*
G02*
X197741751Y-137574361I64705J-241481D01*
G01*
X198259389Y-139506212D01*
G75*
G02*
X198082613Y-139812398I-241481J-64705D01*
G01*
X196102465Y-140342977D01*
G75*
G02*
X195796279Y-140166201I-64705J241481D01*
G01*
G37*
D13*
X205408651Y-133925696D03*
X199932422Y-138022649D03*
D11*
X190756903Y-143105199D03*
X180943097Y-145734801D03*
D12*
X185850000Y-144420000D03*
G36*
G01*
X189205402Y-139296996D02*
X188687764Y-137365145D01*
G75*
G02*
X188864540Y-137058959I241481J64705D01*
G01*
X190844688Y-136528380D01*
G75*
G02*
X191150874Y-136705156I64705J-241481D01*
G01*
X191668512Y-138637007D01*
G75*
G02*
X191491736Y-138943193I-241481J-64705D01*
G01*
X189511588Y-139473772D01*
G75*
G02*
X189205402Y-139296996I-64705J241481D01*
G01*
G37*
G36*
G01*
X177376279Y-145096201D02*
X176858641Y-143164350D01*
G75*
G02*
X177035417Y-142858164I241481J64705D01*
G01*
X179015565Y-142327585D01*
G75*
G02*
X179321751Y-142504361I64705J-241481D01*
G01*
X179839389Y-144436212D01*
G75*
G02*
X179662613Y-144742398I-241481J-64705D01*
G01*
X177682465Y-145272977D01*
G75*
G02*
X177376279Y-145096201I-64705J241481D01*
G01*
G37*
D13*
X186988651Y-138855696D03*
X181512422Y-142952649D03*
D11*
X96256903Y-140804801D03*
X86443097Y-138175199D03*
D12*
X91350000Y-139490000D03*
G36*
G01*
X96817365Y-136731049D02*
X97335003Y-134799198D01*
G75*
G02*
X97641189Y-134622422I241481J-64705D01*
G01*
X99621337Y-135153001D01*
G75*
G02*
X99798113Y-135459187I-64705J-241481D01*
G01*
X99280475Y-137391038D01*
G75*
G02*
X98974289Y-137567814I-241481J64705D01*
G01*
X96994141Y-137037235D01*
G75*
G02*
X96817365Y-136731049I64705J241481D01*
G01*
G37*
G36*
G01*
X83673442Y-135838746D02*
X84191080Y-133906895D01*
G75*
G02*
X84497266Y-133730119I241481J-64705D01*
G01*
X86477414Y-134260698D01*
G75*
G02*
X86654190Y-134566884I-64705J-241481D01*
G01*
X86136552Y-136498735D01*
G75*
G02*
X85830366Y-136675511I-241481J64705D01*
G01*
X83850218Y-136144932D01*
G75*
G02*
X83673442Y-135838746I64705J241481D01*
G01*
G37*
D13*
X95118252Y-135240497D03*
X88327223Y-136050448D03*
D11*
X278686903Y-101145199D03*
X268873097Y-103774801D03*
D12*
X273780000Y-102460000D03*
G36*
G01*
X277135402Y-97336996D02*
X276617764Y-95405145D01*
G75*
G02*
X276794540Y-95098959I241481J64705D01*
G01*
X278774688Y-94568380D01*
G75*
G02*
X279080874Y-94745156I64705J-241481D01*
G01*
X279598512Y-96677007D01*
G75*
G02*
X279421736Y-96983193I-241481J-64705D01*
G01*
X277441588Y-97513772D01*
G75*
G02*
X277135402Y-97336996I-64705J241481D01*
G01*
G37*
G36*
G01*
X265306279Y-103136201D02*
X264788641Y-101204350D01*
G75*
G02*
X264965417Y-100898164I241481J64705D01*
G01*
X266945565Y-100367585D01*
G75*
G02*
X267251751Y-100544361I64705J-241481D01*
G01*
X267769389Y-102476212D01*
G75*
G02*
X267592613Y-102782398I-241481J-64705D01*
G01*
X265612465Y-103312977D01*
G75*
G02*
X265306279Y-103136201I-64705J241481D01*
G01*
G37*
D13*
X274918651Y-96895696D03*
X269442422Y-100992649D03*
D11*
X259266903Y-102255199D03*
X249453097Y-104884801D03*
D12*
X254360000Y-103570000D03*
G36*
G01*
X257715402Y-98446996D02*
X257197764Y-96515145D01*
G75*
G02*
X257374540Y-96208959I241481J64705D01*
G01*
X259354688Y-95678380D01*
G75*
G02*
X259660874Y-95855156I64705J-241481D01*
G01*
X260178512Y-97787007D01*
G75*
G02*
X260001736Y-98093193I-241481J-64705D01*
G01*
X258021588Y-98623772D01*
G75*
G02*
X257715402Y-98446996I-64705J241481D01*
G01*
G37*
G36*
G01*
X245886279Y-104246201D02*
X245368641Y-102314350D01*
G75*
G02*
X245545417Y-102008164I241481J64705D01*
G01*
X247525565Y-101477585D01*
G75*
G02*
X247831751Y-101654361I64705J-241481D01*
G01*
X248349389Y-103586212D01*
G75*
G02*
X248172613Y-103892398I-241481J-64705D01*
G01*
X246192465Y-104422977D01*
G75*
G02*
X245886279Y-104246201I-64705J241481D01*
G01*
G37*
D13*
X255498651Y-98005696D03*
X250022422Y-102102649D03*
D11*
X239846903Y-103315199D03*
X230033097Y-105944801D03*
D12*
X234940000Y-104630000D03*
G36*
G01*
X238295402Y-99506996D02*
X237777764Y-97575145D01*
G75*
G02*
X237954540Y-97268959I241481J64705D01*
G01*
X239934688Y-96738380D01*
G75*
G02*
X240240874Y-96915156I64705J-241481D01*
G01*
X240758512Y-98847007D01*
G75*
G02*
X240581736Y-99153193I-241481J-64705D01*
G01*
X238601588Y-99683772D01*
G75*
G02*
X238295402Y-99506996I-64705J241481D01*
G01*
G37*
G36*
G01*
X226466279Y-105306201D02*
X225948641Y-103374350D01*
G75*
G02*
X226125417Y-103068164I241481J64705D01*
G01*
X228105565Y-102537585D01*
G75*
G02*
X228411751Y-102714361I64705J-241481D01*
G01*
X228929389Y-104646212D01*
G75*
G02*
X228752613Y-104952398I-241481J-64705D01*
G01*
X226772465Y-105482977D01*
G75*
G02*
X226466279Y-105306201I-64705J241481D01*
G01*
G37*
D13*
X236078651Y-99065696D03*
X230602422Y-103162649D03*
D11*
X220381903Y-104385199D03*
X210568097Y-107014801D03*
D12*
X215475000Y-105700000D03*
G36*
G01*
X218830402Y-100576996D02*
X218312764Y-98645145D01*
G75*
G02*
X218489540Y-98338959I241481J64705D01*
G01*
X220469688Y-97808380D01*
G75*
G02*
X220775874Y-97985156I64705J-241481D01*
G01*
X221293512Y-99917007D01*
G75*
G02*
X221116736Y-100223193I-241481J-64705D01*
G01*
X219136588Y-100753772D01*
G75*
G02*
X218830402Y-100576996I-64705J241481D01*
G01*
G37*
G36*
G01*
X207001279Y-106376201D02*
X206483641Y-104444350D01*
G75*
G02*
X206660417Y-104138164I241481J64705D01*
G01*
X208640565Y-103607585D01*
G75*
G02*
X208946751Y-103784361I64705J-241481D01*
G01*
X209464389Y-105716212D01*
G75*
G02*
X209287613Y-106022398I-241481J-64705D01*
G01*
X207307465Y-106552977D01*
G75*
G02*
X207001279Y-106376201I-64705J241481D01*
G01*
G37*
D13*
X216613651Y-100135696D03*
X211137422Y-104232649D03*
D11*
X203031903Y-113175199D03*
X193218097Y-115804801D03*
D12*
X198125000Y-114490000D03*
G36*
G01*
X201480402Y-109366996D02*
X200962764Y-107435145D01*
G75*
G02*
X201139540Y-107128959I241481J64705D01*
G01*
X203119688Y-106598380D01*
G75*
G02*
X203425874Y-106775156I64705J-241481D01*
G01*
X203943512Y-108707007D01*
G75*
G02*
X203766736Y-109013193I-241481J-64705D01*
G01*
X201786588Y-109543772D01*
G75*
G02*
X201480402Y-109366996I-64705J241481D01*
G01*
G37*
G36*
G01*
X189651279Y-115166201D02*
X189133641Y-113234350D01*
G75*
G02*
X189310417Y-112928164I241481J64705D01*
G01*
X191290565Y-112397585D01*
G75*
G02*
X191596751Y-112574361I64705J-241481D01*
G01*
X192114389Y-114506212D01*
G75*
G02*
X191937613Y-114812398I-241481J-64705D01*
G01*
X189957465Y-115342977D01*
G75*
G02*
X189651279Y-115166201I-64705J241481D01*
G01*
G37*
D13*
X199263651Y-108925696D03*
X193787422Y-113022649D03*
D11*
X185676903Y-121965199D03*
X175863097Y-124594801D03*
D12*
X180770000Y-123280000D03*
G36*
G01*
X184125402Y-118156996D02*
X183607764Y-116225145D01*
G75*
G02*
X183784540Y-115918959I241481J64705D01*
G01*
X185764688Y-115388380D01*
G75*
G02*
X186070874Y-115565156I64705J-241481D01*
G01*
X186588512Y-117497007D01*
G75*
G02*
X186411736Y-117803193I-241481J-64705D01*
G01*
X184431588Y-118333772D01*
G75*
G02*
X184125402Y-118156996I-64705J241481D01*
G01*
G37*
G36*
G01*
X172296279Y-123956201D02*
X171778641Y-122024350D01*
G75*
G02*
X171955417Y-121718164I241481J64705D01*
G01*
X173935565Y-121187585D01*
G75*
G02*
X174241751Y-121364361I64705J-241481D01*
G01*
X174759389Y-123296212D01*
G75*
G02*
X174582613Y-123602398I-241481J-64705D01*
G01*
X172602465Y-124132977D01*
G75*
G02*
X172296279Y-123956201I-64705J241481D01*
G01*
G37*
D13*
X181908651Y-117715696D03*
X176432422Y-121812649D03*
D11*
X119756903Y-124614801D03*
X109943097Y-121985199D03*
D12*
X114850000Y-123300000D03*
G36*
G01*
X120317365Y-120541049D02*
X120835003Y-118609198D01*
G75*
G02*
X121141189Y-118432422I241481J-64705D01*
G01*
X123121337Y-118963001D01*
G75*
G02*
X123298113Y-119269187I-64705J-241481D01*
G01*
X122780475Y-121201038D01*
G75*
G02*
X122474289Y-121377814I-241481J64705D01*
G01*
X120494141Y-120847235D01*
G75*
G02*
X120317365Y-120541049I64705J241481D01*
G01*
G37*
G36*
G01*
X107173442Y-119648746D02*
X107691080Y-117716895D01*
G75*
G02*
X107997266Y-117540119I241481J-64705D01*
G01*
X109977414Y-118070698D01*
G75*
G02*
X110154190Y-118376884I-64705J-241481D01*
G01*
X109636552Y-120308735D01*
G75*
G02*
X109330366Y-120485511I-241481J64705D01*
G01*
X107350218Y-119954932D01*
G75*
G02*
X107173442Y-119648746I64705J241481D01*
G01*
G37*
D13*
X118618252Y-119050497D03*
X111827223Y-119860448D03*
D11*
X102386903Y-115824801D03*
X92573097Y-113195199D03*
D12*
X97480000Y-114510000D03*
G36*
G01*
X102947365Y-111751049D02*
X103465003Y-109819198D01*
G75*
G02*
X103771189Y-109642422I241481J-64705D01*
G01*
X105751337Y-110173001D01*
G75*
G02*
X105928113Y-110479187I-64705J-241481D01*
G01*
X105410475Y-112411038D01*
G75*
G02*
X105104289Y-112587814I-241481J64705D01*
G01*
X103124141Y-112057235D01*
G75*
G02*
X102947365Y-111751049I64705J241481D01*
G01*
G37*
G36*
G01*
X89803442Y-110858746D02*
X90321080Y-108926895D01*
G75*
G02*
X90627266Y-108750119I241481J-64705D01*
G01*
X92607414Y-109280698D01*
G75*
G02*
X92784190Y-109586884I-64705J-241481D01*
G01*
X92266552Y-111518735D01*
G75*
G02*
X91960366Y-111695511I-241481J64705D01*
G01*
X89980218Y-111164932D01*
G75*
G02*
X89803442Y-110858746I64705J241481D01*
G01*
G37*
D13*
X101248252Y-110260497D03*
X94457223Y-111070448D03*
D11*
X85031903Y-107014801D03*
X75218097Y-104385199D03*
D12*
X80125000Y-105700000D03*
G36*
G01*
X85592365Y-102941049D02*
X86110003Y-101009198D01*
G75*
G02*
X86416189Y-100832422I241481J-64705D01*
G01*
X88396337Y-101363001D01*
G75*
G02*
X88573113Y-101669187I-64705J-241481D01*
G01*
X88055475Y-103601038D01*
G75*
G02*
X87749289Y-103777814I-241481J64705D01*
G01*
X85769141Y-103247235D01*
G75*
G02*
X85592365Y-102941049I64705J241481D01*
G01*
G37*
G36*
G01*
X72448442Y-102048746D02*
X72966080Y-100116895D01*
G75*
G02*
X73272266Y-99940119I241481J-64705D01*
G01*
X75252414Y-100470698D01*
G75*
G02*
X75429190Y-100776884I-64705J-241481D01*
G01*
X74911552Y-102708735D01*
G75*
G02*
X74605366Y-102885511I-241481J64705D01*
G01*
X72625218Y-102354932D01*
G75*
G02*
X72448442Y-102048746I64705J241481D01*
G01*
G37*
D13*
X83893252Y-101450497D03*
X77102223Y-102260448D03*
D11*
X65596903Y-105944801D03*
X55783097Y-103315199D03*
D12*
X60690000Y-104630000D03*
G36*
G01*
X66157365Y-101871049D02*
X66675003Y-99939198D01*
G75*
G02*
X66981189Y-99762422I241481J-64705D01*
G01*
X68961337Y-100293001D01*
G75*
G02*
X69138113Y-100599187I-64705J-241481D01*
G01*
X68620475Y-102531038D01*
G75*
G02*
X68314289Y-102707814I-241481J64705D01*
G01*
X66334141Y-102177235D01*
G75*
G02*
X66157365Y-101871049I64705J241481D01*
G01*
G37*
G36*
G01*
X53013442Y-100978746D02*
X53531080Y-99046895D01*
G75*
G02*
X53837266Y-98870119I241481J-64705D01*
G01*
X55817414Y-99400698D01*
G75*
G02*
X55994190Y-99706884I-64705J-241481D01*
G01*
X55476552Y-101638735D01*
G75*
G02*
X55170366Y-101815511I-241481J64705D01*
G01*
X53190218Y-101284932D01*
G75*
G02*
X53013442Y-100978746I64705J241481D01*
G01*
G37*
D13*
X64458252Y-100380497D03*
X57667223Y-101190448D03*
D11*
X46166903Y-104884801D03*
X36353097Y-102255199D03*
D12*
X41260000Y-103570000D03*
G36*
G01*
X46727365Y-100811049D02*
X47245003Y-98879198D01*
G75*
G02*
X47551189Y-98702422I241481J-64705D01*
G01*
X49531337Y-99233001D01*
G75*
G02*
X49708113Y-99539187I-64705J-241481D01*
G01*
X49190475Y-101471038D01*
G75*
G02*
X48884289Y-101647814I-241481J64705D01*
G01*
X46904141Y-101117235D01*
G75*
G02*
X46727365Y-100811049I64705J241481D01*
G01*
G37*
G36*
G01*
X33583442Y-99918746D02*
X34101080Y-97986895D01*
G75*
G02*
X34407266Y-97810119I241481J-64705D01*
G01*
X36387414Y-98340698D01*
G75*
G02*
X36564190Y-98646884I-64705J-241481D01*
G01*
X36046552Y-100578735D01*
G75*
G02*
X35740366Y-100755511I-241481J64705D01*
G01*
X33760218Y-100224932D01*
G75*
G02*
X33583442Y-99918746I64705J241481D01*
G01*
G37*
D13*
X45028252Y-99320497D03*
X38237223Y-100130448D03*
D11*
X26731903Y-103764801D03*
X16918097Y-101135199D03*
D12*
X21825000Y-102450000D03*
G36*
G01*
X27292365Y-99691049D02*
X27810003Y-97759198D01*
G75*
G02*
X28116189Y-97582422I241481J-64705D01*
G01*
X30096337Y-98113001D01*
G75*
G02*
X30273113Y-98419187I-64705J-241481D01*
G01*
X29755475Y-100351038D01*
G75*
G02*
X29449289Y-100527814I-241481J64705D01*
G01*
X27469141Y-99997235D01*
G75*
G02*
X27292365Y-99691049I64705J241481D01*
G01*
G37*
G36*
G01*
X14148442Y-98798746D02*
X14666080Y-96866895D01*
G75*
G02*
X14972266Y-96690119I241481J-64705D01*
G01*
X16952414Y-97220698D01*
G75*
G02*
X17129190Y-97526884I-64705J-241481D01*
G01*
X16611552Y-99458735D01*
G75*
G02*
X16305366Y-99635511I-241481J64705D01*
G01*
X14325218Y-99104932D01*
G75*
G02*
X14148442Y-98798746I64705J241481D01*
G01*
G37*
D13*
X25593252Y-98200497D03*
X18802223Y-99010448D03*
D11*
X273766903Y-82735199D03*
X263953097Y-85364801D03*
D12*
X268860000Y-84050000D03*
G36*
G01*
X272215402Y-78926996D02*
X271697764Y-76995145D01*
G75*
G02*
X271874540Y-76688959I241481J64705D01*
G01*
X273854688Y-76158380D01*
G75*
G02*
X274160874Y-76335156I64705J-241481D01*
G01*
X274678512Y-78267007D01*
G75*
G02*
X274501736Y-78573193I-241481J-64705D01*
G01*
X272521588Y-79103772D01*
G75*
G02*
X272215402Y-78926996I-64705J241481D01*
G01*
G37*
G36*
G01*
X260386279Y-84726201D02*
X259868641Y-82794350D01*
G75*
G02*
X260045417Y-82488164I241481J64705D01*
G01*
X262025565Y-81957585D01*
G75*
G02*
X262331751Y-82134361I64705J-241481D01*
G01*
X262849389Y-84066212D01*
G75*
G02*
X262672613Y-84372398I-241481J-64705D01*
G01*
X260692465Y-84902977D01*
G75*
G02*
X260386279Y-84726201I-64705J241481D01*
G01*
G37*
D13*
X269998651Y-78485696D03*
X264522422Y-82582649D03*
D11*
X254306903Y-83810199D03*
X244493097Y-86439801D03*
D12*
X249400000Y-85125000D03*
G36*
G01*
X252755402Y-80001996D02*
X252237764Y-78070145D01*
G75*
G02*
X252414540Y-77763959I241481J64705D01*
G01*
X254394688Y-77233380D01*
G75*
G02*
X254700874Y-77410156I64705J-241481D01*
G01*
X255218512Y-79342007D01*
G75*
G02*
X255041736Y-79648193I-241481J-64705D01*
G01*
X253061588Y-80178772D01*
G75*
G02*
X252755402Y-80001996I-64705J241481D01*
G01*
G37*
G36*
G01*
X240926279Y-85801201D02*
X240408641Y-83869350D01*
G75*
G02*
X240585417Y-83563164I241481J64705D01*
G01*
X242565565Y-83032585D01*
G75*
G02*
X242871751Y-83209361I64705J-241481D01*
G01*
X243389389Y-85141212D01*
G75*
G02*
X243212613Y-85447398I-241481J-64705D01*
G01*
X241232465Y-85977977D01*
G75*
G02*
X240926279Y-85801201I-64705J241481D01*
G01*
G37*
D13*
X250538651Y-79560696D03*
X245062422Y-83657649D03*
D11*
X234906903Y-84910199D03*
X225093097Y-87539801D03*
D12*
X230000000Y-86225000D03*
G36*
G01*
X233355402Y-81101996D02*
X232837764Y-79170145D01*
G75*
G02*
X233014540Y-78863959I241481J64705D01*
G01*
X234994688Y-78333380D01*
G75*
G02*
X235300874Y-78510156I64705J-241481D01*
G01*
X235818512Y-80442007D01*
G75*
G02*
X235641736Y-80748193I-241481J-64705D01*
G01*
X233661588Y-81278772D01*
G75*
G02*
X233355402Y-81101996I-64705J241481D01*
G01*
G37*
G36*
G01*
X221526279Y-86901201D02*
X221008641Y-84969350D01*
G75*
G02*
X221185417Y-84663164I241481J64705D01*
G01*
X223165565Y-84132585D01*
G75*
G02*
X223471751Y-84309361I64705J-241481D01*
G01*
X223989389Y-86241212D01*
G75*
G02*
X223812613Y-86547398I-241481J-64705D01*
G01*
X221832465Y-87077977D01*
G75*
G02*
X221526279Y-86901201I-64705J241481D01*
G01*
G37*
D13*
X231138651Y-80660696D03*
X225662422Y-84757649D03*
D11*
X215456903Y-86010199D03*
X205643097Y-88639801D03*
D12*
X210550000Y-87325000D03*
G36*
G01*
X213905402Y-82201996D02*
X213387764Y-80270145D01*
G75*
G02*
X213564540Y-79963959I241481J64705D01*
G01*
X215544688Y-79433380D01*
G75*
G02*
X215850874Y-79610156I64705J-241481D01*
G01*
X216368512Y-81542007D01*
G75*
G02*
X216191736Y-81848193I-241481J-64705D01*
G01*
X214211588Y-82378772D01*
G75*
G02*
X213905402Y-82201996I-64705J241481D01*
G01*
G37*
G36*
G01*
X202076279Y-88001201D02*
X201558641Y-86069350D01*
G75*
G02*
X201735417Y-85763164I241481J64705D01*
G01*
X203715565Y-85232585D01*
G75*
G02*
X204021751Y-85409361I64705J-241481D01*
G01*
X204539389Y-87341212D01*
G75*
G02*
X204362613Y-87647398I-241481J-64705D01*
G01*
X202382465Y-88177977D01*
G75*
G02*
X202076279Y-88001201I-64705J241481D01*
G01*
G37*
D13*
X211688651Y-81760696D03*
X206212422Y-85857649D03*
D11*
X198106903Y-94785199D03*
X188293097Y-97414801D03*
D12*
X193200000Y-96100000D03*
G36*
G01*
X196555402Y-90976996D02*
X196037764Y-89045145D01*
G75*
G02*
X196214540Y-88738959I241481J64705D01*
G01*
X198194688Y-88208380D01*
G75*
G02*
X198500874Y-88385156I64705J-241481D01*
G01*
X199018512Y-90317007D01*
G75*
G02*
X198841736Y-90623193I-241481J-64705D01*
G01*
X196861588Y-91153772D01*
G75*
G02*
X196555402Y-90976996I-64705J241481D01*
G01*
G37*
G36*
G01*
X184726279Y-96776201D02*
X184208641Y-94844350D01*
G75*
G02*
X184385417Y-94538164I241481J64705D01*
G01*
X186365565Y-94007585D01*
G75*
G02*
X186671751Y-94184361I64705J-241481D01*
G01*
X187189389Y-96116212D01*
G75*
G02*
X187012613Y-96422398I-241481J-64705D01*
G01*
X185032465Y-96952977D01*
G75*
G02*
X184726279Y-96776201I-64705J241481D01*
G01*
G37*
D13*
X194338651Y-90535696D03*
X188862422Y-94632649D03*
D11*
X180736903Y-103575199D03*
X170923097Y-106204801D03*
D12*
X175830000Y-104890000D03*
G36*
G01*
X179185402Y-99766996D02*
X178667764Y-97835145D01*
G75*
G02*
X178844540Y-97528959I241481J64705D01*
G01*
X180824688Y-96998380D01*
G75*
G02*
X181130874Y-97175156I64705J-241481D01*
G01*
X181648512Y-99107007D01*
G75*
G02*
X181471736Y-99413193I-241481J-64705D01*
G01*
X179491588Y-99943772D01*
G75*
G02*
X179185402Y-99766996I-64705J241481D01*
G01*
G37*
G36*
G01*
X167356279Y-105566201D02*
X166838641Y-103634350D01*
G75*
G02*
X167015417Y-103328164I241481J64705D01*
G01*
X168995565Y-102797585D01*
G75*
G02*
X169301751Y-102974361I64705J-241481D01*
G01*
X169819389Y-104906212D01*
G75*
G02*
X169642613Y-105212398I-241481J-64705D01*
G01*
X167662465Y-105742977D01*
G75*
G02*
X167356279Y-105566201I-64705J241481D01*
G01*
G37*
D13*
X176968651Y-99325696D03*
X171492422Y-103422649D03*
D11*
X124686903Y-106204801D03*
X114873097Y-103575199D03*
D12*
X119780000Y-104890000D03*
G36*
G01*
X125247365Y-102131049D02*
X125765003Y-100199198D01*
G75*
G02*
X126071189Y-100022422I241481J-64705D01*
G01*
X128051337Y-100553001D01*
G75*
G02*
X128228113Y-100859187I-64705J-241481D01*
G01*
X127710475Y-102791038D01*
G75*
G02*
X127404289Y-102967814I-241481J64705D01*
G01*
X125424141Y-102437235D01*
G75*
G02*
X125247365Y-102131049I64705J241481D01*
G01*
G37*
G36*
G01*
X112103442Y-101238746D02*
X112621080Y-99306895D01*
G75*
G02*
X112927266Y-99130119I241481J-64705D01*
G01*
X114907414Y-99660698D01*
G75*
G02*
X115084190Y-99966884I-64705J-241481D01*
G01*
X114566552Y-101898735D01*
G75*
G02*
X114260366Y-102075511I-241481J64705D01*
G01*
X112280218Y-101544932D01*
G75*
G02*
X112103442Y-101238746I64705J241481D01*
G01*
G37*
D13*
X123548252Y-100640497D03*
X116757223Y-101450448D03*
D11*
X107331903Y-97414801D03*
X97518097Y-94785199D03*
D12*
X102425000Y-96100000D03*
G36*
G01*
X107892365Y-93341049D02*
X108410003Y-91409198D01*
G75*
G02*
X108716189Y-91232422I241481J-64705D01*
G01*
X110696337Y-91763001D01*
G75*
G02*
X110873113Y-92069187I-64705J-241481D01*
G01*
X110355475Y-94001038D01*
G75*
G02*
X110049289Y-94177814I-241481J64705D01*
G01*
X108069141Y-93647235D01*
G75*
G02*
X107892365Y-93341049I64705J241481D01*
G01*
G37*
G36*
G01*
X94748442Y-92448746D02*
X95266080Y-90516895D01*
G75*
G02*
X95572266Y-90340119I241481J-64705D01*
G01*
X97552414Y-90870698D01*
G75*
G02*
X97729190Y-91176884I-64705J-241481D01*
G01*
X97211552Y-93108735D01*
G75*
G02*
X96905366Y-93285511I-241481J64705D01*
G01*
X94925218Y-92754932D01*
G75*
G02*
X94748442Y-92448746I64705J241481D01*
G01*
G37*
D13*
X106193252Y-91850497D03*
X99402223Y-92660448D03*
D11*
X89956903Y-88639801D03*
X80143097Y-86010199D03*
D12*
X85050000Y-87325000D03*
G36*
G01*
X90517365Y-84566049D02*
X91035003Y-82634198D01*
G75*
G02*
X91341189Y-82457422I241481J-64705D01*
G01*
X93321337Y-82988001D01*
G75*
G02*
X93498113Y-83294187I-64705J-241481D01*
G01*
X92980475Y-85226038D01*
G75*
G02*
X92674289Y-85402814I-241481J64705D01*
G01*
X90694141Y-84872235D01*
G75*
G02*
X90517365Y-84566049I64705J241481D01*
G01*
G37*
G36*
G01*
X77373442Y-83673746D02*
X77891080Y-81741895D01*
G75*
G02*
X78197266Y-81565119I241481J-64705D01*
G01*
X80177414Y-82095698D01*
G75*
G02*
X80354190Y-82401884I-64705J-241481D01*
G01*
X79836552Y-84333735D01*
G75*
G02*
X79530366Y-84510511I-241481J64705D01*
G01*
X77550218Y-83979932D01*
G75*
G02*
X77373442Y-83673746I64705J241481D01*
G01*
G37*
D13*
X88818252Y-83075497D03*
X82027223Y-83885448D03*
D11*
X70506903Y-87539801D03*
X60693097Y-84910199D03*
D12*
X65600000Y-86225000D03*
G36*
G01*
X71067365Y-83466049D02*
X71585003Y-81534198D01*
G75*
G02*
X71891189Y-81357422I241481J-64705D01*
G01*
X73871337Y-81888001D01*
G75*
G02*
X74048113Y-82194187I-64705J-241481D01*
G01*
X73530475Y-84126038D01*
G75*
G02*
X73224289Y-84302814I-241481J64705D01*
G01*
X71244141Y-83772235D01*
G75*
G02*
X71067365Y-83466049I64705J241481D01*
G01*
G37*
G36*
G01*
X57923442Y-82573746D02*
X58441080Y-80641895D01*
G75*
G02*
X58747266Y-80465119I241481J-64705D01*
G01*
X60727414Y-80995698D01*
G75*
G02*
X60904190Y-81301884I-64705J-241481D01*
G01*
X60386552Y-83233735D01*
G75*
G02*
X60080366Y-83410511I-241481J64705D01*
G01*
X58100218Y-82879932D01*
G75*
G02*
X57923442Y-82573746I64705J241481D01*
G01*
G37*
D13*
X69368252Y-81975497D03*
X62577223Y-82785448D03*
D11*
X51089680Y-86484353D03*
X41275874Y-83854751D03*
D12*
X46182777Y-85169552D03*
G36*
G01*
X51650142Y-82410601D02*
X52167780Y-80478750D01*
G75*
G02*
X52473966Y-80301974I241481J-64705D01*
G01*
X54454114Y-80832553D01*
G75*
G02*
X54630890Y-81138739I-64705J-241481D01*
G01*
X54113252Y-83070590D01*
G75*
G02*
X53807066Y-83247366I-241481J64705D01*
G01*
X51826918Y-82716787D01*
G75*
G02*
X51650142Y-82410601I64705J241481D01*
G01*
G37*
G36*
G01*
X38506219Y-81518298D02*
X39023857Y-79586447D01*
G75*
G02*
X39330043Y-79409671I241481J-64705D01*
G01*
X41310191Y-79940250D01*
G75*
G02*
X41486967Y-80246436I-64705J-241481D01*
G01*
X40969329Y-82178287D01*
G75*
G02*
X40663143Y-82355063I-241481J64705D01*
G01*
X38682995Y-81824484D01*
G75*
G02*
X38506219Y-81518298I64705J241481D01*
G01*
G37*
D13*
X49951029Y-80920049D03*
X43160000Y-81730000D03*
D11*
X31656903Y-85364801D03*
X21843097Y-82735199D03*
D12*
X26750000Y-84050000D03*
G36*
G01*
X32217365Y-81291049D02*
X32735003Y-79359198D01*
G75*
G02*
X33041189Y-79182422I241481J-64705D01*
G01*
X35021337Y-79713001D01*
G75*
G02*
X35198113Y-80019187I-64705J-241481D01*
G01*
X34680475Y-81951038D01*
G75*
G02*
X34374289Y-82127814I-241481J64705D01*
G01*
X32394141Y-81597235D01*
G75*
G02*
X32217365Y-81291049I64705J241481D01*
G01*
G37*
G36*
G01*
X19073442Y-80398746D02*
X19591080Y-78466895D01*
G75*
G02*
X19897266Y-78290119I241481J-64705D01*
G01*
X21877414Y-78820698D01*
G75*
G02*
X22054190Y-79126884I-64705J-241481D01*
G01*
X21536552Y-81058735D01*
G75*
G02*
X21230366Y-81235511I-241481J64705D01*
G01*
X19250218Y-80704932D01*
G75*
G02*
X19073442Y-80398746I64705J241481D01*
G01*
G37*
D13*
X30518252Y-79800497D03*
X23727223Y-80610448D03*
D11*
X268831903Y-64335199D03*
X259018097Y-66964801D03*
D12*
X263925000Y-65650000D03*
G36*
G01*
X267280402Y-60526996D02*
X266762764Y-58595145D01*
G75*
G02*
X266939540Y-58288959I241481J64705D01*
G01*
X268919688Y-57758380D01*
G75*
G02*
X269225874Y-57935156I64705J-241481D01*
G01*
X269743512Y-59867007D01*
G75*
G02*
X269566736Y-60173193I-241481J-64705D01*
G01*
X267586588Y-60703772D01*
G75*
G02*
X267280402Y-60526996I-64705J241481D01*
G01*
G37*
G36*
G01*
X255451279Y-66326201D02*
X254933641Y-64394350D01*
G75*
G02*
X255110417Y-64088164I241481J64705D01*
G01*
X257090565Y-63557585D01*
G75*
G02*
X257396751Y-63734361I64705J-241481D01*
G01*
X257914389Y-65666212D01*
G75*
G02*
X257737613Y-65972398I-241481J-64705D01*
G01*
X255757465Y-66502977D01*
G75*
G02*
X255451279Y-66326201I-64705J241481D01*
G01*
G37*
D13*
X265063651Y-60085696D03*
X259587422Y-64182649D03*
D11*
X249431903Y-65435199D03*
X239618097Y-68064801D03*
D12*
X244525000Y-66750000D03*
G36*
G01*
X247880402Y-61626996D02*
X247362764Y-59695145D01*
G75*
G02*
X247539540Y-59388959I241481J64705D01*
G01*
X249519688Y-58858380D01*
G75*
G02*
X249825874Y-59035156I64705J-241481D01*
G01*
X250343512Y-60967007D01*
G75*
G02*
X250166736Y-61273193I-241481J-64705D01*
G01*
X248186588Y-61803772D01*
G75*
G02*
X247880402Y-61626996I-64705J241481D01*
G01*
G37*
G36*
G01*
X236051279Y-67426201D02*
X235533641Y-65494350D01*
G75*
G02*
X235710417Y-65188164I241481J64705D01*
G01*
X237690565Y-64657585D01*
G75*
G02*
X237996751Y-64834361I64705J-241481D01*
G01*
X238514389Y-66766212D01*
G75*
G02*
X238337613Y-67072398I-241481J-64705D01*
G01*
X236357465Y-67602977D01*
G75*
G02*
X236051279Y-67426201I-64705J241481D01*
G01*
G37*
D13*
X245663651Y-61185696D03*
X240187422Y-65282649D03*
D11*
X229956903Y-66510199D03*
X220143097Y-69139801D03*
D12*
X225050000Y-67825000D03*
G36*
G01*
X228405402Y-62701996D02*
X227887764Y-60770145D01*
G75*
G02*
X228064540Y-60463959I241481J64705D01*
G01*
X230044688Y-59933380D01*
G75*
G02*
X230350874Y-60110156I64705J-241481D01*
G01*
X230868512Y-62042007D01*
G75*
G02*
X230691736Y-62348193I-241481J-64705D01*
G01*
X228711588Y-62878772D01*
G75*
G02*
X228405402Y-62701996I-64705J241481D01*
G01*
G37*
G36*
G01*
X216576279Y-68501201D02*
X216058641Y-66569350D01*
G75*
G02*
X216235417Y-66263164I241481J64705D01*
G01*
X218215565Y-65732585D01*
G75*
G02*
X218521751Y-65909361I64705J-241481D01*
G01*
X219039389Y-67841212D01*
G75*
G02*
X218862613Y-68147398I-241481J-64705D01*
G01*
X216882465Y-68677977D01*
G75*
G02*
X216576279Y-68501201I-64705J241481D01*
G01*
G37*
D13*
X226188651Y-62260696D03*
X220712422Y-66357649D03*
D11*
X210531903Y-67585199D03*
X200718097Y-70214801D03*
D12*
X205625000Y-68900000D03*
G36*
G01*
X208980402Y-63776996D02*
X208462764Y-61845145D01*
G75*
G02*
X208639540Y-61538959I241481J64705D01*
G01*
X210619688Y-61008380D01*
G75*
G02*
X210925874Y-61185156I64705J-241481D01*
G01*
X211443512Y-63117007D01*
G75*
G02*
X211266736Y-63423193I-241481J-64705D01*
G01*
X209286588Y-63953772D01*
G75*
G02*
X208980402Y-63776996I-64705J241481D01*
G01*
G37*
G36*
G01*
X197151279Y-69576201D02*
X196633641Y-67644350D01*
G75*
G02*
X196810417Y-67338164I241481J64705D01*
G01*
X198790565Y-66807585D01*
G75*
G02*
X199096751Y-66984361I64705J-241481D01*
G01*
X199614389Y-68916212D01*
G75*
G02*
X199437613Y-69222398I-241481J-64705D01*
G01*
X197457465Y-69752977D01*
G75*
G02*
X197151279Y-69576201I-64705J241481D01*
G01*
G37*
D13*
X206763651Y-63335696D03*
X201287422Y-67432649D03*
D11*
X193176903Y-76385199D03*
X183363097Y-79014801D03*
D12*
X188270000Y-77700000D03*
G36*
G01*
X191625402Y-72576996D02*
X191107764Y-70645145D01*
G75*
G02*
X191284540Y-70338959I241481J64705D01*
G01*
X193264688Y-69808380D01*
G75*
G02*
X193570874Y-69985156I64705J-241481D01*
G01*
X194088512Y-71917007D01*
G75*
G02*
X193911736Y-72223193I-241481J-64705D01*
G01*
X191931588Y-72753772D01*
G75*
G02*
X191625402Y-72576996I-64705J241481D01*
G01*
G37*
G36*
G01*
X179796279Y-78376201D02*
X179278641Y-76444350D01*
G75*
G02*
X179455417Y-76138164I241481J64705D01*
G01*
X181435565Y-75607585D01*
G75*
G02*
X181741751Y-75784361I64705J-241481D01*
G01*
X182259389Y-77716212D01*
G75*
G02*
X182082613Y-78022398I-241481J-64705D01*
G01*
X180102465Y-78552977D01*
G75*
G02*
X179796279Y-78376201I-64705J241481D01*
G01*
G37*
D13*
X189408651Y-72135696D03*
X183932422Y-76232649D03*
D11*
X175806903Y-85175199D03*
X165993097Y-87804801D03*
D12*
X170900000Y-86490000D03*
G36*
G01*
X174255402Y-81366996D02*
X173737764Y-79435145D01*
G75*
G02*
X173914540Y-79128959I241481J64705D01*
G01*
X175894688Y-78598380D01*
G75*
G02*
X176200874Y-78775156I64705J-241481D01*
G01*
X176718512Y-80707007D01*
G75*
G02*
X176541736Y-81013193I-241481J-64705D01*
G01*
X174561588Y-81543772D01*
G75*
G02*
X174255402Y-81366996I-64705J241481D01*
G01*
G37*
G36*
G01*
X162426279Y-87166201D02*
X161908641Y-85234350D01*
G75*
G02*
X162085417Y-84928164I241481J64705D01*
G01*
X164065565Y-84397585D01*
G75*
G02*
X164371751Y-84574361I64705J-241481D01*
G01*
X164889389Y-86506212D01*
G75*
G02*
X164712613Y-86812398I-241481J-64705D01*
G01*
X162732465Y-87342977D01*
G75*
G02*
X162426279Y-87166201I-64705J241481D01*
G01*
G37*
D13*
X172038651Y-80925696D03*
X166562422Y-85022649D03*
D11*
X129606903Y-87814801D03*
X119793097Y-85185199D03*
D12*
X124700000Y-86500000D03*
G36*
G01*
X130167365Y-83741049D02*
X130685003Y-81809198D01*
G75*
G02*
X130991189Y-81632422I241481J-64705D01*
G01*
X132971337Y-82163001D01*
G75*
G02*
X133148113Y-82469187I-64705J-241481D01*
G01*
X132630475Y-84401038D01*
G75*
G02*
X132324289Y-84577814I-241481J64705D01*
G01*
X130344141Y-84047235D01*
G75*
G02*
X130167365Y-83741049I64705J241481D01*
G01*
G37*
G36*
G01*
X117023442Y-82848746D02*
X117541080Y-80916895D01*
G75*
G02*
X117847266Y-80740119I241481J-64705D01*
G01*
X119827414Y-81270698D01*
G75*
G02*
X120004190Y-81576884I-64705J-241481D01*
G01*
X119486552Y-83508735D01*
G75*
G02*
X119180366Y-83685511I-241481J64705D01*
G01*
X117200218Y-83154932D01*
G75*
G02*
X117023442Y-82848746I64705J241481D01*
G01*
G37*
D13*
X128468252Y-82250497D03*
X121677223Y-83060448D03*
D11*
X112256903Y-79014801D03*
X102443097Y-76385199D03*
D12*
X107350000Y-77700000D03*
G36*
G01*
X112817365Y-74941049D02*
X113335003Y-73009198D01*
G75*
G02*
X113641189Y-72832422I241481J-64705D01*
G01*
X115621337Y-73363001D01*
G75*
G02*
X115798113Y-73669187I-64705J-241481D01*
G01*
X115280475Y-75601038D01*
G75*
G02*
X114974289Y-75777814I-241481J64705D01*
G01*
X112994141Y-75247235D01*
G75*
G02*
X112817365Y-74941049I64705J241481D01*
G01*
G37*
G36*
G01*
X99673442Y-74048746D02*
X100191080Y-72116895D01*
G75*
G02*
X100497266Y-71940119I241481J-64705D01*
G01*
X102477414Y-72470698D01*
G75*
G02*
X102654190Y-72776884I-64705J-241481D01*
G01*
X102136552Y-74708735D01*
G75*
G02*
X101830366Y-74885511I-241481J64705D01*
G01*
X99850218Y-74354932D01*
G75*
G02*
X99673442Y-74048746I64705J241481D01*
G01*
G37*
D13*
X111118252Y-73450497D03*
X104327223Y-74260448D03*
D11*
X94881903Y-70214801D03*
X85068097Y-67585199D03*
D12*
X89975000Y-68900000D03*
G36*
G01*
X95442365Y-66141049D02*
X95960003Y-64209198D01*
G75*
G02*
X96266189Y-64032422I241481J-64705D01*
G01*
X98246337Y-64563001D01*
G75*
G02*
X98423113Y-64869187I-64705J-241481D01*
G01*
X97905475Y-66801038D01*
G75*
G02*
X97599289Y-66977814I-241481J64705D01*
G01*
X95619141Y-66447235D01*
G75*
G02*
X95442365Y-66141049I64705J241481D01*
G01*
G37*
G36*
G01*
X82298442Y-65248746D02*
X82816080Y-63316895D01*
G75*
G02*
X83122266Y-63140119I241481J-64705D01*
G01*
X85102414Y-63670698D01*
G75*
G02*
X85279190Y-63976884I-64705J-241481D01*
G01*
X84761552Y-65908735D01*
G75*
G02*
X84455366Y-66085511I-241481J64705D01*
G01*
X82475218Y-65554932D01*
G75*
G02*
X82298442Y-65248746I64705J241481D01*
G01*
G37*
D13*
X93743252Y-64650497D03*
X86952223Y-65460448D03*
D11*
X75456903Y-69139801D03*
X65643097Y-66510199D03*
D12*
X70550000Y-67825000D03*
G36*
G01*
X76017365Y-65066049D02*
X76535003Y-63134198D01*
G75*
G02*
X76841189Y-62957422I241481J-64705D01*
G01*
X78821337Y-63488001D01*
G75*
G02*
X78998113Y-63794187I-64705J-241481D01*
G01*
X78480475Y-65726038D01*
G75*
G02*
X78174289Y-65902814I-241481J64705D01*
G01*
X76194141Y-65372235D01*
G75*
G02*
X76017365Y-65066049I64705J241481D01*
G01*
G37*
G36*
G01*
X62873442Y-64173746D02*
X63391080Y-62241895D01*
G75*
G02*
X63697266Y-62065119I241481J-64705D01*
G01*
X65677414Y-62595698D01*
G75*
G02*
X65854190Y-62901884I-64705J-241481D01*
G01*
X65336552Y-64833735D01*
G75*
G02*
X65030366Y-65010511I-241481J64705D01*
G01*
X63050218Y-64479932D01*
G75*
G02*
X62873442Y-64173746I64705J241481D01*
G01*
G37*
D13*
X74318252Y-63575497D03*
X67527223Y-64385448D03*
D11*
X56006903Y-68089801D03*
X46193097Y-65460199D03*
D12*
X51100000Y-66775000D03*
G36*
G01*
X56567365Y-64016049D02*
X57085003Y-62084198D01*
G75*
G02*
X57391189Y-61907422I241481J-64705D01*
G01*
X59371337Y-62438001D01*
G75*
G02*
X59548113Y-62744187I-64705J-241481D01*
G01*
X59030475Y-64676038D01*
G75*
G02*
X58724289Y-64852814I-241481J64705D01*
G01*
X56744141Y-64322235D01*
G75*
G02*
X56567365Y-64016049I64705J241481D01*
G01*
G37*
G36*
G01*
X43423442Y-63123746D02*
X43941080Y-61191895D01*
G75*
G02*
X44247266Y-61015119I241481J-64705D01*
G01*
X46227414Y-61545698D01*
G75*
G02*
X46404190Y-61851884I-64705J-241481D01*
G01*
X45886552Y-63783735D01*
G75*
G02*
X45580366Y-63960511I-241481J64705D01*
G01*
X43600218Y-63429932D01*
G75*
G02*
X43423442Y-63123746I64705J241481D01*
G01*
G37*
D13*
X54868252Y-62525497D03*
X48077223Y-63335448D03*
D11*
X36579871Y-66963763D03*
X26766065Y-64334161D03*
D12*
X31672968Y-65648962D03*
G36*
G01*
X37140333Y-62890011D02*
X37657971Y-60958160D01*
G75*
G02*
X37964157Y-60781384I241481J-64705D01*
G01*
X39944305Y-61311963D01*
G75*
G02*
X40121081Y-61618149I-64705J-241481D01*
G01*
X39603443Y-63550000D01*
G75*
G02*
X39297257Y-63726776I-241481J64705D01*
G01*
X37317109Y-63196197D01*
G75*
G02*
X37140333Y-62890011I64705J241481D01*
G01*
G37*
G36*
G01*
X23996410Y-61997708D02*
X24514048Y-60065857D01*
G75*
G02*
X24820234Y-59889081I241481J-64705D01*
G01*
X26800382Y-60419660D01*
G75*
G02*
X26977158Y-60725846I-64705J-241481D01*
G01*
X26459520Y-62657697D01*
G75*
G02*
X26153334Y-62834473I-241481J64705D01*
G01*
X24173186Y-62303894D01*
G75*
G02*
X23996410Y-61997708I64705J241481D01*
G01*
G37*
D13*
X35441220Y-61399459D03*
X28650191Y-62209410D03*
D11*
X135319409Y-153140000D03*
X126520591Y-148060000D03*
D12*
X130920000Y-150600000D03*
G36*
G01*
X136915138Y-149350116D02*
X137915138Y-147618066D01*
G75*
G02*
X138256644Y-147526560I216506J-125000D01*
G01*
X140031996Y-148551560D01*
G75*
G02*
X140123502Y-148893066I-125000J-216506D01*
G01*
X139123502Y-150625116D01*
G75*
G02*
X138781996Y-150716622I-216506J125000D01*
G01*
X137006644Y-149691622D01*
G75*
G02*
X136915138Y-149350116I125000J216506D01*
G01*
G37*
G36*
G01*
X124450028Y-145086320D02*
X125450028Y-143354270D01*
G75*
G02*
X125791534Y-143262764I216506J-125000D01*
G01*
X127566886Y-144287764D01*
G75*
G02*
X127658392Y-144629270I-125000J-216506D01*
G01*
X126658392Y-146361320D01*
G75*
G02*
X126316886Y-146452826I-216506J125000D01*
G01*
X124541534Y-145427826D01*
G75*
G02*
X124450028Y-145086320I125000J216506D01*
G01*
G37*
D13*
X135659705Y-147470591D03*
X128890443Y-146495295D03*
D11*
X169079409Y-148060000D03*
X160280591Y-153140000D03*
D12*
X164680000Y-150600000D03*
G36*
G01*
X166595138Y-144783116D02*
X165595138Y-143051066D01*
G75*
G02*
X165686644Y-142709560I216506J125000D01*
G01*
X167461996Y-141684560D01*
G75*
G02*
X167803502Y-141776066I125000J-216506D01*
G01*
X168803502Y-143508116D01*
G75*
G02*
X168711996Y-143849622I-216506J-125000D01*
G01*
X166936644Y-144874622D01*
G75*
G02*
X166595138Y-144783116I-125000J216506D01*
G01*
G37*
G36*
G01*
X156670028Y-153446320D02*
X155670028Y-151714270D01*
G75*
G02*
X155761534Y-151372764I216506J125000D01*
G01*
X157536886Y-150347764D01*
G75*
G02*
X157878392Y-150439270I125000J-216506D01*
G01*
X158878392Y-152171320D01*
G75*
G02*
X158786886Y-152512826I-216506J-125000D01*
G01*
X157011534Y-153537826D01*
G75*
G02*
X156670028Y-153446320I-125000J216506D01*
G01*
G37*
D13*
X164339705Y-144930591D03*
X160110443Y-150305295D03*
D14*
X155420000Y-80950000D03*
X155420000Y-83490000D03*
X155420000Y-86030000D03*
X155420000Y-88570000D03*
X155420000Y-91110000D03*
X155420000Y-93650000D03*
X155420000Y-96190000D03*
X155420000Y-98730000D03*
X155420000Y-101270000D03*
X155420000Y-103810000D03*
X155420000Y-106350000D03*
X155420000Y-108890000D03*
X140180000Y-108890000D03*
X140180000Y-106350000D03*
X140180000Y-103810000D03*
X140180000Y-101270000D03*
X140180000Y-98730000D03*
X140180000Y-96190000D03*
X140180000Y-93650000D03*
X140180000Y-91110000D03*
X140180000Y-88570000D03*
X140180000Y-86030000D03*
X140180000Y-83490000D03*
D15*
X140180000Y-80950000D03*
M02*
