G04 #@! TF.GenerationSoftware,KiCad,Pcbnew,(6.0.8-1)-1*
G04 #@! TF.CreationDate,2022-11-12T18:34:56-05:00*
G04 #@! TF.ProjectId,ergo3by6plus3nonSplit,6572676f-3362-4793-9670-6c7573336e6f,rev?*
G04 #@! TF.SameCoordinates,Original*
G04 #@! TF.FileFunction,Copper,L1,Top*
G04 #@! TF.FilePolarity,Positive*
%FSLAX46Y46*%
G04 Gerber Fmt 4.6, Leading zero omitted, Abs format (unit mm)*
G04 Created by KiCad (PCBNEW (6.0.8-1)-1) date 2022-11-12 18:34:56*
%MOMM*%
%LPD*%
G01*
G04 APERTURE LIST*
G04 Aperture macros list*
%AMRoundRect*
0 Rectangle with rounded corners*
0 $1 Rounding radius*
0 $2 $3 $4 $5 $6 $7 $8 $9 X,Y pos of 4 corners*
0 Add a 4 corners polygon primitive as box body*
4,1,4,$2,$3,$4,$5,$6,$7,$8,$9,$2,$3,0*
0 Add four circle primitives for the rounded corners*
1,1,$1+$1,$2,$3*
1,1,$1+$1,$4,$5*
1,1,$1+$1,$6,$7*
1,1,$1+$1,$8,$9*
0 Add four rect primitives between the rounded corners*
20,1,$1+$1,$2,$3,$4,$5,0*
20,1,$1+$1,$4,$5,$6,$7,0*
20,1,$1+$1,$6,$7,$8,$9,0*
20,1,$1+$1,$8,$9,$2,$3,0*%
G04 Aperture macros list end*
G04 #@! TA.AperFunction,ComponentPad*
%ADD10R,1.700000X1.700000*%
G04 #@! TD*
G04 #@! TA.AperFunction,ComponentPad*
%ADD11O,1.700000X1.700000*%
G04 #@! TD*
G04 #@! TA.AperFunction,SMDPad,CuDef*
%ADD12RoundRect,0.250000X0.250000X1.500000X-0.250000X1.500000X-0.250000X-1.500000X0.250000X-1.500000X0*%
G04 #@! TD*
G04 #@! TA.AperFunction,SMDPad,CuDef*
%ADD13RoundRect,0.250001X0.499999X1.449999X-0.499999X1.449999X-0.499999X-1.449999X0.499999X-1.449999X0*%
G04 #@! TD*
G04 #@! TA.AperFunction,SMDPad,CuDef*
%ADD14R,1.550000X1.300000*%
G04 #@! TD*
G04 #@! TA.AperFunction,ComponentPad*
%ADD15R,1.600000X1.600000*%
G04 #@! TD*
G04 #@! TA.AperFunction,ComponentPad*
%ADD16C,1.600000*%
G04 #@! TD*
G04 #@! TA.AperFunction,ViaPad*
%ADD17C,0.800000*%
G04 #@! TD*
G04 #@! TA.AperFunction,Conductor*
%ADD18C,0.250000*%
G04 #@! TD*
G04 #@! TA.AperFunction,Conductor*
%ADD19C,0.500000*%
G04 #@! TD*
G04 APERTURE END LIST*
D10*
X164110000Y-130970000D03*
D11*
X164110000Y-128430000D03*
X164110000Y-125890000D03*
X164110000Y-123350000D03*
X164110000Y-120810000D03*
D12*
X149710000Y-157520000D03*
X147710000Y-157520000D03*
X145710000Y-157520000D03*
D13*
X143360000Y-151770000D03*
X152060000Y-151770000D03*
D14*
X151760000Y-113160000D03*
X143800000Y-113160000D03*
X143800000Y-117660000D03*
X151760000Y-117660000D03*
D15*
X155420000Y-80950000D03*
D16*
X155420000Y-83490000D03*
X155420000Y-86030000D03*
X155420000Y-88570000D03*
X155420000Y-91110000D03*
X155420000Y-93650000D03*
X155420000Y-96190000D03*
X155420000Y-98730000D03*
X155420000Y-101270000D03*
X155420000Y-103810000D03*
X155420000Y-106350000D03*
X155420000Y-108890000D03*
X140180000Y-108890000D03*
X140180000Y-106350000D03*
X140180000Y-103810000D03*
X140180000Y-101270000D03*
X140180000Y-98730000D03*
X140180000Y-96190000D03*
X140180000Y-93650000D03*
X140180000Y-91110000D03*
X140180000Y-88570000D03*
X140180000Y-86030000D03*
X140180000Y-83490000D03*
X140180000Y-80950000D03*
D17*
X163090000Y-91110000D03*
X161690000Y-93650000D03*
X161920000Y-88540000D03*
X163280000Y-117700000D03*
X160940000Y-80950000D03*
X168740000Y-109820000D03*
X162940000Y-104420000D03*
X168830000Y-111370000D03*
X157730000Y-110800000D03*
X148680001Y-83231900D03*
X143800000Y-113160000D03*
X151760000Y-117660000D03*
X146750000Y-143870000D03*
X147710000Y-157520000D03*
X145660000Y-83270000D03*
X147840000Y-115840000D03*
X126540000Y-141480000D03*
X126650000Y-120260000D03*
X124630000Y-140130000D03*
X135090000Y-83500000D03*
X145710000Y-157520000D03*
X145520000Y-142900000D03*
X168350000Y-106572996D03*
X185699015Y-106629015D03*
X202910000Y-95640000D03*
X222540000Y-91250000D03*
X184500000Y-110490000D03*
X266230000Y-94450000D03*
X170770000Y-111840000D03*
X241300000Y-93750000D03*
X196750000Y-138900000D03*
X169444500Y-137830000D03*
X178310000Y-143430000D03*
X168390000Y-137810000D03*
X156857380Y-109725999D03*
X112530000Y-115070000D03*
X129260000Y-101350000D03*
X154683436Y-110175500D03*
X94808315Y-106708315D03*
X152690000Y-110900000D03*
X78800000Y-96470000D03*
X211837051Y-144243778D03*
X193434102Y-149127556D03*
X173185000Y-153198942D03*
X136875000Y-157138942D03*
X95370000Y-147300000D03*
X113942949Y-152373778D03*
X142860000Y-109747496D03*
X150350000Y-108810000D03*
X151920000Y-110220000D03*
X151120000Y-109520000D03*
X19345815Y-94455815D03*
X89440000Y-97460000D03*
X58880000Y-96030000D03*
X39180000Y-95160000D03*
X107007700Y-106112300D03*
X127810000Y-115150000D03*
X281367051Y-107233778D03*
X261907051Y-108253778D03*
X242517051Y-109393778D03*
X223127051Y-110473778D03*
X188280000Y-128050000D03*
X205707051Y-119293778D03*
X276427051Y-88803778D03*
X256987051Y-89823778D03*
X237537051Y-90953778D03*
X218087051Y-92033778D03*
X183260000Y-109633502D03*
X200757051Y-100843778D03*
X271487051Y-70423778D03*
X252117051Y-71503778D03*
X232617051Y-72523778D03*
X213167051Y-73653778D03*
X195827051Y-82443778D03*
X178420000Y-91170000D03*
X26032949Y-110353778D03*
X45492949Y-111443778D03*
X64882949Y-112523778D03*
X84312949Y-113603778D03*
X119100000Y-131200000D03*
X101662949Y-122393778D03*
X30962949Y-91983778D03*
X50362949Y-93113778D03*
X69820352Y-93703028D03*
X89252949Y-95213778D03*
X124030000Y-112760000D03*
X106642949Y-103943778D03*
X32970000Y-72430000D03*
X54170000Y-74380000D03*
X74772949Y-75703778D03*
X94182949Y-76783778D03*
X111542949Y-85603778D03*
X128860000Y-94350000D03*
D18*
X35440000Y-74900000D02*
X32970000Y-72430000D01*
X54847928Y-76071201D02*
X53676727Y-74900000D01*
X53676727Y-74900000D02*
X35440000Y-74900000D01*
X74772949Y-75703778D02*
X74405526Y-76071201D01*
X74405526Y-76071201D02*
X54847928Y-76071201D01*
X163090000Y-91110000D02*
X155420000Y-91110000D01*
X155420000Y-93650000D02*
X161690000Y-93650000D01*
X169837475Y-108471497D02*
X169562476Y-108196498D01*
X222540000Y-91250000D02*
X209170000Y-91250000D01*
X155420000Y-103810000D02*
X162330000Y-103810000D01*
X166716498Y-108196498D02*
X162940000Y-104420000D01*
X169562476Y-108196498D02*
X166716498Y-108196498D01*
X191948503Y-108471497D02*
X169837475Y-108471497D01*
X162330000Y-103810000D02*
X162940000Y-104420000D01*
X209170000Y-91250000D02*
X191948503Y-108471497D01*
X151760000Y-117660000D02*
X163240000Y-117660000D01*
X163240000Y-117660000D02*
X163280000Y-117700000D01*
X141305000Y-87445000D02*
X140180000Y-88570000D01*
X161920000Y-88540000D02*
X160825000Y-87445000D01*
X160825000Y-87445000D02*
X141305000Y-87445000D01*
X160940000Y-80950000D02*
X155420000Y-80950000D01*
X168260000Y-110800000D02*
X168830000Y-111370000D01*
X157730000Y-110800000D02*
X168260000Y-110800000D01*
X169651286Y-108920998D02*
X182547496Y-108920998D01*
X168439902Y-109095500D02*
X169190098Y-109095500D01*
X169376287Y-108645999D02*
X169651286Y-108920998D01*
X140180000Y-98730000D02*
X146600000Y-105150000D01*
X171080288Y-110490000D02*
X184500000Y-110490000D01*
X169190098Y-109095500D02*
X169465097Y-109370499D01*
X182547496Y-108920998D02*
X183260000Y-109633502D01*
X143960000Y-107590000D02*
X164050000Y-107590000D01*
X140180000Y-103810000D02*
X143960000Y-107590000D01*
X165830499Y-109370499D02*
X168164903Y-109370499D01*
X166200998Y-108920998D02*
X167978714Y-108920998D01*
X168253713Y-108645999D02*
X169376287Y-108645999D01*
X162430000Y-105150000D02*
X166200998Y-108920998D01*
X169960787Y-109370499D02*
X171080288Y-110490000D01*
X168164903Y-109370499D02*
X168439902Y-109095500D01*
X167978714Y-108920998D02*
X168253713Y-108645999D01*
X159245402Y-98730000D02*
X155420000Y-98730000D01*
X157967004Y-96190000D02*
X168350000Y-106572996D01*
X155420000Y-96190000D02*
X157967004Y-96190000D01*
X146600000Y-105150000D02*
X162430000Y-105150000D01*
X169465097Y-109370499D02*
X169960787Y-109370499D01*
X170209853Y-107572495D02*
X169934854Y-107297496D01*
X170023664Y-108021996D02*
X169748665Y-107746997D01*
X164050000Y-107590000D02*
X165830499Y-109370499D01*
X167812898Y-107297496D02*
X159245402Y-98730000D01*
X161149712Y-101270000D02*
X155420000Y-101270000D01*
X185699015Y-106629015D02*
X184755535Y-107572495D01*
X169774598Y-109820000D02*
X168740000Y-109820000D01*
X169748665Y-107746997D02*
X167626709Y-107746997D01*
X184755535Y-107572495D02*
X170209853Y-107572495D01*
X169934854Y-107297496D02*
X167812898Y-107297496D01*
X202910000Y-96830000D02*
X191718004Y-108021996D01*
X202910000Y-95640000D02*
X202910000Y-96830000D01*
X167626709Y-107746997D02*
X161149712Y-101270000D01*
X191718004Y-108021996D02*
X170023664Y-108021996D01*
X168740000Y-109820000D02*
X156951381Y-109820000D01*
X112530000Y-115070000D02*
X114603502Y-117143502D01*
X128112476Y-117143502D02*
X130140478Y-115115500D01*
X114603502Y-117143502D02*
X128112476Y-117143502D01*
X171170098Y-111215500D02*
X169774598Y-109820000D01*
X130140478Y-115115500D02*
X153434500Y-115115500D01*
X153434500Y-115115500D02*
X156857380Y-111692620D01*
X260037528Y-94447528D02*
X258540000Y-92950000D01*
X258540000Y-92950000D02*
X209840000Y-92950000D01*
X266230000Y-94450000D02*
X266227528Y-94447528D01*
X191574500Y-111215500D02*
X171170098Y-111215500D01*
X209840000Y-92950000D02*
X191574500Y-111215500D01*
X156857380Y-111692620D02*
X156857380Y-109725999D01*
X266227528Y-94447528D02*
X260037528Y-94447528D01*
X156951381Y-109820000D02*
X156857380Y-109725999D01*
X191610000Y-111840000D02*
X170770000Y-111840000D01*
X241300000Y-93750000D02*
X209700000Y-93750000D01*
X209700000Y-93750000D02*
X191610000Y-111840000D01*
X168390000Y-141910000D02*
X168390000Y-137810000D01*
X178310000Y-143430000D02*
X169910000Y-143430000D01*
X169910000Y-143430000D02*
X168390000Y-141910000D01*
X169234500Y-138040000D02*
X169444500Y-137830000D01*
X169234500Y-141030000D02*
X169234500Y-138040000D01*
X194597352Y-141052648D02*
X169257148Y-141052648D01*
X196750000Y-138900000D02*
X194597352Y-141052648D01*
X169257148Y-141052648D02*
X169234500Y-141030000D01*
D19*
X140180000Y-80950000D02*
X143610000Y-84380000D01*
X143610000Y-84380000D02*
X147531901Y-84380000D01*
X147531901Y-84380000D02*
X148680001Y-83231900D01*
D18*
X154620001Y-86829999D02*
X155420000Y-86030000D01*
X140180000Y-83490000D02*
X143519999Y-86829999D01*
X143519999Y-86829999D02*
X154620001Y-86829999D01*
X145710000Y-158083173D02*
X145710000Y-157520000D01*
X151760000Y-113160000D02*
X143800000Y-113160000D01*
X154683436Y-113131564D02*
X154683436Y-110175500D01*
X129954289Y-114665999D02*
X153149001Y-114665999D01*
X127926287Y-116694001D02*
X129954289Y-114665999D01*
X115244001Y-116694001D02*
X127926287Y-116694001D01*
X94808315Y-106708315D02*
X95170000Y-107070000D01*
X153149001Y-114665999D02*
X154683436Y-113131564D01*
X105620000Y-107070000D02*
X115244001Y-116694001D01*
D19*
X126650000Y-120260000D02*
X131070000Y-115840000D01*
X131070000Y-115840000D02*
X147840000Y-115840000D01*
D18*
X95170000Y-107070000D02*
X105620000Y-107070000D01*
D19*
X143800000Y-117660000D02*
X151760000Y-117660000D01*
D18*
X129105000Y-110015000D02*
X142592496Y-110015000D01*
X126131879Y-114259501D02*
X115169501Y-114259501D01*
X89440000Y-97460000D02*
X97180000Y-105200000D01*
X131781222Y-110931996D02*
X129459384Y-110931996D01*
X86020000Y-96470000D02*
X78800000Y-96470000D01*
X131595033Y-110482495D02*
X131605532Y-110471996D01*
X149718503Y-110921497D02*
X131791721Y-110921497D01*
X125850000Y-113270000D02*
X129105000Y-110015000D01*
X131791721Y-110921497D02*
X131781222Y-110931996D01*
X97180000Y-105200000D02*
X107120000Y-105200000D01*
X131605532Y-110471996D02*
X148688004Y-110471996D01*
X115430190Y-116244500D02*
X105806189Y-106620499D01*
X132164099Y-111820499D02*
X127740098Y-116244500D01*
X151920000Y-110220000D02*
X150769002Y-111370998D01*
X151120000Y-109520000D02*
X149718503Y-110921497D01*
X115169501Y-114259501D02*
X107022300Y-106112300D01*
X131967411Y-111381497D02*
X131578503Y-111381497D01*
X96170499Y-106620499D02*
X86020000Y-96470000D01*
X131578503Y-111381497D02*
X127810000Y-115150000D01*
X129459384Y-110931996D02*
X126131879Y-114259501D01*
X142592496Y-110015000D02*
X142860000Y-109747496D01*
X148688004Y-110471996D02*
X150350000Y-108810000D01*
X150769002Y-111370998D02*
X131977910Y-111370998D01*
X124540000Y-113270000D02*
X125850000Y-113270000D01*
X129273195Y-110482495D02*
X131595033Y-110482495D01*
X131977910Y-111370998D02*
X131967411Y-111381497D01*
X125945690Y-113810000D02*
X129273195Y-110482495D01*
X115730000Y-113810000D02*
X125945690Y-113810000D01*
X124030000Y-112760000D02*
X124540000Y-113270000D01*
X152690000Y-110900000D02*
X151769501Y-111820499D01*
X107022300Y-106112300D02*
X107007700Y-106112300D01*
X151769501Y-111820499D02*
X132164099Y-111820499D01*
X105806189Y-106620499D02*
X96170499Y-106620499D01*
X107120000Y-105200000D02*
X115730000Y-113810000D01*
X127740098Y-116244500D02*
X115430190Y-116244500D01*
D19*
X124630000Y-140130000D02*
X126410000Y-140130000D01*
X126410000Y-140130000D02*
X129180000Y-142900000D01*
X129180000Y-142900000D02*
X145520000Y-142900000D01*
X126540000Y-141480000D02*
X126540000Y-142420000D01*
X126540000Y-142420000D02*
X127990000Y-143870000D01*
X127990000Y-143870000D02*
X146750000Y-143870000D01*
X135100000Y-83490000D02*
X135090000Y-83500000D01*
X140180000Y-83490000D02*
X135100000Y-83490000D01*
D18*
X171968442Y-154415500D02*
X173185000Y-153198942D01*
X148000098Y-154155500D02*
X148260098Y-154415500D01*
X139858442Y-154155500D02*
X148000098Y-154155500D01*
X148260098Y-154415500D02*
X171968442Y-154415500D01*
X136875000Y-157138942D02*
X139858442Y-154155500D01*
D19*
X145710000Y-158083173D02*
X145710000Y-158830000D01*
X146610000Y-159730000D02*
X148970000Y-159730000D01*
X149710000Y-158990000D02*
X149710000Y-158083173D01*
X145710000Y-158830000D02*
X146610000Y-159730000D01*
X148970000Y-159730000D02*
X149710000Y-158990000D01*
D18*
X145710000Y-158083173D02*
X145650000Y-158143173D01*
X149710000Y-158083173D02*
X149710000Y-157520000D01*
X85888714Y-95699002D02*
X96288714Y-106099002D01*
X115020802Y-115150000D02*
X127810000Y-115150000D01*
X105969804Y-106099002D02*
X115020802Y-115150000D01*
X96288714Y-106099002D02*
X105969804Y-106099002D01*
X58880000Y-96030000D02*
X59210998Y-95699002D01*
X59210998Y-95699002D02*
X85888714Y-95699002D01*
X113942949Y-152373778D02*
X117014671Y-155445500D01*
X135181558Y-155445500D02*
X136875000Y-157138942D01*
X117014671Y-155445500D02*
X135181558Y-155445500D01*
X149710000Y-158850000D02*
X149710000Y-157520000D01*
X261907051Y-108253778D02*
X261900000Y-108246727D01*
X261900000Y-108246727D02*
X261900000Y-97210000D01*
X281367051Y-106637051D02*
X281367051Y-107233778D01*
X261900000Y-97210000D02*
X271940000Y-97210000D01*
X271940000Y-97210000D02*
X281367051Y-106637051D01*
X256987051Y-89823778D02*
X256987051Y-90289652D01*
X265570000Y-93910000D02*
X266052378Y-93427622D01*
X260607399Y-93910000D02*
X265570000Y-93910000D01*
X256987051Y-90289652D02*
X260607399Y-93910000D01*
X266052378Y-93427622D02*
X271803207Y-93427622D01*
X271803207Y-93427622D02*
X276427051Y-88803778D01*
X237537051Y-90953778D02*
X238873273Y-92290000D01*
X238873273Y-92290000D02*
X254520829Y-92290000D01*
X254520829Y-92290000D02*
X256987051Y-89823778D01*
X236457051Y-92033778D02*
X237537051Y-90953778D01*
X218087051Y-92033778D02*
X236457051Y-92033778D01*
X191967327Y-109633502D02*
X183260000Y-109633502D01*
X200757051Y-100843778D02*
X191967327Y-109633502D01*
X178420000Y-91170000D02*
X177355000Y-92235000D01*
X141595000Y-92235000D02*
X140180000Y-93650000D01*
X177355000Y-92235000D02*
X141595000Y-92235000D01*
X96474903Y-105649501D02*
X85985402Y-95160000D01*
X107007700Y-106112300D02*
X106544901Y-105649501D01*
X85985402Y-95160000D02*
X39180000Y-95160000D01*
X106544901Y-105649501D02*
X96474903Y-105649501D01*
X50362949Y-93113778D02*
X50952199Y-93703028D01*
X89252949Y-95213778D02*
X87742199Y-93703028D01*
X50952199Y-93703028D02*
X69820352Y-93703028D01*
X19345815Y-94455815D02*
X19374102Y-94427528D01*
X50362949Y-93113778D02*
X49575729Y-93900998D01*
X32880169Y-93900998D02*
X30962949Y-91983778D01*
X49575729Y-93900998D02*
X32880169Y-93900998D01*
X87742199Y-93703028D02*
X69820352Y-93703028D01*
X19374102Y-94427528D02*
X86407528Y-94427528D01*
X86407528Y-94427528D02*
X89440000Y-97460000D01*
X129340000Y-101270000D02*
X140180000Y-101270000D01*
X129260000Y-101350000D02*
X129340000Y-101270000D01*
X128860000Y-94350000D02*
X132100000Y-91110000D01*
X132100000Y-91110000D02*
X140180000Y-91110000D01*
X193434102Y-149127556D02*
X198317880Y-144243778D01*
X198317880Y-144243778D02*
X211837051Y-144243778D01*
X173185000Y-153198942D02*
X189362716Y-153198942D01*
X189362716Y-153198942D02*
X193434102Y-149127556D01*
X95370000Y-147300000D02*
X108869171Y-147300000D01*
X108869171Y-147300000D02*
X113942949Y-152373778D01*
X106642949Y-103943778D02*
X105876727Y-104710000D01*
X89252949Y-96142949D02*
X89252949Y-95213778D01*
X105876727Y-104710000D02*
X97820000Y-104710000D01*
X97820000Y-104710000D02*
X89252949Y-96142949D01*
X124030000Y-112760000D02*
X123500000Y-113290000D01*
X123500000Y-113290000D02*
X115989171Y-113290000D01*
X115989171Y-113290000D02*
X106642949Y-103943778D01*
X242517051Y-109393778D02*
X243657051Y-108253778D01*
X243657051Y-108253778D02*
X261907051Y-108253778D01*
X223127051Y-110473778D02*
X224207051Y-109393778D01*
X224207051Y-109393778D02*
X242517051Y-109393778D01*
X205707051Y-119293778D02*
X214527051Y-110473778D01*
X214527051Y-110473778D02*
X223127051Y-110473778D01*
X188280000Y-128050000D02*
X196950829Y-128050000D01*
X196950829Y-128050000D02*
X205707051Y-119293778D01*
X200757051Y-100843778D02*
X209567051Y-92033778D01*
X209567051Y-92033778D02*
X218087051Y-92033778D01*
X252117051Y-71503778D02*
X252484474Y-71871201D01*
X252484474Y-71871201D02*
X270039628Y-71871201D01*
X270039628Y-71871201D02*
X271487051Y-70423778D01*
X232617051Y-72523778D02*
X233637051Y-71503778D01*
X233637051Y-71503778D02*
X252117051Y-71503778D01*
X213167051Y-73653778D02*
X214297051Y-72523778D01*
X214297051Y-72523778D02*
X232617051Y-72523778D01*
X195827051Y-82443778D02*
X204617051Y-73653778D01*
X204617051Y-73653778D02*
X213167051Y-73653778D01*
X178420000Y-91170000D02*
X187100829Y-91170000D01*
X187100829Y-91170000D02*
X195827051Y-82443778D01*
X31410000Y-97140000D02*
X28020000Y-100530000D01*
X43773907Y-111443778D02*
X34910000Y-102579871D01*
X28020000Y-108366727D02*
X26032949Y-110353778D01*
X34910000Y-102579871D02*
X34910000Y-97140000D01*
X45492949Y-111443778D02*
X43773907Y-111443778D01*
X34910000Y-97140000D02*
X31410000Y-97140000D01*
X28020000Y-100530000D02*
X28020000Y-108366727D01*
X64882949Y-112523778D02*
X64114061Y-111754890D01*
X64114061Y-111754890D02*
X45804061Y-111754890D01*
X45804061Y-111754890D02*
X45492949Y-111443778D01*
X84312949Y-113603778D02*
X83232949Y-112523778D01*
X83232949Y-112523778D02*
X64882949Y-112523778D01*
X101662949Y-122393778D02*
X93102949Y-122393778D01*
X93102949Y-122393778D02*
X84312949Y-113603778D01*
X119100000Y-131200000D02*
X110469171Y-131200000D01*
X110469171Y-131200000D02*
X101662949Y-122393778D01*
X94182949Y-76783778D02*
X93102949Y-75703778D01*
X93102949Y-75703778D02*
X74772949Y-75703778D01*
X111542949Y-85603778D02*
X103002949Y-85603778D01*
X103002949Y-85603778D02*
X94182949Y-76783778D01*
X128860000Y-94350000D02*
X120289171Y-94350000D01*
X120289171Y-94350000D02*
X111542949Y-85603778D01*
M02*
