G04 #@! TF.GenerationSoftware,KiCad,Pcbnew,(6.0.8-1)-1*
G04 #@! TF.CreationDate,2022-11-12T18:34:57-05:00*
G04 #@! TF.ProjectId,ergo3by6plus3nonSplit,6572676f-3362-4793-9670-6c7573336e6f,rev?*
G04 #@! TF.SameCoordinates,Original*
G04 #@! TF.FileFunction,Legend,Bot*
G04 #@! TF.FilePolarity,Positive*
%FSLAX46Y46*%
G04 Gerber Fmt 4.6, Leading zero omitted, Abs format (unit mm)*
G04 Created by KiCad (PCBNEW (6.0.8-1)-1) date 2022-11-12 18:34:57*
%MOMM*%
%LPD*%
G01*
G04 APERTURE LIST*
G04 Aperture macros list*
%AMRoundRect*
0 Rectangle with rounded corners*
0 $1 Rounding radius*
0 $2 $3 $4 $5 $6 $7 $8 $9 X,Y pos of 4 corners*
0 Add a 4 corners polygon primitive as box body*
4,1,4,$2,$3,$4,$5,$6,$7,$8,$9,$2,$3,0*
0 Add four circle primitives for the rounded corners*
1,1,$1+$1,$2,$3*
1,1,$1+$1,$4,$5*
1,1,$1+$1,$6,$7*
1,1,$1+$1,$8,$9*
0 Add four rect primitives between the rounded corners*
20,1,$1+$1,$2,$3,$4,$5,0*
20,1,$1+$1,$4,$5,$6,$7,0*
20,1,$1+$1,$6,$7,$8,$9,0*
20,1,$1+$1,$8,$9,$2,$3,0*%
%AMRotRect*
0 Rectangle, with rotation*
0 The origin of the aperture is its center*
0 $1 length*
0 $2 width*
0 $3 Rotation angle, in degrees counterclockwise*
0 Add horizontal line*
21,1,$1,$2,0,0,$3*%
G04 Aperture macros list end*
%ADD10C,0.150000*%
%ADD11C,0.120000*%
%ADD12RotRect,0.900000X1.200000X105.000000*%
%ADD13RotRect,0.900000X1.200000X120.000000*%
%ADD14RotRect,0.900000X1.200000X60.000000*%
%ADD15RotRect,0.900000X1.200000X75.000000*%
%ADD16R,1.700000X1.700000*%
%ADD17O,1.700000X1.700000*%
%ADD18R,0.711200X1.498600*%
%ADD19C,0.939800*%
%ADD20R,0.990600X0.812800*%
%ADD21C,1.750000*%
%ADD22C,3.050000*%
%ADD23C,4.000000*%
%ADD24RoundRect,0.250000X-1.387676X-0.353525X0.387676X-1.378525X1.387676X0.353525X-0.387676X1.378525X0*%
%ADD25RoundRect,0.250000X-1.248893X-0.700636X0.731255X-1.231215X1.248893X0.700636X-0.731255X1.231215X0*%
%ADD26RoundRect,0.250000X-0.731255X-1.231215X1.248893X-0.700636X0.731255X1.231215X-1.248893X0.700636X0*%
%ADD27RoundRect,0.250000X-0.387676X-1.378525X1.387676X-0.353525X0.387676X1.378525X-1.387676X0.353525X0*%
G04 APERTURE END LIST*
D10*
X213464538Y-140842367D02*
X212498612Y-141101186D01*
X212560235Y-141331168D01*
X212643206Y-141456833D01*
X212759848Y-141524176D01*
X212864166Y-141545523D01*
X213060477Y-141542221D01*
X213198466Y-141505247D01*
X213370127Y-141409951D01*
X213449795Y-141339306D01*
X213517139Y-141222663D01*
X213526161Y-141072349D01*
X213464538Y-140842367D01*
X213190329Y-142394807D02*
X213834279Y-142222261D01*
X212760733Y-142263422D02*
X213389057Y-141848569D01*
X213549278Y-142446523D01*
X213083593Y-142916395D02*
X213049922Y-142974716D01*
X213028575Y-143079034D01*
X213090198Y-143309016D01*
X213160844Y-143388684D01*
X213219165Y-143422356D01*
X213323483Y-143443703D01*
X213415476Y-143419054D01*
X213541141Y-143336083D01*
X213945202Y-142636229D01*
X214105423Y-143234183D01*
X195061589Y-145726145D02*
X194095663Y-145984964D01*
X194157286Y-146214946D01*
X194240257Y-146340611D01*
X194356899Y-146407954D01*
X194461217Y-146429301D01*
X194657528Y-146425999D01*
X194795517Y-146389025D01*
X194967178Y-146293729D01*
X195046846Y-146223084D01*
X195114190Y-146106441D01*
X195123212Y-145956127D01*
X195061589Y-145726145D01*
X194787380Y-147278585D02*
X195431330Y-147106039D01*
X194357784Y-147147200D02*
X194986108Y-146732347D01*
X195146329Y-147330301D01*
X195702474Y-148117961D02*
X195554577Y-147566003D01*
X195628526Y-147841982D02*
X194662600Y-148100801D01*
X194775940Y-147971834D01*
X194843283Y-147855192D01*
X194864630Y-147750874D01*
X173876681Y-149492207D02*
X173010656Y-149992207D01*
X173129703Y-150198403D01*
X173242371Y-150298312D01*
X173372469Y-150333171D01*
X173478757Y-150326791D01*
X173667524Y-150272793D01*
X173791242Y-150201364D01*
X173932389Y-150064887D01*
X173991058Y-149976028D01*
X174025918Y-149845931D01*
X173995729Y-149698403D01*
X173876681Y-149492207D01*
X174013616Y-151062719D02*
X174590967Y-150729386D01*
X173564654Y-151046999D02*
X174064196Y-150483660D01*
X174373720Y-151019770D01*
X174082084Y-151847975D02*
X174129703Y-151930454D01*
X174218562Y-151989123D01*
X174283610Y-152006553D01*
X174389899Y-152000173D01*
X174578665Y-151946174D01*
X174784862Y-151827127D01*
X174926010Y-151690649D01*
X174984679Y-151601791D01*
X175002108Y-151536742D01*
X174995729Y-151430454D01*
X174948110Y-151347975D01*
X174859251Y-151289306D01*
X174794202Y-151271877D01*
X174687914Y-151278256D01*
X174499148Y-151332255D01*
X174292951Y-151451303D01*
X174151803Y-151587780D01*
X174093134Y-151676639D01*
X174075704Y-151741687D01*
X174082084Y-151847975D01*
X140430967Y-155884588D02*
X139564941Y-155384588D01*
X139445894Y-155590784D01*
X139415704Y-155738312D01*
X139450564Y-155868409D01*
X139509233Y-155957268D01*
X139650381Y-156093745D01*
X139774099Y-156165174D01*
X139962865Y-156219172D01*
X140069154Y-156225552D01*
X140199251Y-156190693D01*
X140311919Y-156090784D01*
X140430967Y-155884588D01*
X139112560Y-156168134D02*
X138803037Y-156704245D01*
X139299618Y-156606047D01*
X139228189Y-156729764D01*
X139221809Y-156836053D01*
X139239239Y-156901101D01*
X139297908Y-156989960D01*
X139504105Y-157109007D01*
X139610393Y-157115387D01*
X139675442Y-157097957D01*
X139764300Y-157039288D01*
X139907157Y-156791852D01*
X139913537Y-156685564D01*
X139896107Y-156620515D01*
X139430967Y-157616639D02*
X139335729Y-157781596D01*
X139246870Y-157840265D01*
X139181821Y-157857695D01*
X139010485Y-157868745D01*
X138821718Y-157814746D01*
X138491803Y-157624270D01*
X138433134Y-157535411D01*
X138415704Y-157470362D01*
X138422084Y-157364074D01*
X138517322Y-157199117D01*
X138606181Y-157140448D01*
X138671229Y-157123018D01*
X138777518Y-157129398D01*
X138983714Y-157248446D01*
X139042383Y-157337304D01*
X139059813Y-157402353D01*
X139053433Y-157508641D01*
X138958195Y-157673598D01*
X138869337Y-157732267D01*
X138804288Y-157749697D01*
X138698000Y-157743317D01*
X117053098Y-150241812D02*
X116087172Y-149982993D01*
X116025549Y-150212976D01*
X116034571Y-150363290D01*
X116101915Y-150479932D01*
X116181583Y-150550578D01*
X116353244Y-150645873D01*
X116491233Y-150682848D01*
X116687544Y-150686150D01*
X116791862Y-150664803D01*
X116908504Y-150597459D01*
X116991475Y-150471795D01*
X117053098Y-150241812D01*
X115853003Y-150856926D02*
X115692781Y-151454880D01*
X116147026Y-151231503D01*
X116110052Y-151369492D01*
X116131399Y-151473810D01*
X116165071Y-151532131D01*
X116244739Y-151602777D01*
X116474721Y-151664400D01*
X116579039Y-151643053D01*
X116637360Y-151609382D01*
X116708006Y-151529713D01*
X116781954Y-151253735D01*
X116760607Y-151149417D01*
X116726936Y-151091096D01*
X115958853Y-152117760D02*
X115937506Y-152013443D01*
X115903834Y-151955122D01*
X115824166Y-151884476D01*
X115778170Y-151872151D01*
X115673852Y-151893498D01*
X115615531Y-151927170D01*
X115544885Y-152006838D01*
X115495586Y-152190824D01*
X115516933Y-152295141D01*
X115550605Y-152353463D01*
X115630273Y-152424109D01*
X115676269Y-152436433D01*
X115780587Y-152415086D01*
X115838908Y-152381414D01*
X115909554Y-152301746D01*
X115958853Y-152117760D01*
X116029499Y-152038092D01*
X116087820Y-152004420D01*
X116192138Y-151983073D01*
X116376124Y-152032372D01*
X116455792Y-152103018D01*
X116489464Y-152161339D01*
X116510811Y-152265657D01*
X116461512Y-152449643D01*
X116390866Y-152529311D01*
X116332545Y-152562983D01*
X116228227Y-152584330D01*
X116044241Y-152535031D01*
X115964573Y-152464385D01*
X115930901Y-152406064D01*
X115909554Y-152301746D01*
X98633098Y-145241812D02*
X97667172Y-144982993D01*
X97605549Y-145212976D01*
X97614571Y-145363290D01*
X97681915Y-145479932D01*
X97761583Y-145550578D01*
X97933244Y-145645873D01*
X98071233Y-145682848D01*
X98267544Y-145686150D01*
X98371862Y-145664803D01*
X98488504Y-145597459D01*
X98571475Y-145471795D01*
X98633098Y-145241812D01*
X97433003Y-145856926D02*
X97272781Y-146454880D01*
X97727026Y-146231503D01*
X97690052Y-146369492D01*
X97711399Y-146473810D01*
X97745071Y-146532131D01*
X97824739Y-146602777D01*
X98054721Y-146664400D01*
X98159039Y-146643053D01*
X98217360Y-146609382D01*
X98288006Y-146529713D01*
X98361954Y-146253735D01*
X98340607Y-146149417D01*
X98306936Y-146091096D01*
X97186508Y-146776856D02*
X97013962Y-147420806D01*
X98090811Y-147265657D01*
X282994538Y-103832367D02*
X282028612Y-104091186D01*
X282090235Y-104321168D01*
X282173206Y-104446833D01*
X282289848Y-104514176D01*
X282394166Y-104535523D01*
X282590477Y-104532221D01*
X282728466Y-104495247D01*
X282900127Y-104399951D01*
X282979795Y-104329306D01*
X283047139Y-104212663D01*
X283056161Y-104062349D01*
X282994538Y-103832367D01*
X282262781Y-104965119D02*
X282423003Y-105563073D01*
X282704702Y-105142500D01*
X282741676Y-105280489D01*
X282812322Y-105360157D01*
X282870643Y-105393829D01*
X282974960Y-105415176D01*
X283204943Y-105353553D01*
X283284611Y-105282907D01*
X283318283Y-105224586D01*
X283339630Y-105120268D01*
X283265681Y-104844289D01*
X283195036Y-104764621D01*
X283136714Y-104730949D01*
X282644848Y-106391009D02*
X282595549Y-106207023D01*
X282616896Y-106102706D01*
X282650568Y-106044384D01*
X282763908Y-105915417D01*
X282935569Y-105820122D01*
X283303540Y-105721524D01*
X283407858Y-105742871D01*
X283466179Y-105776543D01*
X283536825Y-105856211D01*
X283586124Y-106040197D01*
X283564777Y-106144515D01*
X283531105Y-106202836D01*
X283451437Y-106273482D01*
X283221455Y-106335106D01*
X283117137Y-106313759D01*
X283058816Y-106280087D01*
X282988170Y-106200419D01*
X282938871Y-106016433D01*
X282960218Y-105912115D01*
X282993890Y-105853794D01*
X283073558Y-105783148D01*
X263534538Y-104852367D02*
X262568612Y-105111186D01*
X262630235Y-105341168D01*
X262713206Y-105466833D01*
X262829848Y-105534176D01*
X262934166Y-105555523D01*
X263130477Y-105552221D01*
X263268466Y-105515247D01*
X263440127Y-105419951D01*
X263519795Y-105349306D01*
X263587139Y-105232663D01*
X263596161Y-105082349D01*
X263534538Y-104852367D01*
X262802781Y-105985119D02*
X262963003Y-106583073D01*
X263244702Y-106162500D01*
X263281676Y-106300489D01*
X263352322Y-106380157D01*
X263410643Y-106413829D01*
X263514960Y-106435176D01*
X263744943Y-106373553D01*
X263824611Y-106302907D01*
X263858283Y-106244586D01*
X263879630Y-106140268D01*
X263805681Y-105864289D01*
X263735036Y-105784621D01*
X263676714Y-105750949D01*
X263197172Y-107457006D02*
X263073925Y-106997041D01*
X263521565Y-106827797D01*
X263487893Y-106886119D01*
X263466546Y-106990436D01*
X263528170Y-107220419D01*
X263598816Y-107300087D01*
X263657137Y-107333759D01*
X263761455Y-107355106D01*
X263991437Y-107293482D01*
X264071105Y-107222836D01*
X264104777Y-107164515D01*
X264126124Y-107060197D01*
X264064500Y-106830215D01*
X263993855Y-106750547D01*
X263935533Y-106716875D01*
X244144538Y-105992367D02*
X243178612Y-106251186D01*
X243240235Y-106481168D01*
X243323206Y-106606833D01*
X243439848Y-106674176D01*
X243544166Y-106695523D01*
X243740477Y-106692221D01*
X243878466Y-106655247D01*
X244050127Y-106559951D01*
X244129795Y-106489306D01*
X244197139Y-106372663D01*
X244206161Y-106222349D01*
X244144538Y-105992367D01*
X243412781Y-107125119D02*
X243573003Y-107723073D01*
X243854702Y-107302500D01*
X243891676Y-107440489D01*
X243962322Y-107520157D01*
X244020643Y-107553829D01*
X244124960Y-107575176D01*
X244354943Y-107513553D01*
X244434611Y-107442907D01*
X244468283Y-107384586D01*
X244489630Y-107280268D01*
X244415681Y-107004289D01*
X244345036Y-106924621D01*
X244286714Y-106890949D01*
X244116823Y-108464736D02*
X244760773Y-108292190D01*
X243687228Y-108333352D02*
X244315551Y-107918498D01*
X244475772Y-108516453D01*
X224754538Y-107072367D02*
X223788612Y-107331186D01*
X223850235Y-107561168D01*
X223933206Y-107686833D01*
X224049848Y-107754176D01*
X224154166Y-107775523D01*
X224350477Y-107772221D01*
X224488466Y-107735247D01*
X224660127Y-107639951D01*
X224739795Y-107569306D01*
X224807139Y-107452663D01*
X224816161Y-107302349D01*
X224754538Y-107072367D01*
X224022781Y-108205119D02*
X224183003Y-108803073D01*
X224464702Y-108382500D01*
X224501676Y-108520489D01*
X224572322Y-108600157D01*
X224630643Y-108633829D01*
X224734960Y-108655176D01*
X224964943Y-108593553D01*
X225044611Y-108522907D01*
X225078283Y-108464586D01*
X225099630Y-108360268D01*
X225025681Y-108084289D01*
X224955036Y-108004621D01*
X224896714Y-107970949D01*
X224269276Y-109125048D02*
X224429497Y-109723002D01*
X224711196Y-109302429D01*
X224748170Y-109440419D01*
X224818816Y-109520087D01*
X224877137Y-109553759D01*
X224981455Y-109575106D01*
X225211437Y-109513482D01*
X225291105Y-109442836D01*
X225324777Y-109384515D01*
X225346124Y-109280197D01*
X225272176Y-109004218D01*
X225201530Y-108924550D01*
X225143209Y-108890878D01*
X207334538Y-115892367D02*
X206368612Y-116151186D01*
X206430235Y-116381168D01*
X206513206Y-116506833D01*
X206629848Y-116574176D01*
X206734166Y-116595523D01*
X206930477Y-116592221D01*
X207068466Y-116555247D01*
X207240127Y-116459951D01*
X207319795Y-116389306D01*
X207387139Y-116272663D01*
X207396161Y-116122349D01*
X207334538Y-115892367D01*
X206602781Y-117025119D02*
X206763003Y-117623073D01*
X207044702Y-117202500D01*
X207081676Y-117340489D01*
X207152322Y-117420157D01*
X207210643Y-117453829D01*
X207314960Y-117475176D01*
X207544943Y-117413553D01*
X207624611Y-117342907D01*
X207658283Y-117284586D01*
X207679630Y-117180268D01*
X207605681Y-116904289D01*
X207535036Y-116824621D01*
X207476714Y-116790949D01*
X206953593Y-117966395D02*
X206919922Y-118024716D01*
X206898575Y-118129034D01*
X206960198Y-118359016D01*
X207030844Y-118438684D01*
X207089165Y-118472356D01*
X207193483Y-118493703D01*
X207285476Y-118469054D01*
X207411141Y-118386083D01*
X207815202Y-117686229D01*
X207975423Y-118284183D01*
X190011589Y-124636145D02*
X189045663Y-124894964D01*
X189107286Y-125124946D01*
X189190257Y-125250611D01*
X189306899Y-125317954D01*
X189411217Y-125339301D01*
X189607528Y-125335999D01*
X189745517Y-125299025D01*
X189917178Y-125203729D01*
X189996846Y-125133084D01*
X190064190Y-125016441D01*
X190073212Y-124866127D01*
X190011589Y-124636145D01*
X189279832Y-125768897D02*
X189440054Y-126366851D01*
X189721753Y-125946278D01*
X189758727Y-126084267D01*
X189829373Y-126163935D01*
X189887694Y-126197607D01*
X189992011Y-126218954D01*
X190221994Y-126157331D01*
X190301662Y-126086685D01*
X190335334Y-126028364D01*
X190356681Y-125924046D01*
X190282732Y-125648067D01*
X190212087Y-125568399D01*
X190153765Y-125534727D01*
X190652474Y-127027961D02*
X190504577Y-126476003D01*
X190578526Y-126751982D02*
X189612600Y-127010801D01*
X189725940Y-126881834D01*
X189793283Y-126765192D01*
X189814630Y-126660874D01*
X122173098Y-129041812D02*
X121207172Y-128782993D01*
X121145549Y-129012976D01*
X121154571Y-129163290D01*
X121221915Y-129279932D01*
X121301583Y-129350578D01*
X121473244Y-129445873D01*
X121611233Y-129482848D01*
X121807544Y-129486150D01*
X121911862Y-129464803D01*
X122028504Y-129397459D01*
X122111475Y-129271795D01*
X122173098Y-129041812D01*
X120973003Y-129656926D02*
X120812781Y-130254880D01*
X121267026Y-130031503D01*
X121230052Y-130169492D01*
X121251399Y-130273810D01*
X121285071Y-130332131D01*
X121364739Y-130402777D01*
X121594721Y-130464400D01*
X121699039Y-130443053D01*
X121757360Y-130409382D01*
X121828006Y-130329713D01*
X121901954Y-130053735D01*
X121880607Y-129949417D01*
X121846936Y-129891096D01*
X120652560Y-130852834D02*
X120627911Y-130944827D01*
X120649258Y-131049145D01*
X120682930Y-131107466D01*
X120762598Y-131178112D01*
X120934259Y-131273407D01*
X121164241Y-131335031D01*
X121360552Y-131338333D01*
X121464869Y-131316986D01*
X121523191Y-131283315D01*
X121593837Y-131203646D01*
X121618486Y-131111653D01*
X121597139Y-131007336D01*
X121563467Y-130949015D01*
X121483799Y-130878369D01*
X121312138Y-130783073D01*
X121082155Y-130721450D01*
X120885845Y-130718147D01*
X120781527Y-130739494D01*
X120723206Y-130773166D01*
X120652560Y-130852834D01*
X104773098Y-120261812D02*
X103807172Y-120002993D01*
X103745549Y-120232976D01*
X103754571Y-120383290D01*
X103821915Y-120499932D01*
X103901583Y-120570578D01*
X104073244Y-120665873D01*
X104211233Y-120702848D01*
X104407544Y-120706150D01*
X104511862Y-120684803D01*
X104628504Y-120617459D01*
X104711475Y-120491795D01*
X104773098Y-120261812D01*
X103652671Y-120947572D02*
X103594350Y-120981244D01*
X103523704Y-121060912D01*
X103462080Y-121290894D01*
X103483427Y-121395212D01*
X103517099Y-121453533D01*
X103596767Y-121524179D01*
X103688760Y-121548829D01*
X103839074Y-121539806D01*
X104538929Y-121135745D01*
X104378707Y-121733699D01*
X104255460Y-122193664D02*
X104206161Y-122377650D01*
X104135515Y-122457318D01*
X104077194Y-122490990D01*
X103914555Y-122546009D01*
X103718245Y-122542706D01*
X103350273Y-122444109D01*
X103270605Y-122373463D01*
X103236933Y-122315141D01*
X103215586Y-122210824D01*
X103264885Y-122026838D01*
X103335531Y-121947170D01*
X103393852Y-121913498D01*
X103498170Y-121892151D01*
X103728152Y-121953774D01*
X103807820Y-122024420D01*
X103841492Y-122082742D01*
X103862839Y-122187059D01*
X103813540Y-122371045D01*
X103742894Y-122450713D01*
X103684573Y-122484385D01*
X103580255Y-122505732D01*
X87423098Y-111471812D02*
X86457172Y-111212993D01*
X86395549Y-111442976D01*
X86404571Y-111593290D01*
X86471915Y-111709932D01*
X86551583Y-111780578D01*
X86723244Y-111875873D01*
X86861233Y-111912848D01*
X87057544Y-111916150D01*
X87161862Y-111894803D01*
X87278504Y-111827459D01*
X87361475Y-111701795D01*
X87423098Y-111471812D01*
X86302671Y-112157572D02*
X86244350Y-112191244D01*
X86173704Y-112270912D01*
X86112080Y-112500894D01*
X86133427Y-112605212D01*
X86167099Y-112663533D01*
X86246767Y-112734179D01*
X86338760Y-112758829D01*
X86489074Y-112749806D01*
X87188929Y-112345745D01*
X87028707Y-112943699D01*
X86328853Y-113347760D02*
X86307506Y-113243443D01*
X86273834Y-113185122D01*
X86194166Y-113114476D01*
X86148170Y-113102151D01*
X86043852Y-113123498D01*
X85985531Y-113157170D01*
X85914885Y-113236838D01*
X85865586Y-113420824D01*
X85886933Y-113525141D01*
X85920605Y-113583463D01*
X86000273Y-113654109D01*
X86046269Y-113666433D01*
X86150587Y-113645086D01*
X86208908Y-113611414D01*
X86279554Y-113531746D01*
X86328853Y-113347760D01*
X86399499Y-113268092D01*
X86457820Y-113234420D01*
X86562138Y-113213073D01*
X86746124Y-113262372D01*
X86825792Y-113333018D01*
X86859464Y-113391339D01*
X86880811Y-113495657D01*
X86831512Y-113679643D01*
X86760866Y-113759311D01*
X86702545Y-113792983D01*
X86598227Y-113814330D01*
X86414241Y-113765031D01*
X86334573Y-113694385D01*
X86300901Y-113636064D01*
X86279554Y-113531746D01*
X67993098Y-110391812D02*
X67027172Y-110132993D01*
X66965549Y-110362976D01*
X66974571Y-110513290D01*
X67041915Y-110629932D01*
X67121583Y-110700578D01*
X67293244Y-110795873D01*
X67431233Y-110832848D01*
X67627544Y-110836150D01*
X67731862Y-110814803D01*
X67848504Y-110747459D01*
X67931475Y-110621795D01*
X67993098Y-110391812D01*
X66872671Y-111077572D02*
X66814350Y-111111244D01*
X66743704Y-111190912D01*
X66682080Y-111420894D01*
X66703427Y-111525212D01*
X66737099Y-111583533D01*
X66816767Y-111654179D01*
X66908760Y-111678829D01*
X67059074Y-111669806D01*
X67758929Y-111265745D01*
X67598707Y-111863699D01*
X66546508Y-111926856D02*
X66373962Y-112570806D01*
X67450811Y-112415657D01*
X48603098Y-109311812D02*
X47637172Y-109052993D01*
X47575549Y-109282976D01*
X47584571Y-109433290D01*
X47651915Y-109549932D01*
X47731583Y-109620578D01*
X47903244Y-109715873D01*
X48041233Y-109752848D01*
X48237544Y-109756150D01*
X48341862Y-109734803D01*
X48458504Y-109667459D01*
X48541475Y-109541795D01*
X48603098Y-109311812D01*
X47482671Y-109997572D02*
X47424350Y-110031244D01*
X47353704Y-110110912D01*
X47292080Y-110340894D01*
X47313427Y-110445212D01*
X47347099Y-110503533D01*
X47426767Y-110574179D01*
X47518760Y-110598829D01*
X47669074Y-110589806D01*
X48368929Y-110185745D01*
X48208707Y-110783699D01*
X47020937Y-111352817D02*
X47070235Y-111168831D01*
X47140881Y-111089163D01*
X47199203Y-111055491D01*
X47361841Y-111000472D01*
X47558152Y-111003774D01*
X47926124Y-111102372D01*
X48005792Y-111173018D01*
X48039464Y-111231339D01*
X48060811Y-111335657D01*
X48011512Y-111519643D01*
X47940866Y-111599311D01*
X47882545Y-111632983D01*
X47778227Y-111654330D01*
X47548245Y-111592706D01*
X47468577Y-111522060D01*
X47434905Y-111463739D01*
X47413558Y-111359422D01*
X47462857Y-111175436D01*
X47533503Y-111095767D01*
X47591824Y-111062096D01*
X47696141Y-111040749D01*
X29143098Y-108221812D02*
X28177172Y-107962993D01*
X28115549Y-108192976D01*
X28124571Y-108343290D01*
X28191915Y-108459932D01*
X28271583Y-108530578D01*
X28443244Y-108625873D01*
X28581233Y-108662848D01*
X28777544Y-108666150D01*
X28881862Y-108644803D01*
X28998504Y-108577459D01*
X29081475Y-108451795D01*
X29143098Y-108221812D01*
X28022671Y-108907572D02*
X27964350Y-108941244D01*
X27893704Y-109020912D01*
X27832080Y-109250894D01*
X27853427Y-109355212D01*
X27887099Y-109413533D01*
X27966767Y-109484179D01*
X28058760Y-109508829D01*
X28209074Y-109499806D01*
X28908929Y-109095745D01*
X28748707Y-109693699D01*
X27548612Y-110308813D02*
X27671859Y-109848849D01*
X28144148Y-109926099D01*
X28085827Y-109959771D01*
X28015181Y-110039439D01*
X27953558Y-110269422D01*
X27974905Y-110373739D01*
X28008577Y-110432060D01*
X28088245Y-110502706D01*
X28318227Y-110564330D01*
X28422545Y-110542983D01*
X28480866Y-110509311D01*
X28551512Y-110429643D01*
X28613135Y-110199660D01*
X28591788Y-110095343D01*
X28558117Y-110037022D01*
X278054538Y-85402367D02*
X277088612Y-85661186D01*
X277150235Y-85891168D01*
X277233206Y-86016833D01*
X277349848Y-86084176D01*
X277454166Y-86105523D01*
X277650477Y-86102221D01*
X277788466Y-86065247D01*
X277960127Y-85969951D01*
X278039795Y-85899306D01*
X278107139Y-85782663D01*
X278116161Y-85632349D01*
X278054538Y-85402367D01*
X277427099Y-86556466D02*
X277393427Y-86614787D01*
X277372080Y-86719105D01*
X277433704Y-86949087D01*
X277504350Y-87028755D01*
X277562671Y-87062427D01*
X277666989Y-87083774D01*
X277758982Y-87059124D01*
X277884646Y-86976154D01*
X278288707Y-86276300D01*
X278448929Y-86874254D01*
X278026823Y-87874736D02*
X278670773Y-87702190D01*
X277597228Y-87743352D02*
X278225551Y-87328498D01*
X278385772Y-87926453D01*
X258614538Y-86422367D02*
X257648612Y-86681186D01*
X257710235Y-86911168D01*
X257793206Y-87036833D01*
X257909848Y-87104176D01*
X258014166Y-87125523D01*
X258210477Y-87122221D01*
X258348466Y-87085247D01*
X258520127Y-86989951D01*
X258599795Y-86919306D01*
X258667139Y-86802663D01*
X258676161Y-86652349D01*
X258614538Y-86422367D01*
X257987099Y-87576466D02*
X257953427Y-87634787D01*
X257932080Y-87739105D01*
X257993704Y-87969087D01*
X258064350Y-88048755D01*
X258122671Y-88082427D01*
X258226989Y-88103774D01*
X258318982Y-88079124D01*
X258444646Y-87996154D01*
X258848707Y-87296300D01*
X259008929Y-87894254D01*
X258129276Y-88475048D02*
X258289497Y-89073002D01*
X258571196Y-88652429D01*
X258608170Y-88790419D01*
X258678816Y-88870087D01*
X258737137Y-88903759D01*
X258841455Y-88925106D01*
X259071437Y-88863482D01*
X259151105Y-88792836D01*
X259184777Y-88734515D01*
X259206124Y-88630197D01*
X259132176Y-88354218D01*
X259061530Y-88274550D01*
X259003209Y-88240878D01*
X239164538Y-87552367D02*
X238198612Y-87811186D01*
X238260235Y-88041168D01*
X238343206Y-88166833D01*
X238459848Y-88234176D01*
X238564166Y-88255523D01*
X238760477Y-88252221D01*
X238898466Y-88215247D01*
X239070127Y-88119951D01*
X239149795Y-88049306D01*
X239217139Y-87932663D01*
X239226161Y-87782349D01*
X239164538Y-87552367D01*
X238537099Y-88706466D02*
X238503427Y-88764787D01*
X238482080Y-88869105D01*
X238543704Y-89099087D01*
X238614350Y-89178755D01*
X238672671Y-89212427D01*
X238776989Y-89233774D01*
X238868982Y-89209124D01*
X238994646Y-89126154D01*
X239398707Y-88426300D01*
X239558929Y-89024254D01*
X238783593Y-89626395D02*
X238749922Y-89684716D01*
X238728575Y-89789034D01*
X238790198Y-90019016D01*
X238860844Y-90098684D01*
X238919165Y-90132356D01*
X239023483Y-90153703D01*
X239115476Y-90129054D01*
X239241141Y-90046083D01*
X239645202Y-89346229D01*
X239805423Y-89944183D01*
X219714538Y-88632367D02*
X218748612Y-88891186D01*
X218810235Y-89121168D01*
X218893206Y-89246833D01*
X219009848Y-89314176D01*
X219114166Y-89335523D01*
X219310477Y-89332221D01*
X219448466Y-89295247D01*
X219620127Y-89199951D01*
X219699795Y-89129306D01*
X219767139Y-89012663D01*
X219776161Y-88862349D01*
X219714538Y-88632367D01*
X219087099Y-89786466D02*
X219053427Y-89844787D01*
X219032080Y-89949105D01*
X219093704Y-90179087D01*
X219164350Y-90258755D01*
X219222671Y-90292427D01*
X219326989Y-90313774D01*
X219418982Y-90289124D01*
X219544646Y-90206154D01*
X219948707Y-89506300D01*
X220108929Y-90104254D01*
X220355423Y-91024183D02*
X220207526Y-90472225D01*
X220281475Y-90748204D02*
X219315549Y-91007023D01*
X219428889Y-90878056D01*
X219496232Y-90761414D01*
X219517579Y-90657096D01*
X202384538Y-97442367D02*
X201418612Y-97701186D01*
X201480235Y-97931168D01*
X201563206Y-98056833D01*
X201679848Y-98124176D01*
X201784166Y-98145523D01*
X201980477Y-98142221D01*
X202118466Y-98105247D01*
X202290127Y-98009951D01*
X202369795Y-97939306D01*
X202437139Y-97822663D01*
X202446161Y-97672349D01*
X202384538Y-97442367D01*
X201757099Y-98596466D02*
X201723427Y-98654787D01*
X201702080Y-98759105D01*
X201763704Y-98989087D01*
X201834350Y-99068755D01*
X201892671Y-99102427D01*
X201996989Y-99123774D01*
X202088982Y-99099124D01*
X202214646Y-99016154D01*
X202618707Y-98316300D01*
X202778929Y-98914254D01*
X201973224Y-99771027D02*
X201997874Y-99863020D01*
X202068519Y-99942688D01*
X202126841Y-99976360D01*
X202231158Y-99997707D01*
X202427469Y-99994404D01*
X202657451Y-99932781D01*
X202829112Y-99837485D01*
X202908781Y-99766840D01*
X202942452Y-99708518D01*
X202963799Y-99604201D01*
X202939150Y-99512208D01*
X202868504Y-99432540D01*
X202810183Y-99398868D01*
X202705865Y-99377521D01*
X202509555Y-99380823D01*
X202279572Y-99442447D01*
X202107911Y-99537742D01*
X202028243Y-99608388D01*
X201994571Y-99666709D01*
X201973224Y-99771027D01*
X185014538Y-106202367D02*
X184048612Y-106461186D01*
X184110235Y-106691168D01*
X184193206Y-106816833D01*
X184309848Y-106884176D01*
X184414166Y-106905523D01*
X184610477Y-106902221D01*
X184748466Y-106865247D01*
X184920127Y-106769951D01*
X184999795Y-106699306D01*
X185067139Y-106582663D01*
X185076161Y-106432349D01*
X185014538Y-106202367D01*
X185408929Y-107674254D02*
X185261032Y-107122296D01*
X185334980Y-107398275D02*
X184369054Y-107657094D01*
X184482394Y-107528127D01*
X184549738Y-107411485D01*
X184571085Y-107307167D01*
X185532176Y-108134218D02*
X185581475Y-108318204D01*
X185560128Y-108422522D01*
X185526456Y-108480843D01*
X185413116Y-108609810D01*
X185241455Y-108705106D01*
X184873483Y-108803703D01*
X184769165Y-108782356D01*
X184710844Y-108748684D01*
X184640198Y-108669016D01*
X184590899Y-108485030D01*
X184612246Y-108380713D01*
X184645918Y-108322392D01*
X184725586Y-108251746D01*
X184955569Y-108190122D01*
X185059886Y-108211469D01*
X185118208Y-108245141D01*
X185188853Y-108324809D01*
X185238152Y-108508795D01*
X185216805Y-108613113D01*
X185183134Y-108671434D01*
X185103465Y-108742080D01*
X127083098Y-110671812D02*
X126117172Y-110412993D01*
X126055549Y-110642976D01*
X126064571Y-110793290D01*
X126131915Y-110909932D01*
X126211583Y-110980578D01*
X126383244Y-111075873D01*
X126521233Y-111112848D01*
X126717544Y-111116150D01*
X126821862Y-111094803D01*
X126938504Y-111027459D01*
X127021475Y-110901795D01*
X127083098Y-110671812D01*
X126688707Y-112143699D02*
X126836604Y-111591742D01*
X126762656Y-111867721D02*
X125796730Y-111608901D01*
X125959369Y-111553883D01*
X126076011Y-111486539D01*
X126146657Y-111406871D01*
X125988853Y-112547760D02*
X125967506Y-112443443D01*
X125933834Y-112385122D01*
X125854166Y-112314476D01*
X125808170Y-112302151D01*
X125703852Y-112323498D01*
X125645531Y-112357170D01*
X125574885Y-112436838D01*
X125525586Y-112620824D01*
X125546933Y-112725141D01*
X125580605Y-112783463D01*
X125660273Y-112854109D01*
X125706269Y-112866433D01*
X125810587Y-112845086D01*
X125868908Y-112811414D01*
X125939554Y-112731746D01*
X125988853Y-112547760D01*
X126059499Y-112468092D01*
X126117820Y-112434420D01*
X126222138Y-112413073D01*
X126406124Y-112462372D01*
X126485792Y-112533018D01*
X126519464Y-112591339D01*
X126540811Y-112695657D01*
X126491512Y-112879643D01*
X126420866Y-112959311D01*
X126362545Y-112992983D01*
X126258227Y-113014330D01*
X126074241Y-112965031D01*
X125994573Y-112894385D01*
X125960901Y-112836064D01*
X125939554Y-112731746D01*
X109753098Y-101811812D02*
X108787172Y-101552993D01*
X108725549Y-101782976D01*
X108734571Y-101933290D01*
X108801915Y-102049932D01*
X108881583Y-102120578D01*
X109053244Y-102215873D01*
X109191233Y-102252848D01*
X109387544Y-102256150D01*
X109491862Y-102234803D01*
X109608504Y-102167459D01*
X109691475Y-102041795D01*
X109753098Y-101811812D01*
X109358707Y-103283699D02*
X109506604Y-102731742D01*
X109432656Y-103007721D02*
X108466730Y-102748901D01*
X108629369Y-102693883D01*
X108746011Y-102626539D01*
X108816657Y-102546871D01*
X108306508Y-103346856D02*
X108133962Y-103990806D01*
X109210811Y-103835657D01*
X92363098Y-93081812D02*
X91397172Y-92822993D01*
X91335549Y-93052976D01*
X91344571Y-93203290D01*
X91411915Y-93319932D01*
X91491583Y-93390578D01*
X91663244Y-93485873D01*
X91801233Y-93522848D01*
X91997544Y-93526150D01*
X92101862Y-93504803D01*
X92218504Y-93437459D01*
X92301475Y-93311795D01*
X92363098Y-93081812D01*
X91968707Y-94553699D02*
X92116604Y-94001742D01*
X92042656Y-94277721D02*
X91076730Y-94018901D01*
X91239369Y-93963883D01*
X91356011Y-93896539D01*
X91426657Y-93816871D01*
X90780937Y-95122817D02*
X90830235Y-94938831D01*
X90900881Y-94859163D01*
X90959203Y-94825491D01*
X91121841Y-94770472D01*
X91318152Y-94773774D01*
X91686124Y-94872372D01*
X91765792Y-94943018D01*
X91799464Y-95001339D01*
X91820811Y-95105657D01*
X91771512Y-95289643D01*
X91700866Y-95369311D01*
X91642545Y-95402983D01*
X91538227Y-95424330D01*
X91308245Y-95362706D01*
X91228577Y-95292060D01*
X91194905Y-95233739D01*
X91173558Y-95129422D01*
X91222857Y-94945436D01*
X91293503Y-94865767D01*
X91351824Y-94832096D01*
X91456141Y-94810749D01*
X72883098Y-91991812D02*
X71917172Y-91732993D01*
X71855549Y-91962976D01*
X71864571Y-92113290D01*
X71931915Y-92229932D01*
X72011583Y-92300578D01*
X72183244Y-92395873D01*
X72321233Y-92432848D01*
X72517544Y-92436150D01*
X72621862Y-92414803D01*
X72738504Y-92347459D01*
X72821475Y-92221795D01*
X72883098Y-91991812D01*
X72488707Y-93463699D02*
X72636604Y-92911742D01*
X72562656Y-93187721D02*
X71596730Y-92928901D01*
X71759369Y-92873883D01*
X71876011Y-92806539D01*
X71946657Y-92726871D01*
X71288612Y-94078813D02*
X71411859Y-93618849D01*
X71884148Y-93696099D01*
X71825827Y-93729771D01*
X71755181Y-93809439D01*
X71693558Y-94039422D01*
X71714905Y-94143739D01*
X71748577Y-94202060D01*
X71828245Y-94272706D01*
X72058227Y-94334330D01*
X72162545Y-94312983D01*
X72220866Y-94279311D01*
X72291512Y-94199643D01*
X72353135Y-93969660D01*
X72331788Y-93865343D01*
X72298117Y-93807022D01*
X53473098Y-90981812D02*
X52507172Y-90722993D01*
X52445549Y-90952976D01*
X52454571Y-91103290D01*
X52521915Y-91219932D01*
X52601583Y-91290578D01*
X52773244Y-91385873D01*
X52911233Y-91422848D01*
X53107544Y-91426150D01*
X53211862Y-91404803D01*
X53328504Y-91337459D01*
X53411475Y-91211795D01*
X53473098Y-90981812D01*
X53078707Y-92453699D02*
X53226604Y-91901742D01*
X53152656Y-92177721D02*
X52186730Y-91918901D01*
X52349369Y-91863883D01*
X52466011Y-91796539D01*
X52536657Y-91716871D01*
X52212912Y-93109090D02*
X52856862Y-93281636D01*
X51906564Y-92780510D02*
X52658134Y-92735398D01*
X52497913Y-93333352D01*
X34073098Y-89851812D02*
X33107172Y-89592993D01*
X33045549Y-89822976D01*
X33054571Y-89973290D01*
X33121915Y-90089932D01*
X33201583Y-90160578D01*
X33373244Y-90255873D01*
X33511233Y-90292848D01*
X33707544Y-90296150D01*
X33811862Y-90274803D01*
X33928504Y-90207459D01*
X34011475Y-90081795D01*
X34073098Y-89851812D01*
X33678707Y-91323699D02*
X33826604Y-90771742D01*
X33752656Y-91047721D02*
X32786730Y-90788901D01*
X32949369Y-90733883D01*
X33066011Y-90666539D01*
X33136657Y-90586871D01*
X32626508Y-91386856D02*
X32466287Y-91984810D01*
X32920532Y-91761432D01*
X32883558Y-91899422D01*
X32904905Y-92003739D01*
X32938577Y-92062060D01*
X33018245Y-92132706D01*
X33248227Y-92194330D01*
X33352545Y-92172983D01*
X33410866Y-92139311D01*
X33481512Y-92059643D01*
X33555460Y-91783664D01*
X33534113Y-91679346D01*
X33500441Y-91621025D01*
X273114538Y-67022367D02*
X272148612Y-67281186D01*
X272210235Y-67511168D01*
X272293206Y-67636833D01*
X272409848Y-67704176D01*
X272514166Y-67725523D01*
X272710477Y-67722221D01*
X272848466Y-67685247D01*
X273020127Y-67589951D01*
X273099795Y-67519306D01*
X273167139Y-67402663D01*
X273176161Y-67252349D01*
X273114538Y-67022367D01*
X273508929Y-68494254D02*
X273361032Y-67942296D01*
X273434980Y-68218275D02*
X272469054Y-68477094D01*
X272582394Y-68348127D01*
X272649738Y-68231485D01*
X272671085Y-68127167D01*
X272733593Y-69096395D02*
X272699922Y-69154716D01*
X272678575Y-69259034D01*
X272740198Y-69489016D01*
X272810844Y-69568684D01*
X272869165Y-69602356D01*
X272973483Y-69623703D01*
X273065476Y-69599054D01*
X273191141Y-69516083D01*
X273595202Y-68816229D01*
X273755423Y-69414183D01*
X253744538Y-68102367D02*
X252778612Y-68361186D01*
X252840235Y-68591168D01*
X252923206Y-68716833D01*
X253039848Y-68784176D01*
X253144166Y-68805523D01*
X253340477Y-68802221D01*
X253478466Y-68765247D01*
X253650127Y-68669951D01*
X253729795Y-68599306D01*
X253797139Y-68482663D01*
X253806161Y-68332349D01*
X253744538Y-68102367D01*
X254138929Y-69574254D02*
X253991032Y-69022296D01*
X254064980Y-69298275D02*
X253099054Y-69557094D01*
X253212394Y-69428127D01*
X253279738Y-69311485D01*
X253301085Y-69207167D01*
X254385423Y-70494183D02*
X254237526Y-69942225D01*
X254311475Y-70218204D02*
X253345549Y-70477023D01*
X253458889Y-70348056D01*
X253526232Y-70231414D01*
X253547579Y-70127096D01*
X234244538Y-69122367D02*
X233278612Y-69381186D01*
X233340235Y-69611168D01*
X233423206Y-69736833D01*
X233539848Y-69804176D01*
X233644166Y-69825523D01*
X233840477Y-69822221D01*
X233978466Y-69785247D01*
X234150127Y-69689951D01*
X234229795Y-69619306D01*
X234297139Y-69502663D01*
X234306161Y-69352349D01*
X234244538Y-69122367D01*
X234638929Y-70594254D02*
X234491032Y-70042296D01*
X234564980Y-70318275D02*
X233599054Y-70577094D01*
X233712394Y-70448127D01*
X233779738Y-70331485D01*
X233801085Y-70227167D01*
X233833224Y-71451027D02*
X233857874Y-71543020D01*
X233928519Y-71622688D01*
X233986841Y-71656360D01*
X234091158Y-71677707D01*
X234287469Y-71674404D01*
X234517451Y-71612781D01*
X234689112Y-71517485D01*
X234768781Y-71446840D01*
X234802452Y-71388518D01*
X234823799Y-71284201D01*
X234799150Y-71192208D01*
X234728504Y-71112540D01*
X234670183Y-71078868D01*
X234565865Y-71057521D01*
X234369555Y-71060823D01*
X234139572Y-71122447D01*
X233967911Y-71217742D01*
X233888243Y-71288388D01*
X233854571Y-71346709D01*
X233833224Y-71451027D01*
X214917785Y-70712331D02*
X213951859Y-70971150D01*
X214013483Y-71201133D01*
X214096453Y-71326798D01*
X214213096Y-71394141D01*
X214317413Y-71415488D01*
X214513724Y-71412186D01*
X214651713Y-71375212D01*
X214823374Y-71279916D01*
X214903043Y-71209270D01*
X214970386Y-71092628D01*
X214979408Y-70942314D01*
X214917785Y-70712331D01*
X215188929Y-71724254D02*
X215238227Y-71908240D01*
X215216880Y-72012557D01*
X215183209Y-72070878D01*
X215069869Y-72199846D01*
X214898208Y-72295141D01*
X214530236Y-72393739D01*
X214425918Y-72372392D01*
X214367597Y-72338720D01*
X214296951Y-72259052D01*
X214247652Y-72075066D01*
X214268999Y-71970748D01*
X214302671Y-71912427D01*
X214382339Y-71841781D01*
X214612322Y-71780157D01*
X214716639Y-71801504D01*
X214774960Y-71835176D01*
X214845606Y-71914844D01*
X214894905Y-72098830D01*
X214873558Y-72203148D01*
X214839886Y-72261469D01*
X214760218Y-72332115D01*
X197577785Y-79502331D02*
X196611859Y-79761150D01*
X196673483Y-79991133D01*
X196756453Y-80116798D01*
X196873096Y-80184141D01*
X196977413Y-80205488D01*
X197173724Y-80202186D01*
X197311713Y-80165212D01*
X197483374Y-80069916D01*
X197563043Y-79999270D01*
X197630386Y-79882628D01*
X197639408Y-79732314D01*
X197577785Y-79502331D01*
X197321620Y-80754143D02*
X197250975Y-80674475D01*
X197192653Y-80640803D01*
X197088336Y-80619456D01*
X197042339Y-80631781D01*
X196962671Y-80702427D01*
X196928999Y-80760748D01*
X196907652Y-80865066D01*
X196956951Y-81049052D01*
X197027597Y-81128720D01*
X197085918Y-81162392D01*
X197190236Y-81183739D01*
X197236232Y-81171414D01*
X197315900Y-81100768D01*
X197349572Y-81042447D01*
X197370919Y-80938129D01*
X197321620Y-80754143D01*
X197342967Y-80649826D01*
X197376639Y-80591504D01*
X197456307Y-80520859D01*
X197640293Y-80471560D01*
X197744611Y-80492907D01*
X197802932Y-80526578D01*
X197873578Y-80606247D01*
X197922877Y-80790233D01*
X197901530Y-80894550D01*
X197867858Y-80952871D01*
X197788190Y-81023517D01*
X197604204Y-81072816D01*
X197499886Y-81051469D01*
X197441565Y-81017797D01*
X197370919Y-80938129D01*
X180197785Y-88292331D02*
X179231859Y-88551150D01*
X179293483Y-88781133D01*
X179376453Y-88906798D01*
X179493096Y-88974141D01*
X179597413Y-88995488D01*
X179793724Y-88992186D01*
X179931713Y-88955212D01*
X180103374Y-88859916D01*
X180183043Y-88789270D01*
X180250386Y-88672628D01*
X180259408Y-88522314D01*
X180197785Y-88292331D01*
X179466029Y-89425083D02*
X179638575Y-90069034D01*
X180493578Y-89396247D01*
X131829851Y-92711777D02*
X130863925Y-92452958D01*
X130802302Y-92682940D01*
X130811324Y-92833254D01*
X130878667Y-92949897D01*
X130958336Y-93020543D01*
X131129997Y-93115838D01*
X131267986Y-93152812D01*
X131464297Y-93156115D01*
X131568614Y-93134768D01*
X131685257Y-93067424D01*
X131768227Y-92941759D01*
X131829851Y-92711777D01*
X130494184Y-93832852D02*
X130543483Y-93648866D01*
X130614128Y-93569198D01*
X130672450Y-93535526D01*
X130835089Y-93480507D01*
X131031399Y-93483810D01*
X131399371Y-93582408D01*
X131479039Y-93653053D01*
X131512711Y-93711375D01*
X131534058Y-93815692D01*
X131484759Y-93999678D01*
X131414113Y-94079346D01*
X131355792Y-94113018D01*
X131251474Y-94134365D01*
X131021492Y-94072742D01*
X130941824Y-94002096D01*
X130908152Y-93943774D01*
X130886805Y-93839457D01*
X130936104Y-93655471D01*
X131006750Y-93575803D01*
X131065071Y-93542131D01*
X131169389Y-93520784D01*
X114529851Y-83931777D02*
X113563925Y-83672958D01*
X113502302Y-83902940D01*
X113511324Y-84053254D01*
X113578667Y-84169897D01*
X113658336Y-84240543D01*
X113829997Y-84335838D01*
X113967986Y-84372812D01*
X114164297Y-84376115D01*
X114268614Y-84354768D01*
X114385257Y-84287424D01*
X114468227Y-84161759D01*
X114529851Y-83931777D01*
X113181859Y-85098849D02*
X113305106Y-84638884D01*
X113777396Y-84716135D01*
X113719074Y-84749806D01*
X113648428Y-84829475D01*
X113586805Y-85059457D01*
X113608152Y-85163774D01*
X113641824Y-85222096D01*
X113721492Y-85292742D01*
X113951474Y-85354365D01*
X114055792Y-85333018D01*
X114114113Y-85299346D01*
X114184759Y-85219678D01*
X114246383Y-84989696D01*
X114225036Y-84885378D01*
X114191364Y-84827057D01*
X97169851Y-75111777D02*
X96203925Y-74852958D01*
X96142302Y-75082940D01*
X96151324Y-75233254D01*
X96218667Y-75349897D01*
X96298336Y-75420543D01*
X96469997Y-75515838D01*
X96607986Y-75552812D01*
X96804297Y-75556115D01*
X96908614Y-75534768D01*
X97025257Y-75467424D01*
X97108227Y-75341759D01*
X97169851Y-75111777D01*
X96156159Y-76319125D02*
X96800110Y-76491671D01*
X95849811Y-75990545D02*
X96601381Y-75945433D01*
X96441160Y-76543387D01*
X77759851Y-74031777D02*
X76793925Y-73772958D01*
X76732302Y-74002940D01*
X76741324Y-74153254D01*
X76808667Y-74269897D01*
X76888336Y-74340543D01*
X77059997Y-74435838D01*
X77197986Y-74472812D01*
X77394297Y-74476115D01*
X77498614Y-74454768D01*
X77615257Y-74387424D01*
X77698227Y-74261759D01*
X77759851Y-74031777D01*
X76559756Y-74646891D02*
X76399534Y-75244845D01*
X76853779Y-75021467D01*
X76816805Y-75159457D01*
X76838152Y-75263774D01*
X76871824Y-75322096D01*
X76951492Y-75392742D01*
X77181474Y-75454365D01*
X77285792Y-75433018D01*
X77344113Y-75399346D01*
X77414759Y-75319678D01*
X77488707Y-75043699D01*
X77467360Y-74939382D01*
X77433689Y-74881061D01*
X57159851Y-72731777D02*
X56193925Y-72472958D01*
X56132302Y-72702940D01*
X56141324Y-72853254D01*
X56208667Y-72969897D01*
X56288336Y-73040543D01*
X56459997Y-73135838D01*
X56597986Y-73172812D01*
X56794297Y-73176115D01*
X56898614Y-73154768D01*
X57015257Y-73087424D01*
X57098227Y-72961759D01*
X57159851Y-72731777D01*
X56039424Y-73417537D02*
X55981103Y-73451209D01*
X55910457Y-73530877D01*
X55848833Y-73760859D01*
X55870180Y-73865177D01*
X55903852Y-73923498D01*
X55983520Y-73994144D01*
X56075513Y-74018793D01*
X56225827Y-74009771D01*
X56925681Y-73605710D01*
X56765460Y-74203664D01*
X35919851Y-70701777D02*
X34953925Y-70442958D01*
X34892302Y-70672940D01*
X34901324Y-70823254D01*
X34968667Y-70939897D01*
X35048336Y-71010543D01*
X35219997Y-71105838D01*
X35357986Y-71142812D01*
X35554297Y-71146115D01*
X35658614Y-71124768D01*
X35775257Y-71057424D01*
X35858227Y-70931759D01*
X35919851Y-70701777D01*
X35525460Y-72173664D02*
X35673357Y-71621706D01*
X35599408Y-71897685D02*
X34633483Y-71638866D01*
X34796121Y-71583847D01*
X34912764Y-71516504D01*
X34983410Y-71436836D01*
X149739523Y-83636661D02*
X149596666Y-83684280D01*
X149358571Y-83684280D01*
X149263333Y-83636661D01*
X149215714Y-83589042D01*
X149168095Y-83493804D01*
X149168095Y-83398566D01*
X149215714Y-83303328D01*
X149263333Y-83255709D01*
X149358571Y-83208090D01*
X149549047Y-83160471D01*
X149644285Y-83112852D01*
X149691904Y-83065233D01*
X149739523Y-82969995D01*
X149739523Y-82874757D01*
X149691904Y-82779519D01*
X149644285Y-82731900D01*
X149549047Y-82684280D01*
X149310952Y-82684280D01*
X149168095Y-82731900D01*
X148834761Y-82684280D02*
X148596666Y-83684280D01*
X148406190Y-82969995D01*
X148215714Y-83684280D01*
X147977619Y-82684280D01*
X147168095Y-83017614D02*
X147168095Y-83684280D01*
X147406190Y-82636661D02*
X147644285Y-83350947D01*
X147025238Y-83350947D01*
X146215714Y-83017614D02*
X146215714Y-83684280D01*
X146453809Y-82636661D02*
X146691904Y-83350947D01*
X146072857Y-83350947D01*
X147930000Y-80632380D02*
X147930000Y-80870476D01*
X148168095Y-80775238D02*
X147930000Y-80870476D01*
X147691904Y-80775238D01*
X148072857Y-81060952D02*
X147930000Y-80870476D01*
X147787142Y-81060952D01*
D11*
X212958269Y-144564514D02*
X211948874Y-140797403D01*
X212958269Y-144564514D02*
X211026417Y-145082152D01*
X211500587Y-142988074D02*
X211731666Y-142304991D01*
X210958925Y-142512046D02*
X211500587Y-142988074D01*
X211731666Y-142304991D02*
X210958925Y-142512046D01*
X211026417Y-145082152D02*
X210017023Y-141315041D01*
X211604114Y-143374444D02*
X211500587Y-142988074D01*
X211345295Y-142408519D02*
X211215886Y-141925556D01*
X212031846Y-142845724D02*
X210969327Y-143130425D01*
X194555320Y-149448292D02*
X193545925Y-145681181D01*
X194555320Y-149448292D02*
X192623468Y-149965930D01*
X193097638Y-147871852D02*
X193328717Y-147188769D01*
X192555976Y-147395824D02*
X193097638Y-147871852D01*
X193328717Y-147188769D02*
X192555976Y-147395824D01*
X192623468Y-149965930D02*
X191614074Y-146198819D01*
X193201165Y-148258222D02*
X193097638Y-147871852D01*
X192942346Y-147292297D02*
X192812937Y-146809334D01*
X193628897Y-147729502D02*
X192566378Y-148014203D01*
X174351025Y-153218557D02*
X172401025Y-149841058D01*
X174351025Y-153218557D02*
X172618975Y-154218557D01*
X172535000Y-152073109D02*
X172581410Y-151353494D01*
X171888590Y-151753494D02*
X172535000Y-152073109D01*
X172581410Y-151353494D02*
X171888590Y-151753494D01*
X172618975Y-154218557D02*
X170668975Y-150841058D01*
X172735000Y-152419519D02*
X172535000Y-152073109D01*
X172235000Y-151553494D02*
X171985000Y-151120481D01*
X173011314Y-151798109D02*
X172058686Y-152348109D01*
X137441025Y-158158557D02*
X139391025Y-154781058D01*
X137441025Y-158158557D02*
X135708975Y-157158557D01*
X137525000Y-156013109D02*
X138171410Y-155693494D01*
X137478590Y-155293494D02*
X137525000Y-156013109D01*
X138171410Y-155693494D02*
X137478590Y-155293494D01*
X135708975Y-157158557D02*
X137658975Y-153781058D01*
X137325000Y-156359519D02*
X137525000Y-156013109D01*
X137825000Y-155493494D02*
X138075000Y-155060481D01*
X138001314Y-156288109D02*
X137048686Y-155738109D01*
X114753583Y-153212152D02*
X115762977Y-149445041D01*
X114753583Y-153212152D02*
X112821731Y-152694514D01*
X114279413Y-151118074D02*
X114821075Y-150642046D01*
X114048334Y-150434991D02*
X114279413Y-151118074D01*
X114821075Y-150642046D02*
X114048334Y-150434991D01*
X112821731Y-152694514D02*
X113831126Y-148927403D01*
X114175886Y-151504444D02*
X114279413Y-151118074D01*
X114434705Y-150538519D02*
X114564114Y-150055556D01*
X114810673Y-151260425D02*
X113748154Y-150975724D01*
X96333583Y-148212152D02*
X97342977Y-144445041D01*
X96333583Y-148212152D02*
X94401731Y-147694514D01*
X95859413Y-146118074D02*
X96401075Y-145642046D01*
X95628334Y-145434991D02*
X95859413Y-146118074D01*
X96401075Y-145642046D02*
X95628334Y-145434991D01*
X94401731Y-147694514D02*
X95411126Y-143927403D01*
X95755886Y-146504444D02*
X95859413Y-146118074D01*
X96014705Y-145538519D02*
X96144114Y-145055556D01*
X96390673Y-146260425D02*
X95328154Y-145975724D01*
X282488269Y-107554514D02*
X281478874Y-103787403D01*
X282488269Y-107554514D02*
X280556417Y-108072152D01*
X281030587Y-105978074D02*
X281261666Y-105294991D01*
X280488925Y-105502046D02*
X281030587Y-105978074D01*
X281261666Y-105294991D02*
X280488925Y-105502046D01*
X280556417Y-108072152D02*
X279547023Y-104305041D01*
X281134114Y-106364444D02*
X281030587Y-105978074D01*
X280875295Y-105398519D02*
X280745886Y-104915556D01*
X281561846Y-105835724D02*
X280499327Y-106120425D01*
X263028269Y-108574514D02*
X262018874Y-104807403D01*
X263028269Y-108574514D02*
X261096417Y-109092152D01*
X261570587Y-106998074D02*
X261801666Y-106314991D01*
X261028925Y-106522046D02*
X261570587Y-106998074D01*
X261801666Y-106314991D02*
X261028925Y-106522046D01*
X261096417Y-109092152D02*
X260087023Y-105325041D01*
X261674114Y-107384444D02*
X261570587Y-106998074D01*
X261415295Y-106418519D02*
X261285886Y-105935556D01*
X262101846Y-106855724D02*
X261039327Y-107140425D01*
X243638269Y-109714514D02*
X242628874Y-105947403D01*
X243638269Y-109714514D02*
X241706417Y-110232152D01*
X242180587Y-108138074D02*
X242411666Y-107454991D01*
X241638925Y-107662046D02*
X242180587Y-108138074D01*
X242411666Y-107454991D02*
X241638925Y-107662046D01*
X241706417Y-110232152D02*
X240697023Y-106465041D01*
X242284114Y-108524444D02*
X242180587Y-108138074D01*
X242025295Y-107558519D02*
X241895886Y-107075556D01*
X242711846Y-107995724D02*
X241649327Y-108280425D01*
X224248269Y-110794514D02*
X223238874Y-107027403D01*
X224248269Y-110794514D02*
X222316417Y-111312152D01*
X222790587Y-109218074D02*
X223021666Y-108534991D01*
X222248925Y-108742046D02*
X222790587Y-109218074D01*
X223021666Y-108534991D02*
X222248925Y-108742046D01*
X222316417Y-111312152D02*
X221307023Y-107545041D01*
X222894114Y-109604444D02*
X222790587Y-109218074D01*
X222635295Y-108638519D02*
X222505886Y-108155556D01*
X223321846Y-109075724D02*
X222259327Y-109360425D01*
X206828269Y-119614514D02*
X205818874Y-115847403D01*
X206828269Y-119614514D02*
X204896417Y-120132152D01*
X205370587Y-118038074D02*
X205601666Y-117354991D01*
X204828925Y-117562046D02*
X205370587Y-118038074D01*
X205601666Y-117354991D02*
X204828925Y-117562046D01*
X204896417Y-120132152D02*
X203887023Y-116365041D01*
X205474114Y-118424444D02*
X205370587Y-118038074D01*
X205215295Y-117458519D02*
X205085886Y-116975556D01*
X205901846Y-117895724D02*
X204839327Y-118180425D01*
X189505320Y-128358292D02*
X188495925Y-124591181D01*
X189505320Y-128358292D02*
X187573468Y-128875930D01*
X188047638Y-126781852D02*
X188278717Y-126098769D01*
X187505976Y-126305824D02*
X188047638Y-126781852D01*
X188278717Y-126098769D02*
X187505976Y-126305824D01*
X187573468Y-128875930D02*
X186564074Y-125108819D01*
X188151165Y-127168222D02*
X188047638Y-126781852D01*
X187892346Y-126202297D02*
X187762937Y-125719334D01*
X188578897Y-126639502D02*
X187516378Y-126924203D01*
X119873583Y-132012152D02*
X120882977Y-128245041D01*
X119873583Y-132012152D02*
X117941731Y-131494514D01*
X119399413Y-129918074D02*
X119941075Y-129442046D01*
X119168334Y-129234991D02*
X119399413Y-129918074D01*
X119941075Y-129442046D02*
X119168334Y-129234991D01*
X117941731Y-131494514D02*
X118951126Y-127727403D01*
X119295886Y-130304444D02*
X119399413Y-129918074D01*
X119554705Y-129338519D02*
X119684114Y-128855556D01*
X119930673Y-130060425D02*
X118868154Y-129775724D01*
X102473583Y-123232152D02*
X103482977Y-119465041D01*
X102473583Y-123232152D02*
X100541731Y-122714514D01*
X101999413Y-121138074D02*
X102541075Y-120662046D01*
X101768334Y-120454991D02*
X101999413Y-121138074D01*
X102541075Y-120662046D02*
X101768334Y-120454991D01*
X100541731Y-122714514D02*
X101551126Y-118947403D01*
X101895886Y-121524444D02*
X101999413Y-121138074D01*
X102154705Y-120558519D02*
X102284114Y-120075556D01*
X102530673Y-121280425D02*
X101468154Y-120995724D01*
X85123583Y-114442152D02*
X86132977Y-110675041D01*
X85123583Y-114442152D02*
X83191731Y-113924514D01*
X84649413Y-112348074D02*
X85191075Y-111872046D01*
X84418334Y-111664991D02*
X84649413Y-112348074D01*
X85191075Y-111872046D02*
X84418334Y-111664991D01*
X83191731Y-113924514D02*
X84201126Y-110157403D01*
X84545886Y-112734444D02*
X84649413Y-112348074D01*
X84804705Y-111768519D02*
X84934114Y-111285556D01*
X85180673Y-112490425D02*
X84118154Y-112205724D01*
X65693583Y-113362152D02*
X66702977Y-109595041D01*
X65693583Y-113362152D02*
X63761731Y-112844514D01*
X65219413Y-111268074D02*
X65761075Y-110792046D01*
X64988334Y-110584991D02*
X65219413Y-111268074D01*
X65761075Y-110792046D02*
X64988334Y-110584991D01*
X63761731Y-112844514D02*
X64771126Y-109077403D01*
X65115886Y-111654444D02*
X65219413Y-111268074D01*
X65374705Y-110688519D02*
X65504114Y-110205556D01*
X65750673Y-111410425D02*
X64688154Y-111125724D01*
X46303583Y-112282152D02*
X47312977Y-108515041D01*
X46303583Y-112282152D02*
X44371731Y-111764514D01*
X45829413Y-110188074D02*
X46371075Y-109712046D01*
X45598334Y-109504991D02*
X45829413Y-110188074D01*
X46371075Y-109712046D02*
X45598334Y-109504991D01*
X44371731Y-111764514D02*
X45381126Y-107997403D01*
X45725886Y-110574444D02*
X45829413Y-110188074D01*
X45984705Y-109608519D02*
X46114114Y-109125556D01*
X46360673Y-110330425D02*
X45298154Y-110045724D01*
X26843583Y-111192152D02*
X27852977Y-107425041D01*
X26843583Y-111192152D02*
X24911731Y-110674514D01*
X26369413Y-109098074D02*
X26911075Y-108622046D01*
X26138334Y-108414991D02*
X26369413Y-109098074D01*
X26911075Y-108622046D02*
X26138334Y-108414991D01*
X24911731Y-110674514D02*
X25921126Y-106907403D01*
X26265886Y-109484444D02*
X26369413Y-109098074D01*
X26524705Y-108518519D02*
X26654114Y-108035556D01*
X26900673Y-109240425D02*
X25838154Y-108955724D01*
X277548269Y-89124514D02*
X276538874Y-85357403D01*
X277548269Y-89124514D02*
X275616417Y-89642152D01*
X276090587Y-87548074D02*
X276321666Y-86864991D01*
X275548925Y-87072046D02*
X276090587Y-87548074D01*
X276321666Y-86864991D02*
X275548925Y-87072046D01*
X275616417Y-89642152D02*
X274607023Y-85875041D01*
X276194114Y-87934444D02*
X276090587Y-87548074D01*
X275935295Y-86968519D02*
X275805886Y-86485556D01*
X276621846Y-87405724D02*
X275559327Y-87690425D01*
X258108269Y-90144514D02*
X257098874Y-86377403D01*
X258108269Y-90144514D02*
X256176417Y-90662152D01*
X256650587Y-88568074D02*
X256881666Y-87884991D01*
X256108925Y-88092046D02*
X256650587Y-88568074D01*
X256881666Y-87884991D02*
X256108925Y-88092046D01*
X256176417Y-90662152D02*
X255167023Y-86895041D01*
X256754114Y-88954444D02*
X256650587Y-88568074D01*
X256495295Y-87988519D02*
X256365886Y-87505556D01*
X257181846Y-88425724D02*
X256119327Y-88710425D01*
X238658269Y-91274514D02*
X237648874Y-87507403D01*
X238658269Y-91274514D02*
X236726417Y-91792152D01*
X237200587Y-89698074D02*
X237431666Y-89014991D01*
X236658925Y-89222046D02*
X237200587Y-89698074D01*
X237431666Y-89014991D02*
X236658925Y-89222046D01*
X236726417Y-91792152D02*
X235717023Y-88025041D01*
X237304114Y-90084444D02*
X237200587Y-89698074D01*
X237045295Y-89118519D02*
X236915886Y-88635556D01*
X237731846Y-89555724D02*
X236669327Y-89840425D01*
X219208269Y-92354514D02*
X218198874Y-88587403D01*
X219208269Y-92354514D02*
X217276417Y-92872152D01*
X217750587Y-90778074D02*
X217981666Y-90094991D01*
X217208925Y-90302046D02*
X217750587Y-90778074D01*
X217981666Y-90094991D02*
X217208925Y-90302046D01*
X217276417Y-92872152D02*
X216267023Y-89105041D01*
X217854114Y-91164444D02*
X217750587Y-90778074D01*
X217595295Y-90198519D02*
X217465886Y-89715556D01*
X218281846Y-90635724D02*
X217219327Y-90920425D01*
X201878269Y-101164514D02*
X200868874Y-97397403D01*
X201878269Y-101164514D02*
X199946417Y-101682152D01*
X200420587Y-99588074D02*
X200651666Y-98904991D01*
X199878925Y-99112046D02*
X200420587Y-99588074D01*
X200651666Y-98904991D02*
X199878925Y-99112046D01*
X199946417Y-101682152D02*
X198937023Y-97915041D01*
X200524114Y-99974444D02*
X200420587Y-99588074D01*
X200265295Y-99008519D02*
X200135886Y-98525556D01*
X200951846Y-99445724D02*
X199889327Y-99730425D01*
X184508269Y-109924514D02*
X183498874Y-106157403D01*
X184508269Y-109924514D02*
X182576417Y-110442152D01*
X183050587Y-108348074D02*
X183281666Y-107664991D01*
X182508925Y-107872046D02*
X183050587Y-108348074D01*
X183281666Y-107664991D02*
X182508925Y-107872046D01*
X182576417Y-110442152D02*
X181567023Y-106675041D01*
X183154114Y-108734444D02*
X183050587Y-108348074D01*
X182895295Y-107768519D02*
X182765886Y-107285556D01*
X183581846Y-108205724D02*
X182519327Y-108490425D01*
X124783583Y-113642152D02*
X125792977Y-109875041D01*
X124783583Y-113642152D02*
X122851731Y-113124514D01*
X124309413Y-111548074D02*
X124851075Y-111072046D01*
X124078334Y-110864991D02*
X124309413Y-111548074D01*
X124851075Y-111072046D02*
X124078334Y-110864991D01*
X122851731Y-113124514D02*
X123861126Y-109357403D01*
X124205886Y-111934444D02*
X124309413Y-111548074D01*
X124464705Y-110968519D02*
X124594114Y-110485556D01*
X124840673Y-111690425D02*
X123778154Y-111405724D01*
X107453583Y-104782152D02*
X108462977Y-101015041D01*
X107453583Y-104782152D02*
X105521731Y-104264514D01*
X106979413Y-102688074D02*
X107521075Y-102212046D01*
X106748334Y-102004991D02*
X106979413Y-102688074D01*
X107521075Y-102212046D02*
X106748334Y-102004991D01*
X105521731Y-104264514D02*
X106531126Y-100497403D01*
X106875886Y-103074444D02*
X106979413Y-102688074D01*
X107134705Y-102108519D02*
X107264114Y-101625556D01*
X107510673Y-102830425D02*
X106448154Y-102545724D01*
X90063583Y-96052152D02*
X91072977Y-92285041D01*
X90063583Y-96052152D02*
X88131731Y-95534514D01*
X89589413Y-93958074D02*
X90131075Y-93482046D01*
X89358334Y-93274991D02*
X89589413Y-93958074D01*
X90131075Y-93482046D02*
X89358334Y-93274991D01*
X88131731Y-95534514D02*
X89141126Y-91767403D01*
X89485886Y-94344444D02*
X89589413Y-93958074D01*
X89744705Y-93378519D02*
X89874114Y-92895556D01*
X90120673Y-94100425D02*
X89058154Y-93815724D01*
X70583583Y-94962152D02*
X71592977Y-91195041D01*
X70583583Y-94962152D02*
X68651731Y-94444514D01*
X70109413Y-92868074D02*
X70651075Y-92392046D01*
X69878334Y-92184991D02*
X70109413Y-92868074D01*
X70651075Y-92392046D02*
X69878334Y-92184991D01*
X68651731Y-94444514D02*
X69661126Y-90677403D01*
X70005886Y-93254444D02*
X70109413Y-92868074D01*
X70264705Y-92288519D02*
X70394114Y-91805556D01*
X70640673Y-93010425D02*
X69578154Y-92725724D01*
X51173583Y-93952152D02*
X52182977Y-90185041D01*
X51173583Y-93952152D02*
X49241731Y-93434514D01*
X50699413Y-91858074D02*
X51241075Y-91382046D01*
X50468334Y-91174991D02*
X50699413Y-91858074D01*
X51241075Y-91382046D02*
X50468334Y-91174991D01*
X49241731Y-93434514D02*
X50251126Y-89667403D01*
X50595886Y-92244444D02*
X50699413Y-91858074D01*
X50854705Y-91278519D02*
X50984114Y-90795556D01*
X51230673Y-92000425D02*
X50168154Y-91715724D01*
X31773583Y-92822152D02*
X32782977Y-89055041D01*
X31773583Y-92822152D02*
X29841731Y-92304514D01*
X31299413Y-90728074D02*
X31841075Y-90252046D01*
X31068334Y-90044991D02*
X31299413Y-90728074D01*
X31841075Y-90252046D02*
X31068334Y-90044991D01*
X29841731Y-92304514D02*
X30851126Y-88537403D01*
X31195886Y-91114444D02*
X31299413Y-90728074D01*
X31454705Y-90148519D02*
X31584114Y-89665556D01*
X31830673Y-90870425D02*
X30768154Y-90585724D01*
X272608269Y-70744514D02*
X271598874Y-66977403D01*
X272608269Y-70744514D02*
X270676417Y-71262152D01*
X271150587Y-69168074D02*
X271381666Y-68484991D01*
X270608925Y-68692046D02*
X271150587Y-69168074D01*
X271381666Y-68484991D02*
X270608925Y-68692046D01*
X270676417Y-71262152D02*
X269667023Y-67495041D01*
X271254114Y-69554444D02*
X271150587Y-69168074D01*
X270995295Y-68588519D02*
X270865886Y-68105556D01*
X271681846Y-69025724D02*
X270619327Y-69310425D01*
X253238269Y-71824514D02*
X252228874Y-68057403D01*
X253238269Y-71824514D02*
X251306417Y-72342152D01*
X251780587Y-70248074D02*
X252011666Y-69564991D01*
X251238925Y-69772046D02*
X251780587Y-70248074D01*
X252011666Y-69564991D02*
X251238925Y-69772046D01*
X251306417Y-72342152D02*
X250297023Y-68575041D01*
X251884114Y-70634444D02*
X251780587Y-70248074D01*
X251625295Y-69668519D02*
X251495886Y-69185556D01*
X252311846Y-70105724D02*
X251249327Y-70390425D01*
X233738269Y-72844514D02*
X232728874Y-69077403D01*
X233738269Y-72844514D02*
X231806417Y-73362152D01*
X232280587Y-71268074D02*
X232511666Y-70584991D01*
X231738925Y-70792046D02*
X232280587Y-71268074D01*
X232511666Y-70584991D02*
X231738925Y-70792046D01*
X231806417Y-73362152D02*
X230797023Y-69595041D01*
X232384114Y-71654444D02*
X232280587Y-71268074D01*
X232125295Y-70688519D02*
X231995886Y-70205556D01*
X232811846Y-71125724D02*
X231749327Y-71410425D01*
X214288269Y-73974514D02*
X213278874Y-70207403D01*
X214288269Y-73974514D02*
X212356417Y-74492152D01*
X212830587Y-72398074D02*
X213061666Y-71714991D01*
X212288925Y-71922046D02*
X212830587Y-72398074D01*
X213061666Y-71714991D02*
X212288925Y-71922046D01*
X212356417Y-74492152D02*
X211347023Y-70725041D01*
X212934114Y-72784444D02*
X212830587Y-72398074D01*
X212675295Y-71818519D02*
X212545886Y-71335556D01*
X213361846Y-72255724D02*
X212299327Y-72540425D01*
X196948269Y-82764514D02*
X195938874Y-78997403D01*
X196948269Y-82764514D02*
X195016417Y-83282152D01*
X195490587Y-81188074D02*
X195721666Y-80504991D01*
X194948925Y-80712046D02*
X195490587Y-81188074D01*
X195721666Y-80504991D02*
X194948925Y-80712046D01*
X195016417Y-83282152D02*
X194007023Y-79515041D01*
X195594114Y-81574444D02*
X195490587Y-81188074D01*
X195335295Y-80608519D02*
X195205886Y-80125556D01*
X196021846Y-81045724D02*
X194959327Y-81330425D01*
X179568269Y-91554514D02*
X178558874Y-87787403D01*
X179568269Y-91554514D02*
X177636417Y-92072152D01*
X178110587Y-89978074D02*
X178341666Y-89294991D01*
X177568925Y-89502046D02*
X178110587Y-89978074D01*
X178341666Y-89294991D02*
X177568925Y-89502046D01*
X177636417Y-92072152D02*
X176627023Y-88305041D01*
X178214114Y-90364444D02*
X178110587Y-89978074D01*
X177955295Y-89398519D02*
X177825886Y-88915556D01*
X178641846Y-89835724D02*
X177579327Y-90120425D01*
X129653583Y-95222152D02*
X130662977Y-91455041D01*
X129653583Y-95222152D02*
X127721731Y-94704514D01*
X129179413Y-93128074D02*
X129721075Y-92652046D01*
X128948334Y-92444991D02*
X129179413Y-93128074D01*
X129721075Y-92652046D02*
X128948334Y-92444991D01*
X127721731Y-94704514D02*
X128731126Y-90937403D01*
X129075886Y-93514444D02*
X129179413Y-93128074D01*
X129334705Y-92548519D02*
X129464114Y-92065556D01*
X129710673Y-93270425D02*
X128648154Y-92985724D01*
X112353583Y-86442152D02*
X113362977Y-82675041D01*
X112353583Y-86442152D02*
X110421731Y-85924514D01*
X111879413Y-84348074D02*
X112421075Y-83872046D01*
X111648334Y-83664991D02*
X111879413Y-84348074D01*
X112421075Y-83872046D02*
X111648334Y-83664991D01*
X110421731Y-85924514D02*
X111431126Y-82157403D01*
X111775886Y-84734444D02*
X111879413Y-84348074D01*
X112034705Y-83768519D02*
X112164114Y-83285556D01*
X112410673Y-84490425D02*
X111348154Y-84205724D01*
X94993583Y-77622152D02*
X96002977Y-73855041D01*
X94993583Y-77622152D02*
X93061731Y-77104514D01*
X94519413Y-75528074D02*
X95061075Y-75052046D01*
X94288334Y-74844991D02*
X94519413Y-75528074D01*
X95061075Y-75052046D02*
X94288334Y-74844991D01*
X93061731Y-77104514D02*
X94071126Y-73337403D01*
X94415886Y-75914444D02*
X94519413Y-75528074D01*
X94674705Y-74948519D02*
X94804114Y-74465556D01*
X95050673Y-75670425D02*
X93988154Y-75385724D01*
X75583583Y-76542152D02*
X76592977Y-72775041D01*
X75583583Y-76542152D02*
X73651731Y-76024514D01*
X75109413Y-74448074D02*
X75651075Y-73972046D01*
X74878334Y-73764991D02*
X75109413Y-74448074D01*
X75651075Y-73972046D02*
X74878334Y-73764991D01*
X73651731Y-76024514D02*
X74661126Y-72257403D01*
X75005886Y-74834444D02*
X75109413Y-74448074D01*
X75264705Y-73868519D02*
X75394114Y-73385556D01*
X75640673Y-74590425D02*
X74578154Y-74305724D01*
X54983583Y-75242152D02*
X55992977Y-71475041D01*
X54983583Y-75242152D02*
X53051731Y-74724514D01*
X54509413Y-73148074D02*
X55051075Y-72672046D01*
X54278334Y-72464991D02*
X54509413Y-73148074D01*
X55051075Y-72672046D02*
X54278334Y-72464991D01*
X53051731Y-74724514D02*
X54061126Y-70957403D01*
X54405886Y-73534444D02*
X54509413Y-73148074D01*
X54664705Y-72568519D02*
X54794114Y-72085556D01*
X55040673Y-73290425D02*
X53978154Y-73005724D01*
X33743583Y-73212152D02*
X34752977Y-69445041D01*
X33743583Y-73212152D02*
X31811731Y-72694514D01*
X33269413Y-71118074D02*
X33811075Y-70642046D01*
X33038334Y-70434991D02*
X33269413Y-71118074D01*
X33811075Y-70642046D02*
X33038334Y-70434991D01*
X31811731Y-72694514D02*
X32821126Y-68927403D01*
X33165886Y-71504444D02*
X33269413Y-71118074D01*
X33424705Y-70538519D02*
X33554114Y-70055556D01*
X33800673Y-71260425D02*
X32738154Y-70975724D01*
X143954900Y-78551099D02*
X151905100Y-78551099D01*
X151905100Y-78551099D02*
X151905100Y-79692760D01*
X151905100Y-83808900D02*
X150868341Y-83808900D01*
X143954900Y-83808900D02*
X143954900Y-83271039D01*
X144991659Y-83808900D02*
X143954900Y-83808900D01*
X147991661Y-83808900D02*
X146368339Y-83808900D01*
X143954900Y-81792759D02*
X143954900Y-81171040D01*
X151905100Y-83271039D02*
X151905100Y-83808900D01*
X143954900Y-79692760D02*
X143954900Y-78551099D01*
X151905100Y-81171040D02*
X151905100Y-81792759D01*
X142557900Y-83231900D02*
G75*
G03*
X142557900Y-83231900I-381000J0D01*
G01*
X132096795Y-148161731D02*
X136513524Y-150711731D01*
X130819296Y-142574425D02*
X135236025Y-145124425D01*
X132096795Y-148161730D02*
G75*
G03*
X129364744Y-148893782I-1000000J-1732051D01*
G01*
X130819296Y-142574426D02*
G75*
G03*
X128087245Y-143306476I-1000001J-1732048D01*
G01*
X48925556Y-59048954D02*
X53851777Y-60368931D01*
X51605626Y-64115236D02*
X56531848Y-65435214D01*
X51605626Y-64115237D02*
G75*
G03*
X49156137Y-65529450I-517638J-1931851D01*
G01*
X48925556Y-59048955D02*
G75*
G03*
X46476066Y-60463167I-517639J-1931850D01*
G01*
X71055626Y-65165236D02*
X75981848Y-66485214D01*
X68375556Y-60098954D02*
X73301777Y-61418931D01*
X68375556Y-60098955D02*
G75*
G03*
X65926066Y-61513167I-517639J-1931850D01*
G01*
X71055626Y-65165237D02*
G75*
G03*
X68606137Y-66579450I-517638J-1931851D01*
G01*
X90480626Y-66240236D02*
X95406848Y-67560214D01*
X87800556Y-61173954D02*
X92726777Y-62493931D01*
X90480626Y-66240237D02*
G75*
G03*
X88031137Y-67654450I-517638J-1931851D01*
G01*
X87800556Y-61173955D02*
G75*
G03*
X85351066Y-62588167I-517639J-1931850D01*
G01*
X105175556Y-69973954D02*
X110101777Y-71293931D01*
X107855626Y-75040236D02*
X112781848Y-76360214D01*
X107855626Y-75040237D02*
G75*
G03*
X105406137Y-76454450I-517638J-1931851D01*
G01*
X105175556Y-69973955D02*
G75*
G03*
X102726066Y-71388167I-517639J-1931850D01*
G01*
X122525556Y-78773954D02*
X127451777Y-80093931D01*
X125205626Y-83840236D02*
X130131848Y-85160214D01*
X125205626Y-83840237D02*
G75*
G03*
X122756137Y-85254450I-517638J-1931851D01*
G01*
X122525556Y-78773955D02*
G75*
G03*
X120076066Y-80188167I-517639J-1931850D01*
G01*
X165153853Y-80886270D02*
X170080074Y-79566293D01*
X170008003Y-83933764D02*
X174934225Y-82613787D01*
X165153853Y-80886269D02*
G75*
G03*
X163739639Y-83335760I517637J-1931852D01*
G01*
X170008003Y-83933765D02*
G75*
G03*
X168593790Y-86383254I517639J-1931851D01*
G01*
X182523853Y-72096270D02*
X187450074Y-70776293D01*
X187378003Y-75143764D02*
X192304225Y-73823787D01*
X187378003Y-75143765D02*
G75*
G03*
X185963790Y-77593254I517639J-1931851D01*
G01*
X182523853Y-72096269D02*
G75*
G03*
X181109639Y-74545760I517637J-1931852D01*
G01*
X204733003Y-66343764D02*
X209659225Y-65023787D01*
X199878853Y-63296270D02*
X204805074Y-61976293D01*
X204733003Y-66343765D02*
G75*
G03*
X203318790Y-68793254I517639J-1931851D01*
G01*
X199878853Y-63296269D02*
G75*
G03*
X198464639Y-65745760I517637J-1931852D01*
G01*
X224158003Y-65268764D02*
X229084225Y-63948787D01*
X219303853Y-62221270D02*
X224230074Y-60901293D01*
X219303853Y-62221269D02*
G75*
G03*
X217889639Y-64670760I517637J-1931852D01*
G01*
X224158003Y-65268765D02*
G75*
G03*
X222743790Y-67718254I517639J-1931851D01*
G01*
X238778853Y-61146270D02*
X243705074Y-59826293D01*
X243633003Y-64193764D02*
X248559225Y-62873787D01*
X243633003Y-64193765D02*
G75*
G03*
X242218790Y-66643254I517639J-1931851D01*
G01*
X238778853Y-61146269D02*
G75*
G03*
X237364639Y-63595760I517637J-1931852D01*
G01*
X258178853Y-60046270D02*
X263105074Y-58726293D01*
X263033003Y-63093764D02*
X267959225Y-61773787D01*
X263033003Y-63093765D02*
G75*
G03*
X261618790Y-65543254I517639J-1931851D01*
G01*
X258178853Y-60046269D02*
G75*
G03*
X256764639Y-62495760I517637J-1931852D01*
G01*
X24575556Y-76323954D02*
X29501777Y-77643931D01*
X27255626Y-81390236D02*
X32181848Y-82710214D01*
X24575556Y-76323955D02*
G75*
G03*
X22126066Y-77738167I-517639J-1931850D01*
G01*
X27255626Y-81390237D02*
G75*
G03*
X24806137Y-82804450I-517638J-1931851D01*
G01*
X44008333Y-77443506D02*
X48934554Y-78763483D01*
X46688403Y-82509788D02*
X51614625Y-83829766D01*
X44008333Y-77443507D02*
G75*
G03*
X41558843Y-78857719I-517639J-1931850D01*
G01*
X46688403Y-82509789D02*
G75*
G03*
X44238914Y-83924002I-517638J-1931851D01*
G01*
X66105626Y-83565236D02*
X71031848Y-84885214D01*
X63425556Y-78498954D02*
X68351777Y-79818931D01*
X63425556Y-78498955D02*
G75*
G03*
X60976066Y-79913167I-517639J-1931850D01*
G01*
X66105626Y-83565237D02*
G75*
G03*
X63656137Y-84979450I-517638J-1931851D01*
G01*
X82875556Y-79598954D02*
X87801777Y-80918931D01*
X85555626Y-84665236D02*
X90481848Y-85985214D01*
X82875556Y-79598955D02*
G75*
G03*
X80426066Y-81013167I-517639J-1931850D01*
G01*
X85555626Y-84665237D02*
G75*
G03*
X83106137Y-86079450I-517638J-1931851D01*
G01*
X102930626Y-93440236D02*
X107856848Y-94760214D01*
X100250556Y-88373954D02*
X105176777Y-89693931D01*
X100250556Y-88373955D02*
G75*
G03*
X97801066Y-89788167I-517639J-1931850D01*
G01*
X102930626Y-93440237D02*
G75*
G03*
X100481137Y-94854450I-517638J-1931851D01*
G01*
X120285626Y-102230236D02*
X125211848Y-103550214D01*
X117605556Y-97163954D02*
X122531777Y-98483931D01*
X120285626Y-102230237D02*
G75*
G03*
X117836137Y-103644450I-517638J-1931851D01*
G01*
X117605556Y-97163955D02*
G75*
G03*
X115156066Y-98578167I-517639J-1931850D01*
G01*
X174938003Y-102333764D02*
X179864225Y-101013787D01*
X170083853Y-99286270D02*
X175010074Y-97966293D01*
X170083853Y-99286269D02*
G75*
G03*
X168669639Y-101735760I517637J-1931852D01*
G01*
X174938003Y-102333765D02*
G75*
G03*
X173523790Y-104783254I517639J-1931851D01*
G01*
X192308003Y-93543764D02*
X197234225Y-92223787D01*
X187453853Y-90496270D02*
X192380074Y-89176293D01*
X192308003Y-93543765D02*
G75*
G03*
X190893790Y-95993254I517639J-1931851D01*
G01*
X187453853Y-90496269D02*
G75*
G03*
X186039639Y-92945760I517637J-1931852D01*
G01*
X209658003Y-84768764D02*
X214584225Y-83448787D01*
X204803853Y-81721270D02*
X209730074Y-80401293D01*
X209658003Y-84768765D02*
G75*
G03*
X208243790Y-87218254I517639J-1931851D01*
G01*
X204803853Y-81721269D02*
G75*
G03*
X203389639Y-84170760I517637J-1931852D01*
G01*
X243653853Y-79521270D02*
X248580074Y-78201293D01*
X248508003Y-82568764D02*
X253434225Y-81248787D01*
X243653853Y-79521269D02*
G75*
G03*
X242239639Y-81970760I517637J-1931852D01*
G01*
X248508003Y-82568765D02*
G75*
G03*
X247093790Y-85018254I517639J-1931851D01*
G01*
X267968003Y-81493764D02*
X272894225Y-80173787D01*
X263113853Y-78446270D02*
X268040074Y-77126293D01*
X263113853Y-78446269D02*
G75*
G03*
X261699639Y-80895760I517637J-1931852D01*
G01*
X267968003Y-81493765D02*
G75*
G03*
X266553790Y-83943254I517639J-1931851D01*
G01*
X19650556Y-94723954D02*
X24576777Y-96043931D01*
X22330626Y-99790236D02*
X27256848Y-101110214D01*
X22330626Y-99790237D02*
G75*
G03*
X19881137Y-101204450I-517638J-1931851D01*
G01*
X19650556Y-94723955D02*
G75*
G03*
X17201066Y-96138167I-517639J-1931850D01*
G01*
X39085556Y-95843954D02*
X44011777Y-97163931D01*
X41765626Y-100910236D02*
X46691848Y-102230214D01*
X39085556Y-95843955D02*
G75*
G03*
X36636066Y-97258167I-517639J-1931850D01*
G01*
X41765626Y-100910237D02*
G75*
G03*
X39316137Y-102324450I-517638J-1931851D01*
G01*
X58515556Y-96903954D02*
X63441777Y-98223931D01*
X61195626Y-101970236D02*
X66121848Y-103290214D01*
X58515556Y-96903955D02*
G75*
G03*
X56066066Y-98318167I-517639J-1931850D01*
G01*
X61195626Y-101970237D02*
G75*
G03*
X58746137Y-103384450I-517638J-1931851D01*
G01*
X80630626Y-103040236D02*
X85556848Y-104360214D01*
X77950556Y-97973954D02*
X82876777Y-99293931D01*
X77950556Y-97973955D02*
G75*
G03*
X75501066Y-99388167I-517639J-1931850D01*
G01*
X80630626Y-103040237D02*
G75*
G03*
X78181137Y-104454450I-517638J-1931851D01*
G01*
X95305556Y-106783954D02*
X100231777Y-108103931D01*
X97985626Y-111850236D02*
X102911848Y-113170214D01*
X97985626Y-111850237D02*
G75*
G03*
X95536137Y-113264450I-517638J-1931851D01*
G01*
X95305556Y-106783955D02*
G75*
G03*
X92856066Y-108198167I-517639J-1931850D01*
G01*
X115355626Y-120640236D02*
X120281848Y-121960214D01*
X112675556Y-115573954D02*
X117601777Y-116893931D01*
X115355626Y-120640237D02*
G75*
G03*
X112906137Y-122054450I-517638J-1931851D01*
G01*
X112675556Y-115573955D02*
G75*
G03*
X110226066Y-116988167I-517639J-1931850D01*
G01*
X175023853Y-117676270D02*
X179950074Y-116356293D01*
X179878003Y-120723764D02*
X184804225Y-119403787D01*
X179878003Y-120723765D02*
G75*
G03*
X178463790Y-123173254I517639J-1931851D01*
G01*
X175023853Y-117676269D02*
G75*
G03*
X173609639Y-120125760I517637J-1931852D01*
G01*
X197233003Y-111933764D02*
X202159225Y-110613787D01*
X192378853Y-108886270D02*
X197305074Y-107566293D01*
X197233003Y-111933765D02*
G75*
G03*
X195818790Y-114383254I517639J-1931851D01*
G01*
X192378853Y-108886269D02*
G75*
G03*
X190964639Y-111335760I517637J-1931852D01*
G01*
X209728853Y-100096270D02*
X214655074Y-98776293D01*
X214583003Y-103143764D02*
X219509225Y-101823787D01*
X209728853Y-100096269D02*
G75*
G03*
X208314639Y-102545760I517637J-1931852D01*
G01*
X214583003Y-103143765D02*
G75*
G03*
X213168790Y-105593254I517639J-1931851D01*
G01*
X248613853Y-97966270D02*
X253540074Y-96646293D01*
X253468003Y-101013764D02*
X258394225Y-99693787D01*
X248613853Y-97966269D02*
G75*
G03*
X247199639Y-100415760I517637J-1931852D01*
G01*
X253468003Y-101013765D02*
G75*
G03*
X252053790Y-103463254I517639J-1931851D01*
G01*
X272888003Y-99903764D02*
X277814225Y-98583787D01*
X268033853Y-96856270D02*
X272960074Y-95536293D01*
X272888003Y-99903765D02*
G75*
G03*
X271473790Y-102353254I517639J-1931851D01*
G01*
X268033853Y-96856269D02*
G75*
G03*
X266619639Y-99305760I517637J-1931852D01*
G01*
X89175556Y-131763954D02*
X94101777Y-133083931D01*
X91855626Y-136830236D02*
X96781848Y-138150214D01*
X91855626Y-136830237D02*
G75*
G03*
X89406137Y-138244450I-517638J-1931851D01*
G01*
X89175556Y-131763955D02*
G75*
G03*
X86726066Y-133178167I-517639J-1931850D01*
G01*
X110255626Y-141765236D02*
X115181848Y-143085214D01*
X107575556Y-136698954D02*
X112501777Y-138018931D01*
X107575556Y-136698955D02*
G75*
G03*
X105126066Y-138113167I-517639J-1931850D01*
G01*
X110255626Y-141765237D02*
G75*
G03*
X107806137Y-143179450I-517638J-1931851D01*
G01*
X184958003Y-141863764D02*
X189884225Y-140543787D01*
X180103853Y-138816270D02*
X185030074Y-137496293D01*
X184958003Y-141863765D02*
G75*
G03*
X183543790Y-144313254I517639J-1931851D01*
G01*
X180103853Y-138816269D02*
G75*
G03*
X178689639Y-141265760I517637J-1931852D01*
G01*
X203378003Y-136933764D02*
X208304225Y-135613787D01*
X198523853Y-133886270D02*
X203450074Y-132566293D01*
X203378003Y-136933765D02*
G75*
G03*
X201963790Y-139383254I517639J-1931851D01*
G01*
X198523853Y-133886269D02*
G75*
G03*
X197109639Y-136335760I517637J-1931852D01*
G01*
X234048003Y-102073764D02*
X238974225Y-100753787D01*
X229193853Y-99026270D02*
X234120074Y-97706293D01*
X229193853Y-99026269D02*
G75*
G03*
X227779639Y-101475760I517637J-1931852D01*
G01*
X234048003Y-102073765D02*
G75*
G03*
X232633790Y-104523254I517639J-1931851D01*
G01*
X32178594Y-62989198D02*
X37104816Y-64309176D01*
X29498524Y-57922916D02*
X34424745Y-59242893D01*
X29498524Y-57922917D02*
G75*
G03*
X27049034Y-59337129I-517639J-1931850D01*
G01*
X32178594Y-62989199D02*
G75*
G03*
X29729105Y-64403412I-517638J-1931851D01*
G01*
X163156795Y-148361731D02*
X167573524Y-145811731D01*
X157679296Y-146674425D02*
X162096025Y-144124425D01*
X157679296Y-146674424D02*
G75*
G03*
X156947245Y-149406476I999998J-1732051D01*
G01*
X163156795Y-148361732D02*
G75*
G03*
X162424744Y-151093782I999999J-1732050D01*
G01*
X229108003Y-83668764D02*
X234034225Y-82348787D01*
X224253853Y-80621270D02*
X229180074Y-79301293D01*
X224253853Y-80621269D02*
G75*
G03*
X222839639Y-83070760I517637J-1931852D01*
G01*
X229108003Y-83668765D02*
G75*
G03*
X227693790Y-86118254I517639J-1931851D01*
G01*
D10*
X156690000Y-79680000D02*
X151610000Y-79680000D01*
X138910000Y-110160000D02*
X156690000Y-110160000D01*
X151610000Y-79680000D02*
X151610000Y-77140000D01*
X143990000Y-79680000D02*
X138910000Y-79680000D01*
X138910000Y-79680000D02*
X138910000Y-110160000D01*
X151610000Y-77140000D02*
X143990000Y-77140000D01*
X143990000Y-77140000D02*
X143990000Y-79680000D01*
X156690000Y-79680000D02*
X156690000Y-110160000D01*
%LPC*%
D12*
X211837051Y-144243778D03*
X210982949Y-141056222D03*
X193434102Y-149127556D03*
X192580000Y-145940000D03*
D13*
X173185000Y-153198942D03*
X171535000Y-150341058D03*
D14*
X136875000Y-157138942D03*
X138525000Y-154281058D03*
D15*
X113942949Y-152373778D03*
X114797051Y-149186222D03*
X95522949Y-147373778D03*
X96377051Y-144186222D03*
D12*
X281367051Y-107233778D03*
X280512949Y-104046222D03*
X261907051Y-108253778D03*
X261052949Y-105066222D03*
X242517051Y-109393778D03*
X241662949Y-106206222D03*
X223127051Y-110473778D03*
X222272949Y-107286222D03*
X205707051Y-119293778D03*
X204852949Y-116106222D03*
X188384102Y-128037556D03*
X187530000Y-124850000D03*
D15*
X119062949Y-131173778D03*
X119917051Y-127986222D03*
X101662949Y-122393778D03*
X102517051Y-119206222D03*
X84312949Y-113603778D03*
X85167051Y-110416222D03*
X64882949Y-112523778D03*
X65737051Y-109336222D03*
X45492949Y-111443778D03*
X46347051Y-108256222D03*
X26032949Y-110353778D03*
X26887051Y-107166222D03*
D12*
X276427051Y-88803778D03*
X275572949Y-85616222D03*
X256987051Y-89823778D03*
X256132949Y-86636222D03*
X237537051Y-90953778D03*
X236682949Y-87766222D03*
X218087051Y-92033778D03*
X217232949Y-88846222D03*
X200757051Y-100843778D03*
X199902949Y-97656222D03*
X183387051Y-109603778D03*
X182532949Y-106416222D03*
D15*
X123972949Y-112803778D03*
X124827051Y-109616222D03*
X106642949Y-103943778D03*
X107497051Y-100756222D03*
X89252949Y-95213778D03*
X90107051Y-92026222D03*
X69772949Y-94123778D03*
X70627051Y-90936222D03*
X50362949Y-93113778D03*
X51217051Y-89926222D03*
X30962949Y-91983778D03*
X31817051Y-88796222D03*
D12*
X271487051Y-70423778D03*
X270632949Y-67236222D03*
X252117051Y-71503778D03*
X251262949Y-68316222D03*
X232617051Y-72523778D03*
X231762949Y-69336222D03*
X213167051Y-73653778D03*
X212312949Y-70466222D03*
X195827051Y-82443778D03*
X194972949Y-79256222D03*
X178447051Y-91233778D03*
X177592949Y-88046222D03*
D15*
X128842949Y-94383778D03*
X129697051Y-91196222D03*
X111542949Y-85603778D03*
X112397051Y-82416222D03*
X94182949Y-76783778D03*
X95037051Y-73596222D03*
X74772949Y-75703778D03*
X75627051Y-72516222D03*
X54172949Y-74403778D03*
X55027051Y-71216222D03*
X32932949Y-72373778D03*
X33787051Y-69186222D03*
D16*
X164110000Y-130970000D03*
D17*
X164110000Y-128430000D03*
X164110000Y-125890000D03*
X164110000Y-123350000D03*
X164110000Y-120810000D03*
D18*
X145679999Y-83231900D03*
X148680001Y-83231900D03*
X150180001Y-83231900D03*
D19*
X146430000Y-81481901D03*
X149430000Y-81481901D03*
D20*
X144280000Y-82531899D03*
X151580000Y-82531899D03*
X144280000Y-80431900D03*
X151580000Y-80431900D03*
D21*
X126520591Y-148060000D03*
X135319409Y-153140000D03*
D22*
X135659705Y-147470591D03*
D23*
X130920000Y-150600000D03*
D22*
X128890443Y-146495295D03*
D24*
X126054210Y-144857795D03*
X138519320Y-149121591D03*
D21*
X56006903Y-68089801D03*
D22*
X48077223Y-63335448D03*
D23*
X51100000Y-66775000D03*
D21*
X46193097Y-65460199D03*
D22*
X54868252Y-62525497D03*
D25*
X44913816Y-62487815D03*
X58057739Y-63380118D03*
D21*
X75456903Y-69139801D03*
D22*
X67527223Y-64385448D03*
D23*
X70550000Y-67825000D03*
D21*
X65643097Y-66510199D03*
D22*
X74318252Y-63575497D03*
D25*
X64363816Y-63537815D03*
X77507739Y-64430118D03*
D21*
X85068097Y-67585199D03*
D22*
X86952223Y-65460448D03*
X93743252Y-64650497D03*
D23*
X89975000Y-68900000D03*
D21*
X94881903Y-70214801D03*
D25*
X83788816Y-64612815D03*
X96932739Y-65505118D03*
D21*
X112256903Y-79014801D03*
D22*
X111118252Y-73450497D03*
D23*
X107350000Y-77700000D03*
D22*
X104327223Y-74260448D03*
D21*
X102443097Y-76385199D03*
D25*
X101163816Y-73412815D03*
X114307739Y-74305118D03*
D21*
X129606903Y-87814801D03*
D22*
X128468252Y-82250497D03*
D23*
X124700000Y-86500000D03*
D21*
X119793097Y-85185199D03*
D22*
X121677223Y-83060448D03*
D25*
X118513816Y-82212815D03*
X131657739Y-83105118D03*
D21*
X175806903Y-85175199D03*
X165993097Y-87804801D03*
D22*
X166562422Y-85022649D03*
D23*
X170900000Y-86490000D03*
D22*
X172038651Y-80925696D03*
D26*
X163399015Y-85870281D03*
X175228138Y-80071076D03*
D21*
X193176903Y-76385199D03*
D22*
X183932422Y-76232649D03*
D23*
X188270000Y-77700000D03*
D22*
X189408651Y-72135696D03*
D21*
X183363097Y-79014801D03*
D26*
X180769015Y-77080281D03*
X192598138Y-71281076D03*
D23*
X205625000Y-68900000D03*
D21*
X200718097Y-70214801D03*
X210531903Y-67585199D03*
D22*
X201287422Y-67432649D03*
X206763651Y-63335696D03*
D26*
X198124015Y-68280281D03*
X209953138Y-62481076D03*
D23*
X225050000Y-67825000D03*
D22*
X220712422Y-66357649D03*
X226188651Y-62260696D03*
D21*
X220143097Y-69139801D03*
X229956903Y-66510199D03*
D26*
X217549015Y-67205281D03*
X229378138Y-61406076D03*
D22*
X240187422Y-65282649D03*
X245663651Y-61185696D03*
D23*
X244525000Y-66750000D03*
D21*
X249431903Y-65435199D03*
X239618097Y-68064801D03*
D26*
X237024015Y-66130281D03*
X248853138Y-60331076D03*
D21*
X268831903Y-64335199D03*
X259018097Y-66964801D03*
D22*
X259587422Y-64182649D03*
D23*
X263925000Y-65650000D03*
D22*
X265063651Y-60085696D03*
D26*
X256424015Y-65030281D03*
X268253138Y-59231076D03*
D22*
X30518252Y-79800497D03*
D21*
X31656903Y-85364801D03*
D23*
X26750000Y-84050000D03*
D22*
X23727223Y-80610448D03*
D21*
X21843097Y-82735199D03*
D25*
X20563816Y-79762815D03*
X33707739Y-80655118D03*
D23*
X46182777Y-85169552D03*
D22*
X49951029Y-80920049D03*
X43160000Y-81730000D03*
D21*
X41275874Y-83854751D03*
X51089680Y-86484353D03*
D25*
X39996593Y-80882367D03*
X53140516Y-81774670D03*
D21*
X70506903Y-87539801D03*
D22*
X69368252Y-81975497D03*
X62577223Y-82785448D03*
D21*
X60693097Y-84910199D03*
D23*
X65600000Y-86225000D03*
D25*
X59413816Y-81937815D03*
X72557739Y-82830118D03*
D22*
X88818252Y-83075497D03*
D21*
X89956903Y-88639801D03*
X80143097Y-86010199D03*
D23*
X85050000Y-87325000D03*
D22*
X82027223Y-83885448D03*
D25*
X78863816Y-83037815D03*
X92007739Y-83930118D03*
D21*
X97518097Y-94785199D03*
X107331903Y-97414801D03*
D23*
X102425000Y-96100000D03*
D22*
X106193252Y-91850497D03*
X99402223Y-92660448D03*
D25*
X96238816Y-91812815D03*
X109382739Y-92705118D03*
D22*
X116757223Y-101450448D03*
D21*
X124686903Y-106204801D03*
D22*
X123548252Y-100640497D03*
D23*
X119780000Y-104890000D03*
D21*
X114873097Y-103575199D03*
D25*
X113593816Y-100602815D03*
X126737739Y-101495118D03*
D21*
X170923097Y-106204801D03*
D22*
X176968651Y-99325696D03*
D23*
X175830000Y-104890000D03*
D22*
X171492422Y-103422649D03*
D21*
X180736903Y-103575199D03*
D26*
X168329015Y-104270281D03*
X180158138Y-98471076D03*
D21*
X198106903Y-94785199D03*
X188293097Y-97414801D03*
D22*
X188862422Y-94632649D03*
X194338651Y-90535696D03*
D23*
X193200000Y-96100000D03*
D26*
X185699015Y-95480281D03*
X197528138Y-89681076D03*
D22*
X206212422Y-85857649D03*
X211688651Y-81760696D03*
D23*
X210550000Y-87325000D03*
D21*
X215456903Y-86010199D03*
X205643097Y-88639801D03*
D26*
X203049015Y-86705281D03*
X214878138Y-80906076D03*
D21*
X244493097Y-86439801D03*
D22*
X245062422Y-83657649D03*
D23*
X249400000Y-85125000D03*
D21*
X254306903Y-83810199D03*
D22*
X250538651Y-79560696D03*
D26*
X241899015Y-84505281D03*
X253728138Y-78706076D03*
D23*
X268860000Y-84050000D03*
D22*
X269998651Y-78485696D03*
D21*
X273766903Y-82735199D03*
X263953097Y-85364801D03*
D22*
X264522422Y-82582649D03*
D26*
X261359015Y-83430281D03*
X273188138Y-77631076D03*
D21*
X26731903Y-103764801D03*
D23*
X21825000Y-102450000D03*
D21*
X16918097Y-101135199D03*
D22*
X18802223Y-99010448D03*
X25593252Y-98200497D03*
D25*
X15638816Y-98162815D03*
X28782739Y-99055118D03*
D22*
X45028252Y-99320497D03*
D21*
X46166903Y-104884801D03*
D22*
X38237223Y-100130448D03*
D21*
X36353097Y-102255199D03*
D23*
X41260000Y-103570000D03*
D25*
X35073816Y-99282815D03*
X48217739Y-100175118D03*
D21*
X55783097Y-103315199D03*
D22*
X64458252Y-100380497D03*
D23*
X60690000Y-104630000D03*
D22*
X57667223Y-101190448D03*
D21*
X65596903Y-105944801D03*
D25*
X54503816Y-100342815D03*
X67647739Y-101235118D03*
D22*
X83893252Y-101450497D03*
X77102223Y-102260448D03*
D21*
X85031903Y-107014801D03*
X75218097Y-104385199D03*
D23*
X80125000Y-105700000D03*
D25*
X73938816Y-101412815D03*
X87082739Y-102305118D03*
D21*
X92573097Y-113195199D03*
D22*
X94457223Y-111070448D03*
D23*
X97480000Y-114510000D03*
D21*
X102386903Y-115824801D03*
D22*
X101248252Y-110260497D03*
D25*
X91293816Y-110222815D03*
X104437739Y-111115118D03*
D23*
X114850000Y-123300000D03*
D22*
X118618252Y-119050497D03*
D21*
X119756903Y-124614801D03*
X109943097Y-121985199D03*
D22*
X111827223Y-119860448D03*
D25*
X108663816Y-119012815D03*
X121807739Y-119905118D03*
D22*
X181908651Y-117715696D03*
D23*
X180770000Y-123280000D03*
D21*
X175863097Y-124594801D03*
X185676903Y-121965199D03*
D22*
X176432422Y-121812649D03*
D26*
X173269015Y-122660281D03*
X185098138Y-116861076D03*
D21*
X193218097Y-115804801D03*
D23*
X198125000Y-114490000D03*
D21*
X203031903Y-113175199D03*
D22*
X193787422Y-113022649D03*
X199263651Y-108925696D03*
D26*
X190624015Y-113870281D03*
X202453138Y-108071076D03*
D21*
X220381903Y-104385199D03*
D22*
X211137422Y-104232649D03*
D23*
X215475000Y-105700000D03*
D21*
X210568097Y-107014801D03*
D22*
X216613651Y-100135696D03*
D26*
X207974015Y-105080281D03*
X219803138Y-99281076D03*
D23*
X254360000Y-103570000D03*
D22*
X255498651Y-98005696D03*
X250022422Y-102102649D03*
D21*
X249453097Y-104884801D03*
X259266903Y-102255199D03*
D26*
X246859015Y-102950281D03*
X258688138Y-97151076D03*
D21*
X268873097Y-103774801D03*
D22*
X274918651Y-96895696D03*
X269442422Y-100992649D03*
D23*
X273780000Y-102460000D03*
D21*
X278686903Y-101145199D03*
D26*
X266279015Y-101840281D03*
X278108138Y-96041076D03*
D23*
X91350000Y-139490000D03*
D21*
X96256903Y-140804801D03*
X86443097Y-138175199D03*
D22*
X88327223Y-136050448D03*
X95118252Y-135240497D03*
D25*
X85163816Y-135202815D03*
X98307739Y-136095118D03*
D22*
X106727223Y-140985448D03*
D23*
X109750000Y-144425000D03*
D21*
X114656903Y-145739801D03*
X104843097Y-143110199D03*
D22*
X113518252Y-140175497D03*
D25*
X103563816Y-140137815D03*
X116707739Y-141030118D03*
D21*
X180943097Y-145734801D03*
D22*
X181512422Y-142952649D03*
D21*
X190756903Y-143105199D03*
D22*
X186988651Y-138855696D03*
D23*
X185850000Y-144420000D03*
D26*
X178349015Y-143800281D03*
X190178138Y-138001076D03*
D21*
X199363097Y-140804801D03*
D22*
X205408651Y-133925696D03*
X199932422Y-138022649D03*
D21*
X209176903Y-138175199D03*
D23*
X204270000Y-139490000D03*
D26*
X196769015Y-138870281D03*
X208598138Y-133071076D03*
D23*
X234940000Y-104630000D03*
D21*
X239846903Y-103315199D03*
X230033097Y-105944801D03*
D22*
X230602422Y-103162649D03*
X236078651Y-99065696D03*
D26*
X227439015Y-104010281D03*
X239268138Y-98211076D03*
D21*
X36579871Y-66963763D03*
D22*
X35441220Y-61399459D03*
D21*
X26766065Y-64334161D03*
D22*
X28650191Y-62209410D03*
D23*
X31672968Y-65648962D03*
D25*
X25486784Y-61361777D03*
X38630707Y-62254080D03*
D21*
X169079409Y-148060000D03*
D23*
X164680000Y-150600000D03*
D22*
X164339705Y-144930591D03*
D21*
X160280591Y-153140000D03*
D22*
X160110443Y-150305295D03*
D27*
X157274210Y-151942795D03*
X167199320Y-143279591D03*
D21*
X225093097Y-87539801D03*
D23*
X230000000Y-86225000D03*
D21*
X234906903Y-84910199D03*
D22*
X231138651Y-80660696D03*
X225662422Y-84757649D03*
D26*
X222499015Y-85605281D03*
X234328138Y-79806076D03*
M02*
