M48
; DRILL file {KiCad (6.0.8-1)-1} date Saturday, November 12, 2022 at 06:34:59 PM
; FORMAT={-:-/ absolute / metric / decimal}
; #@! TF.CreationDate,2022-11-12T18:34:59-05:00
; #@! TF.GenerationSoftware,Kicad,Pcbnew,(6.0.8-1)-1
; #@! TF.FileFunction,Plated,1,2,PTH
FMAT,2
METRIC
; #@! TA.AperFunction,Plated,PTH,ViaDrill
T1C0.400
; #@! TA.AperFunction,Plated,PTH,ComponentDrill
T2C1.000
; #@! TA.AperFunction,Plated,PTH,ComponentDrill
T3C1.100
%
G90
G05
T1
X19.346Y-94.456
X26.033Y-110.354
X30.963Y-91.984
X32.97Y-72.43
X39.18Y-95.16
X45.493Y-111.444
X50.363Y-93.114
X54.17Y-74.38
X58.88Y-96.03
X64.883Y-112.524
X69.82Y-93.703
X74.773Y-75.704
X78.8Y-96.47
X84.313Y-113.604
X89.253Y-95.214
X89.44Y-97.46
X94.183Y-76.784
X94.808Y-106.708
X95.37Y-147.3
X101.663Y-122.394
X106.643Y-103.944
X107.008Y-106.112
X111.543Y-85.604
X112.53Y-115.07
X113.943Y-152.374
X119.1Y-131.2
X124.03Y-112.76
X124.63Y-140.13
X126.54Y-141.48
X126.65Y-120.26
X127.81Y-115.15
X128.86Y-94.35
X129.26Y-101.35
X135.09Y-83.5
X136.875Y-157.139
X142.86Y-109.747
X143.8Y-113.16
X145.52Y-142.9
X145.66Y-83.27
X145.71Y-157.52
X146.75Y-143.87
X147.71Y-157.52
X147.84Y-115.84
X148.68Y-83.232
X150.35Y-108.81
X151.12Y-109.52
X151.76Y-117.66
X151.92Y-110.22
X152.69Y-110.9
X154.683Y-110.175
X156.857Y-109.726
X157.73Y-110.8
X160.94Y-80.95
X161.69Y-93.65
X161.92Y-88.54
X162.94Y-104.42
X163.09Y-91.11
X163.28Y-117.7
X168.35Y-106.573
X168.39Y-137.81
X168.74Y-109.82
X168.83Y-111.37
X169.445Y-137.83
X170.77Y-111.84
X173.185Y-153.199
X178.31Y-143.43
X178.42Y-91.17
X183.26Y-109.634
X184.5Y-110.49
X185.699Y-106.629
X188.28Y-128.05
X193.434Y-149.128
X195.827Y-82.444
X196.75Y-138.9
X200.757Y-100.844
X202.91Y-95.64
X205.707Y-119.294
X211.837Y-144.244
X213.167Y-73.654
X218.087Y-92.034
X222.54Y-91.25
X223.127Y-110.474
X232.617Y-72.524
X237.537Y-90.954
X241.3Y-93.75
X242.517Y-109.394
X252.117Y-71.504
X256.987Y-89.824
X261.907Y-108.254
X266.23Y-94.45
X271.487Y-70.424
X276.427Y-88.804
X281.367Y-107.234
T2
X164.11Y-120.81
X164.11Y-123.35
X164.11Y-125.89
X164.11Y-128.43
X164.11Y-130.97
T3
X140.18Y-80.95
X140.18Y-83.49
X140.18Y-86.03
X140.18Y-88.57
X140.18Y-91.11
X140.18Y-93.65
X140.18Y-96.19
X140.18Y-98.73
X140.18Y-101.27
X140.18Y-103.81
X140.18Y-106.35
X140.18Y-108.89
X155.42Y-80.95
X155.42Y-83.49
X155.42Y-86.03
X155.42Y-88.57
X155.42Y-91.11
X155.42Y-93.65
X155.42Y-96.19
X155.42Y-98.73
X155.42Y-101.27
X155.42Y-103.81
X155.42Y-106.35
X155.42Y-108.89
T0
M30
