G04 #@! TF.GenerationSoftware,KiCad,Pcbnew,(6.0.8-1)-1*
G04 #@! TF.CreationDate,2022-11-12T18:34:57-05:00*
G04 #@! TF.ProjectId,ergo3by6plus3nonSplit,6572676f-3362-4793-9670-6c7573336e6f,rev?*
G04 #@! TF.SameCoordinates,Original*
G04 #@! TF.FileFunction,Soldermask,Bot*
G04 #@! TF.FilePolarity,Negative*
%FSLAX46Y46*%
G04 Gerber Fmt 4.6, Leading zero omitted, Abs format (unit mm)*
G04 Created by KiCad (PCBNEW (6.0.8-1)-1) date 2022-11-12 18:34:57*
%MOMM*%
%LPD*%
G01*
G04 APERTURE LIST*
G04 Aperture macros list*
%AMRoundRect*
0 Rectangle with rounded corners*
0 $1 Rounding radius*
0 $2 $3 $4 $5 $6 $7 $8 $9 X,Y pos of 4 corners*
0 Add a 4 corners polygon primitive as box body*
4,1,4,$2,$3,$4,$5,$6,$7,$8,$9,$2,$3,0*
0 Add four circle primitives for the rounded corners*
1,1,$1+$1,$2,$3*
1,1,$1+$1,$4,$5*
1,1,$1+$1,$6,$7*
1,1,$1+$1,$8,$9*
0 Add four rect primitives between the rounded corners*
20,1,$1+$1,$2,$3,$4,$5,0*
20,1,$1+$1,$4,$5,$6,$7,0*
20,1,$1+$1,$6,$7,$8,$9,0*
20,1,$1+$1,$8,$9,$2,$3,0*%
%AMRotRect*
0 Rectangle, with rotation*
0 The origin of the aperture is its center*
0 $1 length*
0 $2 width*
0 $3 Rotation angle, in degrees counterclockwise*
0 Add horizontal line*
21,1,$1,$2,0,0,$3*%
G04 Aperture macros list end*
%ADD10RotRect,0.900000X1.200000X105.000000*%
%ADD11RotRect,0.900000X1.200000X120.000000*%
%ADD12RotRect,0.900000X1.200000X60.000000*%
%ADD13RotRect,0.900000X1.200000X75.000000*%
%ADD14R,1.700000X1.700000*%
%ADD15O,1.700000X1.700000*%
%ADD16R,0.711200X1.498600*%
%ADD17C,0.939800*%
%ADD18R,0.990600X0.812800*%
%ADD19C,1.750000*%
%ADD20C,3.050000*%
%ADD21C,4.000000*%
%ADD22RoundRect,0.250000X-1.387676X-0.353525X0.387676X-1.378525X1.387676X0.353525X-0.387676X1.378525X0*%
%ADD23RoundRect,0.250000X-1.248893X-0.700636X0.731255X-1.231215X1.248893X0.700636X-0.731255X1.231215X0*%
%ADD24RoundRect,0.250000X-0.731255X-1.231215X1.248893X-0.700636X0.731255X1.231215X-1.248893X0.700636X0*%
%ADD25RoundRect,0.250000X-0.387676X-1.378525X1.387676X-0.353525X0.387676X1.378525X-1.387676X0.353525X0*%
G04 APERTURE END LIST*
D10*
X211837051Y-144243778D03*
X210982949Y-141056222D03*
X193434102Y-149127556D03*
X192580000Y-145940000D03*
D11*
X173185000Y-153198942D03*
X171535000Y-150341058D03*
D12*
X136875000Y-157138942D03*
X138525000Y-154281058D03*
D13*
X113942949Y-152373778D03*
X114797051Y-149186222D03*
X95522949Y-147373778D03*
X96377051Y-144186222D03*
D10*
X281367051Y-107233778D03*
X280512949Y-104046222D03*
X261907051Y-108253778D03*
X261052949Y-105066222D03*
X242517051Y-109393778D03*
X241662949Y-106206222D03*
X223127051Y-110473778D03*
X222272949Y-107286222D03*
X205707051Y-119293778D03*
X204852949Y-116106222D03*
X188384102Y-128037556D03*
X187530000Y-124850000D03*
D13*
X119062949Y-131173778D03*
X119917051Y-127986222D03*
X101662949Y-122393778D03*
X102517051Y-119206222D03*
X84312949Y-113603778D03*
X85167051Y-110416222D03*
X64882949Y-112523778D03*
X65737051Y-109336222D03*
X45492949Y-111443778D03*
X46347051Y-108256222D03*
X26032949Y-110353778D03*
X26887051Y-107166222D03*
D10*
X276427051Y-88803778D03*
X275572949Y-85616222D03*
X256987051Y-89823778D03*
X256132949Y-86636222D03*
X237537051Y-90953778D03*
X236682949Y-87766222D03*
X218087051Y-92033778D03*
X217232949Y-88846222D03*
X200757051Y-100843778D03*
X199902949Y-97656222D03*
X183387051Y-109603778D03*
X182532949Y-106416222D03*
D13*
X123972949Y-112803778D03*
X124827051Y-109616222D03*
X106642949Y-103943778D03*
X107497051Y-100756222D03*
X89252949Y-95213778D03*
X90107051Y-92026222D03*
X69772949Y-94123778D03*
X70627051Y-90936222D03*
X50362949Y-93113778D03*
X51217051Y-89926222D03*
X30962949Y-91983778D03*
X31817051Y-88796222D03*
D10*
X271487051Y-70423778D03*
X270632949Y-67236222D03*
X252117051Y-71503778D03*
X251262949Y-68316222D03*
X232617051Y-72523778D03*
X231762949Y-69336222D03*
X213167051Y-73653778D03*
X212312949Y-70466222D03*
X195827051Y-82443778D03*
X194972949Y-79256222D03*
X178447051Y-91233778D03*
X177592949Y-88046222D03*
D13*
X128842949Y-94383778D03*
X129697051Y-91196222D03*
X111542949Y-85603778D03*
X112397051Y-82416222D03*
X94182949Y-76783778D03*
X95037051Y-73596222D03*
X74772949Y-75703778D03*
X75627051Y-72516222D03*
X54172949Y-74403778D03*
X55027051Y-71216222D03*
X32932949Y-72373778D03*
X33787051Y-69186222D03*
D14*
X164110000Y-130970000D03*
D15*
X164110000Y-128430000D03*
X164110000Y-125890000D03*
X164110000Y-123350000D03*
X164110000Y-120810000D03*
D16*
X145679999Y-83231900D03*
X148680001Y-83231900D03*
X150180001Y-83231900D03*
D17*
X146430000Y-81481901D03*
X149430000Y-81481901D03*
D18*
X144280000Y-82531899D03*
X151580000Y-82531899D03*
X144280000Y-80431900D03*
X151580000Y-80431900D03*
D19*
X126520591Y-148060000D03*
X135319409Y-153140000D03*
D20*
X135659705Y-147470591D03*
D21*
X130920000Y-150600000D03*
D20*
X128890443Y-146495295D03*
D22*
X126054210Y-144857795D03*
X138519320Y-149121591D03*
D19*
X56006903Y-68089801D03*
D20*
X48077223Y-63335448D03*
D21*
X51100000Y-66775000D03*
D19*
X46193097Y-65460199D03*
D20*
X54868252Y-62525497D03*
D23*
X44913816Y-62487815D03*
X58057739Y-63380118D03*
D19*
X75456903Y-69139801D03*
D20*
X67527223Y-64385448D03*
D21*
X70550000Y-67825000D03*
D19*
X65643097Y-66510199D03*
D20*
X74318252Y-63575497D03*
D23*
X64363816Y-63537815D03*
X77507739Y-64430118D03*
D19*
X85068097Y-67585199D03*
D20*
X86952223Y-65460448D03*
X93743252Y-64650497D03*
D21*
X89975000Y-68900000D03*
D19*
X94881903Y-70214801D03*
D23*
X83788816Y-64612815D03*
X96932739Y-65505118D03*
D19*
X112256903Y-79014801D03*
D20*
X111118252Y-73450497D03*
D21*
X107350000Y-77700000D03*
D20*
X104327223Y-74260448D03*
D19*
X102443097Y-76385199D03*
D23*
X101163816Y-73412815D03*
X114307739Y-74305118D03*
D19*
X129606903Y-87814801D03*
D20*
X128468252Y-82250497D03*
D21*
X124700000Y-86500000D03*
D19*
X119793097Y-85185199D03*
D20*
X121677223Y-83060448D03*
D23*
X118513816Y-82212815D03*
X131657739Y-83105118D03*
D19*
X175806903Y-85175199D03*
X165993097Y-87804801D03*
D20*
X166562422Y-85022649D03*
D21*
X170900000Y-86490000D03*
D20*
X172038651Y-80925696D03*
D24*
X163399015Y-85870281D03*
X175228138Y-80071076D03*
D19*
X193176903Y-76385199D03*
D20*
X183932422Y-76232649D03*
D21*
X188270000Y-77700000D03*
D20*
X189408651Y-72135696D03*
D19*
X183363097Y-79014801D03*
D24*
X180769015Y-77080281D03*
X192598138Y-71281076D03*
D21*
X205625000Y-68900000D03*
D19*
X200718097Y-70214801D03*
X210531903Y-67585199D03*
D20*
X201287422Y-67432649D03*
X206763651Y-63335696D03*
D24*
X198124015Y-68280281D03*
X209953138Y-62481076D03*
D21*
X225050000Y-67825000D03*
D20*
X220712422Y-66357649D03*
X226188651Y-62260696D03*
D19*
X220143097Y-69139801D03*
X229956903Y-66510199D03*
D24*
X217549015Y-67205281D03*
X229378138Y-61406076D03*
D20*
X240187422Y-65282649D03*
X245663651Y-61185696D03*
D21*
X244525000Y-66750000D03*
D19*
X249431903Y-65435199D03*
X239618097Y-68064801D03*
D24*
X237024015Y-66130281D03*
X248853138Y-60331076D03*
D19*
X268831903Y-64335199D03*
X259018097Y-66964801D03*
D20*
X259587422Y-64182649D03*
D21*
X263925000Y-65650000D03*
D20*
X265063651Y-60085696D03*
D24*
X256424015Y-65030281D03*
X268253138Y-59231076D03*
D20*
X30518252Y-79800497D03*
D19*
X31656903Y-85364801D03*
D21*
X26750000Y-84050000D03*
D20*
X23727223Y-80610448D03*
D19*
X21843097Y-82735199D03*
D23*
X20563816Y-79762815D03*
X33707739Y-80655118D03*
D21*
X46182777Y-85169552D03*
D20*
X49951029Y-80920049D03*
X43160000Y-81730000D03*
D19*
X41275874Y-83854751D03*
X51089680Y-86484353D03*
D23*
X39996593Y-80882367D03*
X53140516Y-81774670D03*
D19*
X70506903Y-87539801D03*
D20*
X69368252Y-81975497D03*
X62577223Y-82785448D03*
D19*
X60693097Y-84910199D03*
D21*
X65600000Y-86225000D03*
D23*
X59413816Y-81937815D03*
X72557739Y-82830118D03*
D20*
X88818252Y-83075497D03*
D19*
X89956903Y-88639801D03*
X80143097Y-86010199D03*
D21*
X85050000Y-87325000D03*
D20*
X82027223Y-83885448D03*
D23*
X78863816Y-83037815D03*
X92007739Y-83930118D03*
D19*
X97518097Y-94785199D03*
X107331903Y-97414801D03*
D21*
X102425000Y-96100000D03*
D20*
X106193252Y-91850497D03*
X99402223Y-92660448D03*
D23*
X96238816Y-91812815D03*
X109382739Y-92705118D03*
D20*
X116757223Y-101450448D03*
D19*
X124686903Y-106204801D03*
D20*
X123548252Y-100640497D03*
D21*
X119780000Y-104890000D03*
D19*
X114873097Y-103575199D03*
D23*
X113593816Y-100602815D03*
X126737739Y-101495118D03*
D19*
X170923097Y-106204801D03*
D20*
X176968651Y-99325696D03*
D21*
X175830000Y-104890000D03*
D20*
X171492422Y-103422649D03*
D19*
X180736903Y-103575199D03*
D24*
X168329015Y-104270281D03*
X180158138Y-98471076D03*
D19*
X198106903Y-94785199D03*
X188293097Y-97414801D03*
D20*
X188862422Y-94632649D03*
X194338651Y-90535696D03*
D21*
X193200000Y-96100000D03*
D24*
X185699015Y-95480281D03*
X197528138Y-89681076D03*
D20*
X206212422Y-85857649D03*
X211688651Y-81760696D03*
D21*
X210550000Y-87325000D03*
D19*
X215456903Y-86010199D03*
X205643097Y-88639801D03*
D24*
X203049015Y-86705281D03*
X214878138Y-80906076D03*
D19*
X244493097Y-86439801D03*
D20*
X245062422Y-83657649D03*
D21*
X249400000Y-85125000D03*
D19*
X254306903Y-83810199D03*
D20*
X250538651Y-79560696D03*
D24*
X241899015Y-84505281D03*
X253728138Y-78706076D03*
D21*
X268860000Y-84050000D03*
D20*
X269998651Y-78485696D03*
D19*
X273766903Y-82735199D03*
X263953097Y-85364801D03*
D20*
X264522422Y-82582649D03*
D24*
X261359015Y-83430281D03*
X273188138Y-77631076D03*
D19*
X26731903Y-103764801D03*
D21*
X21825000Y-102450000D03*
D19*
X16918097Y-101135199D03*
D20*
X18802223Y-99010448D03*
X25593252Y-98200497D03*
D23*
X15638816Y-98162815D03*
X28782739Y-99055118D03*
D20*
X45028252Y-99320497D03*
D19*
X46166903Y-104884801D03*
D20*
X38237223Y-100130448D03*
D19*
X36353097Y-102255199D03*
D21*
X41260000Y-103570000D03*
D23*
X35073816Y-99282815D03*
X48217739Y-100175118D03*
D19*
X55783097Y-103315199D03*
D20*
X64458252Y-100380497D03*
D21*
X60690000Y-104630000D03*
D20*
X57667223Y-101190448D03*
D19*
X65596903Y-105944801D03*
D23*
X54503816Y-100342815D03*
X67647739Y-101235118D03*
D20*
X83893252Y-101450497D03*
X77102223Y-102260448D03*
D19*
X85031903Y-107014801D03*
X75218097Y-104385199D03*
D21*
X80125000Y-105700000D03*
D23*
X73938816Y-101412815D03*
X87082739Y-102305118D03*
D19*
X92573097Y-113195199D03*
D20*
X94457223Y-111070448D03*
D21*
X97480000Y-114510000D03*
D19*
X102386903Y-115824801D03*
D20*
X101248252Y-110260497D03*
D23*
X91293816Y-110222815D03*
X104437739Y-111115118D03*
D21*
X114850000Y-123300000D03*
D20*
X118618252Y-119050497D03*
D19*
X119756903Y-124614801D03*
X109943097Y-121985199D03*
D20*
X111827223Y-119860448D03*
D23*
X108663816Y-119012815D03*
X121807739Y-119905118D03*
D20*
X181908651Y-117715696D03*
D21*
X180770000Y-123280000D03*
D19*
X175863097Y-124594801D03*
X185676903Y-121965199D03*
D20*
X176432422Y-121812649D03*
D24*
X173269015Y-122660281D03*
X185098138Y-116861076D03*
D19*
X193218097Y-115804801D03*
D21*
X198125000Y-114490000D03*
D19*
X203031903Y-113175199D03*
D20*
X193787422Y-113022649D03*
X199263651Y-108925696D03*
D24*
X190624015Y-113870281D03*
X202453138Y-108071076D03*
D19*
X220381903Y-104385199D03*
D20*
X211137422Y-104232649D03*
D21*
X215475000Y-105700000D03*
D19*
X210568097Y-107014801D03*
D20*
X216613651Y-100135696D03*
D24*
X207974015Y-105080281D03*
X219803138Y-99281076D03*
D21*
X254360000Y-103570000D03*
D20*
X255498651Y-98005696D03*
X250022422Y-102102649D03*
D19*
X249453097Y-104884801D03*
X259266903Y-102255199D03*
D24*
X246859015Y-102950281D03*
X258688138Y-97151076D03*
D19*
X268873097Y-103774801D03*
D20*
X274918651Y-96895696D03*
X269442422Y-100992649D03*
D21*
X273780000Y-102460000D03*
D19*
X278686903Y-101145199D03*
D24*
X266279015Y-101840281D03*
X278108138Y-96041076D03*
D21*
X91350000Y-139490000D03*
D19*
X96256903Y-140804801D03*
X86443097Y-138175199D03*
D20*
X88327223Y-136050448D03*
X95118252Y-135240497D03*
D23*
X85163816Y-135202815D03*
X98307739Y-136095118D03*
D20*
X106727223Y-140985448D03*
D21*
X109750000Y-144425000D03*
D19*
X114656903Y-145739801D03*
X104843097Y-143110199D03*
D20*
X113518252Y-140175497D03*
D23*
X103563816Y-140137815D03*
X116707739Y-141030118D03*
D19*
X180943097Y-145734801D03*
D20*
X181512422Y-142952649D03*
D19*
X190756903Y-143105199D03*
D20*
X186988651Y-138855696D03*
D21*
X185850000Y-144420000D03*
D24*
X178349015Y-143800281D03*
X190178138Y-138001076D03*
D19*
X199363097Y-140804801D03*
D20*
X205408651Y-133925696D03*
X199932422Y-138022649D03*
D19*
X209176903Y-138175199D03*
D21*
X204270000Y-139490000D03*
D24*
X196769015Y-138870281D03*
X208598138Y-133071076D03*
D21*
X234940000Y-104630000D03*
D19*
X239846903Y-103315199D03*
X230033097Y-105944801D03*
D20*
X230602422Y-103162649D03*
X236078651Y-99065696D03*
D24*
X227439015Y-104010281D03*
X239268138Y-98211076D03*
D19*
X36579871Y-66963763D03*
D20*
X35441220Y-61399459D03*
D19*
X26766065Y-64334161D03*
D20*
X28650191Y-62209410D03*
D21*
X31672968Y-65648962D03*
D23*
X25486784Y-61361777D03*
X38630707Y-62254080D03*
D19*
X169079409Y-148060000D03*
D21*
X164680000Y-150600000D03*
D20*
X164339705Y-144930591D03*
D19*
X160280591Y-153140000D03*
D20*
X160110443Y-150305295D03*
D25*
X157274210Y-151942795D03*
X167199320Y-143279591D03*
D19*
X225093097Y-87539801D03*
D21*
X230000000Y-86225000D03*
D19*
X234906903Y-84910199D03*
D20*
X231138651Y-80660696D03*
X225662422Y-84757649D03*
D24*
X222499015Y-85605281D03*
X234328138Y-79806076D03*
M02*
