G04 #@! TF.GenerationSoftware,KiCad,Pcbnew,(6.0.8-1)-1*
G04 #@! TF.CreationDate,2022-11-12T18:34:56-05:00*
G04 #@! TF.ProjectId,ergo3by6plus3nonSplit,6572676f-3362-4793-9670-6c7573336e6f,rev?*
G04 #@! TF.SameCoordinates,Original*
G04 #@! TF.FileFunction,Copper,L2,Bot*
G04 #@! TF.FilePolarity,Positive*
%FSLAX46Y46*%
G04 Gerber Fmt 4.6, Leading zero omitted, Abs format (unit mm)*
G04 Created by KiCad (PCBNEW (6.0.8-1)-1) date 2022-11-12 18:34:56*
%MOMM*%
%LPD*%
G01*
G04 APERTURE LIST*
G04 Aperture macros list*
%AMRoundRect*
0 Rectangle with rounded corners*
0 $1 Rounding radius*
0 $2 $3 $4 $5 $6 $7 $8 $9 X,Y pos of 4 corners*
0 Add a 4 corners polygon primitive as box body*
4,1,4,$2,$3,$4,$5,$6,$7,$8,$9,$2,$3,0*
0 Add four circle primitives for the rounded corners*
1,1,$1+$1,$2,$3*
1,1,$1+$1,$4,$5*
1,1,$1+$1,$6,$7*
1,1,$1+$1,$8,$9*
0 Add four rect primitives between the rounded corners*
20,1,$1+$1,$2,$3,$4,$5,0*
20,1,$1+$1,$4,$5,$6,$7,0*
20,1,$1+$1,$6,$7,$8,$9,0*
20,1,$1+$1,$8,$9,$2,$3,0*%
%AMRotRect*
0 Rectangle, with rotation*
0 The origin of the aperture is its center*
0 $1 length*
0 $2 width*
0 $3 Rotation angle, in degrees counterclockwise*
0 Add horizontal line*
21,1,$1,$2,0,0,$3*%
G04 Aperture macros list end*
G04 #@! TA.AperFunction,SMDPad,CuDef*
%ADD10RotRect,0.900000X1.200000X105.000000*%
G04 #@! TD*
G04 #@! TA.AperFunction,SMDPad,CuDef*
%ADD11RotRect,0.900000X1.200000X120.000000*%
G04 #@! TD*
G04 #@! TA.AperFunction,SMDPad,CuDef*
%ADD12RotRect,0.900000X1.200000X60.000000*%
G04 #@! TD*
G04 #@! TA.AperFunction,SMDPad,CuDef*
%ADD13RotRect,0.900000X1.200000X75.000000*%
G04 #@! TD*
G04 #@! TA.AperFunction,ComponentPad*
%ADD14R,1.700000X1.700000*%
G04 #@! TD*
G04 #@! TA.AperFunction,ComponentPad*
%ADD15O,1.700000X1.700000*%
G04 #@! TD*
G04 #@! TA.AperFunction,SMDPad,CuDef*
%ADD16R,0.711200X1.498600*%
G04 #@! TD*
G04 #@! TA.AperFunction,SMDPad,CuDef*
%ADD17R,0.990600X0.812800*%
G04 #@! TD*
G04 #@! TA.AperFunction,SMDPad,CuDef*
%ADD18RoundRect,0.250000X-1.387676X-0.353525X0.387676X-1.378525X1.387676X0.353525X-0.387676X1.378525X0*%
G04 #@! TD*
G04 #@! TA.AperFunction,SMDPad,CuDef*
%ADD19RoundRect,0.250000X-1.248893X-0.700636X0.731255X-1.231215X1.248893X0.700636X-0.731255X1.231215X0*%
G04 #@! TD*
G04 #@! TA.AperFunction,SMDPad,CuDef*
%ADD20RoundRect,0.250000X-0.731255X-1.231215X1.248893X-0.700636X0.731255X1.231215X-1.248893X0.700636X0*%
G04 #@! TD*
G04 #@! TA.AperFunction,SMDPad,CuDef*
%ADD21RoundRect,0.250000X-0.387676X-1.378525X1.387676X-0.353525X0.387676X1.378525X-1.387676X0.353525X0*%
G04 #@! TD*
G04 #@! TA.AperFunction,ComponentPad*
%ADD22R,1.600000X1.600000*%
G04 #@! TD*
G04 #@! TA.AperFunction,ComponentPad*
%ADD23C,1.600000*%
G04 #@! TD*
G04 #@! TA.AperFunction,ViaPad*
%ADD24C,0.800000*%
G04 #@! TD*
G04 #@! TA.AperFunction,Conductor*
%ADD25C,0.250000*%
G04 #@! TD*
G04 #@! TA.AperFunction,Conductor*
%ADD26C,0.500000*%
G04 #@! TD*
G04 APERTURE END LIST*
D10*
X211837051Y-144243778D03*
X210982949Y-141056222D03*
X193434102Y-149127556D03*
X192580000Y-145940000D03*
D11*
X173185000Y-153198942D03*
X171535000Y-150341058D03*
D12*
X136875000Y-157138942D03*
X138525000Y-154281058D03*
D13*
X113942949Y-152373778D03*
X114797051Y-149186222D03*
X95522949Y-147373778D03*
X96377051Y-144186222D03*
D10*
X281367051Y-107233778D03*
X280512949Y-104046222D03*
X261907051Y-108253778D03*
X261052949Y-105066222D03*
X242517051Y-109393778D03*
X241662949Y-106206222D03*
X223127051Y-110473778D03*
X222272949Y-107286222D03*
X205707051Y-119293778D03*
X204852949Y-116106222D03*
X188384102Y-128037556D03*
X187530000Y-124850000D03*
D13*
X119062949Y-131173778D03*
X119917051Y-127986222D03*
X101662949Y-122393778D03*
X102517051Y-119206222D03*
X84312949Y-113603778D03*
X85167051Y-110416222D03*
X64882949Y-112523778D03*
X65737051Y-109336222D03*
X45492949Y-111443778D03*
X46347051Y-108256222D03*
X26032949Y-110353778D03*
X26887051Y-107166222D03*
D10*
X276427051Y-88803778D03*
X275572949Y-85616222D03*
X256987051Y-89823778D03*
X256132949Y-86636222D03*
X237537051Y-90953778D03*
X236682949Y-87766222D03*
X218087051Y-92033778D03*
X217232949Y-88846222D03*
X200757051Y-100843778D03*
X199902949Y-97656222D03*
X183387051Y-109603778D03*
X182532949Y-106416222D03*
D13*
X123972949Y-112803778D03*
X124827051Y-109616222D03*
X106642949Y-103943778D03*
X107497051Y-100756222D03*
X89252949Y-95213778D03*
X90107051Y-92026222D03*
X69772949Y-94123778D03*
X70627051Y-90936222D03*
X50362949Y-93113778D03*
X51217051Y-89926222D03*
X30962949Y-91983778D03*
X31817051Y-88796222D03*
D10*
X271487051Y-70423778D03*
X270632949Y-67236222D03*
X252117051Y-71503778D03*
X251262949Y-68316222D03*
X232617051Y-72523778D03*
X231762949Y-69336222D03*
X213167051Y-73653778D03*
X212312949Y-70466222D03*
X195827051Y-82443778D03*
X194972949Y-79256222D03*
X178447051Y-91233778D03*
X177592949Y-88046222D03*
D13*
X128842949Y-94383778D03*
X129697051Y-91196222D03*
X111542949Y-85603778D03*
X112397051Y-82416222D03*
X94182949Y-76783778D03*
X95037051Y-73596222D03*
X74772949Y-75703778D03*
X75627051Y-72516222D03*
X54172949Y-74403778D03*
X55027051Y-71216222D03*
X32932949Y-72373778D03*
X33787051Y-69186222D03*
D14*
X164110000Y-130970000D03*
D15*
X164110000Y-128430000D03*
X164110000Y-125890000D03*
X164110000Y-123350000D03*
X164110000Y-120810000D03*
D16*
X145679999Y-83231900D03*
X148680001Y-83231900D03*
X150180001Y-83231900D03*
D17*
X144280000Y-82531899D03*
X151580000Y-82531899D03*
X144280000Y-80431900D03*
X151580000Y-80431900D03*
D18*
X126054210Y-144857795D03*
X138519320Y-149121591D03*
D19*
X44913816Y-62487815D03*
X58057739Y-63380118D03*
X64363816Y-63537815D03*
X77507739Y-64430118D03*
X83788816Y-64612815D03*
X96932739Y-65505118D03*
X101163816Y-73412815D03*
X114307739Y-74305118D03*
X118513816Y-82212815D03*
X131657739Y-83105118D03*
D20*
X163399015Y-85870281D03*
X175228138Y-80071076D03*
X180769015Y-77080281D03*
X192598138Y-71281076D03*
X198124015Y-68280281D03*
X209953138Y-62481076D03*
X217549015Y-67205281D03*
X229378138Y-61406076D03*
X237024015Y-66130281D03*
X248853138Y-60331076D03*
X256424015Y-65030281D03*
X268253138Y-59231076D03*
D19*
X20563816Y-79762815D03*
X33707739Y-80655118D03*
X39996593Y-80882367D03*
X53140516Y-81774670D03*
X59413816Y-81937815D03*
X72557739Y-82830118D03*
X78863816Y-83037815D03*
X92007739Y-83930118D03*
X96238816Y-91812815D03*
X109382739Y-92705118D03*
X113593816Y-100602815D03*
X126737739Y-101495118D03*
D20*
X168329015Y-104270281D03*
X180158138Y-98471076D03*
X185699015Y-95480281D03*
X197528138Y-89681076D03*
X203049015Y-86705281D03*
X214878138Y-80906076D03*
X241899015Y-84505281D03*
X253728138Y-78706076D03*
X261359015Y-83430281D03*
X273188138Y-77631076D03*
D19*
X15638816Y-98162815D03*
X28782739Y-99055118D03*
X35073816Y-99282815D03*
X48217739Y-100175118D03*
X54503816Y-100342815D03*
X67647739Y-101235118D03*
X73938816Y-101412815D03*
X87082739Y-102305118D03*
X91293816Y-110222815D03*
X104437739Y-111115118D03*
X108663816Y-119012815D03*
X121807739Y-119905118D03*
D20*
X173269015Y-122660281D03*
X185098138Y-116861076D03*
X190624015Y-113870281D03*
X202453138Y-108071076D03*
X207974015Y-105080281D03*
X219803138Y-99281076D03*
X246859015Y-102950281D03*
X258688138Y-97151076D03*
X266279015Y-101840281D03*
X278108138Y-96041076D03*
D19*
X85163816Y-135202815D03*
X98307739Y-136095118D03*
X103563816Y-140137815D03*
X116707739Y-141030118D03*
D20*
X178349015Y-143800281D03*
X190178138Y-138001076D03*
X196769015Y-138870281D03*
X208598138Y-133071076D03*
X227439015Y-104010281D03*
X239268138Y-98211076D03*
D19*
X25486784Y-61361777D03*
X38630707Y-62254080D03*
D21*
X157274210Y-151942795D03*
X167199320Y-143279591D03*
D20*
X222499015Y-85605281D03*
X234328138Y-79806076D03*
D22*
X155420000Y-80950000D03*
D23*
X155420000Y-83490000D03*
X155420000Y-86030000D03*
X155420000Y-88570000D03*
X155420000Y-91110000D03*
X155420000Y-93650000D03*
X155420000Y-96190000D03*
X155420000Y-98730000D03*
X155420000Y-101270000D03*
X155420000Y-103810000D03*
X155420000Y-106350000D03*
X155420000Y-108890000D03*
X140180000Y-108890000D03*
X140180000Y-106350000D03*
X140180000Y-103810000D03*
X140180000Y-101270000D03*
X140180000Y-98730000D03*
X140180000Y-96190000D03*
X140180000Y-93650000D03*
X140180000Y-91110000D03*
X140180000Y-88570000D03*
X140180000Y-86030000D03*
X140180000Y-83490000D03*
X140180000Y-80950000D03*
D24*
X163090000Y-91110000D03*
X161690000Y-93650000D03*
X161920000Y-88540000D03*
X163280000Y-117700000D03*
X160940000Y-80950000D03*
X168740000Y-109820000D03*
X162940000Y-104420000D03*
X168830000Y-111370000D03*
X157730000Y-110800000D03*
X148680001Y-83231900D03*
X143800000Y-113160000D03*
X151760000Y-117660000D03*
X146750000Y-143870000D03*
X147710000Y-157520000D03*
X145660000Y-83270000D03*
X147840000Y-115840000D03*
X126540000Y-141480000D03*
X126650000Y-120260000D03*
X124630000Y-140130000D03*
X135090000Y-83500000D03*
X145710000Y-157520000D03*
X145520000Y-142900000D03*
X168350000Y-106572996D03*
X185699015Y-106629015D03*
X202910000Y-95640000D03*
X222540000Y-91250000D03*
X184500000Y-110490000D03*
X266230000Y-94450000D03*
X170770000Y-111840000D03*
X241300000Y-93750000D03*
X196750000Y-138900000D03*
X169444500Y-137830000D03*
X178310000Y-143430000D03*
X168390000Y-137810000D03*
X156857380Y-109725999D03*
X112530000Y-115070000D03*
X129260000Y-101350000D03*
X154683436Y-110175500D03*
X94808315Y-106708315D03*
X152690000Y-110900000D03*
X78800000Y-96470000D03*
X211837051Y-144243778D03*
X193434102Y-149127556D03*
X173185000Y-153198942D03*
X136875000Y-157138942D03*
X95370000Y-147300000D03*
X113942949Y-152373778D03*
X142860000Y-109747496D03*
X150350000Y-108810000D03*
X151920000Y-110220000D03*
X151120000Y-109520000D03*
X19345815Y-94455815D03*
X89440000Y-97460000D03*
X58880000Y-96030000D03*
X39180000Y-95160000D03*
X107007700Y-106112300D03*
X127810000Y-115150000D03*
X281367051Y-107233778D03*
X261907051Y-108253778D03*
X242517051Y-109393778D03*
X223127051Y-110473778D03*
X188280000Y-128050000D03*
X205707051Y-119293778D03*
X276427051Y-88803778D03*
X256987051Y-89823778D03*
X237537051Y-90953778D03*
X218087051Y-92033778D03*
X183260000Y-109633502D03*
X200757051Y-100843778D03*
X271487051Y-70423778D03*
X252117051Y-71503778D03*
X232617051Y-72523778D03*
X213167051Y-73653778D03*
X195827051Y-82443778D03*
X178420000Y-91170000D03*
X26032949Y-110353778D03*
X45492949Y-111443778D03*
X64882949Y-112523778D03*
X84312949Y-113603778D03*
X119100000Y-131200000D03*
X101662949Y-122393778D03*
X30962949Y-91983778D03*
X50362949Y-93113778D03*
X69820352Y-93703028D03*
X89252949Y-95213778D03*
X124030000Y-112760000D03*
X106642949Y-103943778D03*
X32970000Y-72430000D03*
X54170000Y-74380000D03*
X74772949Y-75703778D03*
X94182949Y-76783778D03*
X111542949Y-85603778D03*
X128860000Y-94350000D03*
D25*
X38630707Y-62254080D02*
X38630707Y-62269293D01*
X38630707Y-62269293D02*
X33780000Y-67120000D01*
X33780000Y-67120000D02*
X33780000Y-69179171D01*
X33780000Y-69179171D02*
X33787051Y-69186222D01*
X164110000Y-128430000D02*
X166184501Y-126355499D01*
X166184501Y-118060191D02*
X161580499Y-113456189D01*
X160880998Y-89579002D02*
X161920000Y-88540000D01*
X161580499Y-93759501D02*
X161690000Y-93650000D01*
X164110000Y-120810000D02*
X160411497Y-117111497D01*
X166810000Y-118050000D02*
X162030000Y-113270000D01*
X160411497Y-81478503D02*
X160940000Y-80950000D01*
X160860998Y-106827622D02*
X160880998Y-106807622D01*
X160880998Y-106807622D02*
X160880998Y-89579002D01*
X165734501Y-118245881D02*
X160860998Y-113372378D01*
X162030000Y-113270000D02*
X162030000Y-94860000D01*
X166184501Y-126355499D02*
X166184501Y-118060191D01*
X162030000Y-94860000D02*
X163160000Y-93730000D01*
X166810000Y-128270000D02*
X166810000Y-118240000D01*
X165734501Y-124265499D02*
X165734501Y-118245881D01*
X161580499Y-113456189D02*
X161580499Y-93759501D01*
X160411497Y-117111497D02*
X160411497Y-81478503D01*
X164110000Y-130970000D02*
X166810000Y-128270000D01*
X160860998Y-113372378D02*
X160860998Y-106827622D01*
X166810000Y-118240000D02*
X166810000Y-118050000D01*
X164110000Y-125890000D02*
X165734501Y-124265499D01*
X163160000Y-93730000D02*
X163160000Y-91180000D01*
X163160000Y-91180000D02*
X163090000Y-91110000D01*
X157274210Y-151942795D02*
X157274210Y-147825790D01*
X157274210Y-147825790D02*
X167450000Y-137650000D01*
X167450000Y-117930000D02*
X162940000Y-113420000D01*
X162940000Y-113420000D02*
X162940000Y-104420000D01*
X167450000Y-137650000D02*
X167450000Y-117930000D01*
X165285000Y-122175000D02*
X165285000Y-119705000D01*
X164110000Y-123350000D02*
X165285000Y-122175000D01*
X165285000Y-119705000D02*
X163280000Y-117700000D01*
X168329015Y-94313325D02*
X168329015Y-104270281D01*
X163399015Y-89383325D02*
X168329015Y-94313325D01*
X163399015Y-85870281D02*
X163399015Y-89383325D01*
X168847701Y-137352299D02*
X168847701Y-111387701D01*
X168390000Y-137810000D02*
X168847701Y-137352299D01*
X168847701Y-111387701D02*
X168830000Y-111370000D01*
X168329015Y-104270281D02*
X168329015Y-107789015D01*
X168329015Y-107789015D02*
X173269015Y-112729015D01*
X173269015Y-112729015D02*
X173269015Y-122660281D01*
X169800000Y-110880000D02*
X168740000Y-109820000D01*
X169444500Y-137830000D02*
X169800000Y-137474500D01*
X169800000Y-137474500D02*
X169800000Y-110880000D01*
X154683436Y-110175500D02*
X155307936Y-110800000D01*
X155307936Y-110800000D02*
X157730000Y-110800000D01*
X156255999Y-109725999D02*
X156857380Y-109725999D01*
X155420000Y-108890000D02*
X156255999Y-109725999D01*
X178310000Y-143430000D02*
X170720000Y-135840000D01*
X170720000Y-135840000D02*
X170720000Y-111890000D01*
X170720000Y-111890000D02*
X170770000Y-111840000D01*
D26*
X145660000Y-113660000D02*
X145660000Y-83270000D01*
X147840000Y-115840000D02*
X145660000Y-113660000D01*
D25*
X143760000Y-89610000D02*
X143760000Y-113120000D01*
X143760000Y-113120000D02*
X143800000Y-113160000D01*
X155420000Y-88570000D02*
X149310000Y-94680000D01*
X149310000Y-94680000D02*
X149310000Y-115210000D01*
X149310000Y-115210000D02*
X151760000Y-117660000D01*
X140180000Y-96190000D02*
X142860000Y-98870000D01*
X142860000Y-98870000D02*
X142860000Y-109747496D01*
X136875000Y-157138942D02*
X136875000Y-157105000D01*
X133280000Y-153510000D02*
X133280000Y-151598759D01*
X128830000Y-143747844D02*
X128830000Y-117700000D01*
X133280000Y-151598759D02*
X133295001Y-151583758D01*
X136875000Y-157105000D02*
X133280000Y-153510000D01*
X133295001Y-151583758D02*
X133295001Y-148212845D01*
X133295001Y-148212845D02*
X128830000Y-143747844D01*
X128830000Y-117700000D02*
X140180000Y-106350000D01*
X143760000Y-89610000D02*
X140180000Y-86030000D01*
D26*
X135090000Y-104670000D02*
X135090000Y-83500000D01*
X124630000Y-140130000D02*
X124630000Y-115130000D01*
X124630000Y-115130000D02*
X135090000Y-104670000D01*
X146750000Y-143870000D02*
X147730000Y-144850000D01*
X147730000Y-157500000D02*
X147710000Y-157520000D01*
X147730000Y-144850000D02*
X147730000Y-157500000D01*
X126540000Y-120370000D02*
X126540000Y-141480000D01*
X126650000Y-120260000D02*
X126540000Y-120370000D01*
X145520000Y-142900000D02*
X145520000Y-157330000D01*
X145520000Y-157330000D02*
X145710000Y-157520000D01*
D25*
X126054210Y-144857795D02*
X127780000Y-143132005D01*
X127780000Y-143132005D02*
X127780000Y-115180000D01*
X127780000Y-115180000D02*
X127810000Y-115150000D01*
X131657739Y-89235534D02*
X129697051Y-91196222D01*
X131657739Y-83105118D02*
X131657739Y-89235534D01*
X123647622Y-120500998D02*
X123647622Y-114480998D01*
X123647622Y-114480998D02*
X124357622Y-113770998D01*
X123120998Y-121185892D02*
X123178929Y-120969691D01*
X123178929Y-120969691D02*
X123647622Y-120500998D01*
X124518395Y-113770998D02*
X129260000Y-109029393D01*
X123120998Y-127179002D02*
X123120998Y-121185892D01*
X119100000Y-131200000D02*
X123120998Y-127179002D01*
X129260000Y-109029393D02*
X129260000Y-101350000D01*
X124357622Y-113770998D02*
X124518395Y-113770998D01*
X58057739Y-63380118D02*
X58057739Y-68185534D01*
X58057739Y-68185534D02*
X55027051Y-71216222D01*
X241300000Y-97391266D02*
X241300000Y-93750000D01*
X241899015Y-84505281D02*
X241899015Y-93150985D01*
X246859015Y-102950281D02*
X241300000Y-97391266D01*
X241899015Y-93150985D02*
X241300000Y-93750000D01*
X237024015Y-66130281D02*
X238110000Y-67216266D01*
X238110000Y-67216266D02*
X238110000Y-80716266D01*
X238110000Y-80716266D02*
X241899015Y-84505281D01*
X154252299Y-109744363D02*
X154683436Y-110175500D01*
X154252299Y-107517701D02*
X154252299Y-109744363D01*
X155420000Y-106350000D02*
X154252299Y-107517701D01*
X266279015Y-94499015D02*
X266230000Y-94450000D01*
X266279015Y-101840281D02*
X266279015Y-94499015D01*
X261359015Y-89579015D02*
X266230000Y-94450000D01*
X261359015Y-83430281D02*
X261359015Y-89579015D01*
X188874000Y-127547658D02*
X188874000Y-114864000D01*
X188384102Y-128037556D02*
X188874000Y-127547658D01*
X188874000Y-114864000D02*
X184500000Y-110490000D01*
X155420000Y-88570000D02*
X155420000Y-86030000D01*
X183387051Y-109603778D02*
X183289724Y-109603778D01*
X183289724Y-109603778D02*
X183260000Y-109633502D01*
X185699015Y-106629015D02*
X185699015Y-108945281D01*
X185699015Y-95480281D02*
X185699015Y-106629015D01*
X203049015Y-95779015D02*
X202910000Y-95640000D01*
X203049015Y-95779015D02*
X203049015Y-100155281D01*
X203049015Y-86705281D02*
X203049015Y-95779015D01*
X222499015Y-85605281D02*
X222499015Y-99070281D01*
X222499015Y-99070281D02*
X227439015Y-104010281D01*
X196769015Y-138870281D02*
X196769015Y-138880985D01*
X196769015Y-138880985D02*
X196750000Y-138900000D01*
X178349015Y-143800281D02*
X178349015Y-143469015D01*
X178349015Y-143469015D02*
X178310000Y-143430000D01*
X39996593Y-94343407D02*
X39180000Y-95160000D01*
X39180000Y-95176631D02*
X39180000Y-95160000D01*
X35073816Y-99282815D02*
X39180000Y-95176631D01*
X39996593Y-80882367D02*
X39996593Y-94343407D01*
X59413816Y-81937815D02*
X59413816Y-95496184D01*
X59413816Y-95496184D02*
X58880000Y-96030000D01*
X54503816Y-100342815D02*
X58816631Y-96030000D01*
X58816631Y-96030000D02*
X58880000Y-96030000D01*
X73938816Y-101412815D02*
X78800000Y-96551631D01*
X78863816Y-83037815D02*
X78863816Y-96406184D01*
X78800000Y-96551631D02*
X78800000Y-96470000D01*
X78863816Y-96406184D02*
X78800000Y-96470000D01*
X106840000Y-106280000D02*
X107007700Y-106112300D01*
X103563816Y-140137815D02*
X106840000Y-136861631D01*
X106840000Y-136861631D02*
X106840000Y-106280000D01*
X152690000Y-106540000D02*
X152690000Y-110900000D01*
X155420000Y-103810000D02*
X152690000Y-106540000D01*
X150350000Y-101260000D02*
X150350000Y-108810000D01*
X155420000Y-96190000D02*
X150350000Y-101260000D01*
X155420000Y-98730000D02*
X151120000Y-103030000D01*
X151120000Y-103030000D02*
X151120000Y-109520000D01*
X151920000Y-104770000D02*
X151920000Y-110220000D01*
X155420000Y-101270000D02*
X151920000Y-104770000D01*
X113593816Y-100602815D02*
X113593816Y-114082815D01*
X113593816Y-114082815D02*
X108663816Y-119012815D01*
X96238816Y-91812815D02*
X96238816Y-105277815D01*
X96238816Y-105277815D02*
X91293816Y-110222815D01*
X138519320Y-152526738D02*
X138525000Y-152532418D01*
X138519320Y-149121591D02*
X138519320Y-152526738D01*
X138525000Y-152532418D02*
X138525000Y-154281058D01*
X95522949Y-147373778D02*
X95443778Y-147373778D01*
X95443778Y-147373778D02*
X95370000Y-147300000D01*
X85163816Y-135202815D02*
X89440000Y-130926631D01*
X89440000Y-130926631D02*
X89440000Y-97460000D01*
X20563816Y-93237815D02*
X19345815Y-94455815D01*
X19345815Y-94455815D02*
X15638816Y-98162815D01*
X188292444Y-128037556D02*
X188280000Y-128050000D01*
X188384102Y-128037556D02*
X188292444Y-128037556D01*
X178447051Y-91233778D02*
X178447051Y-91197051D01*
X178447051Y-91197051D02*
X178420000Y-91170000D01*
X119062949Y-131173778D02*
X119073778Y-131173778D01*
X119073778Y-131173778D02*
X119100000Y-131200000D01*
X123972949Y-112803778D02*
X123986222Y-112803778D01*
X123986222Y-112803778D02*
X124030000Y-112760000D01*
X128842949Y-94367051D02*
X128860000Y-94350000D01*
X128842949Y-94383778D02*
X128842949Y-94367051D01*
X20563816Y-79762815D02*
X20563816Y-93237815D01*
X25486784Y-61361777D02*
X25486784Y-74839847D01*
X25486784Y-74839847D02*
X20563816Y-79762815D01*
X44913816Y-62487815D02*
X44913816Y-75965144D01*
X44913816Y-75965144D02*
X39996593Y-80882367D01*
X64363816Y-63537815D02*
X64363816Y-76987815D01*
X64363816Y-76987815D02*
X59413816Y-81937815D01*
X83788816Y-64612815D02*
X83788816Y-78112815D01*
X83788816Y-78112815D02*
X78863816Y-83037815D01*
X101163816Y-73412815D02*
X101163816Y-86887815D01*
X101163816Y-86887815D02*
X96238816Y-91812815D01*
X118513816Y-82212815D02*
X118513816Y-95682815D01*
X118513816Y-95682815D02*
X113593816Y-100602815D01*
X185699015Y-108945281D02*
X190624015Y-113870281D01*
X180769015Y-77080281D02*
X180769015Y-90550281D01*
X180769015Y-90550281D02*
X185699015Y-95480281D01*
X203049015Y-100155281D02*
X207974015Y-105080281D01*
X198124015Y-68280281D02*
X198124015Y-81780281D01*
X198124015Y-81780281D02*
X203049015Y-86705281D01*
X217549015Y-67205281D02*
X217549015Y-80655281D01*
X217549015Y-80655281D02*
X222499015Y-85605281D01*
X256424015Y-65030281D02*
X256424015Y-66138488D01*
X256424015Y-66138488D02*
X261359015Y-71073488D01*
X261359015Y-71073488D02*
X261359015Y-83430281D01*
X278108138Y-96041076D02*
X280512949Y-98445887D01*
X280512949Y-98445887D02*
X280512949Y-104046222D01*
X273188138Y-77631076D02*
X275572949Y-80015887D01*
X275572949Y-80015887D02*
X275572949Y-85616222D01*
X268253138Y-59231076D02*
X270632949Y-61610887D01*
X270632949Y-61610887D02*
X270632949Y-67236222D01*
X248853138Y-60331076D02*
X251262949Y-62740887D01*
X251262949Y-62740887D02*
X251262949Y-68316222D01*
X253728138Y-78706076D02*
X256132949Y-81110887D01*
X256132949Y-81110887D02*
X256132949Y-86636222D01*
X258688138Y-97151076D02*
X261052949Y-99515887D01*
X261052949Y-99515887D02*
X261052949Y-105066222D01*
X239268138Y-98211076D02*
X241662949Y-100605887D01*
X241662949Y-100605887D02*
X241662949Y-106206222D01*
X234328138Y-79806076D02*
X236682949Y-82160887D01*
X236682949Y-82160887D02*
X236682949Y-87766222D01*
X229378138Y-61406076D02*
X231762949Y-63790887D01*
X231762949Y-63790887D02*
X231762949Y-69336222D01*
X209953138Y-62481076D02*
X212312949Y-64840887D01*
X212312949Y-64840887D02*
X212312949Y-70466222D01*
X214878138Y-80906076D02*
X217232949Y-83260887D01*
X217232949Y-83260887D02*
X217232949Y-88846222D01*
X219803138Y-99281076D02*
X222272949Y-101750887D01*
X222272949Y-101750887D02*
X222272949Y-107286222D01*
X202453138Y-108071076D02*
X204852949Y-110470887D01*
X204852949Y-110470887D02*
X204852949Y-116106222D01*
X197528138Y-89681076D02*
X199902949Y-92055887D01*
X199902949Y-92055887D02*
X199902949Y-97656222D01*
X192598138Y-71281076D02*
X194972949Y-73655887D01*
X194972949Y-73655887D02*
X194972949Y-79256222D01*
X175228138Y-80071076D02*
X177592949Y-82435887D01*
X177592949Y-82435887D02*
X177592949Y-88046222D01*
X180158138Y-98471076D02*
X182532949Y-100845887D01*
X182532949Y-100845887D02*
X182532949Y-106416222D01*
X185098138Y-116861076D02*
X187530000Y-119292938D01*
X187530000Y-119292938D02*
X187530000Y-124850000D01*
X208598138Y-133071076D02*
X210982949Y-135455887D01*
X210982949Y-135455887D02*
X210982949Y-141056222D01*
X190178138Y-138001076D02*
X192580000Y-140402938D01*
X192580000Y-140402938D02*
X192580000Y-145940000D01*
X167199320Y-143279591D02*
X171535000Y-147615271D01*
X171535000Y-147615271D02*
X171535000Y-150341058D01*
X126737739Y-101495118D02*
X126737739Y-107705534D01*
X126737739Y-107705534D02*
X124827051Y-109616222D01*
X121807739Y-119905118D02*
X121807739Y-126095534D01*
X121807739Y-126095534D02*
X119917051Y-127986222D01*
X116707739Y-141030118D02*
X116707739Y-147275534D01*
X116707739Y-147275534D02*
X114797051Y-149186222D01*
X98307739Y-136095118D02*
X98307739Y-142255534D01*
X98307739Y-142255534D02*
X96377051Y-144186222D01*
X104437739Y-111115118D02*
X104437739Y-117285534D01*
X104437739Y-117285534D02*
X102517051Y-119206222D01*
X109382739Y-92705118D02*
X109382739Y-98870534D01*
X109382739Y-98870534D02*
X107497051Y-100756222D01*
X92007739Y-83930118D02*
X92007739Y-90125534D01*
X92007739Y-90125534D02*
X90107051Y-92026222D01*
X87082739Y-102305118D02*
X87082739Y-108500534D01*
X87082739Y-108500534D02*
X85167051Y-110416222D01*
X67647739Y-101235118D02*
X67647739Y-107425534D01*
X67647739Y-107425534D02*
X65737051Y-109336222D01*
X72557739Y-82830118D02*
X72557739Y-89005534D01*
X72557739Y-89005534D02*
X70627051Y-90936222D01*
X53140516Y-81774670D02*
X53140516Y-88002757D01*
X53140516Y-88002757D02*
X51217051Y-89926222D01*
X48217739Y-100175118D02*
X48217739Y-106385534D01*
X48217739Y-106385534D02*
X46347051Y-108256222D01*
X28782739Y-99055118D02*
X28782739Y-105270534D01*
X28782739Y-105270534D02*
X26887051Y-107166222D01*
X33707739Y-80655118D02*
X33707739Y-86905534D01*
X33707739Y-86905534D02*
X31817051Y-88796222D01*
X77507739Y-64430118D02*
X77507739Y-70635534D01*
X77507739Y-70635534D02*
X75627051Y-72516222D01*
X96932739Y-65505118D02*
X96932739Y-71700534D01*
X96932739Y-71700534D02*
X95037051Y-73596222D01*
X114307739Y-74305118D02*
X114307739Y-80505534D01*
X114307739Y-80505534D02*
X112397051Y-82416222D01*
M02*
