G04 #@! TF.GenerationSoftware,KiCad,Pcbnew,(6.0.8-1)-1*
G04 #@! TF.CreationDate,2022-11-12T18:34:57-05:00*
G04 #@! TF.ProjectId,ergo3by6plus3nonSplit,6572676f-3362-4793-9670-6c7573336e6f,rev?*
G04 #@! TF.SameCoordinates,Original*
G04 #@! TF.FileFunction,Paste,Bot*
G04 #@! TF.FilePolarity,Positive*
%FSLAX46Y46*%
G04 Gerber Fmt 4.6, Leading zero omitted, Abs format (unit mm)*
G04 Created by KiCad (PCBNEW (6.0.8-1)-1) date 2022-11-12 18:34:57*
%MOMM*%
%LPD*%
G01*
G04 APERTURE LIST*
G04 Aperture macros list*
%AMRoundRect*
0 Rectangle with rounded corners*
0 $1 Rounding radius*
0 $2 $3 $4 $5 $6 $7 $8 $9 X,Y pos of 4 corners*
0 Add a 4 corners polygon primitive as box body*
4,1,4,$2,$3,$4,$5,$6,$7,$8,$9,$2,$3,0*
0 Add four circle primitives for the rounded corners*
1,1,$1+$1,$2,$3*
1,1,$1+$1,$4,$5*
1,1,$1+$1,$6,$7*
1,1,$1+$1,$8,$9*
0 Add four rect primitives between the rounded corners*
20,1,$1+$1,$2,$3,$4,$5,0*
20,1,$1+$1,$4,$5,$6,$7,0*
20,1,$1+$1,$6,$7,$8,$9,0*
20,1,$1+$1,$8,$9,$2,$3,0*%
%AMRotRect*
0 Rectangle, with rotation*
0 The origin of the aperture is its center*
0 $1 length*
0 $2 width*
0 $3 Rotation angle, in degrees counterclockwise*
0 Add horizontal line*
21,1,$1,$2,0,0,$3*%
G04 Aperture macros list end*
%ADD10RotRect,0.900000X1.200000X105.000000*%
%ADD11RotRect,0.900000X1.200000X120.000000*%
%ADD12RotRect,0.900000X1.200000X60.000000*%
%ADD13RotRect,0.900000X1.200000X75.000000*%
%ADD14R,0.711200X1.498600*%
%ADD15R,0.990600X0.812800*%
%ADD16RoundRect,0.250000X-1.387676X-0.353525X0.387676X-1.378525X1.387676X0.353525X-0.387676X1.378525X0*%
%ADD17RoundRect,0.250000X-1.248893X-0.700636X0.731255X-1.231215X1.248893X0.700636X-0.731255X1.231215X0*%
%ADD18RoundRect,0.250000X-0.731255X-1.231215X1.248893X-0.700636X0.731255X1.231215X-1.248893X0.700636X0*%
%ADD19RoundRect,0.250000X-0.387676X-1.378525X1.387676X-0.353525X0.387676X1.378525X-1.387676X0.353525X0*%
G04 APERTURE END LIST*
D10*
X211837051Y-144243778D03*
X210982949Y-141056222D03*
X193434102Y-149127556D03*
X192580000Y-145940000D03*
D11*
X173185000Y-153198942D03*
X171535000Y-150341058D03*
D12*
X136875000Y-157138942D03*
X138525000Y-154281058D03*
D13*
X113942949Y-152373778D03*
X114797051Y-149186222D03*
X95522949Y-147373778D03*
X96377051Y-144186222D03*
D10*
X281367051Y-107233778D03*
X280512949Y-104046222D03*
X261907051Y-108253778D03*
X261052949Y-105066222D03*
X242517051Y-109393778D03*
X241662949Y-106206222D03*
X223127051Y-110473778D03*
X222272949Y-107286222D03*
X205707051Y-119293778D03*
X204852949Y-116106222D03*
X188384102Y-128037556D03*
X187530000Y-124850000D03*
D13*
X119062949Y-131173778D03*
X119917051Y-127986222D03*
X101662949Y-122393778D03*
X102517051Y-119206222D03*
X84312949Y-113603778D03*
X85167051Y-110416222D03*
X64882949Y-112523778D03*
X65737051Y-109336222D03*
X45492949Y-111443778D03*
X46347051Y-108256222D03*
X26032949Y-110353778D03*
X26887051Y-107166222D03*
D10*
X276427051Y-88803778D03*
X275572949Y-85616222D03*
X256987051Y-89823778D03*
X256132949Y-86636222D03*
X237537051Y-90953778D03*
X236682949Y-87766222D03*
X218087051Y-92033778D03*
X217232949Y-88846222D03*
X200757051Y-100843778D03*
X199902949Y-97656222D03*
X183387051Y-109603778D03*
X182532949Y-106416222D03*
D13*
X123972949Y-112803778D03*
X124827051Y-109616222D03*
X106642949Y-103943778D03*
X107497051Y-100756222D03*
X89252949Y-95213778D03*
X90107051Y-92026222D03*
X69772949Y-94123778D03*
X70627051Y-90936222D03*
X50362949Y-93113778D03*
X51217051Y-89926222D03*
X30962949Y-91983778D03*
X31817051Y-88796222D03*
D10*
X271487051Y-70423778D03*
X270632949Y-67236222D03*
X252117051Y-71503778D03*
X251262949Y-68316222D03*
X232617051Y-72523778D03*
X231762949Y-69336222D03*
X213167051Y-73653778D03*
X212312949Y-70466222D03*
X195827051Y-82443778D03*
X194972949Y-79256222D03*
X178447051Y-91233778D03*
X177592949Y-88046222D03*
D13*
X128842949Y-94383778D03*
X129697051Y-91196222D03*
X111542949Y-85603778D03*
X112397051Y-82416222D03*
X94182949Y-76783778D03*
X95037051Y-73596222D03*
X74772949Y-75703778D03*
X75627051Y-72516222D03*
X54172949Y-74403778D03*
X55027051Y-71216222D03*
X32932949Y-72373778D03*
X33787051Y-69186222D03*
D14*
X145679999Y-83231900D03*
X148680001Y-83231900D03*
X150180001Y-83231900D03*
D15*
X144280000Y-82531899D03*
X151580000Y-82531899D03*
X144280000Y-80431900D03*
X151580000Y-80431900D03*
D16*
X126054210Y-144857795D03*
X138519320Y-149121591D03*
D17*
X44913816Y-62487815D03*
X58057739Y-63380118D03*
X64363816Y-63537815D03*
X77507739Y-64430118D03*
X83788816Y-64612815D03*
X96932739Y-65505118D03*
X101163816Y-73412815D03*
X114307739Y-74305118D03*
X118513816Y-82212815D03*
X131657739Y-83105118D03*
D18*
X163399015Y-85870281D03*
X175228138Y-80071076D03*
X180769015Y-77080281D03*
X192598138Y-71281076D03*
X198124015Y-68280281D03*
X209953138Y-62481076D03*
X217549015Y-67205281D03*
X229378138Y-61406076D03*
X237024015Y-66130281D03*
X248853138Y-60331076D03*
X256424015Y-65030281D03*
X268253138Y-59231076D03*
D17*
X20563816Y-79762815D03*
X33707739Y-80655118D03*
X39996593Y-80882367D03*
X53140516Y-81774670D03*
X59413816Y-81937815D03*
X72557739Y-82830118D03*
X78863816Y-83037815D03*
X92007739Y-83930118D03*
X96238816Y-91812815D03*
X109382739Y-92705118D03*
X113593816Y-100602815D03*
X126737739Y-101495118D03*
D18*
X168329015Y-104270281D03*
X180158138Y-98471076D03*
X185699015Y-95480281D03*
X197528138Y-89681076D03*
X203049015Y-86705281D03*
X214878138Y-80906076D03*
X241899015Y-84505281D03*
X253728138Y-78706076D03*
X261359015Y-83430281D03*
X273188138Y-77631076D03*
D17*
X15638816Y-98162815D03*
X28782739Y-99055118D03*
X35073816Y-99282815D03*
X48217739Y-100175118D03*
X54503816Y-100342815D03*
X67647739Y-101235118D03*
X73938816Y-101412815D03*
X87082739Y-102305118D03*
X91293816Y-110222815D03*
X104437739Y-111115118D03*
X108663816Y-119012815D03*
X121807739Y-119905118D03*
D18*
X173269015Y-122660281D03*
X185098138Y-116861076D03*
X190624015Y-113870281D03*
X202453138Y-108071076D03*
X207974015Y-105080281D03*
X219803138Y-99281076D03*
X246859015Y-102950281D03*
X258688138Y-97151076D03*
X266279015Y-101840281D03*
X278108138Y-96041076D03*
D17*
X85163816Y-135202815D03*
X98307739Y-136095118D03*
X103563816Y-140137815D03*
X116707739Y-141030118D03*
D18*
X178349015Y-143800281D03*
X190178138Y-138001076D03*
X196769015Y-138870281D03*
X208598138Y-133071076D03*
X227439015Y-104010281D03*
X239268138Y-98211076D03*
D17*
X25486784Y-61361777D03*
X38630707Y-62254080D03*
D19*
X157274210Y-151942795D03*
X167199320Y-143279591D03*
D18*
X222499015Y-85605281D03*
X234328138Y-79806076D03*
M02*
