G04 #@! TF.GenerationSoftware,KiCad,Pcbnew,(6.0.8-1)-1*
G04 #@! TF.CreationDate,2022-11-12T18:34:57-05:00*
G04 #@! TF.ProjectId,ergo3by6plus3nonSplit,6572676f-3362-4793-9670-6c7573336e6f,rev?*
G04 #@! TF.SameCoordinates,Original*
G04 #@! TF.FileFunction,Soldermask,Top*
G04 #@! TF.FilePolarity,Negative*
%FSLAX46Y46*%
G04 Gerber Fmt 4.6, Leading zero omitted, Abs format (unit mm)*
G04 Created by KiCad (PCBNEW (6.0.8-1)-1) date 2022-11-12 18:34:57*
%MOMM*%
%LPD*%
G01*
G04 APERTURE LIST*
G04 Aperture macros list*
%AMRoundRect*
0 Rectangle with rounded corners*
0 $1 Rounding radius*
0 $2 $3 $4 $5 $6 $7 $8 $9 X,Y pos of 4 corners*
0 Add a 4 corners polygon primitive as box body*
4,1,4,$2,$3,$4,$5,$6,$7,$8,$9,$2,$3,0*
0 Add four circle primitives for the rounded corners*
1,1,$1+$1,$2,$3*
1,1,$1+$1,$4,$5*
1,1,$1+$1,$6,$7*
1,1,$1+$1,$8,$9*
0 Add four rect primitives between the rounded corners*
20,1,$1+$1,$2,$3,$4,$5,0*
20,1,$1+$1,$4,$5,$6,$7,0*
20,1,$1+$1,$6,$7,$8,$9,0*
20,1,$1+$1,$8,$9,$2,$3,0*%
G04 Aperture macros list end*
%ADD10R,1.700000X1.700000*%
%ADD11O,1.700000X1.700000*%
%ADD12C,0.939800*%
%ADD13RoundRect,0.250000X0.250000X1.500000X-0.250000X1.500000X-0.250000X-1.500000X0.250000X-1.500000X0*%
%ADD14RoundRect,0.250001X0.499999X1.449999X-0.499999X1.449999X-0.499999X-1.449999X0.499999X-1.449999X0*%
%ADD15C,1.750000*%
%ADD16C,3.050000*%
%ADD17C,4.000000*%
%ADD18R,1.550000X1.300000*%
%ADD19R,1.600000X1.600000*%
%ADD20C,1.600000*%
G04 APERTURE END LIST*
D10*
X164110000Y-130970000D03*
D11*
X164110000Y-128430000D03*
X164110000Y-125890000D03*
X164110000Y-123350000D03*
X164110000Y-120810000D03*
D12*
X146430000Y-81481901D03*
X149430000Y-81481901D03*
D13*
X149710000Y-157520000D03*
X147710000Y-157520000D03*
X145710000Y-157520000D03*
D14*
X143360000Y-151770000D03*
X152060000Y-151770000D03*
D15*
X126520591Y-148060000D03*
X135319409Y-153140000D03*
D16*
X135659705Y-147470591D03*
D17*
X130920000Y-150600000D03*
D16*
X128890443Y-146495295D03*
D15*
X56006903Y-68089801D03*
D16*
X48077223Y-63335448D03*
D17*
X51100000Y-66775000D03*
D15*
X46193097Y-65460199D03*
D16*
X54868252Y-62525497D03*
D15*
X75456903Y-69139801D03*
D16*
X67527223Y-64385448D03*
D17*
X70550000Y-67825000D03*
D15*
X65643097Y-66510199D03*
D16*
X74318252Y-63575497D03*
D15*
X85068097Y-67585199D03*
D16*
X86952223Y-65460448D03*
X93743252Y-64650497D03*
D17*
X89975000Y-68900000D03*
D15*
X94881903Y-70214801D03*
X112256903Y-79014801D03*
D16*
X111118252Y-73450497D03*
D17*
X107350000Y-77700000D03*
D16*
X104327223Y-74260448D03*
D15*
X102443097Y-76385199D03*
X129606903Y-87814801D03*
D16*
X128468252Y-82250497D03*
D17*
X124700000Y-86500000D03*
D15*
X119793097Y-85185199D03*
D16*
X121677223Y-83060448D03*
D15*
X175806903Y-85175199D03*
X165993097Y-87804801D03*
D16*
X166562422Y-85022649D03*
D17*
X170900000Y-86490000D03*
D16*
X172038651Y-80925696D03*
D15*
X193176903Y-76385199D03*
D16*
X183932422Y-76232649D03*
D17*
X188270000Y-77700000D03*
D16*
X189408651Y-72135696D03*
D15*
X183363097Y-79014801D03*
D17*
X205625000Y-68900000D03*
D15*
X200718097Y-70214801D03*
X210531903Y-67585199D03*
D16*
X201287422Y-67432649D03*
X206763651Y-63335696D03*
D17*
X225050000Y-67825000D03*
D16*
X220712422Y-66357649D03*
X226188651Y-62260696D03*
D15*
X220143097Y-69139801D03*
X229956903Y-66510199D03*
D16*
X240187422Y-65282649D03*
X245663651Y-61185696D03*
D17*
X244525000Y-66750000D03*
D15*
X249431903Y-65435199D03*
X239618097Y-68064801D03*
X268831903Y-64335199D03*
X259018097Y-66964801D03*
D16*
X259587422Y-64182649D03*
D17*
X263925000Y-65650000D03*
D16*
X265063651Y-60085696D03*
X30518252Y-79800497D03*
D15*
X31656903Y-85364801D03*
D17*
X26750000Y-84050000D03*
D16*
X23727223Y-80610448D03*
D15*
X21843097Y-82735199D03*
D17*
X46182777Y-85169552D03*
D16*
X49951029Y-80920049D03*
X43160000Y-81730000D03*
D15*
X41275874Y-83854751D03*
X51089680Y-86484353D03*
X70506903Y-87539801D03*
D16*
X69368252Y-81975497D03*
X62577223Y-82785448D03*
D15*
X60693097Y-84910199D03*
D17*
X65600000Y-86225000D03*
D16*
X88818252Y-83075497D03*
D15*
X89956903Y-88639801D03*
X80143097Y-86010199D03*
D17*
X85050000Y-87325000D03*
D16*
X82027223Y-83885448D03*
D15*
X97518097Y-94785199D03*
X107331903Y-97414801D03*
D17*
X102425000Y-96100000D03*
D16*
X106193252Y-91850497D03*
X99402223Y-92660448D03*
X116757223Y-101450448D03*
D15*
X124686903Y-106204801D03*
D16*
X123548252Y-100640497D03*
D17*
X119780000Y-104890000D03*
D15*
X114873097Y-103575199D03*
X170923097Y-106204801D03*
D16*
X176968651Y-99325696D03*
D17*
X175830000Y-104890000D03*
D16*
X171492422Y-103422649D03*
D15*
X180736903Y-103575199D03*
X198106903Y-94785199D03*
X188293097Y-97414801D03*
D16*
X188862422Y-94632649D03*
X194338651Y-90535696D03*
D17*
X193200000Y-96100000D03*
D16*
X206212422Y-85857649D03*
X211688651Y-81760696D03*
D17*
X210550000Y-87325000D03*
D15*
X215456903Y-86010199D03*
X205643097Y-88639801D03*
X244493097Y-86439801D03*
D16*
X245062422Y-83657649D03*
D17*
X249400000Y-85125000D03*
D15*
X254306903Y-83810199D03*
D16*
X250538651Y-79560696D03*
D17*
X268860000Y-84050000D03*
D16*
X269998651Y-78485696D03*
D15*
X273766903Y-82735199D03*
X263953097Y-85364801D03*
D16*
X264522422Y-82582649D03*
D15*
X26731903Y-103764801D03*
D17*
X21825000Y-102450000D03*
D15*
X16918097Y-101135199D03*
D16*
X18802223Y-99010448D03*
X25593252Y-98200497D03*
X45028252Y-99320497D03*
D15*
X46166903Y-104884801D03*
D16*
X38237223Y-100130448D03*
D15*
X36353097Y-102255199D03*
D17*
X41260000Y-103570000D03*
D15*
X55783097Y-103315199D03*
D16*
X64458252Y-100380497D03*
D17*
X60690000Y-104630000D03*
D16*
X57667223Y-101190448D03*
D15*
X65596903Y-105944801D03*
D16*
X83893252Y-101450497D03*
X77102223Y-102260448D03*
D15*
X85031903Y-107014801D03*
X75218097Y-104385199D03*
D17*
X80125000Y-105700000D03*
D15*
X92573097Y-113195199D03*
D16*
X94457223Y-111070448D03*
D17*
X97480000Y-114510000D03*
D15*
X102386903Y-115824801D03*
D16*
X101248252Y-110260497D03*
D17*
X114850000Y-123300000D03*
D16*
X118618252Y-119050497D03*
D15*
X119756903Y-124614801D03*
X109943097Y-121985199D03*
D16*
X111827223Y-119860448D03*
X181908651Y-117715696D03*
D17*
X180770000Y-123280000D03*
D15*
X175863097Y-124594801D03*
X185676903Y-121965199D03*
D16*
X176432422Y-121812649D03*
D15*
X193218097Y-115804801D03*
D17*
X198125000Y-114490000D03*
D15*
X203031903Y-113175199D03*
D16*
X193787422Y-113022649D03*
X199263651Y-108925696D03*
D15*
X220381903Y-104385199D03*
D16*
X211137422Y-104232649D03*
D17*
X215475000Y-105700000D03*
D15*
X210568097Y-107014801D03*
D16*
X216613651Y-100135696D03*
D17*
X254360000Y-103570000D03*
D16*
X255498651Y-98005696D03*
X250022422Y-102102649D03*
D15*
X249453097Y-104884801D03*
X259266903Y-102255199D03*
X268873097Y-103774801D03*
D16*
X274918651Y-96895696D03*
X269442422Y-100992649D03*
D17*
X273780000Y-102460000D03*
D15*
X278686903Y-101145199D03*
D17*
X91350000Y-139490000D03*
D15*
X96256903Y-140804801D03*
X86443097Y-138175199D03*
D16*
X88327223Y-136050448D03*
X95118252Y-135240497D03*
X106727223Y-140985448D03*
D17*
X109750000Y-144425000D03*
D15*
X114656903Y-145739801D03*
X104843097Y-143110199D03*
D16*
X113518252Y-140175497D03*
D15*
X180943097Y-145734801D03*
D16*
X181512422Y-142952649D03*
D15*
X190756903Y-143105199D03*
D16*
X186988651Y-138855696D03*
D17*
X185850000Y-144420000D03*
D15*
X199363097Y-140804801D03*
D16*
X205408651Y-133925696D03*
X199932422Y-138022649D03*
D15*
X209176903Y-138175199D03*
D17*
X204270000Y-139490000D03*
X234940000Y-104630000D03*
D15*
X239846903Y-103315199D03*
X230033097Y-105944801D03*
D16*
X230602422Y-103162649D03*
X236078651Y-99065696D03*
D15*
X36579871Y-66963763D03*
D16*
X35441220Y-61399459D03*
D15*
X26766065Y-64334161D03*
D16*
X28650191Y-62209410D03*
D17*
X31672968Y-65648962D03*
D15*
X169079409Y-148060000D03*
D17*
X164680000Y-150600000D03*
D16*
X164339705Y-144930591D03*
D15*
X160280591Y-153140000D03*
D16*
X160110443Y-150305295D03*
D18*
X151760000Y-113160000D03*
X143800000Y-113160000D03*
X143800000Y-117660000D03*
X151760000Y-117660000D03*
D15*
X225093097Y-87539801D03*
D17*
X230000000Y-86225000D03*
D15*
X234906903Y-84910199D03*
D16*
X231138651Y-80660696D03*
X225662422Y-84757649D03*
D19*
X155420000Y-80950000D03*
D20*
X155420000Y-83490000D03*
X155420000Y-86030000D03*
X155420000Y-88570000D03*
X155420000Y-91110000D03*
X155420000Y-93650000D03*
X155420000Y-96190000D03*
X155420000Y-98730000D03*
X155420000Y-101270000D03*
X155420000Y-103810000D03*
X155420000Y-106350000D03*
X155420000Y-108890000D03*
X140180000Y-108890000D03*
X140180000Y-106350000D03*
X140180000Y-103810000D03*
X140180000Y-101270000D03*
X140180000Y-98730000D03*
X140180000Y-96190000D03*
X140180000Y-93650000D03*
X140180000Y-91110000D03*
X140180000Y-88570000D03*
X140180000Y-86030000D03*
X140180000Y-83490000D03*
X140180000Y-80950000D03*
M02*
