%TF.GenerationSoftware,KiCad,Pcbnew,(6.0.8-1)-1*%
%TF.CreationDate,2022-11-12T18:35:00-05:00*%
%TF.ProjectId,ergo3by6plus3nonSplit,6572676f-3362-4793-9670-6c7573336e6f,rev?*%
%TF.SameCoordinates,Original*%
%TF.FileFunction,Drillmap*%
%TF.FilePolarity,Positive*%
%FSLAX45Y45*%
G04 Gerber Fmt 4.5, Leading zero omitted, Abs format (unit mm)*
G04 Created by KiCad (PCBNEW (6.0.8-1)-1) date 2022-11-12 18:35:00*
%MOMM*%
%LPD*%
G01*
G04 APERTURE LIST*
%ADD10C,0.200000*%
%ADD11C,1.075000*%
%ADD12C,0.093980*%
%ADD13C,0.175000*%
%ADD14C,0.305000*%
%ADD15C,0.400000*%
G04 APERTURE END LIST*
D10*
X2796612Y-11445172D02*
X957957Y-10952504D01*
X4047000Y-7159726D02*
X3953010Y-7134782D01*
D11*
X5342750Y-9684000D02*
G75*
G03*
X5342750Y-9684000I-53750J0D01*
G01*
X5942750Y-7456000D02*
G75*
G03*
X5942750Y-7456000I-53750J0D01*
G01*
X24324750Y-9675000D02*
G75*
G03*
X24324750Y-9675000I-53750J0D01*
G01*
X23721750Y-7453000D02*
G75*
G03*
X23721750Y-7453000I-53750J0D01*
G01*
D10*
X12976000Y-11954000D02*
X16227000Y-11954000D01*
X16227000Y-11954000D02*
X16227000Y-14055000D01*
X16227000Y-14055000D02*
X12976000Y-14055000D01*
X12976000Y-14055000D02*
X12976000Y-11954000D01*
X12322000Y-16062000D02*
X14172110Y-16062000D01*
X17239000Y-16062000D02*
X17975069Y-15640725D01*
X25608156Y-7134782D02*
X25514166Y-7159726D01*
X26196985Y-9323441D02*
X26103893Y-9348385D01*
X25623686Y-7556240D01*
X25716779Y-7531296D01*
X26196985Y-9323441D01*
X26220587Y-9787440D02*
X26313679Y-9762496D01*
X25514166Y-7159726D02*
X25064189Y-5477049D01*
X26313679Y-9762496D02*
X26764554Y-11445172D01*
X26569059Y-11088360D02*
X26220587Y-9787440D01*
X25608156Y-7134782D02*
X25259382Y-5833525D01*
X4496977Y-5477049D02*
X4047000Y-7159726D01*
X4301784Y-5833525D02*
X3953010Y-7134782D01*
X3937480Y-7556240D02*
X3452413Y-9366522D01*
X3359321Y-9341578D01*
X3844387Y-7531296D01*
X3937480Y-7556240D01*
X3340579Y-9787440D02*
X2992107Y-11088360D01*
X3247487Y-9762496D02*
X3340579Y-9787440D01*
X2796612Y-11445172D02*
X3247487Y-9762496D01*
D11*
X16470750Y-9815000D02*
G75*
G03*
X16470750Y-9815000I-53750J0D01*
G01*
D10*
X10223167Y-6182741D02*
X10119639Y-6569111D01*
X11856200Y-7448532D02*
X13696289Y-7941582D01*
X4832196Y-11581410D02*
X2992107Y-11088360D01*
X15864877Y-7941582D02*
X13696289Y-7941582D01*
X17601438Y-7062162D02*
X19441527Y-6569111D01*
X24728970Y-11581410D02*
X26569059Y-11088360D01*
X22785354Y-11688090D02*
X22681826Y-11301720D01*
X7761614Y-14615958D02*
X8531073Y-11744300D01*
D11*
X25669750Y-7347000D02*
G75*
G03*
X25669750Y-7347000I-53750J0D01*
G01*
D10*
X4832196Y-11581410D02*
X4934494Y-11199628D01*
D11*
X26268750Y-9572000D02*
G75*
G03*
X26268750Y-9572000I-53750J0D01*
G01*
D10*
X8291315Y-5665103D02*
X10223167Y-6182741D01*
X2461696Y-5340475D02*
X4301784Y-5833525D01*
D11*
X3997750Y-7350000D02*
G75*
G03*
X3997750Y-7350000I-53750J0D01*
G01*
D10*
X25064189Y-5477049D02*
X23316995Y-5944793D01*
X23213467Y-5558423D02*
X23316995Y-5944793D01*
X11959728Y-7062162D02*
X11856200Y-7448532D01*
X21799552Y-14615958D02*
X17975069Y-15640725D01*
X4934494Y-11199628D02*
X6775812Y-11688090D01*
D11*
X3402750Y-9570000D02*
G75*
G03*
X3402750Y-9570000I-53750J0D01*
G01*
D10*
X17601438Y-7062162D02*
X17704966Y-7448532D01*
X28603209Y-10952504D02*
X27099470Y-5340475D01*
X21269851Y-5665103D02*
X19337999Y-6182741D01*
X6775812Y-11688090D02*
X6879339Y-11301720D01*
X23213467Y-5558423D02*
X21373378Y-6051473D01*
X11959728Y-7062162D02*
X10119639Y-6569111D01*
D11*
X19296750Y-13002000D02*
G75*
G03*
X19296750Y-13002000I-53750J0D01*
G01*
D10*
X6347699Y-5558423D02*
X8187788Y-6051473D01*
X957957Y-10952504D02*
X2461696Y-5340475D01*
X26764554Y-11445172D02*
X28603209Y-10952504D01*
X14172110Y-16062000D02*
X17239000Y-16062000D01*
X21799552Y-14615958D02*
X21030093Y-11744300D01*
D11*
X10372750Y-13002000D02*
G75*
G03*
X10372750Y-13002000I-53750J0D01*
G01*
D10*
X24728970Y-11581410D02*
X24626672Y-11199628D01*
X8291315Y-5665103D02*
X8187788Y-6051473D01*
D11*
X13197750Y-9816000D02*
G75*
G03*
X13197750Y-9816000I-53750J0D01*
G01*
D10*
X21269851Y-5665103D02*
X21373378Y-6051473D01*
X11586097Y-15640725D02*
X12322000Y-16062000D01*
X21030093Y-11744300D02*
X22681826Y-11301720D01*
X19337999Y-6182741D02*
X19441527Y-6569111D01*
X27099470Y-5340475D02*
X25259382Y-5833525D01*
X7761614Y-14615958D02*
X11586097Y-15640725D01*
X4496977Y-5477049D02*
X6244171Y-5944793D01*
X24626672Y-11199628D02*
X22785354Y-11688090D01*
X8531073Y-11744300D02*
X6879339Y-11301720D01*
X6347699Y-5558423D02*
X6244171Y-5944793D01*
X17704966Y-7448532D02*
X15864877Y-7941582D01*
D12*
X14596010Y-8101200D02*
X14689990Y-8195180D01*
X14689990Y-8101200D02*
X14596010Y-8195180D01*
X14896010Y-8101200D02*
X14989990Y-8195180D01*
X14989990Y-8101200D02*
X14896010Y-8195180D01*
D13*
X1779310Y-10113520D02*
G75*
G03*
X1779310Y-10113520I-87500J0D01*
G01*
X2271810Y-8273520D02*
G75*
G03*
X2271810Y-8273520I-87500J0D01*
G01*
X2760690Y-10376480D02*
G75*
G03*
X2760690Y-10376480I-87500J0D01*
G01*
X2764107Y-6433416D02*
G75*
G03*
X2764107Y-6433416I-87500J0D01*
G01*
X3253190Y-8536480D02*
G75*
G03*
X3253190Y-8536480I-87500J0D01*
G01*
X3722810Y-10225520D02*
G75*
G03*
X3722810Y-10225520I-87500J0D01*
G01*
X3745487Y-6696376D02*
G75*
G03*
X3745487Y-6696376I-87500J0D01*
G01*
X4215087Y-8385475D02*
G75*
G03*
X4215087Y-8385475I-87500J0D01*
G01*
X4704190Y-10488480D02*
G75*
G03*
X4704190Y-10488480I-87500J0D01*
G01*
X4706810Y-6546020D02*
G75*
G03*
X4706810Y-6546020I-87500J0D01*
G01*
X5196468Y-8648435D02*
G75*
G03*
X5196468Y-8648435I-87500J0D01*
G01*
X5665810Y-10331520D02*
G75*
G03*
X5665810Y-10331520I-87500J0D01*
G01*
X5688190Y-6808980D02*
G75*
G03*
X5688190Y-6808980I-87500J0D01*
G01*
X6156810Y-8491020D02*
G75*
G03*
X6156810Y-8491020I-87500J0D01*
G01*
X6647190Y-10594480D02*
G75*
G03*
X6647190Y-10594480I-87500J0D01*
G01*
X6651810Y-6651020D02*
G75*
G03*
X6651810Y-6651020I-87500J0D01*
G01*
X7138190Y-8753980D02*
G75*
G03*
X7138190Y-8753980I-87500J0D01*
G01*
X7609310Y-10438520D02*
G75*
G03*
X7609310Y-10438520I-87500J0D01*
G01*
X7633190Y-6913980D02*
G75*
G03*
X7633190Y-6913980I-87500J0D01*
G01*
X8101810Y-8601020D02*
G75*
G03*
X8101810Y-8601020I-87500J0D01*
G01*
X8590690Y-10701480D02*
G75*
G03*
X8590690Y-10701480I-87500J0D01*
G01*
X8594310Y-6758520D02*
G75*
G03*
X8594310Y-6758520I-87500J0D01*
G01*
X8731810Y-13817520D02*
G75*
G03*
X8731810Y-13817520I-87500J0D01*
G01*
X9083190Y-8863980D02*
G75*
G03*
X9083190Y-8863980I-87500J0D01*
G01*
X9344810Y-11319520D02*
G75*
G03*
X9344810Y-11319520I-87500J0D01*
G01*
X9575690Y-7021480D02*
G75*
G03*
X9575690Y-7021480I-87500J0D01*
G01*
X9713190Y-14080480D02*
G75*
G03*
X9713190Y-14080480I-87500J0D01*
G01*
X9839310Y-9478520D02*
G75*
G03*
X9839310Y-9478520I-87500J0D01*
G01*
X10326190Y-11582480D02*
G75*
G03*
X10326190Y-11582480I-87500J0D01*
G01*
X10331810Y-7638520D02*
G75*
G03*
X10331810Y-7638520I-87500J0D01*
G01*
X10571810Y-14311020D02*
G75*
G03*
X10571810Y-14311020I-87500J0D01*
G01*
X10820690Y-9741480D02*
G75*
G03*
X10820690Y-9741480I-87500J0D01*
G01*
X11081810Y-12198520D02*
G75*
G03*
X11081810Y-12198520I-87500J0D01*
G01*
X11313190Y-7901480D02*
G75*
G03*
X11313190Y-7901480I-87500J0D01*
G01*
X11553190Y-14573980D02*
G75*
G03*
X11553190Y-14573980I-87500J0D01*
G01*
X11574810Y-10357520D02*
G75*
G03*
X11574810Y-10357520I-87500J0D01*
G01*
X12063190Y-12461480D02*
G75*
G03*
X12063190Y-12461480I-87500J0D01*
G01*
X12066810Y-8518520D02*
G75*
G03*
X12066810Y-8518520I-87500J0D01*
G01*
X12556190Y-10620480D02*
G75*
G03*
X12556190Y-10620480I-87500J0D01*
G01*
X12739559Y-14806000D02*
G75*
G03*
X12739559Y-14806000I-87500J0D01*
G01*
X13048190Y-8781480D02*
G75*
G03*
X13048190Y-8781480I-87500J0D01*
G01*
X13619441Y-15314000D02*
G75*
G03*
X13619441Y-15314000I-87500J0D01*
G01*
X16115559Y-15314000D02*
G75*
G03*
X16115559Y-15314000I-87500J0D01*
G01*
X16686810Y-8780480D02*
G75*
G03*
X16686810Y-8780480I-87500J0D01*
G01*
X16995441Y-14806000D02*
G75*
G03*
X16995441Y-14806000I-87500J0D01*
G01*
X17179810Y-10620480D02*
G75*
G03*
X17179810Y-10620480I-87500J0D01*
G01*
X17668190Y-8517520D02*
G75*
G03*
X17668190Y-8517520I-87500J0D01*
G01*
X17673810Y-12459480D02*
G75*
G03*
X17673810Y-12459480I-87500J0D01*
G01*
X18161190Y-10357520D02*
G75*
G03*
X18161190Y-10357520I-87500J0D01*
G01*
X18181810Y-14573480D02*
G75*
G03*
X18181810Y-14573480I-87500J0D01*
G01*
X18423810Y-7901480D02*
G75*
G03*
X18423810Y-7901480I-87500J0D01*
G01*
X18655190Y-12196520D02*
G75*
G03*
X18655190Y-12196520I-87500J0D01*
G01*
X18916810Y-9741480D02*
G75*
G03*
X18916810Y-9741480I-87500J0D01*
G01*
X19163190Y-14310520D02*
G75*
G03*
X19163190Y-14310520I-87500J0D01*
G01*
X19405190Y-7638520D02*
G75*
G03*
X19405190Y-7638520I-87500J0D01*
G01*
X19409310Y-11580480D02*
G75*
G03*
X19409310Y-11580480I-87500J0D01*
G01*
X19898190Y-9478520D02*
G75*
G03*
X19898190Y-9478520I-87500J0D01*
G01*
X20023810Y-14080480D02*
G75*
G03*
X20023810Y-14080480I-87500J0D01*
G01*
X20159310Y-7021480D02*
G75*
G03*
X20159310Y-7021480I-87500J0D01*
G01*
X20390690Y-11317520D02*
G75*
G03*
X20390690Y-11317520I-87500J0D01*
G01*
X20651810Y-8863980D02*
G75*
G03*
X20651810Y-8863980I-87500J0D01*
G01*
X21005190Y-13817520D02*
G75*
G03*
X21005190Y-13817520I-87500J0D01*
G01*
X21140690Y-6758520D02*
G75*
G03*
X21140690Y-6758520I-87500J0D01*
G01*
X21144310Y-10701480D02*
G75*
G03*
X21144310Y-10701480I-87500J0D01*
G01*
X21633190Y-8601020D02*
G75*
G03*
X21633190Y-8601020I-87500J0D01*
G01*
X22101810Y-6913980D02*
G75*
G03*
X22101810Y-6913980I-87500J0D01*
G01*
X22125690Y-10438520D02*
G75*
G03*
X22125690Y-10438520I-87500J0D01*
G01*
X22596810Y-8753980D02*
G75*
G03*
X22596810Y-8753980I-87500J0D01*
G01*
X23083190Y-6651020D02*
G75*
G03*
X23083190Y-6651020I-87500J0D01*
G01*
X23090810Y-10594480D02*
G75*
G03*
X23090810Y-10594480I-87500J0D01*
G01*
X23578190Y-8491020D02*
G75*
G03*
X23578190Y-8491020I-87500J0D01*
G01*
X24049310Y-6806480D02*
G75*
G03*
X24049310Y-6806480I-87500J0D01*
G01*
X24072190Y-10331520D02*
G75*
G03*
X24072190Y-10331520I-87500J0D01*
G01*
X24536810Y-8643980D02*
G75*
G03*
X24536810Y-8643980I-87500J0D01*
G01*
X25030690Y-6543520D02*
G75*
G03*
X25030690Y-6543520I-87500J0D01*
G01*
X25032810Y-10488480D02*
G75*
G03*
X25032810Y-10488480I-87500J0D01*
G01*
X25518190Y-8381020D02*
G75*
G03*
X25518190Y-8381020I-87500J0D01*
G01*
X25989310Y-6696480D02*
G75*
G03*
X25989310Y-6696480I-87500J0D01*
G01*
X26014190Y-10225520D02*
G75*
G03*
X26014190Y-10225520I-87500J0D01*
G01*
X26482810Y-8536480D02*
G75*
G03*
X26482810Y-8536480I-87500J0D01*
G01*
X26970690Y-6433520D02*
G75*
G03*
X26970690Y-6433520I-87500J0D01*
G01*
X26974810Y-10377480D02*
G75*
G03*
X26974810Y-10377480I-87500J0D01*
G01*
X27464190Y-8273520D02*
G75*
G03*
X27464190Y-8273520I-87500J0D01*
G01*
X27956190Y-10114520D02*
G75*
G03*
X27956190Y-10114520I-87500J0D01*
G01*
D14*
X1880222Y-9748545D02*
X1880222Y-10053545D01*
X1727722Y-9901045D02*
X2032722Y-9901045D01*
X2372722Y-7908545D02*
X2372722Y-8213545D01*
X2220222Y-8061045D02*
X2525222Y-8061045D01*
X2559325Y-9667550D02*
X2559325Y-9972550D01*
X2406825Y-9820050D02*
X2711825Y-9820050D01*
X2865019Y-6068441D02*
X2865019Y-6373441D01*
X2712519Y-6220941D02*
X3017519Y-6220941D01*
X3051825Y-7827550D02*
X3051825Y-8132550D01*
X2899325Y-7980050D02*
X3204325Y-7980050D01*
X3544122Y-5987446D02*
X3544122Y-6292446D01*
X3391622Y-6139946D02*
X3696622Y-6139946D01*
X3823722Y-9860545D02*
X3823722Y-10165545D01*
X3671222Y-10013045D02*
X3976222Y-10013045D01*
X4316000Y-8020500D02*
X4316000Y-8325500D01*
X4163500Y-8173000D02*
X4468500Y-8173000D01*
X4502825Y-9779550D02*
X4502825Y-10084550D01*
X4350325Y-9932050D02*
X4655325Y-9932050D01*
X4807722Y-6181045D02*
X4807722Y-6486045D01*
X4655222Y-6333545D02*
X4960222Y-6333545D01*
X4995103Y-7939505D02*
X4995103Y-8244505D01*
X4842603Y-8092005D02*
X5147603Y-8092005D01*
X5486825Y-6100050D02*
X5486825Y-6405050D01*
X5334325Y-6252550D02*
X5639325Y-6252550D01*
X5766722Y-9966545D02*
X5766722Y-10271545D01*
X5614222Y-10119045D02*
X5919222Y-10119045D01*
X6257722Y-8126045D02*
X6257722Y-8431045D01*
X6105222Y-8278545D02*
X6410222Y-8278545D01*
X6445825Y-9885550D02*
X6445825Y-10190550D01*
X6293325Y-10038050D02*
X6598325Y-10038050D01*
X6752722Y-6286045D02*
X6752722Y-6591045D01*
X6600222Y-6438545D02*
X6905222Y-6438545D01*
X6936825Y-8045050D02*
X6936825Y-8350050D01*
X6784325Y-8197550D02*
X7089325Y-8197550D01*
X7431825Y-6205050D02*
X7431825Y-6510050D01*
X7279325Y-6357550D02*
X7584325Y-6357550D01*
X7710222Y-10073545D02*
X7710222Y-10378545D01*
X7557722Y-10226045D02*
X7862722Y-10226045D01*
X8202722Y-8236045D02*
X8202722Y-8541045D01*
X8050222Y-8388545D02*
X8355222Y-8388545D01*
X8389325Y-9992550D02*
X8389325Y-10297550D01*
X8236825Y-10145050D02*
X8541825Y-10145050D01*
X8695222Y-6393545D02*
X8695222Y-6698545D01*
X8542722Y-6546045D02*
X8847722Y-6546045D01*
X8832722Y-13452545D02*
X8832722Y-13757545D01*
X8680222Y-13605045D02*
X8985222Y-13605045D01*
X8881825Y-8155050D02*
X8881825Y-8460050D01*
X8729325Y-8307550D02*
X9034325Y-8307550D01*
X9374325Y-6312550D02*
X9374325Y-6617550D01*
X9221825Y-6465050D02*
X9526825Y-6465050D01*
X9445722Y-10954545D02*
X9445722Y-11259545D01*
X9293222Y-11107045D02*
X9598222Y-11107045D01*
X9511825Y-13371550D02*
X9511825Y-13676550D01*
X9359325Y-13524050D02*
X9664325Y-13524050D01*
X9940222Y-9113545D02*
X9940222Y-9418545D01*
X9787722Y-9266045D02*
X10092722Y-9266045D01*
X10124825Y-10873550D02*
X10124825Y-11178550D01*
X9972325Y-11026050D02*
X10277325Y-11026050D01*
X10432722Y-7273545D02*
X10432722Y-7578545D01*
X10280222Y-7426045D02*
X10585222Y-7426045D01*
X10619325Y-9032550D02*
X10619325Y-9337550D01*
X10466825Y-9185050D02*
X10771825Y-9185050D01*
X10672722Y-13946045D02*
X10672722Y-14251045D01*
X10520222Y-14098545D02*
X10825222Y-14098545D01*
X11111825Y-7192550D02*
X11111825Y-7497550D01*
X10959325Y-7345050D02*
X11264325Y-7345050D01*
X11182722Y-11833545D02*
X11182722Y-12138545D01*
X11030222Y-11986045D02*
X11335222Y-11986045D01*
X11351825Y-13865050D02*
X11351825Y-14170050D01*
X11199325Y-14017550D02*
X11504325Y-14017550D01*
X11675722Y-9992545D02*
X11675722Y-10297545D01*
X11523222Y-10145045D02*
X11828222Y-10145045D01*
X11861825Y-11752550D02*
X11861825Y-12057550D01*
X11709325Y-11905050D02*
X12014325Y-11905050D01*
X12167722Y-8153545D02*
X12167722Y-8458545D01*
X12015222Y-8306045D02*
X12320222Y-8306045D01*
X12354825Y-9911550D02*
X12354825Y-10216550D01*
X12202325Y-10064050D02*
X12507325Y-10064050D01*
X12846825Y-8072550D02*
X12846825Y-8377550D01*
X12694325Y-8225050D02*
X12999325Y-8225050D01*
X12889044Y-14497029D02*
X12889044Y-14802029D01*
X12736544Y-14649529D02*
X13041544Y-14649529D01*
X13565970Y-14594559D02*
X13565970Y-14899559D01*
X13413470Y-14747059D02*
X13718470Y-14747059D01*
X16011044Y-14878029D02*
X16011044Y-15183029D01*
X15858544Y-15030529D02*
X16163544Y-15030529D01*
X16433970Y-14340559D02*
X16433970Y-14645559D01*
X16281470Y-14493059D02*
X16586470Y-14493059D01*
X16656242Y-8349765D02*
X16656242Y-8654765D01*
X16503742Y-8502265D02*
X16808742Y-8502265D01*
X17149242Y-10189765D02*
X17149242Y-10494765D01*
X16996742Y-10342265D02*
X17301742Y-10342265D01*
X17203865Y-7940070D02*
X17203865Y-8245070D01*
X17051365Y-8092570D02*
X17356365Y-8092570D01*
X17643242Y-12028765D02*
X17643242Y-12333765D01*
X17490742Y-12181265D02*
X17795742Y-12181265D01*
X17696865Y-9780070D02*
X17696865Y-10085070D01*
X17544365Y-9932570D02*
X17849365Y-9932570D01*
X18151242Y-14142765D02*
X18151242Y-14447765D01*
X17998742Y-14295265D02*
X18303742Y-14295265D01*
X18190865Y-11619070D02*
X18190865Y-11924070D01*
X18038365Y-11771570D02*
X18343365Y-11771570D01*
X18393242Y-7470765D02*
X18393242Y-7775765D01*
X18240742Y-7623265D02*
X18545742Y-7623265D01*
X18698865Y-13733070D02*
X18698865Y-14038070D01*
X18546365Y-13885570D02*
X18851365Y-13885570D01*
X18886242Y-9310765D02*
X18886242Y-9615765D01*
X18733742Y-9463265D02*
X19038742Y-9463265D01*
X18940865Y-7061070D02*
X18940865Y-7366070D01*
X18788365Y-7213570D02*
X19093365Y-7213570D01*
X19378742Y-11149765D02*
X19378742Y-11454765D01*
X19226242Y-11302265D02*
X19531242Y-11302265D01*
X19433865Y-8901070D02*
X19433865Y-9206070D01*
X19281365Y-9053570D02*
X19586365Y-9053570D01*
X19926365Y-10740070D02*
X19926365Y-11045070D01*
X19773865Y-10892570D02*
X20078865Y-10892570D01*
X19993242Y-13649765D02*
X19993242Y-13954765D01*
X19840742Y-13802265D02*
X20145742Y-13802265D01*
X20128742Y-6590765D02*
X20128742Y-6895765D01*
X19976242Y-6743265D02*
X20281242Y-6743265D01*
X20540865Y-13240070D02*
X20540865Y-13545070D01*
X20388365Y-13392570D02*
X20693365Y-13392570D01*
X20621242Y-8433265D02*
X20621242Y-8738265D01*
X20468742Y-8585765D02*
X20773742Y-8585765D01*
X20676365Y-6181070D02*
X20676365Y-6486070D01*
X20523865Y-6333570D02*
X20828865Y-6333570D01*
X21113742Y-10270765D02*
X21113742Y-10575765D01*
X20961242Y-10423265D02*
X21266242Y-10423265D01*
X21168865Y-8023570D02*
X21168865Y-8328570D01*
X21016365Y-8176070D02*
X21321365Y-8176070D01*
X21661365Y-9861070D02*
X21661365Y-10166070D01*
X21508865Y-10013570D02*
X21813865Y-10013570D01*
X22071242Y-6483265D02*
X22071242Y-6788265D01*
X21918742Y-6635765D02*
X22223742Y-6635765D01*
X22566242Y-8323265D02*
X22566242Y-8628265D01*
X22413742Y-8475765D02*
X22718742Y-8475765D01*
X22618865Y-6073570D02*
X22618865Y-6378570D01*
X22466365Y-6226070D02*
X22771365Y-6226070D01*
X23060242Y-10163765D02*
X23060242Y-10468765D01*
X22907742Y-10316265D02*
X23212742Y-10316265D01*
X23113865Y-7913570D02*
X23113865Y-8218570D01*
X22961365Y-8066070D02*
X23266365Y-8066070D01*
X23607865Y-9754070D02*
X23607865Y-10059070D01*
X23455365Y-9906570D02*
X23760365Y-9906570D01*
X24018742Y-6375765D02*
X24018742Y-6680765D01*
X23866242Y-6528265D02*
X24171242Y-6528265D01*
X24506242Y-8213265D02*
X24506242Y-8518265D01*
X24353742Y-8365765D02*
X24658742Y-8365765D01*
X24566365Y-5966070D02*
X24566365Y-6271070D01*
X24413865Y-6118570D02*
X24718865Y-6118570D01*
X25002242Y-10057765D02*
X25002242Y-10362765D01*
X24849742Y-10210265D02*
X25154742Y-10210265D01*
X25053865Y-7803570D02*
X25053865Y-8108570D01*
X24901365Y-7956070D02*
X25206365Y-7956070D01*
X25549865Y-9648070D02*
X25549865Y-9953070D01*
X25397365Y-9800570D02*
X25702365Y-9800570D01*
X25958742Y-6265765D02*
X25958742Y-6570765D01*
X25806242Y-6418265D02*
X26111242Y-6418265D01*
X26452242Y-8105765D02*
X26452242Y-8410765D01*
X26299742Y-8258265D02*
X26604742Y-8258265D01*
X26506365Y-5856070D02*
X26506365Y-6161070D01*
X26353865Y-6008570D02*
X26658865Y-6008570D01*
X26944242Y-9946765D02*
X26944242Y-10251765D01*
X26791742Y-10099265D02*
X27096742Y-10099265D01*
X26999865Y-7696070D02*
X26999865Y-8001070D01*
X26847365Y-7848570D02*
X27152365Y-7848570D01*
X27491865Y-9537070D02*
X27491865Y-9842070D01*
X27339365Y-9689570D02*
X27644365Y-9689570D01*
D15*
X2323923Y-10386423D02*
X2323923Y-10103577D01*
X2041077Y-10103577D01*
X2041077Y-10386423D01*
X2323923Y-10386423D01*
X2816423Y-8546423D02*
X2816423Y-8263577D01*
X2533577Y-8263577D01*
X2533577Y-8546423D01*
X2816423Y-8546423D01*
X3308719Y-6706319D02*
X3308719Y-6423473D01*
X3025874Y-6423473D01*
X3025874Y-6706319D01*
X3308719Y-6706319D01*
X4267423Y-10498423D02*
X4267423Y-10215577D01*
X3984577Y-10215577D01*
X3984577Y-10498423D01*
X4267423Y-10498423D01*
X4759700Y-8658378D02*
X4759700Y-8375532D01*
X4476855Y-8375532D01*
X4476855Y-8658378D01*
X4759700Y-8658378D01*
X5251423Y-6818923D02*
X5251423Y-6536077D01*
X4968577Y-6536077D01*
X4968577Y-6818923D01*
X5251423Y-6818923D01*
X6210423Y-10604423D02*
X6210423Y-10321577D01*
X5927577Y-10321577D01*
X5927577Y-10604423D01*
X6210423Y-10604423D01*
X6701423Y-8763923D02*
X6701423Y-8481077D01*
X6418577Y-8481077D01*
X6418577Y-8763923D01*
X6701423Y-8763923D01*
X7196423Y-6923923D02*
X7196423Y-6641077D01*
X6913577Y-6641077D01*
X6913577Y-6923923D01*
X7196423Y-6923923D01*
X8153923Y-10711423D02*
X8153923Y-10428577D01*
X7871077Y-10428577D01*
X7871077Y-10711423D01*
X8153923Y-10711423D01*
X8646423Y-8873923D02*
X8646423Y-8591077D01*
X8363577Y-8591077D01*
X8363577Y-8873923D01*
X8646423Y-8873923D01*
X9138923Y-7031423D02*
X9138923Y-6748577D01*
X8856077Y-6748577D01*
X8856077Y-7031423D01*
X9138923Y-7031423D01*
X9276423Y-14090423D02*
X9276423Y-13807577D01*
X8993577Y-13807577D01*
X8993577Y-14090423D01*
X9276423Y-14090423D01*
X9889423Y-11592423D02*
X9889423Y-11309577D01*
X9606577Y-11309577D01*
X9606577Y-11592423D01*
X9889423Y-11592423D01*
X10383923Y-9751423D02*
X10383923Y-9468577D01*
X10101077Y-9468577D01*
X10101077Y-9751423D01*
X10383923Y-9751423D01*
X10876423Y-7911423D02*
X10876423Y-7628577D01*
X10593577Y-7628577D01*
X10593577Y-7911423D01*
X10876423Y-7911423D01*
X11116423Y-14583923D02*
X11116423Y-14301077D01*
X10833577Y-14301077D01*
X10833577Y-14583923D01*
X11116423Y-14583923D01*
X11626423Y-12471423D02*
X11626423Y-12188577D01*
X11343577Y-12188577D01*
X11343577Y-12471423D01*
X11626423Y-12471423D01*
X12119423Y-10630423D02*
X12119423Y-10347577D01*
X11836577Y-10347577D01*
X11836577Y-10630423D01*
X12119423Y-10630423D01*
X12611423Y-8791423D02*
X12611423Y-8508577D01*
X12328577Y-8508577D01*
X12328577Y-8791423D01*
X12611423Y-8791423D01*
X13233423Y-15201423D02*
X13233423Y-14918577D01*
X12950577Y-14918577D01*
X12950577Y-15201423D01*
X13233423Y-15201423D01*
X16609423Y-15201423D02*
X16609423Y-14918577D01*
X16326577Y-14918577D01*
X16326577Y-15201423D01*
X16609423Y-15201423D01*
X17231423Y-8790423D02*
X17231423Y-8507577D01*
X16948577Y-8507577D01*
X16948577Y-8790423D01*
X17231423Y-8790423D01*
X17724423Y-10630423D02*
X17724423Y-10347577D01*
X17441577Y-10347577D01*
X17441577Y-10630423D01*
X17724423Y-10630423D01*
X18218423Y-12469423D02*
X18218423Y-12186577D01*
X17935577Y-12186577D01*
X17935577Y-12469423D01*
X18218423Y-12469423D01*
X18726423Y-14583423D02*
X18726423Y-14300577D01*
X18443577Y-14300577D01*
X18443577Y-14583423D01*
X18726423Y-14583423D01*
X18968423Y-7911423D02*
X18968423Y-7628577D01*
X18685577Y-7628577D01*
X18685577Y-7911423D01*
X18968423Y-7911423D01*
X19461423Y-9751423D02*
X19461423Y-9468577D01*
X19178577Y-9468577D01*
X19178577Y-9751423D01*
X19461423Y-9751423D01*
X19953923Y-11590423D02*
X19953923Y-11307577D01*
X19671077Y-11307577D01*
X19671077Y-11590423D01*
X19953923Y-11590423D01*
X20568423Y-14090423D02*
X20568423Y-13807577D01*
X20285577Y-13807577D01*
X20285577Y-14090423D01*
X20568423Y-14090423D01*
X20703923Y-7031423D02*
X20703923Y-6748577D01*
X20421077Y-6748577D01*
X20421077Y-7031423D01*
X20703923Y-7031423D01*
X21196423Y-8873923D02*
X21196423Y-8591077D01*
X20913577Y-8591077D01*
X20913577Y-8873923D01*
X21196423Y-8873923D01*
X21688923Y-10711423D02*
X21688923Y-10428577D01*
X21406077Y-10428577D01*
X21406077Y-10711423D01*
X21688923Y-10711423D01*
X22646423Y-6923923D02*
X22646423Y-6641077D01*
X22363577Y-6641077D01*
X22363577Y-6923923D01*
X22646423Y-6923923D01*
X23141423Y-8763923D02*
X23141423Y-8481077D01*
X22858577Y-8481077D01*
X22858577Y-8763923D01*
X23141423Y-8763923D01*
X23635423Y-10604423D02*
X23635423Y-10321577D01*
X23352577Y-10321577D01*
X23352577Y-10604423D01*
X23635423Y-10604423D01*
X24593923Y-6816423D02*
X24593923Y-6533577D01*
X24311077Y-6533577D01*
X24311077Y-6816423D01*
X24593923Y-6816423D01*
X25081423Y-8653923D02*
X25081423Y-8371077D01*
X24798577Y-8371077D01*
X24798577Y-8653923D01*
X25081423Y-8653923D01*
X25577423Y-10498423D02*
X25577423Y-10215577D01*
X25294577Y-10215577D01*
X25294577Y-10498423D01*
X25577423Y-10498423D01*
X26533923Y-6706423D02*
X26533923Y-6423577D01*
X26251077Y-6423577D01*
X26251077Y-6706423D01*
X26533923Y-6706423D01*
X27027423Y-8546423D02*
X27027423Y-8263577D01*
X26744577Y-8263577D01*
X26744577Y-8546423D01*
X27027423Y-8546423D01*
X27519423Y-10387423D02*
X27519423Y-10104577D01*
X27236577Y-10104577D01*
X27236577Y-10387423D01*
X27519423Y-10387423D01*
D10*
X1205576Y-16382476D02*
X1205576Y-16182476D01*
X1253195Y-16182476D01*
X1281767Y-16192000D01*
X1300814Y-16211048D01*
X1310338Y-16230095D01*
X1319862Y-16268190D01*
X1319862Y-16296762D01*
X1310338Y-16334857D01*
X1300814Y-16353905D01*
X1281767Y-16372952D01*
X1253195Y-16382476D01*
X1205576Y-16382476D01*
X1405576Y-16382476D02*
X1405576Y-16249143D01*
X1405576Y-16287238D02*
X1415100Y-16268190D01*
X1424624Y-16258667D01*
X1443671Y-16249143D01*
X1462719Y-16249143D01*
X1529385Y-16382476D02*
X1529385Y-16249143D01*
X1529385Y-16182476D02*
X1519862Y-16192000D01*
X1529385Y-16201524D01*
X1538909Y-16192000D01*
X1529385Y-16182476D01*
X1529385Y-16201524D01*
X1653195Y-16382476D02*
X1634147Y-16372952D01*
X1624624Y-16353905D01*
X1624624Y-16182476D01*
X1757957Y-16382476D02*
X1738909Y-16372952D01*
X1729385Y-16353905D01*
X1729385Y-16182476D01*
X1986528Y-16382476D02*
X1986528Y-16182476D01*
X2053195Y-16325333D01*
X2119862Y-16182476D01*
X2119862Y-16382476D01*
X2300814Y-16382476D02*
X2300814Y-16277714D01*
X2291290Y-16258667D01*
X2272243Y-16249143D01*
X2234147Y-16249143D01*
X2215100Y-16258667D01*
X2300814Y-16372952D02*
X2281767Y-16382476D01*
X2234147Y-16382476D01*
X2215100Y-16372952D01*
X2205576Y-16353905D01*
X2205576Y-16334857D01*
X2215100Y-16315809D01*
X2234147Y-16306286D01*
X2281767Y-16306286D01*
X2300814Y-16296762D01*
X2396052Y-16249143D02*
X2396052Y-16449143D01*
X2396052Y-16258667D02*
X2415100Y-16249143D01*
X2453195Y-16249143D01*
X2472243Y-16258667D01*
X2481767Y-16268190D01*
X2491290Y-16287238D01*
X2491290Y-16344381D01*
X2481767Y-16363428D01*
X2472243Y-16372952D01*
X2453195Y-16382476D01*
X2415100Y-16382476D01*
X2396052Y-16372952D01*
X2577005Y-16363428D02*
X2586528Y-16372952D01*
X2577005Y-16382476D01*
X2567481Y-16372952D01*
X2577005Y-16363428D01*
X2577005Y-16382476D01*
X2577005Y-16258667D02*
X2586528Y-16268190D01*
X2577005Y-16277714D01*
X2567481Y-16268190D01*
X2577005Y-16258667D01*
X2577005Y-16277714D01*
D12*
X853977Y-16665010D02*
X947957Y-16758990D01*
X947957Y-16665010D02*
X853977Y-16758990D01*
D10*
X1243671Y-16602476D02*
X1262719Y-16602476D01*
X1281767Y-16612000D01*
X1291290Y-16621524D01*
X1300814Y-16640571D01*
X1310338Y-16678667D01*
X1310338Y-16726286D01*
X1300814Y-16764381D01*
X1291290Y-16783429D01*
X1281767Y-16792952D01*
X1262719Y-16802476D01*
X1243671Y-16802476D01*
X1224624Y-16792952D01*
X1215100Y-16783429D01*
X1205576Y-16764381D01*
X1196052Y-16726286D01*
X1196052Y-16678667D01*
X1205576Y-16640571D01*
X1215100Y-16621524D01*
X1224624Y-16612000D01*
X1243671Y-16602476D01*
X1396052Y-16783429D02*
X1405576Y-16792952D01*
X1396052Y-16802476D01*
X1386528Y-16792952D01*
X1396052Y-16783429D01*
X1396052Y-16802476D01*
X1500814Y-16802476D02*
X1538909Y-16802476D01*
X1557957Y-16792952D01*
X1567481Y-16783429D01*
X1586528Y-16754857D01*
X1596052Y-16716762D01*
X1596052Y-16640571D01*
X1586528Y-16621524D01*
X1577005Y-16612000D01*
X1557957Y-16602476D01*
X1519862Y-16602476D01*
X1500814Y-16612000D01*
X1491290Y-16621524D01*
X1481766Y-16640571D01*
X1481766Y-16688190D01*
X1491290Y-16707238D01*
X1500814Y-16716762D01*
X1519862Y-16726286D01*
X1557957Y-16726286D01*
X1577005Y-16716762D01*
X1586528Y-16707238D01*
X1596052Y-16688190D01*
X1767481Y-16669143D02*
X1767481Y-16802476D01*
X1719862Y-16592952D02*
X1672243Y-16735809D01*
X1796052Y-16735809D01*
X1910338Y-16602476D02*
X1929385Y-16602476D01*
X1948433Y-16612000D01*
X1957957Y-16621524D01*
X1967481Y-16640571D01*
X1977005Y-16678667D01*
X1977005Y-16726286D01*
X1967481Y-16764381D01*
X1957957Y-16783429D01*
X1948433Y-16792952D01*
X1929385Y-16802476D01*
X1910338Y-16802476D01*
X1891290Y-16792952D01*
X1881766Y-16783429D01*
X1872243Y-16764381D01*
X1862719Y-16726286D01*
X1862719Y-16678667D01*
X1872243Y-16640571D01*
X1881766Y-16621524D01*
X1891290Y-16612000D01*
X1910338Y-16602476D01*
X2062719Y-16802476D02*
X2062719Y-16669143D01*
X2062719Y-16688190D02*
X2072243Y-16678667D01*
X2091290Y-16669143D01*
X2119862Y-16669143D01*
X2138909Y-16678667D01*
X2148433Y-16697714D01*
X2148433Y-16802476D01*
X2148433Y-16697714D02*
X2157957Y-16678667D01*
X2177005Y-16669143D01*
X2205576Y-16669143D01*
X2224624Y-16678667D01*
X2234147Y-16697714D01*
X2234147Y-16802476D01*
X2329386Y-16802476D02*
X2329386Y-16669143D01*
X2329386Y-16688190D02*
X2338909Y-16678667D01*
X2357957Y-16669143D01*
X2386528Y-16669143D01*
X2405576Y-16678667D01*
X2415100Y-16697714D01*
X2415100Y-16802476D01*
X2415100Y-16697714D02*
X2424624Y-16678667D01*
X2443671Y-16669143D01*
X2472243Y-16669143D01*
X2491290Y-16678667D01*
X2500814Y-16697714D01*
X2500814Y-16802476D01*
X2891290Y-16592952D02*
X2719862Y-16850095D01*
X3148433Y-16602476D02*
X3167481Y-16602476D01*
X3186528Y-16612000D01*
X3196052Y-16621524D01*
X3205576Y-16640571D01*
X3215100Y-16678667D01*
X3215100Y-16726286D01*
X3205576Y-16764381D01*
X3196052Y-16783429D01*
X3186528Y-16792952D01*
X3167481Y-16802476D01*
X3148433Y-16802476D01*
X3129385Y-16792952D01*
X3119862Y-16783429D01*
X3110338Y-16764381D01*
X3100814Y-16726286D01*
X3100814Y-16678667D01*
X3110338Y-16640571D01*
X3119862Y-16621524D01*
X3129385Y-16612000D01*
X3148433Y-16602476D01*
X3300814Y-16783429D02*
X3310338Y-16792952D01*
X3300814Y-16802476D01*
X3291290Y-16792952D01*
X3300814Y-16783429D01*
X3300814Y-16802476D01*
X3434147Y-16602476D02*
X3453195Y-16602476D01*
X3472243Y-16612000D01*
X3481766Y-16621524D01*
X3491290Y-16640571D01*
X3500814Y-16678667D01*
X3500814Y-16726286D01*
X3491290Y-16764381D01*
X3481766Y-16783429D01*
X3472243Y-16792952D01*
X3453195Y-16802476D01*
X3434147Y-16802476D01*
X3415100Y-16792952D01*
X3405576Y-16783429D01*
X3396052Y-16764381D01*
X3386528Y-16726286D01*
X3386528Y-16678667D01*
X3396052Y-16640571D01*
X3405576Y-16621524D01*
X3415100Y-16612000D01*
X3434147Y-16602476D01*
X3567481Y-16602476D02*
X3691290Y-16602476D01*
X3624624Y-16678667D01*
X3653195Y-16678667D01*
X3672243Y-16688190D01*
X3681766Y-16697714D01*
X3691290Y-16716762D01*
X3691290Y-16764381D01*
X3681766Y-16783429D01*
X3672243Y-16792952D01*
X3653195Y-16802476D01*
X3596052Y-16802476D01*
X3577005Y-16792952D01*
X3567481Y-16783429D01*
X3757957Y-16602476D02*
X3891290Y-16602476D01*
X3805576Y-16802476D01*
X4005576Y-16602476D02*
X4024624Y-16602476D01*
X4043671Y-16612000D01*
X4053195Y-16621524D01*
X4062719Y-16640571D01*
X4072243Y-16678667D01*
X4072243Y-16726286D01*
X4062719Y-16764381D01*
X4053195Y-16783429D01*
X4043671Y-16792952D01*
X4024624Y-16802476D01*
X4005576Y-16802476D01*
X3986528Y-16792952D01*
X3977005Y-16783429D01*
X3967481Y-16764381D01*
X3957957Y-16726286D01*
X3957957Y-16678667D01*
X3967481Y-16640571D01*
X3977005Y-16621524D01*
X3986528Y-16612000D01*
X4005576Y-16602476D01*
X4148433Y-16602476D02*
X4148433Y-16640571D01*
X4224624Y-16602476D02*
X4224624Y-16640571D01*
X4519862Y-16878667D02*
X4510338Y-16869143D01*
X4491290Y-16840571D01*
X4481767Y-16821524D01*
X4472243Y-16792952D01*
X4462719Y-16745333D01*
X4462719Y-16707238D01*
X4472243Y-16659619D01*
X4481767Y-16631048D01*
X4491290Y-16612000D01*
X4510338Y-16583428D01*
X4519862Y-16573905D01*
X4586528Y-16621524D02*
X4596052Y-16612000D01*
X4615100Y-16602476D01*
X4662719Y-16602476D01*
X4681767Y-16612000D01*
X4691290Y-16621524D01*
X4700814Y-16640571D01*
X4700814Y-16659619D01*
X4691290Y-16688190D01*
X4577005Y-16802476D01*
X4700814Y-16802476D01*
X4938909Y-16802476D02*
X4938909Y-16602476D01*
X5024624Y-16802476D02*
X5024624Y-16697714D01*
X5015100Y-16678667D01*
X4996052Y-16669143D01*
X4967481Y-16669143D01*
X4948433Y-16678667D01*
X4938909Y-16688190D01*
X5148433Y-16802476D02*
X5129386Y-16792952D01*
X5119862Y-16783429D01*
X5110338Y-16764381D01*
X5110338Y-16707238D01*
X5119862Y-16688190D01*
X5129386Y-16678667D01*
X5148433Y-16669143D01*
X5177005Y-16669143D01*
X5196052Y-16678667D01*
X5205576Y-16688190D01*
X5215100Y-16707238D01*
X5215100Y-16764381D01*
X5205576Y-16783429D01*
X5196052Y-16792952D01*
X5177005Y-16802476D01*
X5148433Y-16802476D01*
X5329386Y-16802476D02*
X5310338Y-16792952D01*
X5300814Y-16773905D01*
X5300814Y-16602476D01*
X5481767Y-16792952D02*
X5462719Y-16802476D01*
X5424624Y-16802476D01*
X5405576Y-16792952D01*
X5396052Y-16773905D01*
X5396052Y-16697714D01*
X5405576Y-16678667D01*
X5424624Y-16669143D01*
X5462719Y-16669143D01*
X5481767Y-16678667D01*
X5491290Y-16697714D01*
X5491290Y-16716762D01*
X5396052Y-16735809D01*
X5567481Y-16792952D02*
X5586528Y-16802476D01*
X5624624Y-16802476D01*
X5643671Y-16792952D01*
X5653195Y-16773905D01*
X5653195Y-16764381D01*
X5643671Y-16745333D01*
X5624624Y-16735809D01*
X5596052Y-16735809D01*
X5577005Y-16726286D01*
X5567481Y-16707238D01*
X5567481Y-16697714D01*
X5577005Y-16678667D01*
X5596052Y-16669143D01*
X5624624Y-16669143D01*
X5643671Y-16678667D01*
X5719862Y-16878667D02*
X5729385Y-16869143D01*
X5748433Y-16840571D01*
X5757957Y-16821524D01*
X5767481Y-16792952D01*
X5777005Y-16745333D01*
X5777005Y-16707238D01*
X5767481Y-16659619D01*
X5757957Y-16631048D01*
X5748433Y-16612000D01*
X5729385Y-16583428D01*
X5719862Y-16573905D01*
X6081766Y-16878667D02*
X6072243Y-16869143D01*
X6053195Y-16840571D01*
X6043671Y-16821524D01*
X6034147Y-16792952D01*
X6024624Y-16745333D01*
X6024624Y-16707238D01*
X6034147Y-16659619D01*
X6043671Y-16631048D01*
X6053195Y-16612000D01*
X6072243Y-16583428D01*
X6081766Y-16573905D01*
X6157957Y-16669143D02*
X6157957Y-16802476D01*
X6157957Y-16688190D02*
X6167481Y-16678667D01*
X6186528Y-16669143D01*
X6215100Y-16669143D01*
X6234147Y-16678667D01*
X6243671Y-16697714D01*
X6243671Y-16802476D01*
X6367481Y-16802476D02*
X6348433Y-16792952D01*
X6338909Y-16783429D01*
X6329385Y-16764381D01*
X6329385Y-16707238D01*
X6338909Y-16688190D01*
X6348433Y-16678667D01*
X6367481Y-16669143D01*
X6396052Y-16669143D01*
X6415100Y-16678667D01*
X6424624Y-16688190D01*
X6434147Y-16707238D01*
X6434147Y-16764381D01*
X6424624Y-16783429D01*
X6415100Y-16792952D01*
X6396052Y-16802476D01*
X6367481Y-16802476D01*
X6491290Y-16669143D02*
X6567481Y-16669143D01*
X6519862Y-16602476D02*
X6519862Y-16773905D01*
X6529385Y-16792952D01*
X6548433Y-16802476D01*
X6567481Y-16802476D01*
X6786528Y-16669143D02*
X6786528Y-16869143D01*
X6786528Y-16678667D02*
X6805576Y-16669143D01*
X6843671Y-16669143D01*
X6862719Y-16678667D01*
X6872243Y-16688190D01*
X6881766Y-16707238D01*
X6881766Y-16764381D01*
X6872243Y-16783429D01*
X6862719Y-16792952D01*
X6843671Y-16802476D01*
X6805576Y-16802476D01*
X6786528Y-16792952D01*
X6996052Y-16802476D02*
X6977005Y-16792952D01*
X6967481Y-16773905D01*
X6967481Y-16602476D01*
X7157957Y-16802476D02*
X7157957Y-16697714D01*
X7148433Y-16678667D01*
X7129385Y-16669143D01*
X7091290Y-16669143D01*
X7072243Y-16678667D01*
X7157957Y-16792952D02*
X7138909Y-16802476D01*
X7091290Y-16802476D01*
X7072243Y-16792952D01*
X7062719Y-16773905D01*
X7062719Y-16754857D01*
X7072243Y-16735809D01*
X7091290Y-16726286D01*
X7138909Y-16726286D01*
X7157957Y-16716762D01*
X7224624Y-16669143D02*
X7300814Y-16669143D01*
X7253195Y-16602476D02*
X7253195Y-16773905D01*
X7262719Y-16792952D01*
X7281766Y-16802476D01*
X7300814Y-16802476D01*
X7443671Y-16792952D02*
X7424624Y-16802476D01*
X7386528Y-16802476D01*
X7367481Y-16792952D01*
X7357957Y-16773905D01*
X7357957Y-16697714D01*
X7367481Y-16678667D01*
X7386528Y-16669143D01*
X7424624Y-16669143D01*
X7443671Y-16678667D01*
X7453195Y-16697714D01*
X7453195Y-16716762D01*
X7357957Y-16735809D01*
X7624624Y-16802476D02*
X7624624Y-16602476D01*
X7624624Y-16792952D02*
X7605576Y-16802476D01*
X7567481Y-16802476D01*
X7548433Y-16792952D01*
X7538909Y-16783429D01*
X7529385Y-16764381D01*
X7529385Y-16707238D01*
X7538909Y-16688190D01*
X7548433Y-16678667D01*
X7567481Y-16669143D01*
X7605576Y-16669143D01*
X7624624Y-16678667D01*
X7700814Y-16878667D02*
X7710338Y-16869143D01*
X7729385Y-16840571D01*
X7738909Y-16821524D01*
X7748433Y-16792952D01*
X7757957Y-16745333D01*
X7757957Y-16707238D01*
X7748433Y-16659619D01*
X7738909Y-16631048D01*
X7729385Y-16612000D01*
X7710338Y-16583428D01*
X7700814Y-16573905D01*
D13*
X947957Y-16976000D02*
G75*
G03*
X947957Y-16976000I-87500J0D01*
G01*
D10*
X1310338Y-17066476D02*
X1196052Y-17066476D01*
X1253195Y-17066476D02*
X1253195Y-16866476D01*
X1234147Y-16895048D01*
X1215100Y-16914095D01*
X1196052Y-16923619D01*
X1396052Y-17047429D02*
X1405576Y-17056952D01*
X1396052Y-17066476D01*
X1386528Y-17056952D01*
X1396052Y-17047429D01*
X1396052Y-17066476D01*
X1472243Y-16866476D02*
X1605576Y-16866476D01*
X1519862Y-17066476D01*
X1777005Y-16866476D02*
X1681766Y-16866476D01*
X1672243Y-16961714D01*
X1681766Y-16952190D01*
X1700814Y-16942667D01*
X1748433Y-16942667D01*
X1767481Y-16952190D01*
X1777005Y-16961714D01*
X1786528Y-16980762D01*
X1786528Y-17028381D01*
X1777005Y-17047429D01*
X1767481Y-17056952D01*
X1748433Y-17066476D01*
X1700814Y-17066476D01*
X1681766Y-17056952D01*
X1672243Y-17047429D01*
X1910338Y-16866476D02*
X1929385Y-16866476D01*
X1948433Y-16876000D01*
X1957957Y-16885524D01*
X1967481Y-16904571D01*
X1977005Y-16942667D01*
X1977005Y-16990286D01*
X1967481Y-17028381D01*
X1957957Y-17047429D01*
X1948433Y-17056952D01*
X1929385Y-17066476D01*
X1910338Y-17066476D01*
X1891290Y-17056952D01*
X1881766Y-17047429D01*
X1872243Y-17028381D01*
X1862719Y-16990286D01*
X1862719Y-16942667D01*
X1872243Y-16904571D01*
X1881766Y-16885524D01*
X1891290Y-16876000D01*
X1910338Y-16866476D01*
X2062719Y-17066476D02*
X2062719Y-16933143D01*
X2062719Y-16952190D02*
X2072243Y-16942667D01*
X2091290Y-16933143D01*
X2119862Y-16933143D01*
X2138909Y-16942667D01*
X2148433Y-16961714D01*
X2148433Y-17066476D01*
X2148433Y-16961714D02*
X2157957Y-16942667D01*
X2177005Y-16933143D01*
X2205576Y-16933143D01*
X2224624Y-16942667D01*
X2234147Y-16961714D01*
X2234147Y-17066476D01*
X2329386Y-17066476D02*
X2329386Y-16933143D01*
X2329386Y-16952190D02*
X2338909Y-16942667D01*
X2357957Y-16933143D01*
X2386528Y-16933143D01*
X2405576Y-16942667D01*
X2415100Y-16961714D01*
X2415100Y-17066476D01*
X2415100Y-16961714D02*
X2424624Y-16942667D01*
X2443671Y-16933143D01*
X2472243Y-16933143D01*
X2491290Y-16942667D01*
X2500814Y-16961714D01*
X2500814Y-17066476D01*
X2891290Y-16856952D02*
X2719862Y-17114095D01*
X3148433Y-16866476D02*
X3167481Y-16866476D01*
X3186528Y-16876000D01*
X3196052Y-16885524D01*
X3205576Y-16904571D01*
X3215100Y-16942667D01*
X3215100Y-16990286D01*
X3205576Y-17028381D01*
X3196052Y-17047429D01*
X3186528Y-17056952D01*
X3167481Y-17066476D01*
X3148433Y-17066476D01*
X3129385Y-17056952D01*
X3119862Y-17047429D01*
X3110338Y-17028381D01*
X3100814Y-16990286D01*
X3100814Y-16942667D01*
X3110338Y-16904571D01*
X3119862Y-16885524D01*
X3129385Y-16876000D01*
X3148433Y-16866476D01*
X3300814Y-17047429D02*
X3310338Y-17056952D01*
X3300814Y-17066476D01*
X3291290Y-17056952D01*
X3300814Y-17047429D01*
X3300814Y-17066476D01*
X3434147Y-16866476D02*
X3453195Y-16866476D01*
X3472243Y-16876000D01*
X3481766Y-16885524D01*
X3491290Y-16904571D01*
X3500814Y-16942667D01*
X3500814Y-16990286D01*
X3491290Y-17028381D01*
X3481766Y-17047429D01*
X3472243Y-17056952D01*
X3453195Y-17066476D01*
X3434147Y-17066476D01*
X3415100Y-17056952D01*
X3405576Y-17047429D01*
X3396052Y-17028381D01*
X3386528Y-16990286D01*
X3386528Y-16942667D01*
X3396052Y-16904571D01*
X3405576Y-16885524D01*
X3415100Y-16876000D01*
X3434147Y-16866476D01*
X3672243Y-16866476D02*
X3634147Y-16866476D01*
X3615100Y-16876000D01*
X3605576Y-16885524D01*
X3586528Y-16914095D01*
X3577005Y-16952190D01*
X3577005Y-17028381D01*
X3586528Y-17047429D01*
X3596052Y-17056952D01*
X3615100Y-17066476D01*
X3653195Y-17066476D01*
X3672243Y-17056952D01*
X3681766Y-17047429D01*
X3691290Y-17028381D01*
X3691290Y-16980762D01*
X3681766Y-16961714D01*
X3672243Y-16952190D01*
X3653195Y-16942667D01*
X3615100Y-16942667D01*
X3596052Y-16952190D01*
X3586528Y-16961714D01*
X3577005Y-16980762D01*
X3805576Y-16952190D02*
X3786528Y-16942667D01*
X3777005Y-16933143D01*
X3767481Y-16914095D01*
X3767481Y-16904571D01*
X3777005Y-16885524D01*
X3786528Y-16876000D01*
X3805576Y-16866476D01*
X3843671Y-16866476D01*
X3862719Y-16876000D01*
X3872243Y-16885524D01*
X3881766Y-16904571D01*
X3881766Y-16914095D01*
X3872243Y-16933143D01*
X3862719Y-16942667D01*
X3843671Y-16952190D01*
X3805576Y-16952190D01*
X3786528Y-16961714D01*
X3777005Y-16971238D01*
X3767481Y-16990286D01*
X3767481Y-17028381D01*
X3777005Y-17047429D01*
X3786528Y-17056952D01*
X3805576Y-17066476D01*
X3843671Y-17066476D01*
X3862719Y-17056952D01*
X3872243Y-17047429D01*
X3881766Y-17028381D01*
X3881766Y-16990286D01*
X3872243Y-16971238D01*
X3862719Y-16961714D01*
X3843671Y-16952190D01*
X3977005Y-17066476D02*
X4015100Y-17066476D01*
X4034147Y-17056952D01*
X4043671Y-17047429D01*
X4062719Y-17018857D01*
X4072243Y-16980762D01*
X4072243Y-16904571D01*
X4062719Y-16885524D01*
X4053195Y-16876000D01*
X4034147Y-16866476D01*
X3996052Y-16866476D01*
X3977005Y-16876000D01*
X3967481Y-16885524D01*
X3957957Y-16904571D01*
X3957957Y-16952190D01*
X3967481Y-16971238D01*
X3977005Y-16980762D01*
X3996052Y-16990286D01*
X4034147Y-16990286D01*
X4053195Y-16980762D01*
X4062719Y-16971238D01*
X4072243Y-16952190D01*
X4148433Y-16866476D02*
X4148433Y-16904571D01*
X4224624Y-16866476D02*
X4224624Y-16904571D01*
X4519862Y-17142667D02*
X4510338Y-17133143D01*
X4491290Y-17104571D01*
X4481767Y-17085524D01*
X4472243Y-17056952D01*
X4462719Y-17009333D01*
X4462719Y-16971238D01*
X4472243Y-16923619D01*
X4481767Y-16895048D01*
X4491290Y-16876000D01*
X4510338Y-16847429D01*
X4519862Y-16837905D01*
X4624624Y-16952190D02*
X4605576Y-16942667D01*
X4596052Y-16933143D01*
X4586528Y-16914095D01*
X4586528Y-16904571D01*
X4596052Y-16885524D01*
X4605576Y-16876000D01*
X4624624Y-16866476D01*
X4662719Y-16866476D01*
X4681767Y-16876000D01*
X4691290Y-16885524D01*
X4700814Y-16904571D01*
X4700814Y-16914095D01*
X4691290Y-16933143D01*
X4681767Y-16942667D01*
X4662719Y-16952190D01*
X4624624Y-16952190D01*
X4605576Y-16961714D01*
X4596052Y-16971238D01*
X4586528Y-16990286D01*
X4586528Y-17028381D01*
X4596052Y-17047429D01*
X4605576Y-17056952D01*
X4624624Y-17066476D01*
X4662719Y-17066476D01*
X4681767Y-17056952D01*
X4691290Y-17047429D01*
X4700814Y-17028381D01*
X4700814Y-16990286D01*
X4691290Y-16971238D01*
X4681767Y-16961714D01*
X4662719Y-16952190D01*
X4872243Y-16933143D02*
X4872243Y-17066476D01*
X4824624Y-16856952D02*
X4777005Y-16999810D01*
X4900814Y-16999810D01*
X5129386Y-17066476D02*
X5129386Y-16866476D01*
X5215100Y-17066476D02*
X5215100Y-16961714D01*
X5205576Y-16942667D01*
X5186528Y-16933143D01*
X5157957Y-16933143D01*
X5138909Y-16942667D01*
X5129386Y-16952190D01*
X5338909Y-17066476D02*
X5319862Y-17056952D01*
X5310338Y-17047429D01*
X5300814Y-17028381D01*
X5300814Y-16971238D01*
X5310338Y-16952190D01*
X5319862Y-16942667D01*
X5338909Y-16933143D01*
X5367481Y-16933143D01*
X5386528Y-16942667D01*
X5396052Y-16952190D01*
X5405576Y-16971238D01*
X5405576Y-17028381D01*
X5396052Y-17047429D01*
X5386528Y-17056952D01*
X5367481Y-17066476D01*
X5338909Y-17066476D01*
X5519862Y-17066476D02*
X5500814Y-17056952D01*
X5491290Y-17037905D01*
X5491290Y-16866476D01*
X5672243Y-17056952D02*
X5653195Y-17066476D01*
X5615100Y-17066476D01*
X5596052Y-17056952D01*
X5586528Y-17037905D01*
X5586528Y-16961714D01*
X5596052Y-16942667D01*
X5615100Y-16933143D01*
X5653195Y-16933143D01*
X5672243Y-16942667D01*
X5681766Y-16961714D01*
X5681766Y-16980762D01*
X5586528Y-16999810D01*
X5757957Y-17056952D02*
X5777005Y-17066476D01*
X5815100Y-17066476D01*
X5834147Y-17056952D01*
X5843671Y-17037905D01*
X5843671Y-17028381D01*
X5834147Y-17009333D01*
X5815100Y-16999810D01*
X5786528Y-16999810D01*
X5767481Y-16990286D01*
X5757957Y-16971238D01*
X5757957Y-16961714D01*
X5767481Y-16942667D01*
X5786528Y-16933143D01*
X5815100Y-16933143D01*
X5834147Y-16942667D01*
X5910338Y-17142667D02*
X5919862Y-17133143D01*
X5938909Y-17104571D01*
X5948433Y-17085524D01*
X5957957Y-17056952D01*
X5967481Y-17009333D01*
X5967481Y-16971238D01*
X5957957Y-16923619D01*
X5948433Y-16895048D01*
X5938909Y-16876000D01*
X5919862Y-16847429D01*
X5910338Y-16837905D01*
X6272243Y-17142667D02*
X6262719Y-17133143D01*
X6243671Y-17104571D01*
X6234147Y-17085524D01*
X6224624Y-17056952D01*
X6215100Y-17009333D01*
X6215100Y-16971238D01*
X6224624Y-16923619D01*
X6234147Y-16895048D01*
X6243671Y-16876000D01*
X6262719Y-16847429D01*
X6272243Y-16837905D01*
X6348433Y-16933143D02*
X6348433Y-17066476D01*
X6348433Y-16952190D02*
X6357957Y-16942667D01*
X6377005Y-16933143D01*
X6405576Y-16933143D01*
X6424624Y-16942667D01*
X6434147Y-16961714D01*
X6434147Y-17066476D01*
X6557957Y-17066476D02*
X6538909Y-17056952D01*
X6529385Y-17047429D01*
X6519862Y-17028381D01*
X6519862Y-16971238D01*
X6529385Y-16952190D01*
X6538909Y-16942667D01*
X6557957Y-16933143D01*
X6586528Y-16933143D01*
X6605576Y-16942667D01*
X6615100Y-16952190D01*
X6624624Y-16971238D01*
X6624624Y-17028381D01*
X6615100Y-17047429D01*
X6605576Y-17056952D01*
X6586528Y-17066476D01*
X6557957Y-17066476D01*
X6681766Y-16933143D02*
X6757957Y-16933143D01*
X6710338Y-16866476D02*
X6710338Y-17037905D01*
X6719862Y-17056952D01*
X6738909Y-17066476D01*
X6757957Y-17066476D01*
X6977005Y-16933143D02*
X6977005Y-17133143D01*
X6977005Y-16942667D02*
X6996052Y-16933143D01*
X7034147Y-16933143D01*
X7053195Y-16942667D01*
X7062719Y-16952190D01*
X7072243Y-16971238D01*
X7072243Y-17028381D01*
X7062719Y-17047429D01*
X7053195Y-17056952D01*
X7034147Y-17066476D01*
X6996052Y-17066476D01*
X6977005Y-17056952D01*
X7186528Y-17066476D02*
X7167481Y-17056952D01*
X7157957Y-17037905D01*
X7157957Y-16866476D01*
X7348433Y-17066476D02*
X7348433Y-16961714D01*
X7338909Y-16942667D01*
X7319862Y-16933143D01*
X7281766Y-16933143D01*
X7262719Y-16942667D01*
X7348433Y-17056952D02*
X7329385Y-17066476D01*
X7281766Y-17066476D01*
X7262719Y-17056952D01*
X7253195Y-17037905D01*
X7253195Y-17018857D01*
X7262719Y-16999810D01*
X7281766Y-16990286D01*
X7329385Y-16990286D01*
X7348433Y-16980762D01*
X7415100Y-16933143D02*
X7491290Y-16933143D01*
X7443671Y-16866476D02*
X7443671Y-17037905D01*
X7453195Y-17056952D01*
X7472243Y-17066476D01*
X7491290Y-17066476D01*
X7634147Y-17056952D02*
X7615100Y-17066476D01*
X7577005Y-17066476D01*
X7557957Y-17056952D01*
X7548433Y-17037905D01*
X7548433Y-16961714D01*
X7557957Y-16942667D01*
X7577005Y-16933143D01*
X7615100Y-16933143D01*
X7634147Y-16942667D01*
X7643671Y-16961714D01*
X7643671Y-16980762D01*
X7548433Y-16999810D01*
X7815100Y-17066476D02*
X7815100Y-16866476D01*
X7815100Y-17056952D02*
X7796052Y-17066476D01*
X7757957Y-17066476D01*
X7738909Y-17056952D01*
X7729385Y-17047429D01*
X7719862Y-17028381D01*
X7719862Y-16971238D01*
X7729385Y-16952190D01*
X7738909Y-16942667D01*
X7757957Y-16933143D01*
X7796052Y-16933143D01*
X7815100Y-16942667D01*
X7891290Y-17142667D02*
X7900814Y-17133143D01*
X7919862Y-17104571D01*
X7929385Y-17085524D01*
X7938909Y-17056952D01*
X7948433Y-17009333D01*
X7948433Y-16971238D01*
X7938909Y-16923619D01*
X7929385Y-16895048D01*
X7919862Y-16876000D01*
X7900814Y-16847429D01*
X7891290Y-16837905D01*
X847957Y-17171000D02*
X847957Y-17371000D01*
X747957Y-17271000D02*
X947957Y-17271000D01*
X1186528Y-17161476D02*
X1310338Y-17161476D01*
X1243671Y-17237667D01*
X1272243Y-17237667D01*
X1291290Y-17247190D01*
X1300814Y-17256714D01*
X1310338Y-17275762D01*
X1310338Y-17323381D01*
X1300814Y-17342429D01*
X1291290Y-17351952D01*
X1272243Y-17361476D01*
X1215100Y-17361476D01*
X1196052Y-17351952D01*
X1186528Y-17342429D01*
X1396052Y-17342429D02*
X1405576Y-17351952D01*
X1396052Y-17361476D01*
X1386528Y-17351952D01*
X1396052Y-17342429D01*
X1396052Y-17361476D01*
X1529385Y-17161476D02*
X1548433Y-17161476D01*
X1567481Y-17171000D01*
X1577005Y-17180524D01*
X1586528Y-17199571D01*
X1596052Y-17237667D01*
X1596052Y-17285286D01*
X1586528Y-17323381D01*
X1577005Y-17342429D01*
X1567481Y-17351952D01*
X1548433Y-17361476D01*
X1529385Y-17361476D01*
X1510338Y-17351952D01*
X1500814Y-17342429D01*
X1491290Y-17323381D01*
X1481766Y-17285286D01*
X1481766Y-17237667D01*
X1491290Y-17199571D01*
X1500814Y-17180524D01*
X1510338Y-17171000D01*
X1529385Y-17161476D01*
X1777005Y-17161476D02*
X1681766Y-17161476D01*
X1672243Y-17256714D01*
X1681766Y-17247190D01*
X1700814Y-17237667D01*
X1748433Y-17237667D01*
X1767481Y-17247190D01*
X1777005Y-17256714D01*
X1786528Y-17275762D01*
X1786528Y-17323381D01*
X1777005Y-17342429D01*
X1767481Y-17351952D01*
X1748433Y-17361476D01*
X1700814Y-17361476D01*
X1681766Y-17351952D01*
X1672243Y-17342429D01*
X1910338Y-17161476D02*
X1929385Y-17161476D01*
X1948433Y-17171000D01*
X1957957Y-17180524D01*
X1967481Y-17199571D01*
X1977005Y-17237667D01*
X1977005Y-17285286D01*
X1967481Y-17323381D01*
X1957957Y-17342429D01*
X1948433Y-17351952D01*
X1929385Y-17361476D01*
X1910338Y-17361476D01*
X1891290Y-17351952D01*
X1881766Y-17342429D01*
X1872243Y-17323381D01*
X1862719Y-17285286D01*
X1862719Y-17237667D01*
X1872243Y-17199571D01*
X1881766Y-17180524D01*
X1891290Y-17171000D01*
X1910338Y-17161476D01*
X2062719Y-17361476D02*
X2062719Y-17228143D01*
X2062719Y-17247190D02*
X2072243Y-17237667D01*
X2091290Y-17228143D01*
X2119862Y-17228143D01*
X2138909Y-17237667D01*
X2148433Y-17256714D01*
X2148433Y-17361476D01*
X2148433Y-17256714D02*
X2157957Y-17237667D01*
X2177005Y-17228143D01*
X2205576Y-17228143D01*
X2224624Y-17237667D01*
X2234147Y-17256714D01*
X2234147Y-17361476D01*
X2329386Y-17361476D02*
X2329386Y-17228143D01*
X2329386Y-17247190D02*
X2338909Y-17237667D01*
X2357957Y-17228143D01*
X2386528Y-17228143D01*
X2405576Y-17237667D01*
X2415100Y-17256714D01*
X2415100Y-17361476D01*
X2415100Y-17256714D02*
X2424624Y-17237667D01*
X2443671Y-17228143D01*
X2472243Y-17228143D01*
X2491290Y-17237667D01*
X2500814Y-17256714D01*
X2500814Y-17361476D01*
X2891290Y-17151952D02*
X2719862Y-17409095D01*
X3148433Y-17161476D02*
X3167481Y-17161476D01*
X3186528Y-17171000D01*
X3196052Y-17180524D01*
X3205576Y-17199571D01*
X3215100Y-17237667D01*
X3215100Y-17285286D01*
X3205576Y-17323381D01*
X3196052Y-17342429D01*
X3186528Y-17351952D01*
X3167481Y-17361476D01*
X3148433Y-17361476D01*
X3129385Y-17351952D01*
X3119862Y-17342429D01*
X3110338Y-17323381D01*
X3100814Y-17285286D01*
X3100814Y-17237667D01*
X3110338Y-17199571D01*
X3119862Y-17180524D01*
X3129385Y-17171000D01*
X3148433Y-17161476D01*
X3300814Y-17342429D02*
X3310338Y-17351952D01*
X3300814Y-17361476D01*
X3291290Y-17351952D01*
X3300814Y-17342429D01*
X3300814Y-17361476D01*
X3500814Y-17361476D02*
X3386528Y-17361476D01*
X3443671Y-17361476D02*
X3443671Y-17161476D01*
X3424624Y-17190048D01*
X3405576Y-17209095D01*
X3386528Y-17218619D01*
X3577005Y-17180524D02*
X3586528Y-17171000D01*
X3605576Y-17161476D01*
X3653195Y-17161476D01*
X3672243Y-17171000D01*
X3681766Y-17180524D01*
X3691290Y-17199571D01*
X3691290Y-17218619D01*
X3681766Y-17247190D01*
X3567481Y-17361476D01*
X3691290Y-17361476D01*
X3815100Y-17161476D02*
X3834147Y-17161476D01*
X3853195Y-17171000D01*
X3862719Y-17180524D01*
X3872243Y-17199571D01*
X3881766Y-17237667D01*
X3881766Y-17285286D01*
X3872243Y-17323381D01*
X3862719Y-17342429D01*
X3853195Y-17351952D01*
X3834147Y-17361476D01*
X3815100Y-17361476D01*
X3796052Y-17351952D01*
X3786528Y-17342429D01*
X3777005Y-17323381D01*
X3767481Y-17285286D01*
X3767481Y-17237667D01*
X3777005Y-17199571D01*
X3786528Y-17180524D01*
X3796052Y-17171000D01*
X3815100Y-17161476D01*
X4072243Y-17361476D02*
X3957957Y-17361476D01*
X4015100Y-17361476D02*
X4015100Y-17161476D01*
X3996052Y-17190048D01*
X3977005Y-17209095D01*
X3957957Y-17218619D01*
X4148433Y-17161476D02*
X4148433Y-17199571D01*
X4224624Y-17161476D02*
X4224624Y-17199571D01*
X4519862Y-17437667D02*
X4510338Y-17428143D01*
X4491290Y-17399571D01*
X4481767Y-17380524D01*
X4472243Y-17351952D01*
X4462719Y-17304333D01*
X4462719Y-17266238D01*
X4472243Y-17218619D01*
X4481767Y-17190048D01*
X4491290Y-17171000D01*
X4510338Y-17142429D01*
X4519862Y-17132905D01*
X4624624Y-17247190D02*
X4605576Y-17237667D01*
X4596052Y-17228143D01*
X4586528Y-17209095D01*
X4586528Y-17199571D01*
X4596052Y-17180524D01*
X4605576Y-17171000D01*
X4624624Y-17161476D01*
X4662719Y-17161476D01*
X4681767Y-17171000D01*
X4691290Y-17180524D01*
X4700814Y-17199571D01*
X4700814Y-17209095D01*
X4691290Y-17228143D01*
X4681767Y-17237667D01*
X4662719Y-17247190D01*
X4624624Y-17247190D01*
X4605576Y-17256714D01*
X4596052Y-17266238D01*
X4586528Y-17285286D01*
X4586528Y-17323381D01*
X4596052Y-17342429D01*
X4605576Y-17351952D01*
X4624624Y-17361476D01*
X4662719Y-17361476D01*
X4681767Y-17351952D01*
X4691290Y-17342429D01*
X4700814Y-17323381D01*
X4700814Y-17285286D01*
X4691290Y-17266238D01*
X4681767Y-17256714D01*
X4662719Y-17247190D01*
X4872243Y-17228143D02*
X4872243Y-17361476D01*
X4824624Y-17151952D02*
X4777005Y-17294810D01*
X4900814Y-17294810D01*
X5129386Y-17361476D02*
X5129386Y-17161476D01*
X5215100Y-17361476D02*
X5215100Y-17256714D01*
X5205576Y-17237667D01*
X5186528Y-17228143D01*
X5157957Y-17228143D01*
X5138909Y-17237667D01*
X5129386Y-17247190D01*
X5338909Y-17361476D02*
X5319862Y-17351952D01*
X5310338Y-17342429D01*
X5300814Y-17323381D01*
X5300814Y-17266238D01*
X5310338Y-17247190D01*
X5319862Y-17237667D01*
X5338909Y-17228143D01*
X5367481Y-17228143D01*
X5386528Y-17237667D01*
X5396052Y-17247190D01*
X5405576Y-17266238D01*
X5405576Y-17323381D01*
X5396052Y-17342429D01*
X5386528Y-17351952D01*
X5367481Y-17361476D01*
X5338909Y-17361476D01*
X5519862Y-17361476D02*
X5500814Y-17351952D01*
X5491290Y-17332905D01*
X5491290Y-17161476D01*
X5672243Y-17351952D02*
X5653195Y-17361476D01*
X5615100Y-17361476D01*
X5596052Y-17351952D01*
X5586528Y-17332905D01*
X5586528Y-17256714D01*
X5596052Y-17237667D01*
X5615100Y-17228143D01*
X5653195Y-17228143D01*
X5672243Y-17237667D01*
X5681766Y-17256714D01*
X5681766Y-17275762D01*
X5586528Y-17294810D01*
X5757957Y-17351952D02*
X5777005Y-17361476D01*
X5815100Y-17361476D01*
X5834147Y-17351952D01*
X5843671Y-17332905D01*
X5843671Y-17323381D01*
X5834147Y-17304333D01*
X5815100Y-17294810D01*
X5786528Y-17294810D01*
X5767481Y-17285286D01*
X5757957Y-17266238D01*
X5757957Y-17256714D01*
X5767481Y-17237667D01*
X5786528Y-17228143D01*
X5815100Y-17228143D01*
X5834147Y-17237667D01*
X5910338Y-17437667D02*
X5919862Y-17428143D01*
X5938909Y-17399571D01*
X5948433Y-17380524D01*
X5957957Y-17351952D01*
X5967481Y-17304333D01*
X5967481Y-17266238D01*
X5957957Y-17218619D01*
X5948433Y-17190048D01*
X5938909Y-17171000D01*
X5919862Y-17142429D01*
X5910338Y-17132905D01*
X6272243Y-17437667D02*
X6262719Y-17428143D01*
X6243671Y-17399571D01*
X6234147Y-17380524D01*
X6224624Y-17351952D01*
X6215100Y-17304333D01*
X6215100Y-17266238D01*
X6224624Y-17218619D01*
X6234147Y-17190048D01*
X6243671Y-17171000D01*
X6262719Y-17142429D01*
X6272243Y-17132905D01*
X6348433Y-17228143D02*
X6348433Y-17361476D01*
X6348433Y-17247190D02*
X6357957Y-17237667D01*
X6377005Y-17228143D01*
X6405576Y-17228143D01*
X6424624Y-17237667D01*
X6434147Y-17256714D01*
X6434147Y-17361476D01*
X6557957Y-17361476D02*
X6538909Y-17351952D01*
X6529385Y-17342429D01*
X6519862Y-17323381D01*
X6519862Y-17266238D01*
X6529385Y-17247190D01*
X6538909Y-17237667D01*
X6557957Y-17228143D01*
X6586528Y-17228143D01*
X6605576Y-17237667D01*
X6615100Y-17247190D01*
X6624624Y-17266238D01*
X6624624Y-17323381D01*
X6615100Y-17342429D01*
X6605576Y-17351952D01*
X6586528Y-17361476D01*
X6557957Y-17361476D01*
X6681766Y-17228143D02*
X6757957Y-17228143D01*
X6710338Y-17161476D02*
X6710338Y-17332905D01*
X6719862Y-17351952D01*
X6738909Y-17361476D01*
X6757957Y-17361476D01*
X6977005Y-17228143D02*
X6977005Y-17428143D01*
X6977005Y-17237667D02*
X6996052Y-17228143D01*
X7034147Y-17228143D01*
X7053195Y-17237667D01*
X7062719Y-17247190D01*
X7072243Y-17266238D01*
X7072243Y-17323381D01*
X7062719Y-17342429D01*
X7053195Y-17351952D01*
X7034147Y-17361476D01*
X6996052Y-17361476D01*
X6977005Y-17351952D01*
X7186528Y-17361476D02*
X7167481Y-17351952D01*
X7157957Y-17332905D01*
X7157957Y-17161476D01*
X7348433Y-17361476D02*
X7348433Y-17256714D01*
X7338909Y-17237667D01*
X7319862Y-17228143D01*
X7281766Y-17228143D01*
X7262719Y-17237667D01*
X7348433Y-17351952D02*
X7329385Y-17361476D01*
X7281766Y-17361476D01*
X7262719Y-17351952D01*
X7253195Y-17332905D01*
X7253195Y-17313857D01*
X7262719Y-17294810D01*
X7281766Y-17285286D01*
X7329385Y-17285286D01*
X7348433Y-17275762D01*
X7415100Y-17228143D02*
X7491290Y-17228143D01*
X7443671Y-17161476D02*
X7443671Y-17332905D01*
X7453195Y-17351952D01*
X7472243Y-17361476D01*
X7491290Y-17361476D01*
X7634147Y-17351952D02*
X7615100Y-17361476D01*
X7577005Y-17361476D01*
X7557957Y-17351952D01*
X7548433Y-17332905D01*
X7548433Y-17256714D01*
X7557957Y-17237667D01*
X7577005Y-17228143D01*
X7615100Y-17228143D01*
X7634147Y-17237667D01*
X7643671Y-17256714D01*
X7643671Y-17275762D01*
X7548433Y-17294810D01*
X7815100Y-17361476D02*
X7815100Y-17161476D01*
X7815100Y-17351952D02*
X7796052Y-17361476D01*
X7757957Y-17361476D01*
X7738909Y-17351952D01*
X7729385Y-17342429D01*
X7719862Y-17323381D01*
X7719862Y-17266238D01*
X7729385Y-17247190D01*
X7738909Y-17237667D01*
X7757957Y-17228143D01*
X7796052Y-17228143D01*
X7815100Y-17237667D01*
X7891290Y-17437667D02*
X7900814Y-17428143D01*
X7919862Y-17399571D01*
X7929385Y-17380524D01*
X7938909Y-17351952D01*
X7948433Y-17304333D01*
X7948433Y-17266238D01*
X7938909Y-17218619D01*
X7929385Y-17190048D01*
X7919862Y-17171000D01*
X7900814Y-17142429D01*
X7891290Y-17132905D01*
X918668Y-17661711D02*
X918668Y-17520289D01*
X777246Y-17520289D01*
X777246Y-17661711D01*
X918668Y-17661711D01*
X1291290Y-17548143D02*
X1291290Y-17681476D01*
X1243671Y-17471952D02*
X1196052Y-17614810D01*
X1319862Y-17614810D01*
X1396052Y-17662429D02*
X1405576Y-17671952D01*
X1396052Y-17681476D01*
X1386528Y-17671952D01*
X1396052Y-17662429D01*
X1396052Y-17681476D01*
X1529385Y-17481476D02*
X1548433Y-17481476D01*
X1567481Y-17491000D01*
X1577005Y-17500524D01*
X1586528Y-17519571D01*
X1596052Y-17557667D01*
X1596052Y-17605286D01*
X1586528Y-17643381D01*
X1577005Y-17662429D01*
X1567481Y-17671952D01*
X1548433Y-17681476D01*
X1529385Y-17681476D01*
X1510338Y-17671952D01*
X1500814Y-17662429D01*
X1491290Y-17643381D01*
X1481766Y-17605286D01*
X1481766Y-17557667D01*
X1491290Y-17519571D01*
X1500814Y-17500524D01*
X1510338Y-17491000D01*
X1529385Y-17481476D01*
X1719862Y-17481476D02*
X1738909Y-17481476D01*
X1757957Y-17491000D01*
X1767481Y-17500524D01*
X1777005Y-17519571D01*
X1786528Y-17557667D01*
X1786528Y-17605286D01*
X1777005Y-17643381D01*
X1767481Y-17662429D01*
X1757957Y-17671952D01*
X1738909Y-17681476D01*
X1719862Y-17681476D01*
X1700814Y-17671952D01*
X1691290Y-17662429D01*
X1681766Y-17643381D01*
X1672243Y-17605286D01*
X1672243Y-17557667D01*
X1681766Y-17519571D01*
X1691290Y-17500524D01*
X1700814Y-17491000D01*
X1719862Y-17481476D01*
X1910338Y-17481476D02*
X1929385Y-17481476D01*
X1948433Y-17491000D01*
X1957957Y-17500524D01*
X1967481Y-17519571D01*
X1977005Y-17557667D01*
X1977005Y-17605286D01*
X1967481Y-17643381D01*
X1957957Y-17662429D01*
X1948433Y-17671952D01*
X1929385Y-17681476D01*
X1910338Y-17681476D01*
X1891290Y-17671952D01*
X1881766Y-17662429D01*
X1872243Y-17643381D01*
X1862719Y-17605286D01*
X1862719Y-17557667D01*
X1872243Y-17519571D01*
X1881766Y-17500524D01*
X1891290Y-17491000D01*
X1910338Y-17481476D01*
X2062719Y-17681476D02*
X2062719Y-17548143D01*
X2062719Y-17567190D02*
X2072243Y-17557667D01*
X2091290Y-17548143D01*
X2119862Y-17548143D01*
X2138909Y-17557667D01*
X2148433Y-17576714D01*
X2148433Y-17681476D01*
X2148433Y-17576714D02*
X2157957Y-17557667D01*
X2177005Y-17548143D01*
X2205576Y-17548143D01*
X2224624Y-17557667D01*
X2234147Y-17576714D01*
X2234147Y-17681476D01*
X2329386Y-17681476D02*
X2329386Y-17548143D01*
X2329386Y-17567190D02*
X2338909Y-17557667D01*
X2357957Y-17548143D01*
X2386528Y-17548143D01*
X2405576Y-17557667D01*
X2415100Y-17576714D01*
X2415100Y-17681476D01*
X2415100Y-17576714D02*
X2424624Y-17557667D01*
X2443671Y-17548143D01*
X2472243Y-17548143D01*
X2491290Y-17557667D01*
X2500814Y-17576714D01*
X2500814Y-17681476D01*
X2891290Y-17471952D02*
X2719862Y-17729095D01*
X3148433Y-17481476D02*
X3167481Y-17481476D01*
X3186528Y-17491000D01*
X3196052Y-17500524D01*
X3205576Y-17519571D01*
X3215100Y-17557667D01*
X3215100Y-17605286D01*
X3205576Y-17643381D01*
X3196052Y-17662429D01*
X3186528Y-17671952D01*
X3167481Y-17681476D01*
X3148433Y-17681476D01*
X3129385Y-17671952D01*
X3119862Y-17662429D01*
X3110338Y-17643381D01*
X3100814Y-17605286D01*
X3100814Y-17557667D01*
X3110338Y-17519571D01*
X3119862Y-17500524D01*
X3129385Y-17491000D01*
X3148433Y-17481476D01*
X3300814Y-17662429D02*
X3310338Y-17671952D01*
X3300814Y-17681476D01*
X3291290Y-17671952D01*
X3300814Y-17662429D01*
X3300814Y-17681476D01*
X3500814Y-17681476D02*
X3386528Y-17681476D01*
X3443671Y-17681476D02*
X3443671Y-17481476D01*
X3424624Y-17510048D01*
X3405576Y-17529095D01*
X3386528Y-17538619D01*
X3681766Y-17481476D02*
X3586528Y-17481476D01*
X3577005Y-17576714D01*
X3586528Y-17567190D01*
X3605576Y-17557667D01*
X3653195Y-17557667D01*
X3672243Y-17567190D01*
X3681766Y-17576714D01*
X3691290Y-17595762D01*
X3691290Y-17643381D01*
X3681766Y-17662429D01*
X3672243Y-17671952D01*
X3653195Y-17681476D01*
X3605576Y-17681476D01*
X3586528Y-17671952D01*
X3577005Y-17662429D01*
X3757957Y-17481476D02*
X3891290Y-17481476D01*
X3805576Y-17681476D01*
X4062719Y-17481476D02*
X3967481Y-17481476D01*
X3957957Y-17576714D01*
X3967481Y-17567190D01*
X3986528Y-17557667D01*
X4034147Y-17557667D01*
X4053195Y-17567190D01*
X4062719Y-17576714D01*
X4072243Y-17595762D01*
X4072243Y-17643381D01*
X4062719Y-17662429D01*
X4053195Y-17671952D01*
X4034147Y-17681476D01*
X3986528Y-17681476D01*
X3967481Y-17671952D01*
X3957957Y-17662429D01*
X4148433Y-17481476D02*
X4148433Y-17519571D01*
X4224624Y-17481476D02*
X4224624Y-17519571D01*
X4519862Y-17757667D02*
X4510338Y-17748143D01*
X4491290Y-17719571D01*
X4481767Y-17700524D01*
X4472243Y-17671952D01*
X4462719Y-17624333D01*
X4462719Y-17586238D01*
X4472243Y-17538619D01*
X4481767Y-17510048D01*
X4491290Y-17491000D01*
X4510338Y-17462429D01*
X4519862Y-17452905D01*
X4681767Y-17548143D02*
X4681767Y-17681476D01*
X4634147Y-17471952D02*
X4586528Y-17614810D01*
X4710338Y-17614810D01*
X4777005Y-17500524D02*
X4786528Y-17491000D01*
X4805576Y-17481476D01*
X4853195Y-17481476D01*
X4872243Y-17491000D01*
X4881767Y-17500524D01*
X4891290Y-17519571D01*
X4891290Y-17538619D01*
X4881767Y-17567190D01*
X4767481Y-17681476D01*
X4891290Y-17681476D01*
X5129386Y-17681476D02*
X5129386Y-17481476D01*
X5215100Y-17681476D02*
X5215100Y-17576714D01*
X5205576Y-17557667D01*
X5186528Y-17548143D01*
X5157957Y-17548143D01*
X5138909Y-17557667D01*
X5129386Y-17567190D01*
X5338909Y-17681476D02*
X5319862Y-17671952D01*
X5310338Y-17662429D01*
X5300814Y-17643381D01*
X5300814Y-17586238D01*
X5310338Y-17567190D01*
X5319862Y-17557667D01*
X5338909Y-17548143D01*
X5367481Y-17548143D01*
X5386528Y-17557667D01*
X5396052Y-17567190D01*
X5405576Y-17586238D01*
X5405576Y-17643381D01*
X5396052Y-17662429D01*
X5386528Y-17671952D01*
X5367481Y-17681476D01*
X5338909Y-17681476D01*
X5519862Y-17681476D02*
X5500814Y-17671952D01*
X5491290Y-17652905D01*
X5491290Y-17481476D01*
X5672243Y-17671952D02*
X5653195Y-17681476D01*
X5615100Y-17681476D01*
X5596052Y-17671952D01*
X5586528Y-17652905D01*
X5586528Y-17576714D01*
X5596052Y-17557667D01*
X5615100Y-17548143D01*
X5653195Y-17548143D01*
X5672243Y-17557667D01*
X5681766Y-17576714D01*
X5681766Y-17595762D01*
X5586528Y-17614810D01*
X5757957Y-17671952D02*
X5777005Y-17681476D01*
X5815100Y-17681476D01*
X5834147Y-17671952D01*
X5843671Y-17652905D01*
X5843671Y-17643381D01*
X5834147Y-17624333D01*
X5815100Y-17614810D01*
X5786528Y-17614810D01*
X5767481Y-17605286D01*
X5757957Y-17586238D01*
X5757957Y-17576714D01*
X5767481Y-17557667D01*
X5786528Y-17548143D01*
X5815100Y-17548143D01*
X5834147Y-17557667D01*
X5910338Y-17757667D02*
X5919862Y-17748143D01*
X5938909Y-17719571D01*
X5948433Y-17700524D01*
X5957957Y-17671952D01*
X5967481Y-17624333D01*
X5967481Y-17586238D01*
X5957957Y-17538619D01*
X5948433Y-17510048D01*
X5938909Y-17491000D01*
X5919862Y-17462429D01*
X5910338Y-17452905D01*
X6272243Y-17757667D02*
X6262719Y-17748143D01*
X6243671Y-17719571D01*
X6234147Y-17700524D01*
X6224624Y-17671952D01*
X6215100Y-17624333D01*
X6215100Y-17586238D01*
X6224624Y-17538619D01*
X6234147Y-17510048D01*
X6243671Y-17491000D01*
X6262719Y-17462429D01*
X6272243Y-17452905D01*
X6348433Y-17548143D02*
X6348433Y-17681476D01*
X6348433Y-17567190D02*
X6357957Y-17557667D01*
X6377005Y-17548143D01*
X6405576Y-17548143D01*
X6424624Y-17557667D01*
X6434147Y-17576714D01*
X6434147Y-17681476D01*
X6557957Y-17681476D02*
X6538909Y-17671952D01*
X6529385Y-17662429D01*
X6519862Y-17643381D01*
X6519862Y-17586238D01*
X6529385Y-17567190D01*
X6538909Y-17557667D01*
X6557957Y-17548143D01*
X6586528Y-17548143D01*
X6605576Y-17557667D01*
X6615100Y-17567190D01*
X6624624Y-17586238D01*
X6624624Y-17643381D01*
X6615100Y-17662429D01*
X6605576Y-17671952D01*
X6586528Y-17681476D01*
X6557957Y-17681476D01*
X6681766Y-17548143D02*
X6757957Y-17548143D01*
X6710338Y-17481476D02*
X6710338Y-17652905D01*
X6719862Y-17671952D01*
X6738909Y-17681476D01*
X6757957Y-17681476D01*
X6977005Y-17548143D02*
X6977005Y-17748143D01*
X6977005Y-17557667D02*
X6996052Y-17548143D01*
X7034147Y-17548143D01*
X7053195Y-17557667D01*
X7062719Y-17567190D01*
X7072243Y-17586238D01*
X7072243Y-17643381D01*
X7062719Y-17662429D01*
X7053195Y-17671952D01*
X7034147Y-17681476D01*
X6996052Y-17681476D01*
X6977005Y-17671952D01*
X7186528Y-17681476D02*
X7167481Y-17671952D01*
X7157957Y-17652905D01*
X7157957Y-17481476D01*
X7348433Y-17681476D02*
X7348433Y-17576714D01*
X7338909Y-17557667D01*
X7319862Y-17548143D01*
X7281766Y-17548143D01*
X7262719Y-17557667D01*
X7348433Y-17671952D02*
X7329385Y-17681476D01*
X7281766Y-17681476D01*
X7262719Y-17671952D01*
X7253195Y-17652905D01*
X7253195Y-17633857D01*
X7262719Y-17614810D01*
X7281766Y-17605286D01*
X7329385Y-17605286D01*
X7348433Y-17595762D01*
X7415100Y-17548143D02*
X7491290Y-17548143D01*
X7443671Y-17481476D02*
X7443671Y-17652905D01*
X7453195Y-17671952D01*
X7472243Y-17681476D01*
X7491290Y-17681476D01*
X7634147Y-17671952D02*
X7615100Y-17681476D01*
X7577005Y-17681476D01*
X7557957Y-17671952D01*
X7548433Y-17652905D01*
X7548433Y-17576714D01*
X7557957Y-17557667D01*
X7577005Y-17548143D01*
X7615100Y-17548143D01*
X7634147Y-17557667D01*
X7643671Y-17576714D01*
X7643671Y-17595762D01*
X7548433Y-17614810D01*
X7815100Y-17681476D02*
X7815100Y-17481476D01*
X7815100Y-17671952D02*
X7796052Y-17681476D01*
X7757957Y-17681476D01*
X7738909Y-17671952D01*
X7729385Y-17662429D01*
X7719862Y-17643381D01*
X7719862Y-17586238D01*
X7729385Y-17567190D01*
X7738909Y-17557667D01*
X7757957Y-17548143D01*
X7796052Y-17548143D01*
X7815100Y-17557667D01*
X7891290Y-17757667D02*
X7900814Y-17748143D01*
X7919862Y-17719571D01*
X7929385Y-17700524D01*
X7938909Y-17671952D01*
X7948433Y-17624333D01*
X7948433Y-17586238D01*
X7938909Y-17538619D01*
X7929385Y-17510048D01*
X7919862Y-17491000D01*
X7900814Y-17462429D01*
X7891290Y-17452905D01*
M02*
