M48
; DRILL file {KiCad (5.1.12-1-10_14)} date Sunday, October 16, 2022 at 05:34:37 PM
; FORMAT={-:-/ absolute / metric / decimal}
; #@! TF.CreationDate,2022-10-16T17:34:37-04:00
; #@! TF.GenerationSoftware,Kicad,Pcbnew,(5.1.12-1-10_14)
; #@! TF.FileFunction,NonPlated,1,2,NPTH
FMAT,2
METRIC
T1C1.750
T2C3.050
T3C4.000
%
G90
G05
T1
X16.918Y-101.135
X21.843Y-82.735
X26.732Y-103.765
X26.766Y-64.334
X31.657Y-85.365
X36.353Y-102.255
X36.58Y-66.964
X41.276Y-83.855
X46.167Y-104.885
X46.193Y-65.46
X51.09Y-86.484
X55.783Y-103.315
X56.007Y-68.09
X60.693Y-84.91
X65.597Y-105.945
X65.643Y-66.51
X70.507Y-87.54
X75.218Y-104.385
X75.457Y-69.14
X80.143Y-86.01
X85.032Y-107.015
X85.068Y-67.585
X86.443Y-138.175
X89.957Y-88.64
X92.573Y-113.195
X94.882Y-70.215
X96.257Y-140.805
X97.518Y-94.785
X102.387Y-115.825
X102.443Y-76.385
X104.843Y-143.11
X107.332Y-97.415
X109.943Y-121.985
X112.257Y-79.015
X114.657Y-145.74
X114.873Y-103.575
X119.757Y-124.615
X119.793Y-85.185
X124.687Y-106.205
X126.521Y-148.06
X129.607Y-87.815
X135.319Y-153.14
X160.281Y-153.14
X165.993Y-87.805
X169.079Y-148.06
X170.923Y-106.205
X175.807Y-85.175
X175.863Y-124.595
X180.737Y-103.575
X180.943Y-145.735
X183.363Y-79.015
X185.677Y-121.965
X188.293Y-97.415
X190.757Y-143.105
X193.177Y-76.385
X193.218Y-115.805
X198.107Y-94.785
X199.363Y-140.805
X200.718Y-70.215
X203.032Y-113.175
X205.643Y-88.64
X209.177Y-138.175
X210.532Y-67.585
X210.568Y-107.015
X215.457Y-86.01
X220.143Y-69.14
X220.382Y-104.385
X225.093Y-87.54
X229.957Y-66.51
X230.033Y-105.945
X234.907Y-84.91
X239.618Y-68.065
X239.847Y-103.315
X244.493Y-86.44
X249.432Y-65.435
X249.453Y-104.885
X254.307Y-83.81
X259.018Y-66.965
X259.267Y-102.255
X263.953Y-85.365
X268.832Y-64.335
X268.873Y-103.775
X273.767Y-82.735
X278.687Y-101.145
T2
X18.802Y-99.01
X23.727Y-80.61
X25.593Y-98.2
X28.65Y-62.209
X30.518Y-79.8
X35.441Y-61.399
X38.237Y-100.13
X43.16Y-81.73
X45.028Y-99.32
X48.077Y-63.335
X49.951Y-80.92
X54.868Y-62.525
X57.667Y-101.19
X62.577Y-82.785
X64.458Y-100.38
X67.527Y-64.385
X69.368Y-81.975
X74.318Y-63.575
X77.102Y-102.26
X82.027Y-83.885
X83.893Y-101.45
X86.952Y-65.46
X88.327Y-136.05
X88.818Y-83.075
X93.743Y-64.65
X94.457Y-111.07
X95.118Y-135.24
X99.402Y-92.66
X101.248Y-110.26
X104.327Y-74.26
X106.193Y-91.85
X106.727Y-140.985
X111.118Y-73.45
X111.827Y-119.86
X113.518Y-140.175
X116.757Y-101.45
X118.618Y-119.05
X121.677Y-83.06
X123.548Y-100.64
X128.468Y-82.25
X128.89Y-146.495
X135.66Y-147.471
X160.11Y-150.305
X164.34Y-144.931
X166.562Y-85.023
X171.492Y-103.423
X172.039Y-80.926
X176.432Y-121.813
X176.969Y-99.326
X181.512Y-142.953
X181.909Y-117.716
X183.932Y-76.233
X186.989Y-138.856
X188.862Y-94.633
X189.409Y-72.136
X193.787Y-113.023
X194.339Y-90.536
X199.264Y-108.926
X199.932Y-138.023
X201.287Y-67.433
X205.409Y-133.926
X206.212Y-85.858
X206.764Y-63.336
X211.137Y-104.233
X211.689Y-81.761
X216.614Y-100.136
X220.712Y-66.358
X225.662Y-84.758
X226.189Y-62.261
X230.602Y-103.163
X231.139Y-80.661
X236.079Y-99.066
X240.187Y-65.283
X245.062Y-83.658
X245.664Y-61.186
X250.022Y-102.103
X250.539Y-79.561
X255.499Y-98.006
X259.587Y-64.183
X264.522Y-82.583
X265.064Y-60.086
X269.442Y-100.993
X269.999Y-78.486
X274.919Y-96.896
T3
X21.825Y-102.45
X26.75Y-84.05
X31.673Y-65.649
X41.26Y-103.57
X46.183Y-85.17
X51.1Y-66.775
X60.69Y-104.63
X65.6Y-86.225
X70.55Y-67.825
X80.125Y-105.7
X85.05Y-87.325
X89.975Y-68.9
X91.35Y-139.49
X97.48Y-114.51
X102.425Y-96.1
X107.35Y-77.7
X109.75Y-144.425
X114.85Y-123.3
X119.78Y-104.89
X124.7Y-86.5
X130.92Y-150.6
X164.68Y-150.6
X170.9Y-86.49
X175.83Y-104.89
X180.77Y-123.28
X185.85Y-144.42
X188.27Y-77.7
X193.2Y-96.1
X198.125Y-114.49
X204.27Y-139.49
X205.625Y-68.9
X210.55Y-87.325
X215.475Y-105.7
X225.05Y-67.825
X230.0Y-86.225
X234.94Y-104.63
X244.525Y-66.75
X249.4Y-85.125
X254.36Y-103.57
X263.925Y-65.65
X268.86Y-84.05
X273.78Y-102.46
T0
M30
