G04 #@! TF.GenerationSoftware,KiCad,Pcbnew,(5.1.12-1-10_14)*
G04 #@! TF.CreationDate,2022-10-16T17:34:36-04:00*
G04 #@! TF.ProjectId,ergo3by6plus3nonSplit,6572676f-3362-4793-9670-6c7573336e6f,rev?*
G04 #@! TF.SameCoordinates,Original*
G04 #@! TF.FileFunction,Paste,Bot*
G04 #@! TF.FilePolarity,Positive*
%FSLAX46Y46*%
G04 Gerber Fmt 4.6, Leading zero omitted, Abs format (unit mm)*
G04 Created by KiCad (PCBNEW (5.1.12-1-10_14)) date 2022-10-16 17:34:36*
%MOMM*%
%LPD*%
G01*
G04 APERTURE LIST*
G04 APERTURE END LIST*
G36*
G01*
X115217365Y-141666049D02*
X115735003Y-139734198D01*
G75*
G02*
X116041189Y-139557422I241481J-64705D01*
G01*
X118021337Y-140088001D01*
G75*
G02*
X118198113Y-140394187I-64705J-241481D01*
G01*
X117680475Y-142326038D01*
G75*
G02*
X117374289Y-142502814I-241481J64705D01*
G01*
X115394141Y-141972235D01*
G75*
G02*
X115217365Y-141666049I64705J241481D01*
G01*
G37*
G36*
G01*
X102073442Y-140773746D02*
X102591080Y-138841895D01*
G75*
G02*
X102897266Y-138665119I241481J-64705D01*
G01*
X104877414Y-139195698D01*
G75*
G02*
X105054190Y-139501884I-64705J-241481D01*
G01*
X104536552Y-141433735D01*
G75*
G02*
X104230366Y-141610511I-241481J64705D01*
G01*
X102250218Y-141079932D01*
G75*
G02*
X102073442Y-140773746I64705J241481D01*
G01*
G37*
G36*
G01*
X207625402Y-134366996D02*
X207107764Y-132435145D01*
G75*
G02*
X207284540Y-132128959I241481J64705D01*
G01*
X209264688Y-131598380D01*
G75*
G02*
X209570874Y-131775156I64705J-241481D01*
G01*
X210088512Y-133707007D01*
G75*
G02*
X209911736Y-134013193I-241481J-64705D01*
G01*
X207931588Y-134543772D01*
G75*
G02*
X207625402Y-134366996I-64705J241481D01*
G01*
G37*
G36*
G01*
X195796279Y-140166201D02*
X195278641Y-138234350D01*
G75*
G02*
X195455417Y-137928164I241481J64705D01*
G01*
X197435565Y-137397585D01*
G75*
G02*
X197741751Y-137574361I64705J-241481D01*
G01*
X198259389Y-139506212D01*
G75*
G02*
X198082613Y-139812398I-241481J-64705D01*
G01*
X196102465Y-140342977D01*
G75*
G02*
X195796279Y-140166201I-64705J241481D01*
G01*
G37*
G36*
G01*
X189205402Y-139296996D02*
X188687764Y-137365145D01*
G75*
G02*
X188864540Y-137058959I241481J64705D01*
G01*
X190844688Y-136528380D01*
G75*
G02*
X191150874Y-136705156I64705J-241481D01*
G01*
X191668512Y-138637007D01*
G75*
G02*
X191491736Y-138943193I-241481J-64705D01*
G01*
X189511588Y-139473772D01*
G75*
G02*
X189205402Y-139296996I-64705J241481D01*
G01*
G37*
G36*
G01*
X177376279Y-145096201D02*
X176858641Y-143164350D01*
G75*
G02*
X177035417Y-142858164I241481J64705D01*
G01*
X179015565Y-142327585D01*
G75*
G02*
X179321751Y-142504361I64705J-241481D01*
G01*
X179839389Y-144436212D01*
G75*
G02*
X179662613Y-144742398I-241481J-64705D01*
G01*
X177682465Y-145272977D01*
G75*
G02*
X177376279Y-145096201I-64705J241481D01*
G01*
G37*
G36*
G01*
X96817365Y-136731049D02*
X97335003Y-134799198D01*
G75*
G02*
X97641189Y-134622422I241481J-64705D01*
G01*
X99621337Y-135153001D01*
G75*
G02*
X99798113Y-135459187I-64705J-241481D01*
G01*
X99280475Y-137391038D01*
G75*
G02*
X98974289Y-137567814I-241481J64705D01*
G01*
X96994141Y-137037235D01*
G75*
G02*
X96817365Y-136731049I64705J241481D01*
G01*
G37*
G36*
G01*
X83673442Y-135838746D02*
X84191080Y-133906895D01*
G75*
G02*
X84497266Y-133730119I241481J-64705D01*
G01*
X86477414Y-134260698D01*
G75*
G02*
X86654190Y-134566884I-64705J-241481D01*
G01*
X86136552Y-136498735D01*
G75*
G02*
X85830366Y-136675511I-241481J64705D01*
G01*
X83850218Y-136144932D01*
G75*
G02*
X83673442Y-135838746I64705J241481D01*
G01*
G37*
G36*
G01*
X277135402Y-97336996D02*
X276617764Y-95405145D01*
G75*
G02*
X276794540Y-95098959I241481J64705D01*
G01*
X278774688Y-94568380D01*
G75*
G02*
X279080874Y-94745156I64705J-241481D01*
G01*
X279598512Y-96677007D01*
G75*
G02*
X279421736Y-96983193I-241481J-64705D01*
G01*
X277441588Y-97513772D01*
G75*
G02*
X277135402Y-97336996I-64705J241481D01*
G01*
G37*
G36*
G01*
X265306279Y-103136201D02*
X264788641Y-101204350D01*
G75*
G02*
X264965417Y-100898164I241481J64705D01*
G01*
X266945565Y-100367585D01*
G75*
G02*
X267251751Y-100544361I64705J-241481D01*
G01*
X267769389Y-102476212D01*
G75*
G02*
X267592613Y-102782398I-241481J-64705D01*
G01*
X265612465Y-103312977D01*
G75*
G02*
X265306279Y-103136201I-64705J241481D01*
G01*
G37*
G36*
G01*
X257715402Y-98446996D02*
X257197764Y-96515145D01*
G75*
G02*
X257374540Y-96208959I241481J64705D01*
G01*
X259354688Y-95678380D01*
G75*
G02*
X259660874Y-95855156I64705J-241481D01*
G01*
X260178512Y-97787007D01*
G75*
G02*
X260001736Y-98093193I-241481J-64705D01*
G01*
X258021588Y-98623772D01*
G75*
G02*
X257715402Y-98446996I-64705J241481D01*
G01*
G37*
G36*
G01*
X245886279Y-104246201D02*
X245368641Y-102314350D01*
G75*
G02*
X245545417Y-102008164I241481J64705D01*
G01*
X247525565Y-101477585D01*
G75*
G02*
X247831751Y-101654361I64705J-241481D01*
G01*
X248349389Y-103586212D01*
G75*
G02*
X248172613Y-103892398I-241481J-64705D01*
G01*
X246192465Y-104422977D01*
G75*
G02*
X245886279Y-104246201I-64705J241481D01*
G01*
G37*
G36*
G01*
X238295402Y-99506996D02*
X237777764Y-97575145D01*
G75*
G02*
X237954540Y-97268959I241481J64705D01*
G01*
X239934688Y-96738380D01*
G75*
G02*
X240240874Y-96915156I64705J-241481D01*
G01*
X240758512Y-98847007D01*
G75*
G02*
X240581736Y-99153193I-241481J-64705D01*
G01*
X238601588Y-99683772D01*
G75*
G02*
X238295402Y-99506996I-64705J241481D01*
G01*
G37*
G36*
G01*
X226466279Y-105306201D02*
X225948641Y-103374350D01*
G75*
G02*
X226125417Y-103068164I241481J64705D01*
G01*
X228105565Y-102537585D01*
G75*
G02*
X228411751Y-102714361I64705J-241481D01*
G01*
X228929389Y-104646212D01*
G75*
G02*
X228752613Y-104952398I-241481J-64705D01*
G01*
X226772465Y-105482977D01*
G75*
G02*
X226466279Y-105306201I-64705J241481D01*
G01*
G37*
G36*
G01*
X218830402Y-100576996D02*
X218312764Y-98645145D01*
G75*
G02*
X218489540Y-98338959I241481J64705D01*
G01*
X220469688Y-97808380D01*
G75*
G02*
X220775874Y-97985156I64705J-241481D01*
G01*
X221293512Y-99917007D01*
G75*
G02*
X221116736Y-100223193I-241481J-64705D01*
G01*
X219136588Y-100753772D01*
G75*
G02*
X218830402Y-100576996I-64705J241481D01*
G01*
G37*
G36*
G01*
X207001279Y-106376201D02*
X206483641Y-104444350D01*
G75*
G02*
X206660417Y-104138164I241481J64705D01*
G01*
X208640565Y-103607585D01*
G75*
G02*
X208946751Y-103784361I64705J-241481D01*
G01*
X209464389Y-105716212D01*
G75*
G02*
X209287613Y-106022398I-241481J-64705D01*
G01*
X207307465Y-106552977D01*
G75*
G02*
X207001279Y-106376201I-64705J241481D01*
G01*
G37*
G36*
G01*
X201480402Y-109366996D02*
X200962764Y-107435145D01*
G75*
G02*
X201139540Y-107128959I241481J64705D01*
G01*
X203119688Y-106598380D01*
G75*
G02*
X203425874Y-106775156I64705J-241481D01*
G01*
X203943512Y-108707007D01*
G75*
G02*
X203766736Y-109013193I-241481J-64705D01*
G01*
X201786588Y-109543772D01*
G75*
G02*
X201480402Y-109366996I-64705J241481D01*
G01*
G37*
G36*
G01*
X189651279Y-115166201D02*
X189133641Y-113234350D01*
G75*
G02*
X189310417Y-112928164I241481J64705D01*
G01*
X191290565Y-112397585D01*
G75*
G02*
X191596751Y-112574361I64705J-241481D01*
G01*
X192114389Y-114506212D01*
G75*
G02*
X191937613Y-114812398I-241481J-64705D01*
G01*
X189957465Y-115342977D01*
G75*
G02*
X189651279Y-115166201I-64705J241481D01*
G01*
G37*
G36*
G01*
X184125402Y-118156996D02*
X183607764Y-116225145D01*
G75*
G02*
X183784540Y-115918959I241481J64705D01*
G01*
X185764688Y-115388380D01*
G75*
G02*
X186070874Y-115565156I64705J-241481D01*
G01*
X186588512Y-117497007D01*
G75*
G02*
X186411736Y-117803193I-241481J-64705D01*
G01*
X184431588Y-118333772D01*
G75*
G02*
X184125402Y-118156996I-64705J241481D01*
G01*
G37*
G36*
G01*
X172296279Y-123956201D02*
X171778641Y-122024350D01*
G75*
G02*
X171955417Y-121718164I241481J64705D01*
G01*
X173935565Y-121187585D01*
G75*
G02*
X174241751Y-121364361I64705J-241481D01*
G01*
X174759389Y-123296212D01*
G75*
G02*
X174582613Y-123602398I-241481J-64705D01*
G01*
X172602465Y-124132977D01*
G75*
G02*
X172296279Y-123956201I-64705J241481D01*
G01*
G37*
G36*
G01*
X120317365Y-120541049D02*
X120835003Y-118609198D01*
G75*
G02*
X121141189Y-118432422I241481J-64705D01*
G01*
X123121337Y-118963001D01*
G75*
G02*
X123298113Y-119269187I-64705J-241481D01*
G01*
X122780475Y-121201038D01*
G75*
G02*
X122474289Y-121377814I-241481J64705D01*
G01*
X120494141Y-120847235D01*
G75*
G02*
X120317365Y-120541049I64705J241481D01*
G01*
G37*
G36*
G01*
X107173442Y-119648746D02*
X107691080Y-117716895D01*
G75*
G02*
X107997266Y-117540119I241481J-64705D01*
G01*
X109977414Y-118070698D01*
G75*
G02*
X110154190Y-118376884I-64705J-241481D01*
G01*
X109636552Y-120308735D01*
G75*
G02*
X109330366Y-120485511I-241481J64705D01*
G01*
X107350218Y-119954932D01*
G75*
G02*
X107173442Y-119648746I64705J241481D01*
G01*
G37*
G36*
G01*
X102947365Y-111751049D02*
X103465003Y-109819198D01*
G75*
G02*
X103771189Y-109642422I241481J-64705D01*
G01*
X105751337Y-110173001D01*
G75*
G02*
X105928113Y-110479187I-64705J-241481D01*
G01*
X105410475Y-112411038D01*
G75*
G02*
X105104289Y-112587814I-241481J64705D01*
G01*
X103124141Y-112057235D01*
G75*
G02*
X102947365Y-111751049I64705J241481D01*
G01*
G37*
G36*
G01*
X89803442Y-110858746D02*
X90321080Y-108926895D01*
G75*
G02*
X90627266Y-108750119I241481J-64705D01*
G01*
X92607414Y-109280698D01*
G75*
G02*
X92784190Y-109586884I-64705J-241481D01*
G01*
X92266552Y-111518735D01*
G75*
G02*
X91960366Y-111695511I-241481J64705D01*
G01*
X89980218Y-111164932D01*
G75*
G02*
X89803442Y-110858746I64705J241481D01*
G01*
G37*
G36*
G01*
X85592365Y-102941049D02*
X86110003Y-101009198D01*
G75*
G02*
X86416189Y-100832422I241481J-64705D01*
G01*
X88396337Y-101363001D01*
G75*
G02*
X88573113Y-101669187I-64705J-241481D01*
G01*
X88055475Y-103601038D01*
G75*
G02*
X87749289Y-103777814I-241481J64705D01*
G01*
X85769141Y-103247235D01*
G75*
G02*
X85592365Y-102941049I64705J241481D01*
G01*
G37*
G36*
G01*
X72448442Y-102048746D02*
X72966080Y-100116895D01*
G75*
G02*
X73272266Y-99940119I241481J-64705D01*
G01*
X75252414Y-100470698D01*
G75*
G02*
X75429190Y-100776884I-64705J-241481D01*
G01*
X74911552Y-102708735D01*
G75*
G02*
X74605366Y-102885511I-241481J64705D01*
G01*
X72625218Y-102354932D01*
G75*
G02*
X72448442Y-102048746I64705J241481D01*
G01*
G37*
G36*
G01*
X66157365Y-101871049D02*
X66675003Y-99939198D01*
G75*
G02*
X66981189Y-99762422I241481J-64705D01*
G01*
X68961337Y-100293001D01*
G75*
G02*
X69138113Y-100599187I-64705J-241481D01*
G01*
X68620475Y-102531038D01*
G75*
G02*
X68314289Y-102707814I-241481J64705D01*
G01*
X66334141Y-102177235D01*
G75*
G02*
X66157365Y-101871049I64705J241481D01*
G01*
G37*
G36*
G01*
X53013442Y-100978746D02*
X53531080Y-99046895D01*
G75*
G02*
X53837266Y-98870119I241481J-64705D01*
G01*
X55817414Y-99400698D01*
G75*
G02*
X55994190Y-99706884I-64705J-241481D01*
G01*
X55476552Y-101638735D01*
G75*
G02*
X55170366Y-101815511I-241481J64705D01*
G01*
X53190218Y-101284932D01*
G75*
G02*
X53013442Y-100978746I64705J241481D01*
G01*
G37*
G36*
G01*
X46727365Y-100811049D02*
X47245003Y-98879198D01*
G75*
G02*
X47551189Y-98702422I241481J-64705D01*
G01*
X49531337Y-99233001D01*
G75*
G02*
X49708113Y-99539187I-64705J-241481D01*
G01*
X49190475Y-101471038D01*
G75*
G02*
X48884289Y-101647814I-241481J64705D01*
G01*
X46904141Y-101117235D01*
G75*
G02*
X46727365Y-100811049I64705J241481D01*
G01*
G37*
G36*
G01*
X33583442Y-99918746D02*
X34101080Y-97986895D01*
G75*
G02*
X34407266Y-97810119I241481J-64705D01*
G01*
X36387414Y-98340698D01*
G75*
G02*
X36564190Y-98646884I-64705J-241481D01*
G01*
X36046552Y-100578735D01*
G75*
G02*
X35740366Y-100755511I-241481J64705D01*
G01*
X33760218Y-100224932D01*
G75*
G02*
X33583442Y-99918746I64705J241481D01*
G01*
G37*
G36*
G01*
X27292365Y-99691049D02*
X27810003Y-97759198D01*
G75*
G02*
X28116189Y-97582422I241481J-64705D01*
G01*
X30096337Y-98113001D01*
G75*
G02*
X30273113Y-98419187I-64705J-241481D01*
G01*
X29755475Y-100351038D01*
G75*
G02*
X29449289Y-100527814I-241481J64705D01*
G01*
X27469141Y-99997235D01*
G75*
G02*
X27292365Y-99691049I64705J241481D01*
G01*
G37*
G36*
G01*
X14148442Y-98798746D02*
X14666080Y-96866895D01*
G75*
G02*
X14972266Y-96690119I241481J-64705D01*
G01*
X16952414Y-97220698D01*
G75*
G02*
X17129190Y-97526884I-64705J-241481D01*
G01*
X16611552Y-99458735D01*
G75*
G02*
X16305366Y-99635511I-241481J64705D01*
G01*
X14325218Y-99104932D01*
G75*
G02*
X14148442Y-98798746I64705J241481D01*
G01*
G37*
G36*
G01*
X272215402Y-78926996D02*
X271697764Y-76995145D01*
G75*
G02*
X271874540Y-76688959I241481J64705D01*
G01*
X273854688Y-76158380D01*
G75*
G02*
X274160874Y-76335156I64705J-241481D01*
G01*
X274678512Y-78267007D01*
G75*
G02*
X274501736Y-78573193I-241481J-64705D01*
G01*
X272521588Y-79103772D01*
G75*
G02*
X272215402Y-78926996I-64705J241481D01*
G01*
G37*
G36*
G01*
X260386279Y-84726201D02*
X259868641Y-82794350D01*
G75*
G02*
X260045417Y-82488164I241481J64705D01*
G01*
X262025565Y-81957585D01*
G75*
G02*
X262331751Y-82134361I64705J-241481D01*
G01*
X262849389Y-84066212D01*
G75*
G02*
X262672613Y-84372398I-241481J-64705D01*
G01*
X260692465Y-84902977D01*
G75*
G02*
X260386279Y-84726201I-64705J241481D01*
G01*
G37*
G36*
G01*
X252755402Y-80001996D02*
X252237764Y-78070145D01*
G75*
G02*
X252414540Y-77763959I241481J64705D01*
G01*
X254394688Y-77233380D01*
G75*
G02*
X254700874Y-77410156I64705J-241481D01*
G01*
X255218512Y-79342007D01*
G75*
G02*
X255041736Y-79648193I-241481J-64705D01*
G01*
X253061588Y-80178772D01*
G75*
G02*
X252755402Y-80001996I-64705J241481D01*
G01*
G37*
G36*
G01*
X240926279Y-85801201D02*
X240408641Y-83869350D01*
G75*
G02*
X240585417Y-83563164I241481J64705D01*
G01*
X242565565Y-83032585D01*
G75*
G02*
X242871751Y-83209361I64705J-241481D01*
G01*
X243389389Y-85141212D01*
G75*
G02*
X243212613Y-85447398I-241481J-64705D01*
G01*
X241232465Y-85977977D01*
G75*
G02*
X240926279Y-85801201I-64705J241481D01*
G01*
G37*
G36*
G01*
X233355402Y-81101996D02*
X232837764Y-79170145D01*
G75*
G02*
X233014540Y-78863959I241481J64705D01*
G01*
X234994688Y-78333380D01*
G75*
G02*
X235300874Y-78510156I64705J-241481D01*
G01*
X235818512Y-80442007D01*
G75*
G02*
X235641736Y-80748193I-241481J-64705D01*
G01*
X233661588Y-81278772D01*
G75*
G02*
X233355402Y-81101996I-64705J241481D01*
G01*
G37*
G36*
G01*
X221526279Y-86901201D02*
X221008641Y-84969350D01*
G75*
G02*
X221185417Y-84663164I241481J64705D01*
G01*
X223165565Y-84132585D01*
G75*
G02*
X223471751Y-84309361I64705J-241481D01*
G01*
X223989389Y-86241212D01*
G75*
G02*
X223812613Y-86547398I-241481J-64705D01*
G01*
X221832465Y-87077977D01*
G75*
G02*
X221526279Y-86901201I-64705J241481D01*
G01*
G37*
G36*
G01*
X213905402Y-82201996D02*
X213387764Y-80270145D01*
G75*
G02*
X213564540Y-79963959I241481J64705D01*
G01*
X215544688Y-79433380D01*
G75*
G02*
X215850874Y-79610156I64705J-241481D01*
G01*
X216368512Y-81542007D01*
G75*
G02*
X216191736Y-81848193I-241481J-64705D01*
G01*
X214211588Y-82378772D01*
G75*
G02*
X213905402Y-82201996I-64705J241481D01*
G01*
G37*
G36*
G01*
X202076279Y-88001201D02*
X201558641Y-86069350D01*
G75*
G02*
X201735417Y-85763164I241481J64705D01*
G01*
X203715565Y-85232585D01*
G75*
G02*
X204021751Y-85409361I64705J-241481D01*
G01*
X204539389Y-87341212D01*
G75*
G02*
X204362613Y-87647398I-241481J-64705D01*
G01*
X202382465Y-88177977D01*
G75*
G02*
X202076279Y-88001201I-64705J241481D01*
G01*
G37*
G36*
G01*
X196555402Y-90976996D02*
X196037764Y-89045145D01*
G75*
G02*
X196214540Y-88738959I241481J64705D01*
G01*
X198194688Y-88208380D01*
G75*
G02*
X198500874Y-88385156I64705J-241481D01*
G01*
X199018512Y-90317007D01*
G75*
G02*
X198841736Y-90623193I-241481J-64705D01*
G01*
X196861588Y-91153772D01*
G75*
G02*
X196555402Y-90976996I-64705J241481D01*
G01*
G37*
G36*
G01*
X184726279Y-96776201D02*
X184208641Y-94844350D01*
G75*
G02*
X184385417Y-94538164I241481J64705D01*
G01*
X186365565Y-94007585D01*
G75*
G02*
X186671751Y-94184361I64705J-241481D01*
G01*
X187189389Y-96116212D01*
G75*
G02*
X187012613Y-96422398I-241481J-64705D01*
G01*
X185032465Y-96952977D01*
G75*
G02*
X184726279Y-96776201I-64705J241481D01*
G01*
G37*
G36*
G01*
X179185402Y-99766996D02*
X178667764Y-97835145D01*
G75*
G02*
X178844540Y-97528959I241481J64705D01*
G01*
X180824688Y-96998380D01*
G75*
G02*
X181130874Y-97175156I64705J-241481D01*
G01*
X181648512Y-99107007D01*
G75*
G02*
X181471736Y-99413193I-241481J-64705D01*
G01*
X179491588Y-99943772D01*
G75*
G02*
X179185402Y-99766996I-64705J241481D01*
G01*
G37*
G36*
G01*
X167356279Y-105566201D02*
X166838641Y-103634350D01*
G75*
G02*
X167015417Y-103328164I241481J64705D01*
G01*
X168995565Y-102797585D01*
G75*
G02*
X169301751Y-102974361I64705J-241481D01*
G01*
X169819389Y-104906212D01*
G75*
G02*
X169642613Y-105212398I-241481J-64705D01*
G01*
X167662465Y-105742977D01*
G75*
G02*
X167356279Y-105566201I-64705J241481D01*
G01*
G37*
G36*
G01*
X125247365Y-102131049D02*
X125765003Y-100199198D01*
G75*
G02*
X126071189Y-100022422I241481J-64705D01*
G01*
X128051337Y-100553001D01*
G75*
G02*
X128228113Y-100859187I-64705J-241481D01*
G01*
X127710475Y-102791038D01*
G75*
G02*
X127404289Y-102967814I-241481J64705D01*
G01*
X125424141Y-102437235D01*
G75*
G02*
X125247365Y-102131049I64705J241481D01*
G01*
G37*
G36*
G01*
X112103442Y-101238746D02*
X112621080Y-99306895D01*
G75*
G02*
X112927266Y-99130119I241481J-64705D01*
G01*
X114907414Y-99660698D01*
G75*
G02*
X115084190Y-99966884I-64705J-241481D01*
G01*
X114566552Y-101898735D01*
G75*
G02*
X114260366Y-102075511I-241481J64705D01*
G01*
X112280218Y-101544932D01*
G75*
G02*
X112103442Y-101238746I64705J241481D01*
G01*
G37*
G36*
G01*
X107892365Y-93341049D02*
X108410003Y-91409198D01*
G75*
G02*
X108716189Y-91232422I241481J-64705D01*
G01*
X110696337Y-91763001D01*
G75*
G02*
X110873113Y-92069187I-64705J-241481D01*
G01*
X110355475Y-94001038D01*
G75*
G02*
X110049289Y-94177814I-241481J64705D01*
G01*
X108069141Y-93647235D01*
G75*
G02*
X107892365Y-93341049I64705J241481D01*
G01*
G37*
G36*
G01*
X94748442Y-92448746D02*
X95266080Y-90516895D01*
G75*
G02*
X95572266Y-90340119I241481J-64705D01*
G01*
X97552414Y-90870698D01*
G75*
G02*
X97729190Y-91176884I-64705J-241481D01*
G01*
X97211552Y-93108735D01*
G75*
G02*
X96905366Y-93285511I-241481J64705D01*
G01*
X94925218Y-92754932D01*
G75*
G02*
X94748442Y-92448746I64705J241481D01*
G01*
G37*
G36*
G01*
X90517365Y-84566049D02*
X91035003Y-82634198D01*
G75*
G02*
X91341189Y-82457422I241481J-64705D01*
G01*
X93321337Y-82988001D01*
G75*
G02*
X93498113Y-83294187I-64705J-241481D01*
G01*
X92980475Y-85226038D01*
G75*
G02*
X92674289Y-85402814I-241481J64705D01*
G01*
X90694141Y-84872235D01*
G75*
G02*
X90517365Y-84566049I64705J241481D01*
G01*
G37*
G36*
G01*
X77373442Y-83673746D02*
X77891080Y-81741895D01*
G75*
G02*
X78197266Y-81565119I241481J-64705D01*
G01*
X80177414Y-82095698D01*
G75*
G02*
X80354190Y-82401884I-64705J-241481D01*
G01*
X79836552Y-84333735D01*
G75*
G02*
X79530366Y-84510511I-241481J64705D01*
G01*
X77550218Y-83979932D01*
G75*
G02*
X77373442Y-83673746I64705J241481D01*
G01*
G37*
G36*
G01*
X71067365Y-83466049D02*
X71585003Y-81534198D01*
G75*
G02*
X71891189Y-81357422I241481J-64705D01*
G01*
X73871337Y-81888001D01*
G75*
G02*
X74048113Y-82194187I-64705J-241481D01*
G01*
X73530475Y-84126038D01*
G75*
G02*
X73224289Y-84302814I-241481J64705D01*
G01*
X71244141Y-83772235D01*
G75*
G02*
X71067365Y-83466049I64705J241481D01*
G01*
G37*
G36*
G01*
X57923442Y-82573746D02*
X58441080Y-80641895D01*
G75*
G02*
X58747266Y-80465119I241481J-64705D01*
G01*
X60727414Y-80995698D01*
G75*
G02*
X60904190Y-81301884I-64705J-241481D01*
G01*
X60386552Y-83233735D01*
G75*
G02*
X60080366Y-83410511I-241481J64705D01*
G01*
X58100218Y-82879932D01*
G75*
G02*
X57923442Y-82573746I64705J241481D01*
G01*
G37*
G36*
G01*
X51650142Y-82410601D02*
X52167780Y-80478750D01*
G75*
G02*
X52473966Y-80301974I241481J-64705D01*
G01*
X54454114Y-80832553D01*
G75*
G02*
X54630890Y-81138739I-64705J-241481D01*
G01*
X54113252Y-83070590D01*
G75*
G02*
X53807066Y-83247366I-241481J64705D01*
G01*
X51826918Y-82716787D01*
G75*
G02*
X51650142Y-82410601I64705J241481D01*
G01*
G37*
G36*
G01*
X38506219Y-81518298D02*
X39023857Y-79586447D01*
G75*
G02*
X39330043Y-79409671I241481J-64705D01*
G01*
X41310191Y-79940250D01*
G75*
G02*
X41486967Y-80246436I-64705J-241481D01*
G01*
X40969329Y-82178287D01*
G75*
G02*
X40663143Y-82355063I-241481J64705D01*
G01*
X38682995Y-81824484D01*
G75*
G02*
X38506219Y-81518298I64705J241481D01*
G01*
G37*
G36*
G01*
X32217365Y-81291049D02*
X32735003Y-79359198D01*
G75*
G02*
X33041189Y-79182422I241481J-64705D01*
G01*
X35021337Y-79713001D01*
G75*
G02*
X35198113Y-80019187I-64705J-241481D01*
G01*
X34680475Y-81951038D01*
G75*
G02*
X34374289Y-82127814I-241481J64705D01*
G01*
X32394141Y-81597235D01*
G75*
G02*
X32217365Y-81291049I64705J241481D01*
G01*
G37*
G36*
G01*
X19073442Y-80398746D02*
X19591080Y-78466895D01*
G75*
G02*
X19897266Y-78290119I241481J-64705D01*
G01*
X21877414Y-78820698D01*
G75*
G02*
X22054190Y-79126884I-64705J-241481D01*
G01*
X21536552Y-81058735D01*
G75*
G02*
X21230366Y-81235511I-241481J64705D01*
G01*
X19250218Y-80704932D01*
G75*
G02*
X19073442Y-80398746I64705J241481D01*
G01*
G37*
G36*
G01*
X267280402Y-60526996D02*
X266762764Y-58595145D01*
G75*
G02*
X266939540Y-58288959I241481J64705D01*
G01*
X268919688Y-57758380D01*
G75*
G02*
X269225874Y-57935156I64705J-241481D01*
G01*
X269743512Y-59867007D01*
G75*
G02*
X269566736Y-60173193I-241481J-64705D01*
G01*
X267586588Y-60703772D01*
G75*
G02*
X267280402Y-60526996I-64705J241481D01*
G01*
G37*
G36*
G01*
X255451279Y-66326201D02*
X254933641Y-64394350D01*
G75*
G02*
X255110417Y-64088164I241481J64705D01*
G01*
X257090565Y-63557585D01*
G75*
G02*
X257396751Y-63734361I64705J-241481D01*
G01*
X257914389Y-65666212D01*
G75*
G02*
X257737613Y-65972398I-241481J-64705D01*
G01*
X255757465Y-66502977D01*
G75*
G02*
X255451279Y-66326201I-64705J241481D01*
G01*
G37*
G36*
G01*
X247880402Y-61626996D02*
X247362764Y-59695145D01*
G75*
G02*
X247539540Y-59388959I241481J64705D01*
G01*
X249519688Y-58858380D01*
G75*
G02*
X249825874Y-59035156I64705J-241481D01*
G01*
X250343512Y-60967007D01*
G75*
G02*
X250166736Y-61273193I-241481J-64705D01*
G01*
X248186588Y-61803772D01*
G75*
G02*
X247880402Y-61626996I-64705J241481D01*
G01*
G37*
G36*
G01*
X236051279Y-67426201D02*
X235533641Y-65494350D01*
G75*
G02*
X235710417Y-65188164I241481J64705D01*
G01*
X237690565Y-64657585D01*
G75*
G02*
X237996751Y-64834361I64705J-241481D01*
G01*
X238514389Y-66766212D01*
G75*
G02*
X238337613Y-67072398I-241481J-64705D01*
G01*
X236357465Y-67602977D01*
G75*
G02*
X236051279Y-67426201I-64705J241481D01*
G01*
G37*
G36*
G01*
X228405402Y-62701996D02*
X227887764Y-60770145D01*
G75*
G02*
X228064540Y-60463959I241481J64705D01*
G01*
X230044688Y-59933380D01*
G75*
G02*
X230350874Y-60110156I64705J-241481D01*
G01*
X230868512Y-62042007D01*
G75*
G02*
X230691736Y-62348193I-241481J-64705D01*
G01*
X228711588Y-62878772D01*
G75*
G02*
X228405402Y-62701996I-64705J241481D01*
G01*
G37*
G36*
G01*
X216576279Y-68501201D02*
X216058641Y-66569350D01*
G75*
G02*
X216235417Y-66263164I241481J64705D01*
G01*
X218215565Y-65732585D01*
G75*
G02*
X218521751Y-65909361I64705J-241481D01*
G01*
X219039389Y-67841212D01*
G75*
G02*
X218862613Y-68147398I-241481J-64705D01*
G01*
X216882465Y-68677977D01*
G75*
G02*
X216576279Y-68501201I-64705J241481D01*
G01*
G37*
G36*
G01*
X208980402Y-63776996D02*
X208462764Y-61845145D01*
G75*
G02*
X208639540Y-61538959I241481J64705D01*
G01*
X210619688Y-61008380D01*
G75*
G02*
X210925874Y-61185156I64705J-241481D01*
G01*
X211443512Y-63117007D01*
G75*
G02*
X211266736Y-63423193I-241481J-64705D01*
G01*
X209286588Y-63953772D01*
G75*
G02*
X208980402Y-63776996I-64705J241481D01*
G01*
G37*
G36*
G01*
X197151279Y-69576201D02*
X196633641Y-67644350D01*
G75*
G02*
X196810417Y-67338164I241481J64705D01*
G01*
X198790565Y-66807585D01*
G75*
G02*
X199096751Y-66984361I64705J-241481D01*
G01*
X199614389Y-68916212D01*
G75*
G02*
X199437613Y-69222398I-241481J-64705D01*
G01*
X197457465Y-69752977D01*
G75*
G02*
X197151279Y-69576201I-64705J241481D01*
G01*
G37*
G36*
G01*
X191625402Y-72576996D02*
X191107764Y-70645145D01*
G75*
G02*
X191284540Y-70338959I241481J64705D01*
G01*
X193264688Y-69808380D01*
G75*
G02*
X193570874Y-69985156I64705J-241481D01*
G01*
X194088512Y-71917007D01*
G75*
G02*
X193911736Y-72223193I-241481J-64705D01*
G01*
X191931588Y-72753772D01*
G75*
G02*
X191625402Y-72576996I-64705J241481D01*
G01*
G37*
G36*
G01*
X179796279Y-78376201D02*
X179278641Y-76444350D01*
G75*
G02*
X179455417Y-76138164I241481J64705D01*
G01*
X181435565Y-75607585D01*
G75*
G02*
X181741751Y-75784361I64705J-241481D01*
G01*
X182259389Y-77716212D01*
G75*
G02*
X182082613Y-78022398I-241481J-64705D01*
G01*
X180102465Y-78552977D01*
G75*
G02*
X179796279Y-78376201I-64705J241481D01*
G01*
G37*
G36*
G01*
X174255402Y-81366996D02*
X173737764Y-79435145D01*
G75*
G02*
X173914540Y-79128959I241481J64705D01*
G01*
X175894688Y-78598380D01*
G75*
G02*
X176200874Y-78775156I64705J-241481D01*
G01*
X176718512Y-80707007D01*
G75*
G02*
X176541736Y-81013193I-241481J-64705D01*
G01*
X174561588Y-81543772D01*
G75*
G02*
X174255402Y-81366996I-64705J241481D01*
G01*
G37*
G36*
G01*
X162426279Y-87166201D02*
X161908641Y-85234350D01*
G75*
G02*
X162085417Y-84928164I241481J64705D01*
G01*
X164065565Y-84397585D01*
G75*
G02*
X164371751Y-84574361I64705J-241481D01*
G01*
X164889389Y-86506212D01*
G75*
G02*
X164712613Y-86812398I-241481J-64705D01*
G01*
X162732465Y-87342977D01*
G75*
G02*
X162426279Y-87166201I-64705J241481D01*
G01*
G37*
G36*
G01*
X130167365Y-83741049D02*
X130685003Y-81809198D01*
G75*
G02*
X130991189Y-81632422I241481J-64705D01*
G01*
X132971337Y-82163001D01*
G75*
G02*
X133148113Y-82469187I-64705J-241481D01*
G01*
X132630475Y-84401038D01*
G75*
G02*
X132324289Y-84577814I-241481J64705D01*
G01*
X130344141Y-84047235D01*
G75*
G02*
X130167365Y-83741049I64705J241481D01*
G01*
G37*
G36*
G01*
X117023442Y-82848746D02*
X117541080Y-80916895D01*
G75*
G02*
X117847266Y-80740119I241481J-64705D01*
G01*
X119827414Y-81270698D01*
G75*
G02*
X120004190Y-81576884I-64705J-241481D01*
G01*
X119486552Y-83508735D01*
G75*
G02*
X119180366Y-83685511I-241481J64705D01*
G01*
X117200218Y-83154932D01*
G75*
G02*
X117023442Y-82848746I64705J241481D01*
G01*
G37*
G36*
G01*
X112817365Y-74941049D02*
X113335003Y-73009198D01*
G75*
G02*
X113641189Y-72832422I241481J-64705D01*
G01*
X115621337Y-73363001D01*
G75*
G02*
X115798113Y-73669187I-64705J-241481D01*
G01*
X115280475Y-75601038D01*
G75*
G02*
X114974289Y-75777814I-241481J64705D01*
G01*
X112994141Y-75247235D01*
G75*
G02*
X112817365Y-74941049I64705J241481D01*
G01*
G37*
G36*
G01*
X99673442Y-74048746D02*
X100191080Y-72116895D01*
G75*
G02*
X100497266Y-71940119I241481J-64705D01*
G01*
X102477414Y-72470698D01*
G75*
G02*
X102654190Y-72776884I-64705J-241481D01*
G01*
X102136552Y-74708735D01*
G75*
G02*
X101830366Y-74885511I-241481J64705D01*
G01*
X99850218Y-74354932D01*
G75*
G02*
X99673442Y-74048746I64705J241481D01*
G01*
G37*
G36*
G01*
X95442365Y-66141049D02*
X95960003Y-64209198D01*
G75*
G02*
X96266189Y-64032422I241481J-64705D01*
G01*
X98246337Y-64563001D01*
G75*
G02*
X98423113Y-64869187I-64705J-241481D01*
G01*
X97905475Y-66801038D01*
G75*
G02*
X97599289Y-66977814I-241481J64705D01*
G01*
X95619141Y-66447235D01*
G75*
G02*
X95442365Y-66141049I64705J241481D01*
G01*
G37*
G36*
G01*
X82298442Y-65248746D02*
X82816080Y-63316895D01*
G75*
G02*
X83122266Y-63140119I241481J-64705D01*
G01*
X85102414Y-63670698D01*
G75*
G02*
X85279190Y-63976884I-64705J-241481D01*
G01*
X84761552Y-65908735D01*
G75*
G02*
X84455366Y-66085511I-241481J64705D01*
G01*
X82475218Y-65554932D01*
G75*
G02*
X82298442Y-65248746I64705J241481D01*
G01*
G37*
G36*
G01*
X76017365Y-65066049D02*
X76535003Y-63134198D01*
G75*
G02*
X76841189Y-62957422I241481J-64705D01*
G01*
X78821337Y-63488001D01*
G75*
G02*
X78998113Y-63794187I-64705J-241481D01*
G01*
X78480475Y-65726038D01*
G75*
G02*
X78174289Y-65902814I-241481J64705D01*
G01*
X76194141Y-65372235D01*
G75*
G02*
X76017365Y-65066049I64705J241481D01*
G01*
G37*
G36*
G01*
X62873442Y-64173746D02*
X63391080Y-62241895D01*
G75*
G02*
X63697266Y-62065119I241481J-64705D01*
G01*
X65677414Y-62595698D01*
G75*
G02*
X65854190Y-62901884I-64705J-241481D01*
G01*
X65336552Y-64833735D01*
G75*
G02*
X65030366Y-65010511I-241481J64705D01*
G01*
X63050218Y-64479932D01*
G75*
G02*
X62873442Y-64173746I64705J241481D01*
G01*
G37*
G36*
G01*
X56567365Y-64016049D02*
X57085003Y-62084198D01*
G75*
G02*
X57391189Y-61907422I241481J-64705D01*
G01*
X59371337Y-62438001D01*
G75*
G02*
X59548113Y-62744187I-64705J-241481D01*
G01*
X59030475Y-64676038D01*
G75*
G02*
X58724289Y-64852814I-241481J64705D01*
G01*
X56744141Y-64322235D01*
G75*
G02*
X56567365Y-64016049I64705J241481D01*
G01*
G37*
G36*
G01*
X43423442Y-63123746D02*
X43941080Y-61191895D01*
G75*
G02*
X44247266Y-61015119I241481J-64705D01*
G01*
X46227414Y-61545698D01*
G75*
G02*
X46404190Y-61851884I-64705J-241481D01*
G01*
X45886552Y-63783735D01*
G75*
G02*
X45580366Y-63960511I-241481J64705D01*
G01*
X43600218Y-63429932D01*
G75*
G02*
X43423442Y-63123746I64705J241481D01*
G01*
G37*
G36*
G01*
X37140333Y-62890011D02*
X37657971Y-60958160D01*
G75*
G02*
X37964157Y-60781384I241481J-64705D01*
G01*
X39944305Y-61311963D01*
G75*
G02*
X40121081Y-61618149I-64705J-241481D01*
G01*
X39603443Y-63550000D01*
G75*
G02*
X39297257Y-63726776I-241481J64705D01*
G01*
X37317109Y-63196197D01*
G75*
G02*
X37140333Y-62890011I64705J241481D01*
G01*
G37*
G36*
G01*
X23996410Y-61997708D02*
X24514048Y-60065857D01*
G75*
G02*
X24820234Y-59889081I241481J-64705D01*
G01*
X26800382Y-60419660D01*
G75*
G02*
X26977158Y-60725846I-64705J-241481D01*
G01*
X26459520Y-62657697D01*
G75*
G02*
X26153334Y-62834473I-241481J64705D01*
G01*
X24173186Y-62303894D01*
G75*
G02*
X23996410Y-61997708I64705J241481D01*
G01*
G37*
G36*
G01*
X136915138Y-149350116D02*
X137915138Y-147618066D01*
G75*
G02*
X138256644Y-147526560I216506J-125000D01*
G01*
X140031996Y-148551560D01*
G75*
G02*
X140123502Y-148893066I-125000J-216506D01*
G01*
X139123502Y-150625116D01*
G75*
G02*
X138781996Y-150716622I-216506J125000D01*
G01*
X137006644Y-149691622D01*
G75*
G02*
X136915138Y-149350116I125000J216506D01*
G01*
G37*
G36*
G01*
X124450028Y-145086320D02*
X125450028Y-143354270D01*
G75*
G02*
X125791534Y-143262764I216506J-125000D01*
G01*
X127566886Y-144287764D01*
G75*
G02*
X127658392Y-144629270I-125000J-216506D01*
G01*
X126658392Y-146361320D01*
G75*
G02*
X126316886Y-146452826I-216506J125000D01*
G01*
X124541534Y-145427826D01*
G75*
G02*
X124450028Y-145086320I125000J216506D01*
G01*
G37*
G36*
G01*
X166595138Y-144783116D02*
X165595138Y-143051066D01*
G75*
G02*
X165686644Y-142709560I216506J125000D01*
G01*
X167461996Y-141684560D01*
G75*
G02*
X167803502Y-141776066I125000J-216506D01*
G01*
X168803502Y-143508116D01*
G75*
G02*
X168711996Y-143849622I-216506J-125000D01*
G01*
X166936644Y-144874622D01*
G75*
G02*
X166595138Y-144783116I-125000J216506D01*
G01*
G37*
G36*
G01*
X156670028Y-153446320D02*
X155670028Y-151714270D01*
G75*
G02*
X155761534Y-151372764I216506J125000D01*
G01*
X157536886Y-150347764D01*
G75*
G02*
X157878392Y-150439270I125000J-216506D01*
G01*
X158878392Y-152171320D01*
G75*
G02*
X158786886Y-152512826I-216506J-125000D01*
G01*
X157011534Y-153537826D01*
G75*
G02*
X156670028Y-153446320I-125000J216506D01*
G01*
G37*
M02*
