G04 #@! TF.GenerationSoftware,KiCad,Pcbnew,(5.1.12-1-10_14)*
G04 #@! TF.CreationDate,2022-10-16T17:34:36-04:00*
G04 #@! TF.ProjectId,ergo3by6plus3nonSplit,6572676f-3362-4793-9670-6c7573336e6f,rev?*
G04 #@! TF.SameCoordinates,Original*
G04 #@! TF.FileFunction,Soldermask,Top*
G04 #@! TF.FilePolarity,Negative*
%FSLAX46Y46*%
G04 Gerber Fmt 4.6, Leading zero omitted, Abs format (unit mm)*
G04 Created by KiCad (PCBNEW (5.1.12-1-10_14)) date 2022-10-16 17:34:36*
%MOMM*%
%LPD*%
G01*
G04 APERTURE LIST*
%ADD10R,1.550000X1.300000*%
%ADD11C,0.100000*%
%ADD12C,1.750000*%
%ADD13C,4.000000*%
%ADD14C,3.050000*%
G04 APERTURE END LIST*
D10*
X151760000Y-119650000D03*
X151760000Y-115150000D03*
X143800000Y-115150000D03*
X143800000Y-119650000D03*
D11*
G36*
X214714403Y-145948973D02*
G01*
X214403820Y-144789862D01*
X215273153Y-144556925D01*
X215583736Y-145716036D01*
X214714403Y-145948973D01*
G37*
G36*
X211526847Y-146803075D02*
G01*
X211216264Y-145643964D01*
X212085597Y-145411027D01*
X212396180Y-146570138D01*
X211526847Y-146803075D01*
G37*
G36*
X195904403Y-150968973D02*
G01*
X195593820Y-149809862D01*
X196463153Y-149576925D01*
X196773736Y-150736036D01*
X195904403Y-150968973D01*
G37*
G36*
X192716847Y-151823075D02*
G01*
X192406264Y-150663964D01*
X193275597Y-150431027D01*
X193586180Y-151590138D01*
X192716847Y-151823075D01*
G37*
G36*
X175929231Y-155959615D02*
G01*
X175329231Y-154920385D01*
X176108653Y-154470385D01*
X176708653Y-155509615D01*
X175929231Y-155959615D01*
G37*
G36*
X173071347Y-157609615D02*
G01*
X172471347Y-156570385D01*
X173250769Y-156120385D01*
X173850769Y-157159615D01*
X173071347Y-157609615D01*
G37*
G36*
X131499231Y-163069615D02*
G01*
X132099231Y-162030385D01*
X132878653Y-162480385D01*
X132278653Y-163519615D01*
X131499231Y-163069615D01*
G37*
G36*
X128641347Y-161419615D02*
G01*
X129241347Y-160380385D01*
X130020769Y-160830385D01*
X129420769Y-161869615D01*
X128641347Y-161419615D01*
G37*
G36*
X114643820Y-154900138D02*
G01*
X114954403Y-153741027D01*
X115823736Y-153973964D01*
X115513153Y-155133075D01*
X114643820Y-154900138D01*
G37*
G36*
X111456264Y-154046036D02*
G01*
X111766847Y-152886925D01*
X112636180Y-153119862D01*
X112325597Y-154278973D01*
X111456264Y-154046036D01*
G37*
G36*
X95993820Y-150020138D02*
G01*
X96304403Y-148861027D01*
X97173736Y-149093964D01*
X96863153Y-150253075D01*
X95993820Y-150020138D01*
G37*
G36*
X92806264Y-149166036D02*
G01*
X93116847Y-148006925D01*
X93986180Y-148239862D01*
X93675597Y-149398973D01*
X92806264Y-149166036D01*
G37*
G36*
X283334403Y-109218973D02*
G01*
X283023820Y-108059862D01*
X283893153Y-107826925D01*
X284203736Y-108986036D01*
X283334403Y-109218973D01*
G37*
G36*
X280146847Y-110073075D02*
G01*
X279836264Y-108913964D01*
X280705597Y-108681027D01*
X281016180Y-109840138D01*
X280146847Y-110073075D01*
G37*
G36*
X263224403Y-110418973D02*
G01*
X262913820Y-109259862D01*
X263783153Y-109026925D01*
X264093736Y-110186036D01*
X263224403Y-110418973D01*
G37*
G36*
X260036847Y-111273075D02*
G01*
X259726264Y-110113964D01*
X260595597Y-109881027D01*
X260906180Y-111040138D01*
X260036847Y-111273075D01*
G37*
G36*
X244804403Y-111368973D02*
G01*
X244493820Y-110209862D01*
X245363153Y-109976925D01*
X245673736Y-111136036D01*
X244804403Y-111368973D01*
G37*
G36*
X241616847Y-112223075D02*
G01*
X241306264Y-111063964D01*
X242175597Y-110831027D01*
X242486180Y-111990138D01*
X241616847Y-112223075D01*
G37*
G36*
X224704403Y-112628973D02*
G01*
X224393820Y-111469862D01*
X225263153Y-111236925D01*
X225573736Y-112396036D01*
X224704403Y-112628973D01*
G37*
G36*
X221516847Y-113483075D02*
G01*
X221206264Y-112323964D01*
X222075597Y-112091027D01*
X222386180Y-113250138D01*
X221516847Y-113483075D01*
G37*
G36*
X208024403Y-121798973D02*
G01*
X207713820Y-120639862D01*
X208583153Y-120406925D01*
X208893736Y-121566036D01*
X208024403Y-121798973D01*
G37*
G36*
X204836847Y-122653075D02*
G01*
X204526264Y-121493964D01*
X205395597Y-121261027D01*
X205706180Y-122420138D01*
X204836847Y-122653075D01*
G37*
G36*
X190364403Y-130778973D02*
G01*
X190053820Y-129619862D01*
X190923153Y-129386925D01*
X191233736Y-130546036D01*
X190364403Y-130778973D01*
G37*
G36*
X187176847Y-131633075D02*
G01*
X186866264Y-130473964D01*
X187735597Y-130241027D01*
X188046180Y-131400138D01*
X187176847Y-131633075D01*
G37*
G36*
X118843820Y-134430138D02*
G01*
X119154403Y-133271027D01*
X120023736Y-133503964D01*
X119713153Y-134663075D01*
X118843820Y-134430138D01*
G37*
G36*
X115656264Y-133576036D02*
G01*
X115966847Y-132416925D01*
X116836180Y-132649862D01*
X116525597Y-133808973D01*
X115656264Y-133576036D01*
G37*
G36*
X102583820Y-125730138D02*
G01*
X102894403Y-124571027D01*
X103763736Y-124803964D01*
X103453153Y-125963075D01*
X102583820Y-125730138D01*
G37*
G36*
X99396264Y-124876036D02*
G01*
X99706847Y-123716925D01*
X100576180Y-123949862D01*
X100265597Y-125108973D01*
X99396264Y-124876036D01*
G37*
G36*
X85183820Y-116260138D02*
G01*
X85494403Y-115101027D01*
X86363736Y-115333964D01*
X86053153Y-116493075D01*
X85183820Y-116260138D01*
G37*
G36*
X81996264Y-115406036D02*
G01*
X82306847Y-114246925D01*
X83176180Y-114479862D01*
X82865597Y-115638973D01*
X81996264Y-115406036D01*
G37*
G36*
X65473820Y-115110138D02*
G01*
X65784403Y-113951027D01*
X66653736Y-114183964D01*
X66343153Y-115343075D01*
X65473820Y-115110138D01*
G37*
G36*
X62286264Y-114256036D02*
G01*
X62596847Y-113096925D01*
X63466180Y-113329862D01*
X63155597Y-114488973D01*
X62286264Y-114256036D01*
G37*
G36*
X45873820Y-113960138D02*
G01*
X46184403Y-112801027D01*
X47053736Y-113033964D01*
X46743153Y-114193075D01*
X45873820Y-113960138D01*
G37*
G36*
X42686264Y-113106036D02*
G01*
X42996847Y-111946925D01*
X43866180Y-112179862D01*
X43555597Y-113338973D01*
X42686264Y-113106036D01*
G37*
G36*
X26263820Y-112810138D02*
G01*
X26574403Y-111651027D01*
X27443736Y-111883964D01*
X27133153Y-113043075D01*
X26263820Y-112810138D01*
G37*
G36*
X23076264Y-111956036D02*
G01*
X23386847Y-110796925D01*
X24256180Y-111029862D01*
X23945597Y-112188973D01*
X23076264Y-111956036D01*
G37*
G36*
X278774403Y-91588973D02*
G01*
X278463820Y-90429862D01*
X279333153Y-90196925D01*
X279643736Y-91356036D01*
X278774403Y-91588973D01*
G37*
G36*
X275586847Y-92443075D02*
G01*
X275276264Y-91283964D01*
X276145597Y-91051027D01*
X276456180Y-92210138D01*
X275586847Y-92443075D01*
G37*
G36*
X258874403Y-92458973D02*
G01*
X258563820Y-91299862D01*
X259433153Y-91066925D01*
X259743736Y-92226036D01*
X258874403Y-92458973D01*
G37*
G36*
X255686847Y-93313075D02*
G01*
X255376264Y-92153964D01*
X256245597Y-91921027D01*
X256556180Y-93080138D01*
X255686847Y-93313075D01*
G37*
G36*
X239264403Y-93618973D02*
G01*
X238953820Y-92459862D01*
X239823153Y-92226925D01*
X240133736Y-93386036D01*
X239264403Y-93618973D01*
G37*
G36*
X236076847Y-94473075D02*
G01*
X235766264Y-93313964D01*
X236635597Y-93081027D01*
X236946180Y-94240138D01*
X236076847Y-94473075D01*
G37*
G36*
X219944403Y-94578973D02*
G01*
X219633820Y-93419862D01*
X220503153Y-93186925D01*
X220813736Y-94346036D01*
X219944403Y-94578973D01*
G37*
G36*
X216756847Y-95433075D02*
G01*
X216446264Y-94273964D01*
X217315597Y-94041027D01*
X217626180Y-95200138D01*
X216756847Y-95433075D01*
G37*
G36*
X202464403Y-103568973D02*
G01*
X202153820Y-102409862D01*
X203023153Y-102176925D01*
X203333736Y-103336036D01*
X202464403Y-103568973D01*
G37*
G36*
X199276847Y-104423075D02*
G01*
X198966264Y-103263964D01*
X199835597Y-103031027D01*
X200146180Y-104190138D01*
X199276847Y-104423075D01*
G37*
G36*
X185274403Y-112258973D02*
G01*
X184963820Y-111099862D01*
X185833153Y-110866925D01*
X186143736Y-112026036D01*
X185274403Y-112258973D01*
G37*
G36*
X182086847Y-113113075D02*
G01*
X181776264Y-111953964D01*
X182645597Y-111721027D01*
X182956180Y-112880138D01*
X182086847Y-113113075D01*
G37*
G36*
X123683820Y-115720138D02*
G01*
X123994403Y-114561027D01*
X124863736Y-114793964D01*
X124553153Y-115953075D01*
X123683820Y-115720138D01*
G37*
G36*
X120496264Y-114866036D02*
G01*
X120806847Y-113706925D01*
X121676180Y-113939862D01*
X121365597Y-115098973D01*
X120496264Y-114866036D01*
G37*
G36*
X106583820Y-107040138D02*
G01*
X106894403Y-105881027D01*
X107763736Y-106113964D01*
X107453153Y-107273075D01*
X106583820Y-107040138D01*
G37*
G36*
X103396264Y-106186036D02*
G01*
X103706847Y-105026925D01*
X104576180Y-105259862D01*
X104265597Y-106418973D01*
X103396264Y-106186036D01*
G37*
G36*
X89343820Y-98460138D02*
G01*
X89654403Y-97301027D01*
X90523736Y-97533964D01*
X90213153Y-98693075D01*
X89343820Y-98460138D01*
G37*
G36*
X86156264Y-97606036D02*
G01*
X86466847Y-96446925D01*
X87336180Y-96679862D01*
X87025597Y-97838973D01*
X86156264Y-97606036D01*
G37*
G36*
X69693820Y-97170138D02*
G01*
X70004403Y-96011027D01*
X70873736Y-96243964D01*
X70563153Y-97403075D01*
X69693820Y-97170138D01*
G37*
G36*
X66506264Y-96316036D02*
G01*
X66816847Y-95156925D01*
X67686180Y-95389862D01*
X67375597Y-96548973D01*
X66506264Y-96316036D01*
G37*
G36*
X50303820Y-96140138D02*
G01*
X50614403Y-94981027D01*
X51483736Y-95213964D01*
X51173153Y-96373075D01*
X50303820Y-96140138D01*
G37*
G36*
X47116264Y-95286036D02*
G01*
X47426847Y-94126925D01*
X48296180Y-94359862D01*
X47985597Y-95518973D01*
X47116264Y-95286036D01*
G37*
G36*
X31083820Y-95110138D02*
G01*
X31394403Y-93951027D01*
X32263736Y-94183964D01*
X31953153Y-95343075D01*
X31083820Y-95110138D01*
G37*
G36*
X27896264Y-94256036D02*
G01*
X28206847Y-93096925D01*
X29076180Y-93329862D01*
X28765597Y-94488973D01*
X27896264Y-94256036D01*
G37*
G36*
X273654403Y-72748973D02*
G01*
X273343820Y-71589862D01*
X274213153Y-71356925D01*
X274523736Y-72516036D01*
X273654403Y-72748973D01*
G37*
G36*
X270466847Y-73603075D02*
G01*
X270156264Y-72443964D01*
X271025597Y-72211027D01*
X271336180Y-73370138D01*
X270466847Y-73603075D01*
G37*
G36*
X254234403Y-74108973D02*
G01*
X253923820Y-72949862D01*
X254793153Y-72716925D01*
X255103736Y-73876036D01*
X254234403Y-74108973D01*
G37*
G36*
X251046847Y-74963075D02*
G01*
X250736264Y-73803964D01*
X251605597Y-73571027D01*
X251916180Y-74730138D01*
X251046847Y-74963075D01*
G37*
G36*
X234924403Y-74968973D02*
G01*
X234613820Y-73809862D01*
X235483153Y-73576925D01*
X235793736Y-74736036D01*
X234924403Y-74968973D01*
G37*
G36*
X231736847Y-75823075D02*
G01*
X231426264Y-74663964D01*
X232295597Y-74431027D01*
X232606180Y-75590138D01*
X231736847Y-75823075D01*
G37*
G36*
X215214403Y-76328973D02*
G01*
X214903820Y-75169862D01*
X215773153Y-74936925D01*
X216083736Y-76096036D01*
X215214403Y-76328973D01*
G37*
G36*
X212026847Y-77183075D02*
G01*
X211716264Y-76023964D01*
X212585597Y-75791027D01*
X212896180Y-76950138D01*
X212026847Y-77183075D01*
G37*
G36*
X197924403Y-85018973D02*
G01*
X197613820Y-83859862D01*
X198483153Y-83626925D01*
X198793736Y-84786036D01*
X197924403Y-85018973D01*
G37*
G36*
X194736847Y-85873075D02*
G01*
X194426264Y-84713964D01*
X195295597Y-84481027D01*
X195606180Y-85640138D01*
X194736847Y-85873075D01*
G37*
G36*
X180154403Y-93618973D02*
G01*
X179843820Y-92459862D01*
X180713153Y-92226925D01*
X181023736Y-93386036D01*
X180154403Y-93618973D01*
G37*
G36*
X176966847Y-94473075D02*
G01*
X176656264Y-93313964D01*
X177525597Y-93081027D01*
X177836180Y-94240138D01*
X176966847Y-94473075D01*
G37*
G36*
X128633820Y-97430138D02*
G01*
X128944403Y-96271027D01*
X129813736Y-96503964D01*
X129503153Y-97663075D01*
X128633820Y-97430138D01*
G37*
G36*
X125446264Y-96576036D02*
G01*
X125756847Y-95416925D01*
X126626180Y-95649862D01*
X126315597Y-96808973D01*
X125446264Y-96576036D01*
G37*
G36*
X111393820Y-88590138D02*
G01*
X111704403Y-87431027D01*
X112573736Y-87663964D01*
X112263153Y-88823075D01*
X111393820Y-88590138D01*
G37*
G36*
X108206264Y-87736036D02*
G01*
X108516847Y-86576925D01*
X109386180Y-86809862D01*
X109075597Y-87968973D01*
X108206264Y-87736036D01*
G37*
G36*
X94573820Y-80010138D02*
G01*
X94884403Y-78851027D01*
X95753736Y-79083964D01*
X95443153Y-80243075D01*
X94573820Y-80010138D01*
G37*
G36*
X91386264Y-79156036D02*
G01*
X91696847Y-77996925D01*
X92566180Y-78229862D01*
X92255597Y-79388973D01*
X91386264Y-79156036D01*
G37*
G36*
X74493820Y-78810138D02*
G01*
X74804403Y-77651027D01*
X75673736Y-77883964D01*
X75363153Y-79043075D01*
X74493820Y-78810138D01*
G37*
G36*
X71306264Y-77956036D02*
G01*
X71616847Y-76796925D01*
X72486180Y-77029862D01*
X72175597Y-78188973D01*
X71306264Y-77956036D01*
G37*
G36*
X55003820Y-77780138D02*
G01*
X55314403Y-76621027D01*
X56183736Y-76853964D01*
X55873153Y-78013075D01*
X55003820Y-77780138D01*
G37*
G36*
X51816264Y-76926036D02*
G01*
X52126847Y-75766925D01*
X52996180Y-75999862D01*
X52685597Y-77158973D01*
X51816264Y-76926036D01*
G37*
G36*
X35513820Y-76510138D02*
G01*
X35824403Y-75351027D01*
X36693736Y-75583964D01*
X36383153Y-76743075D01*
X35513820Y-76510138D01*
G37*
G36*
X32326264Y-75656036D02*
G01*
X32636847Y-74496925D01*
X33506180Y-74729862D01*
X33195597Y-75888973D01*
X32326264Y-75656036D01*
G37*
D12*
X114656903Y-145739801D03*
X104843097Y-143110199D03*
D13*
X109750000Y-144425000D03*
D14*
X113518252Y-140175497D03*
X106727223Y-140985448D03*
D12*
X209176903Y-138175199D03*
X199363097Y-140804801D03*
D13*
X204270000Y-139490000D03*
D14*
X205408651Y-133925696D03*
X199932422Y-138022649D03*
D12*
X190756903Y-143105199D03*
X180943097Y-145734801D03*
D13*
X185850000Y-144420000D03*
D14*
X186988651Y-138855696D03*
X181512422Y-142952649D03*
D12*
X96256903Y-140804801D03*
X86443097Y-138175199D03*
D13*
X91350000Y-139490000D03*
D14*
X95118252Y-135240497D03*
X88327223Y-136050448D03*
D12*
X278686903Y-101145199D03*
X268873097Y-103774801D03*
D13*
X273780000Y-102460000D03*
D14*
X274918651Y-96895696D03*
X269442422Y-100992649D03*
D12*
X259266903Y-102255199D03*
X249453097Y-104884801D03*
D13*
X254360000Y-103570000D03*
D14*
X255498651Y-98005696D03*
X250022422Y-102102649D03*
D12*
X239846903Y-103315199D03*
X230033097Y-105944801D03*
D13*
X234940000Y-104630000D03*
D14*
X236078651Y-99065696D03*
X230602422Y-103162649D03*
D12*
X220381903Y-104385199D03*
X210568097Y-107014801D03*
D13*
X215475000Y-105700000D03*
D14*
X216613651Y-100135696D03*
X211137422Y-104232649D03*
D12*
X203031903Y-113175199D03*
X193218097Y-115804801D03*
D13*
X198125000Y-114490000D03*
D14*
X199263651Y-108925696D03*
X193787422Y-113022649D03*
D12*
X185676903Y-121965199D03*
X175863097Y-124594801D03*
D13*
X180770000Y-123280000D03*
D14*
X181908651Y-117715696D03*
X176432422Y-121812649D03*
D12*
X119756903Y-124614801D03*
X109943097Y-121985199D03*
D13*
X114850000Y-123300000D03*
D14*
X118618252Y-119050497D03*
X111827223Y-119860448D03*
D12*
X102386903Y-115824801D03*
X92573097Y-113195199D03*
D13*
X97480000Y-114510000D03*
D14*
X101248252Y-110260497D03*
X94457223Y-111070448D03*
D12*
X85031903Y-107014801D03*
X75218097Y-104385199D03*
D13*
X80125000Y-105700000D03*
D14*
X83893252Y-101450497D03*
X77102223Y-102260448D03*
D12*
X65596903Y-105944801D03*
X55783097Y-103315199D03*
D13*
X60690000Y-104630000D03*
D14*
X64458252Y-100380497D03*
X57667223Y-101190448D03*
D12*
X46166903Y-104884801D03*
X36353097Y-102255199D03*
D13*
X41260000Y-103570000D03*
D14*
X45028252Y-99320497D03*
X38237223Y-100130448D03*
D12*
X26731903Y-103764801D03*
X16918097Y-101135199D03*
D13*
X21825000Y-102450000D03*
D14*
X25593252Y-98200497D03*
X18802223Y-99010448D03*
D12*
X273766903Y-82735199D03*
X263953097Y-85364801D03*
D13*
X268860000Y-84050000D03*
D14*
X269998651Y-78485696D03*
X264522422Y-82582649D03*
D12*
X254306903Y-83810199D03*
X244493097Y-86439801D03*
D13*
X249400000Y-85125000D03*
D14*
X250538651Y-79560696D03*
X245062422Y-83657649D03*
D12*
X234906903Y-84910199D03*
X225093097Y-87539801D03*
D13*
X230000000Y-86225000D03*
D14*
X231138651Y-80660696D03*
X225662422Y-84757649D03*
D12*
X215456903Y-86010199D03*
X205643097Y-88639801D03*
D13*
X210550000Y-87325000D03*
D14*
X211688651Y-81760696D03*
X206212422Y-85857649D03*
D12*
X198106903Y-94785199D03*
X188293097Y-97414801D03*
D13*
X193200000Y-96100000D03*
D14*
X194338651Y-90535696D03*
X188862422Y-94632649D03*
D12*
X180736903Y-103575199D03*
X170923097Y-106204801D03*
D13*
X175830000Y-104890000D03*
D14*
X176968651Y-99325696D03*
X171492422Y-103422649D03*
D12*
X124686903Y-106204801D03*
X114873097Y-103575199D03*
D13*
X119780000Y-104890000D03*
D14*
X123548252Y-100640497D03*
X116757223Y-101450448D03*
D12*
X107331903Y-97414801D03*
X97518097Y-94785199D03*
D13*
X102425000Y-96100000D03*
D14*
X106193252Y-91850497D03*
X99402223Y-92660448D03*
D12*
X89956903Y-88639801D03*
X80143097Y-86010199D03*
D13*
X85050000Y-87325000D03*
D14*
X88818252Y-83075497D03*
X82027223Y-83885448D03*
D12*
X70506903Y-87539801D03*
X60693097Y-84910199D03*
D13*
X65600000Y-86225000D03*
D14*
X69368252Y-81975497D03*
X62577223Y-82785448D03*
D12*
X51089680Y-86484353D03*
X41275874Y-83854751D03*
D13*
X46182777Y-85169552D03*
D14*
X49951029Y-80920049D03*
X43160000Y-81730000D03*
D12*
X31656903Y-85364801D03*
X21843097Y-82735199D03*
D13*
X26750000Y-84050000D03*
D14*
X30518252Y-79800497D03*
X23727223Y-80610448D03*
D12*
X268831903Y-64335199D03*
X259018097Y-66964801D03*
D13*
X263925000Y-65650000D03*
D14*
X265063651Y-60085696D03*
X259587422Y-64182649D03*
D12*
X249431903Y-65435199D03*
X239618097Y-68064801D03*
D13*
X244525000Y-66750000D03*
D14*
X245663651Y-61185696D03*
X240187422Y-65282649D03*
D12*
X229956903Y-66510199D03*
X220143097Y-69139801D03*
D13*
X225050000Y-67825000D03*
D14*
X226188651Y-62260696D03*
X220712422Y-66357649D03*
D12*
X210531903Y-67585199D03*
X200718097Y-70214801D03*
D13*
X205625000Y-68900000D03*
D14*
X206763651Y-63335696D03*
X201287422Y-67432649D03*
D12*
X193176903Y-76385199D03*
X183363097Y-79014801D03*
D13*
X188270000Y-77700000D03*
D14*
X189408651Y-72135696D03*
X183932422Y-76232649D03*
D12*
X175806903Y-85175199D03*
X165993097Y-87804801D03*
D13*
X170900000Y-86490000D03*
D14*
X172038651Y-80925696D03*
X166562422Y-85022649D03*
D12*
X129606903Y-87814801D03*
X119793097Y-85185199D03*
D13*
X124700000Y-86500000D03*
D14*
X128468252Y-82250497D03*
X121677223Y-83060448D03*
D12*
X112256903Y-79014801D03*
X102443097Y-76385199D03*
D13*
X107350000Y-77700000D03*
D14*
X111118252Y-73450497D03*
X104327223Y-74260448D03*
D12*
X94881903Y-70214801D03*
X85068097Y-67585199D03*
D13*
X89975000Y-68900000D03*
D14*
X93743252Y-64650497D03*
X86952223Y-65460448D03*
D12*
X75456903Y-69139801D03*
X65643097Y-66510199D03*
D13*
X70550000Y-67825000D03*
D14*
X74318252Y-63575497D03*
X67527223Y-64385448D03*
D12*
X56006903Y-68089801D03*
X46193097Y-65460199D03*
D13*
X51100000Y-66775000D03*
D14*
X54868252Y-62525497D03*
X48077223Y-63335448D03*
D12*
X36579871Y-66963763D03*
X26766065Y-64334161D03*
D13*
X31672968Y-65648962D03*
D14*
X35441220Y-61399459D03*
X28650191Y-62209410D03*
D12*
X135319409Y-153140000D03*
X126520591Y-148060000D03*
D13*
X130920000Y-150600000D03*
D14*
X135659705Y-147470591D03*
X128890443Y-146495295D03*
D12*
X169079409Y-148060000D03*
X160280591Y-153140000D03*
D13*
X164680000Y-150600000D03*
D14*
X164339705Y-144930591D03*
X160110443Y-150305295D03*
M02*
